<svg id="svg" version="1.1" xmlns="http://www.w3.org/2000/svg" xmlns:xlink="http://www.w3.org/1999/xlink" width="400" height="400" viewBox="0, 0, 400,400"><g id="svgg"><path id="path0" d="M193.670 106.808 C 189.932 107.548,186.099 110.074,183.667 113.400 C 181.776 115.986,180.587 118.715,166.545 152.700 L 152.084 187.700 140.092 187.800 L 128.100 187.901 126.752 188.425 C 118.509 191.629,116.067 201.387,121.948 207.621 C 125.083 210.944,126.721 211.400,135.532 211.400 C 139.089 211.400,142.000 211.437,142.000 211.483 C 142.000 211.529,135.834 226.467,128.298 244.679 C 112.726 282.312,113.444 280.258,114.299 284.727 C 116.444 295.940,131.312 297.380,136.763 286.903 C 137.050 286.351,144.041 269.160,152.300 248.700 L 167.315 211.500 178.808 211.397 C 189.982 211.298,190.336 211.283,191.600 210.855 C 202.565 207.142,202.565 191.835,191.600 188.153 C 190.401 187.750,189.788 187.708,183.698 187.608 L 177.096 187.500 188.498 159.074 C 194.769 143.439,199.959 130.749,200.032 130.874 C 200.104 130.998,214.132 165.840,231.204 208.300 C 248.277 250.760,262.471 285.950,262.746 286.500 C 268.016 297.011,282.495 296.241,285.302 285.300 C 285.673 283.852,285.729 280.023,285.397 278.789 C 285.268 278.311,273.193 248.980,258.562 213.610 C 243.932 178.239,229.081 142.325,225.561 133.800 C 216.782 112.540,215.705 110.781,209.779 108.007 C 206.983 106.699,197.710 106.009,193.670 106.808 " stroke="none" fill="#fbfbfb" fill-rule="evenodd"></path><path id="path1" d="M191.370 6.097 C 191.327 6.140,190.708 6.188,189.995 6.204 C 189.283 6.219,188.229 6.321,187.654 6.429 L 186.608 6.627 189.454 10.034 C 191.019 11.907,194.505 16.074,197.200 19.292 C 199.895 22.511,204.755 28.321,208.000 32.204 C 211.245 36.087,216.060 41.848,218.700 45.005 C 230.722 59.385,235.637 65.265,240.100 70.605 C 242.740 73.764,247.420 79.363,250.500 83.046 C 253.580 86.730,258.485 92.599,261.400 96.088 C 264.315 99.578,269.130 105.337,272.100 108.888 C 275.070 112.439,279.885 118.199,282.800 121.688 C 285.715 125.177,290.530 130.938,293.500 134.490 C 296.470 138.042,301.285 143.802,304.200 147.290 C 307.115 150.778,311.930 156.538,314.900 160.090 C 317.870 163.642,322.685 169.401,325.600 172.888 C 328.515 176.376,333.330 182.136,336.300 185.688 C 339.270 189.240,344.085 195.001,347.000 198.489 C 349.915 201.978,354.730 207.738,357.700 211.290 C 360.670 214.842,365.485 220.601,368.400 224.089 C 371.315 227.576,376.130 233.335,379.100 236.885 C 388.020 247.549,388.039 247.573,387.885 247.845 C 387.778 248.034,387.803 248.043,387.981 247.880 C 388.113 247.758,388.255 247.398,388.297 247.080 C 388.338 246.761,388.385 246.500,388.401 246.500 C 388.417 246.500,388.465 246.312,388.509 246.083 C 388.552 245.853,388.812 244.773,389.085 243.683 C 393.448 226.306,395.100 202.183,393.283 182.400 C 384.454 86.296,307.070 11.699,210.500 6.199 C 207.127 6.007,191.543 5.924,191.370 6.097 " stroke="none" fill="#a55da3" fill-rule="evenodd"></path><path id="path2" d="M91.819 38.795 C 91.225 39.225,90.663 39.694,90.572 39.838 C 90.481 39.982,90.405 40.028,90.403 39.940 C 90.400 39.797,88.643 40.898,88.400 41.196 C 88.345 41.263,87.411 41.934,86.324 42.687 C 59.149 61.511,34.040 93.192,20.848 125.300 C 19.198 129.316,16.299 137.062,16.096 138.000 C 16.060 138.165,16.012 138.322,15.990 138.350 C 15.968 138.378,15.939 138.566,15.925 138.769 C 15.911 138.972,15.786 139.276,15.647 139.444 C 15.507 139.612,15.449 139.896,15.518 140.075 C 15.587 140.254,15.546 140.400,15.428 140.400 C 15.309 140.400,15.261 140.526,15.320 140.680 C 15.379 140.834,15.331 141.019,15.214 141.092 C 14.748 141.379,15.174 141.970,19.950 147.665 C 22.672 150.911,27.285 156.421,30.200 159.910 C 33.115 163.398,37.930 169.158,40.900 172.710 C 43.870 176.261,48.685 182.021,51.600 185.509 C 54.515 188.998,59.330 194.757,62.300 198.307 C 65.270 201.857,70.085 207.617,73.000 211.107 C 75.915 214.597,80.730 220.357,83.700 223.907 C 86.670 227.457,91.485 233.217,94.400 236.706 C 100.140 243.577,107.941 252.906,114.875 261.190 C 117.282 264.064,119.274 266.390,119.304 266.358 C 119.379 266.276,142.000 211.583,142.000 211.483 C 142.000 211.437,139.089 211.400,135.532 211.400 C 126.721 211.400,125.083 210.944,121.948 207.621 C 116.067 201.387,118.509 191.629,126.752 188.425 L 128.100 187.901 140.092 187.800 L 152.083 187.700 163.037 161.200 C 175.521 130.996,174.259 134.074,174.089 134.244 C 174.016 134.317,172.729 132.907,171.228 131.111 C 169.728 129.315,166.115 124.990,163.200 121.500 C 160.285 118.010,155.470 112.249,152.500 108.699 C 149.530 105.149,144.715 99.390,141.800 95.902 C 138.885 92.413,134.070 86.653,131.100 83.101 C 128.130 79.549,123.315 73.789,120.400 70.301 C 111.482 59.630,104.550 51.343,99.000 44.718 C 96.085 41.238,93.670 38.303,93.633 38.195 C 93.504 37.818,92.889 38.021,91.819 38.795 M183.780 170.839 L 177.097 187.500 183.699 187.608 C 189.788 187.708,190.401 187.750,191.600 188.153 C 202.565 191.835,202.565 207.142,191.600 210.855 C 190.336 211.283,189.982 211.298,178.808 211.397 L 167.315 211.500 152.301 248.700 C 144.043 269.160,137.132 286.189,136.943 286.542 L 136.598 287.183 138.829 289.842 C 140.056 291.304,141.384 292.895,141.780 293.377 C 142.176 293.860,144.930 297.160,147.900 300.711 C 150.870 304.262,155.685 310.022,158.600 313.510 C 161.515 316.998,166.330 322.757,169.300 326.308 C 172.270 329.858,177.085 335.618,180.000 339.108 C 182.915 342.598,187.730 348.358,190.700 351.908 C 193.670 355.458,198.485 361.219,201.400 364.709 C 207.230 371.691,215.746 381.869,221.008 388.145 C 222.874 390.370,224.400 392.292,224.400 392.416 C 224.400 392.553,224.539 392.586,224.750 392.500 C 225.139 392.342,225.763 392.244,227.400 392.086 C 230.174 391.818,239.627 390.089,243.800 389.086 C 276.683 381.187,305.055 366.461,329.493 344.609 C 332.688 341.751,338.813 335.728,339.466 334.800 C 339.660 334.525,339.759 334.435,339.687 334.600 C 339.615 334.765,339.781 334.632,340.055 334.305 L 340.554 333.711 339.827 332.807 C 339.427 332.310,336.940 329.325,334.300 326.175 C 331.660 323.024,326.890 317.321,323.700 313.502 C 320.510 309.682,315.695 303.922,313.000 300.701 C 310.305 297.480,305.490 291.720,302.300 287.901 C 296.829 281.351,293.466 277.330,281.822 263.418 C 279.139 260.212,276.910 257.623,276.869 257.664 C 276.790 257.744,278.212 261.231,278.393 261.400 C 278.452 261.455,278.529 261.635,278.564 261.800 C 278.600 261.965,280.101 265.666,281.900 270.024 C 285.718 279.275,285.634 279.007,285.620 281.879 C 285.556 295.430,268.744 298.666,262.656 286.300 C 262.331 285.640,254.293 265.750,244.793 242.100 C 235.293 218.450,227.471 199.055,227.410 199.000 C 227.350 198.945,227.269 198.720,227.230 198.500 C 227.192 198.280,227.071 198.045,226.963 197.978 C 226.855 197.910,226.774 197.798,226.783 197.728 C 226.844 197.274,226.775 196.992,226.627 197.083 C 226.532 197.142,225.474 196.012,224.277 194.573 C 223.080 193.133,219.670 189.050,216.700 185.499 C 213.730 181.948,208.915 176.188,206.000 172.700 C 195.044 159.587,190.944 154.692,190.707 154.439 C 190.512 154.230,189.118 157.531,183.780 170.839 " stroke="none" fill="#6291b6" fill-rule="evenodd"></path><path id="path3" d="M185.160 6.507 C 185.114 6.553,184.227 6.638,183.188 6.696 C 160.366 7.978,130.530 16.878,107.800 29.185 C 103.456 31.536,96.357 35.744,96.233 36.040 C 96.197 36.128,96.039 36.200,95.883 36.200 C 95.728 36.200,95.600 36.290,95.600 36.400 C 95.600 36.510,95.506 36.600,95.392 36.600 C 94.891 36.600,93.253 37.905,93.475 38.127 C 93.599 38.250,96.085 41.207,99.000 44.698 C 101.915 48.189,106.730 53.950,109.700 57.502 C 112.670 61.053,117.485 66.813,120.400 70.301 C 123.315 73.789,128.130 79.549,131.100 83.101 C 134.070 86.653,138.885 92.413,141.800 95.902 C 144.715 99.390,149.530 105.149,152.500 108.699 C 155.470 112.249,160.285 118.010,163.200 121.500 C 166.115 124.990,169.738 129.327,171.251 131.138 L 174.002 134.429 174.421 133.465 C 174.652 132.934,176.230 129.170,177.927 125.100 C 183.093 112.710,185.593 109.500,191.767 107.328 L 193.500 106.718 199.344 106.643 C 209.791 106.509,213.848 108.646,218.255 116.600 C 218.652 117.315,229.995 144.540,243.464 177.100 C 256.932 209.660,269.100 239.045,270.503 242.400 C 271.907 245.755,273.672 250.005,274.427 251.844 C 275.182 253.684,276.020 255.685,276.288 256.292 C 276.624 257.052,278.318 259.236,281.738 263.320 C 289.491 272.577,295.996 280.353,302.300 287.901 C 305.490 291.720,310.305 297.480,313.000 300.701 C 315.695 303.922,320.510 309.682,323.700 313.502 C 326.890 317.321,331.660 323.024,334.300 326.175 C 340.925 334.081,340.621 333.685,340.338 334.021 C 340.071 334.339,341.093 333.267,342.660 331.584 C 344.633 329.467,346.827 327.004,348.031 325.554 C 348.695 324.754,349.432 323.872,349.669 323.594 C 351.481 321.464,354.645 317.355,357.827 313.000 C 367.044 300.386,376.018 283.496,381.866 267.758 C 384.027 261.942,386.940 252.760,387.293 250.648 C 387.372 250.180,387.601 249.343,387.804 248.790 L 388.172 247.783 386.336 245.559 C 385.326 244.336,382.070 240.432,379.100 236.883 C 376.130 233.333,371.315 227.576,368.400 224.089 C 365.485 220.601,360.670 214.842,357.700 211.290 C 354.730 207.738,349.915 201.978,347.000 198.489 C 344.085 195.001,339.270 189.240,336.300 185.688 C 333.330 182.136,328.515 176.376,325.600 172.888 C 322.685 169.401,317.870 163.642,314.900 160.090 C 311.930 156.538,307.115 150.778,304.200 147.290 C 301.285 143.802,296.470 138.042,293.500 134.490 C 290.530 130.938,285.715 125.177,282.800 121.688 C 279.885 118.199,275.070 112.439,272.100 108.888 C 269.130 105.337,264.315 99.578,261.400 96.088 C 258.485 92.599,253.580 86.730,250.500 83.046 C 247.420 79.363,242.740 73.764,240.100 70.605 C 235.637 65.265,230.722 59.385,218.700 45.005 C 216.060 41.848,211.245 36.087,208.000 32.204 C 204.755 28.321,199.895 22.511,197.200 19.292 C 186.362 6.349,186.589 6.632,186.954 6.547 C 187.144 6.503,186.837 6.457,186.272 6.445 C 185.706 6.433,185.206 6.461,185.160 6.507 M195.343 142.062 C 192.837 148.353,190.742 153.680,190.686 153.900 C 190.609 154.203,191.826 155.780,195.702 160.400 C 198.516 163.755,203.177 169.322,206.060 172.771 C 208.942 176.220,213.730 181.948,216.700 185.499 C 219.670 189.050,223.082 193.136,224.282 194.579 C 225.482 196.022,226.499 197.168,226.541 197.125 C 226.639 197.028,200.519 131.744,200.030 130.862 C 199.957 130.732,197.848 135.772,195.343 142.062 " stroke="none" fill="#926caa" fill-rule="evenodd"></path><path id="path4" d="M14.800 141.977 C 14.800 142.220,14.663 142.685,14.495 143.010 C 14.327 143.334,14.236 143.600,14.293 143.600 C 14.350 143.600,14.272 143.938,14.119 144.350 C 13.065 147.192,10.849 156.001,9.629 162.200 C -2.113 221.847,14.545 283.392,54.699 328.720 C 93.865 372.932,151.480 397.013,210.400 393.798 C 216.933 393.441,224.400 392.678,224.400 392.366 C 224.400 392.269,222.874 390.370,221.008 388.145 C 215.746 381.869,207.230 371.691,201.400 364.709 C 198.485 361.219,193.670 355.458,190.700 351.908 C 187.730 348.358,182.915 342.598,180.000 339.108 C 177.085 335.618,172.270 329.858,169.300 326.308 C 166.330 322.757,161.515 316.998,158.600 313.510 C 155.685 310.022,150.870 304.262,147.900 300.711 C 144.930 297.160,142.176 293.860,141.780 293.377 C 141.384 292.895,140.070 291.320,138.860 289.878 L 136.660 287.257 136.280 287.973 C 132.030 295.977,119.171 295.962,115.317 287.948 C 113.110 283.360,113.390 280.540,116.901 271.989 L 119.209 266.369 115.754 262.262 C 113.854 260.003,111.850 257.604,111.300 256.932 C 110.750 256.260,107.915 252.861,105.000 249.381 C 102.085 245.900,97.315 240.197,94.400 236.707 C 91.485 233.217,86.670 227.457,83.700 223.907 C 80.730 220.357,75.915 214.597,73.000 211.107 C 70.085 207.617,65.270 201.857,62.300 198.307 C 59.330 194.757,54.515 188.998,51.600 185.509 C 48.685 182.021,43.870 176.261,40.900 172.710 C 37.930 169.158,33.115 163.398,30.200 159.910 C 24.443 153.020,15.004 141.751,14.878 141.617 C 14.835 141.571,14.800 141.733,14.800 141.977 " stroke="none" fill="#37b2c4" fill-rule="evenodd"></path></g></svg>