<?xml version="1.0" encoding="UTF-8" standalone="no"?>
<svg
   xmlns:dc="http://purl.org/dc/elements/1.1/"
   xmlns:cc="http://creativecommons.org/ns#"
   xmlns:rdf="http://www.w3.org/1999/02/22-rdf-syntax-ns#"
   xmlns:svg="http://www.w3.org/2000/svg"
   xmlns="http://www.w3.org/2000/svg"
   xmlns:sodipodi="http://sodipodi.sourceforge.net/DTD/sodipodi-0.dtd"
   xmlns:inkscape="http://www.inkscape.org/namespaces/inkscape"
   width="198.042"
   height="178.453"
   viewBox="0 0 198.042 178.453"
   version="1.1"
   id="svg19"
   sodipodi:docname="arbirtum_logo.svg">
  <metadata
     id="metadata25">
    <rdf:RDF>
      <cc:Work
         rdf:about="">
        <dc:format>image/svg+xml</dc:format>
        <dc:type
           rdf:resource="http://purl.org/dc/dcmitype/StillImage" />
      </cc:Work>
    </rdf:RDF>
  </metadata>
  <defs
     id="defs23" />
  <sodipodi:namedview
     pagecolor="#ffffff"
     bordercolor="#666666"
     borderopacity="1"
     objecttolerance="10"
     gridtolerance="10"
     guidetolerance="10"
     inkscape:pageopacity="0"
     inkscape:pageshadow="2"
     inkscape:window-width="640"
     inkscape:window-height="480"
     id="namedview21" />
  <g
     id="arbirtum_logo"
     data-name="arbirtum logo"
     transform="translate(-856.479,-718)">
    <g
       id="Group_1"
       data-name="Group 1"
       transform="translate(892.902,717.726)">
      <path
         id="Polygon_1"
         data-name="Polygon 1"
         d="m 103.926,0 a 20,20 0 0 1 17.341,10.035 l 27.007,47 a 20,20 0 0 1 0,19.929 l -27.007,47 A 20,20 0 0 1 103.926,134 H 50.074 A 20,20 0 0 1 32.733,123.965 l -27.007,-47 a 20,20 0 0 1 0,-19.929 l 27.007,-47 A 20,20 0 0 1 50.074,0 Z"
         transform="rotate(90,66.912,67.186)"
         fill="#1d86cc" />
    </g>
    <g
       id="arbitrum"
       transform="translate(-1311.275,228.562)">
      <path
         id="Path_83"
         data-name="Path 83"
         d="m 2332.2,502.9 -46.4,26.8 a 11.6,11.6 0 0 0 -5.8,10.05 l 0.029,53.659 a 11.6,11.6 0 0 0 5.794,10.035 l 46.454,26.854 a 11.6,11.6 0 0 0 11.6,0 l 46.4,-26.792 a 11.6,11.6 0 0 0 5.8,-10.05 l -0.029,-53.659 a 11.6,11.6 0 0 0 -5.794,-10.034 L 2343.8,502.908 a 11.6,11.6 0 0 0 -11.6,0 z"
         transform="translate(-66.718,-0.217)"
         fill="#ffffff" />
      <path
         id="Path_84"
         data-name="Path 84"
         d="m 2328.247,623.553 a 2.171,2.171 0 0 1 0.456,-0.951 q 20.82,-35.328 41.647,-70.653 c 0.193,-0.327 0.372,-0.663 0.536,-0.956 -0.122,-0.213 -0.261,-0.169 -0.379,-0.169 -5.932,0.021 -11.864,0.059 -17.8,0.052 a 1.242,1.242 0 0 0 -1.179,0.79 q -6.712,11.1 -13.441,22.194 -14.255,23.519 -28.513,47.037 c -0.084,0.139 -0.172,0.275 -0.247,0.418 -0.168,0.324 -0.359,0.375 -0.7,0.177 -1.475,-0.871 -2.966,-1.714 -4.533,-2.615 l 42.3,-67.842 c -0.091,-0.276 -0.278,-0.207 -0.422,-0.212 -2.267,-0.068 -4.535,-0.166 -6.8,-0.186 a 25.133,25.133 0 0 0 -9.344,1.506 13.194,13.194 0 0 0 -6.586,5.347 q -11.593,18.082 -23.274,36.108 c -0.122,0.19 -0.252,0.376 -0.378,0.564 -0.446,0 -0.38,-0.368 -0.421,-0.625 a 7.519,7.519 0 0 1 -0.028,-1.165 c 0,-13.292 0.046,-26.584 -0.041,-39.875 a 5.732,5.732 0 0 1 3.282,-5.536 c 10.221,-5.827 20.376,-11.774 30.564,-17.66 4.547,-2.627 9.108,-5.229 13.622,-7.911 a 5.153,5.153 0 0 1 5.742,0 c 8.3,4.871 16.674,9.629 25.017,14.431 q 9.439,5.435 18.887,10.851 c 0.451,0.257 0.89,0.532 1.343,0.785 a 4.369,4.369 0 0 1 2.312,4.1 q 0.018,21.688 0,43.376 a 2.807,2.807 0 0 1 -0.114,1.055 c -0.5,0.483 -0.681,-0.059 -0.863,-0.316 -0.75,-1.055 -1.423,-2.166 -2.12,-3.258 q -8.372,-13.105 -16.8,-26.175 c -1.888,-2.945 -3.8,-5.878 -5.668,-8.835 -0.436,-0.69 -0.515,-0.7 -0.951,0.041 q -4.228,7.154 -8.451,14.311 a 1.454,1.454 0 0 0 0.172,1.7 q 3.482,5.618 6.951,11.244 l 11.857,19.18 q 2.4,3.888 4.808,7.769 a 1.965,1.965 0 0 1 0.474,1.244 c -0.321,0.638 -0.99,0.817 -1.547,1.107 a 11.693,11.693 0 0 1 -2.983,1.557 c -0.574,-0.143 -0.777,-0.661 -1.049,-1.085 -3.671,-5.726 -7.295,-11.481 -10.942,-17.221 -3.751,-5.9 -7.484,-11.822 -11.251,-17.716 -0.483,-0.756 -0.56,-0.761 -1.014,0 -3.277,5.513 -6.509,11.052 -9.794,16.559 a 1.468,1.468 0 0 0 0.081,1.714 c 4.425,6.82 8.748,13.7 13.126,20.554 1.221,1.91 2.451,3.813 3.65,5.737 0.234,0.374 0.554,0.747 0.342,1.253 a 20.777,20.777 0 0 1 -3.7,2.3 q -6.134,3.569 -12.274,7.128 a 4.056,4.056 0 0 1 -4.4,0 q -9.044,-5.232 -18.121,-10.417 a 2.362,2.362 0 0 1 -1.041,-0.81 z"
         transform="translate(-78.08,-11.609)"
         fill="#2d374b" />
      <path
         id="Path_85"
         data-name="Path 85"
         d="m 2388.3,584.524 c 0.01,-0.357 0.027,-0.713 0.027,-1.069 q 0,-21.639 0.014,-43.276 a 4.5,4.5 0 0 0 -2.458,-4.277 q -22.722,-13.026 -45.411,-26.111 a 4.216,4.216 0 0 0 -4.58,-0.012 q -12.6,7.323 -25.232,14.608 -10.135,5.867 -20.269,11.737 a 4.221,4.221 0 0 0 -2.271,3.98 q 0.052,20.763 0.059,41.526 c 0,0.308 -0.125,0.651 0.144,0.923 -1.6,2.664 -3.358,5.224 -5.043,7.831 q -1.266,1.958 -2.542,3.909 c -0.136,0.208 -0.293,0.4 -0.562,0.771 -0.02,-0.436 -0.041,-0.677 -0.041,-0.917 q 0,-27.381 0.01,-54.762 a 11.032,11.032 0 0 1 5.764,-9.937 c 5.874,-3.488 11.826,-6.846 17.739,-10.272 4.989,-2.889 9.961,-5.8 14.947,-8.694 4.65,-2.7 9.253,-5.481 13.982,-8.034 a 11.576,11.576 0 0 1 11.781,0.306 c 3.8,2.156 7.584,4.352 11.373,6.53 q 5.346,3.077 10.691,6.158 4.926,2.836 9.855,5.666 4.887,2.807 9.775,5.611 c 1.432,0.823 2.863,1.647 4.286,2.485 a 12.02,12.02 0 0 1 5.95,8.562 8.645,8.645 0 0 1 0.062,1.553 q 0,26.943 0.01,53.887 a 11.572,11.572 0 0 1 -4.162,8.952 13.867,13.867 0 0 1 -2.4,1.471 q -7.3,4.259 -14.621,8.483 -7.779,4.5 -15.565,8.985 -7.481,4.334 -14.946,8.7 a 11.106,11.106 0 0 1 -4.1,1.691 11.561,11.561 0 0 1 -7.2,-0.916 c -2.482,-1.331 -4.9,-2.775 -7.347,-4.177 q -4.929,-2.828 -9.853,-5.667 -1.391,-0.8 -2.784,-1.591 c -0.341,-0.194 -0.574,-0.391 -0.308,-0.836 1.228,-2.057 2.437,-4.126 3.659,-6.187 0.043,-0.075 0.153,-0.11 0.232,-0.165 a 28.636,28.636 0 0 1 3.3,1.815 q 8.043,4.6 16.061,9.245 a 3.789,3.789 0 0 0 4.118,-0.044 c 5.077,-2.979 10.18,-5.915 15.272,-8.866 0.252,-0.146 0.51,-0.279 0.766,-0.417 a 4.2,4.2 0 0 1 1.852,-1.351 c 4.6,-2.636 9.166,-5.324 13.765,-7.953 0.384,-0.219 0.73,-0.557 1.23,-0.5 l 4.506,-2.61 c 0.275,-0.576 0.862,-0.762 1.354,-1.046 2.267,-1.309 4.513,-2.654 6.8,-3.921 a 3.886,3.886 0 0 0 2.069,-3.674 c 0.023,-2.294 0,-4.589 0.011,-6.884 a 1.689,1.689 0 0 1 0.234,-1.219 z"
         transform="translate(-66.804)"
         fill="#96bedc" />
      <path
         id="Path_86"
         data-name="Path 86"
         d="M 2602.427,884.559 V 879.5 c 0,-0.259 -0.01,-0.519 0,-0.778 0.065,-1.348 0.423,-1.75 1.744,-1.817 0.872,-0.044 1.749,0 2.624,0.014 a 1.784,1.784 0 0 1 1.716,1.2 c 0.578,1.338 1.166,2.67 1.744,4.007 q 1.179,2.717 2.353,5.438 c 0.077,0.178 0.15,0.359 0.234,0.534 0.1,0.21 0.225,0.394 0.5,0.379 0.275,-0.015 0.382,-0.2 0.473,-0.421 0.1,-0.239 0.213,-0.472 0.316,-0.71 q 1.854,-4.278 3.706,-8.558 c 0.116,-0.267 0.241,-0.531 0.362,-0.8 a 1.68,1.68 0 0 1 1.5,-1.065 16.02,16.02 0 0 1 3.106,0.019 c 0.865,0.111 1.169,0.442 1.285,1.315 a 8.906,8.906 0 0 1 0.067,1.163 q 0.01,5.349 0,10.7 c 0,0.162 -0.01,0.324 0,0.487 0.011,0.44 -0.18,0.657 -0.64,0.644 -0.616,-0.017 -1.232,-0.006 -1.848,-0.006 a 0.469,0.469 0 0 1 -0.533,-0.536 c 0,-0.227 0,-0.454 0,-0.681 0,-3.112 0,-6.225 -0.01,-9.337 0,-0.255 0.172,-0.646 -0.23,-0.734 -0.386,-0.084 -0.434,0.31 -0.548,0.561 q -1.926,4.246 -3.844,8.5 -0.182,0.4 -0.377,0.788 a 2.644,2.644 0 0 1 -2.415,1.478 3.306,3.306 0 0 1 -3.731,-2.359 c -1.107,-2.693 -2.376,-5.32 -3.576,-7.975 -0.067,-0.148 -0.128,-0.3 -0.2,-0.442 -0.122,-0.249 -0.172,-0.645 -0.558,-0.542 -0.386,0.103 -0.217,0.489 -0.218,0.749 -0.011,3.08 -0.01,6.16 -0.01,9.24 0,0.26 0,0.519 -0.01,0.778 0,0.365 -0.2,0.521 -0.551,0.52 -0.487,0 -0.973,0 -1.46,0 -0.979,-0.007 -0.986,-0.009 -0.989,-0.959 -0.01,-1.589 0,-3.177 0,-4.766 z"
         transform="translate(-258.376,-223.429)"
         fill="#2d364d" />
      <path
         id="Path_87"
         data-name="Path 87"
         d="m 2533.572,882.119 c 0,-1.394 0,-2.788 0,-4.183 0,-0.971 0.06,-1.021 1.064,-1.033 0.454,-0.005 0.908,-0.018 1.362,0 0.626,0.032 0.707,0.125 0.742,0.759 0.012,0.226 0,0.454 0,0.681 0,2.432 -0.024,4.864 0.01,7.295 0.028,2.143 0.612,2.691 2.752,2.7 1.881,0.005 3.761,0 5.642,0 a 7.212,7.212 0 0 0 0.777,-0.026 1.781,1.781 0 0 0 1.832,-1.87 c 0.044,-0.516 0.041,-1.036 0.043,-1.555 0,-2.271 0,-4.539 0,-6.809 0,-1.156 0.021,-1.172 1.212,-1.176 0.324,0 0.649,0 0.973,0 0.935,0.017 1,0.072 1,0.994 0.01,2.464 0,4.928 0.01,7.393 a 17.31,17.31 0 0 1 -0.13,2.133 3.832,3.832 0 0 1 -3.417,3.664 7.364,7.364 0 0 1 -1.445,0.17 h -7.393 a 7.87,7.87 0 0 1 -1.638,-0.2 3.813,3.813 0 0 1 -3.239,-3.409 12.325,12.325 0 0 1 -0.167,-2.13 c 0.028,-1.129 0.016,-2.263 0.016,-3.398 z"
         transform="translate(-217.445,-223.447)"
         fill="#2d364d" />
      <path
         id="Path_88"
         data-name="Path 88"
         d="m 2411.352,876.909 c 2.5,0 4.994,0 7.49,0 1.014,0 1.037,0.035 1.044,1.035 0,0.389 0.01,0.778 0,1.167 -0.021,0.685 -0.1,0.78 -0.8,0.786 -1.653,0.017 -3.308,0.006 -4.961,0.006 -0.227,0 -0.454,0.008 -0.681,0 -0.337,-0.012 -0.461,0.162 -0.452,0.477 0.01,0.227 0,0.454 0,0.681 v 8.95 c 0,0.227 0,0.454 -0.01,0.681 -0.01,0.388 -0.183,0.6 -0.6,0.589 -0.649,-0.011 -1.3,-0.013 -1.947,0 -0.467,0.009 -0.636,-0.231 -0.626,-0.661 0.01,-0.227 0,-0.454 0,-0.681 V 880.7 c 0,-0.782 -0.01,-0.79 -0.794,-0.792 -1.686,-0.005 -3.373,0 -5.058,0 -1,0 -1.011,-0.023 -1.019,-1.055 q 0,-0.437 0,-0.875 c 0.01,-1.055 0.01,-1.063 1.11,-1.065 q 3.653,-0.013 7.299,-0.004 z"
         transform="translate(-139.803,-223.454)"
         fill="#2d364d" />
      <path
         id="Path_89"
         data-name="Path 89"
         d="m 2373.946,884.159 c 0,2.068 0,4.141 0,6.211 0,0.9 -0.02,0.906 -0.933,0.917 -0.518,0.006 -1.035,-0.01 -1.553,0 -0.438,0.012 -0.673,-0.157 -0.655,-0.619 0.01,-0.226 0,-0.453 0,-0.679 v -11.74 c 0,-0.226 0.01,-0.453 0,-0.679 -0.017,-0.391 0.15,-0.631 0.549,-0.64 0.679,-0.015 1.359,-0.018 2.037,0 0.546,0.014 0.562,0.406 0.561,0.825 -0.011,2.134 -0.01,4.269 -0.01,6.404 z"
         transform="translate(-120.696,-223.46)"
         fill="#2d364d" />
      <path
         id="Path_90"
         data-name="Path 90"
         d="m 2495.207,648.594 c 0.012,2.848 0.075,5.7 0.011,8.544 a 3.61,3.61 0 0 1 -1.889,3.27 c -2.868,1.624 -5.684,3.34 -8.578,4.92 -1.151,-2.1 -2.48,-4.1 -3.738,-6.14 q -9.8,-15.884 -19.622,-31.75 c -0.392,-0.634 -0.751,-1.292 -1.189,-1.891 a 0.958,0.958 0 0 1 0,-1.223 c 1.563,-2.614 3.1,-5.243 4.647,-7.868 l 4.294,-7.284 a 0.817,0.817 0 0 1 0.379,-0.4 c 0.747,1.151 1.5,2.312 2.252,3.474 q 6.776,10.55 13.549,21.1 4.593,7.158 9.185,14.317 a 2.913,2.913 0 0 0 0.699,0.931 z"
         transform="translate(-173.706,-64.071)"
         fill="#28a0f0" />
      <path
         id="Path_91"
         data-name="Path 91"
         d="m 2459.274,700.394 c -1.865,1.224 -3.843,2.265 -5.765,3.4 -3.485,2.049 -6.992,4.06 -10.489,6.086 -0.2,0.113 -0.4,0.219 -0.593,0.328 a 1.651,1.651 0 0 0 -0.4,-0.871 q -4.671,-7.341 -9.343,-14.679 -3.839,-6.026 -7.7,-12.04 a 1.237,1.237 0 0 1 -0.068,-1.5 q 5.161,-8.692 10.279,-17.41 c 0.081,-0.134 0.146,-0.29 0.347,-0.333 0.28,0.063 0.348,0.343 0.481,0.552 q 9.3,14.649 18.6,29.3 c 1.319,2.079 2.632,4.163 3.959,6.238 a 3.076,3.076 0 0 0 0.69,0.931 z"
         transform="translate(-152.735,-96.527)"
         fill="#28a0f0" />
      <path
         id="Path_92"
         data-name="Path 92"
         d="m 2319.991,883.9 a 3.452,3.452 0 0 0 1.241,-3.331 c -0.015,-0.259 -0.01,-0.519 -0.026,-0.777 a 2.705,2.705 0 0 0 -2.6,-2.752 14.349,14.349 0 0 0 -1.841,-0.127 c -3.469,-0.012 -6.936,-0.006 -10.406,0 -0.259,0 -0.519,0 -0.777,0.017 a 0.622,0.622 0 0 0 -0.639,0.7 c 0,0.195 0,0.389 0,0.584 v 12.352 c 0,0.464 0.2,0.738 0.7,0.721 0.162,-0.005 0.324,0 0.487,0 h 11.37 a 10.105,10.105 0 0 0 1.069,-0.041 2.788,2.788 0 0 0 2.7,-2.478 11.717,11.717 0 0 0 0.086,-1.841 3.139,3.139 0 0 0 -1.364,-3.027 z m -11.891,-3.54 c -0.011,-0.4 0.112,-0.581 0.547,-0.579 2.748,0.014 5.5,-0.01 8.245,0.017 0.992,0.01 1.322,0.433 1.33,1.5 0.01,1.122 -0.318,1.541 -1.361,1.573 -1.357,0.041 -2.718,0.01 -4.074,0.01 v 0 c -1.358,0 -2.717,-0.016 -4.074,0.009 -0.454,0.008 -0.643,-0.116 -0.617,-0.6 0.033,-0.646 0.021,-1.294 0.01,-1.94 z m 10.008,7.458 a 0.884,0.884 0 0 1 -0.655,0.522 7.483,7.483 0 0 1 -1.154,0.122 q -3.637,0.016 -7.273,0 c -0.913,0 -0.915,-0.011 -0.922,-0.9 0,-0.582 0.026,-1.165 -0.01,-1.744 -0.028,-0.49 0.119,-0.683 0.643,-0.67 1.324,0.032 2.65,0.011 3.975,0.011 v 0 c 1.292,0 2.586,-0.026 3.878,0.007 a 1.7,1.7 0 0 1 1.515,2.646 z"
         transform="translate(-81.541,-223.455)"
         fill="#2d364d" />
      <path
         id="Path_93"
         data-name="Path 93"
         d="m 2255.482,890.087 c -0.938,-1.194 -1.9,-2.369 -2.88,-3.587 0.249,-0.095 0.421,-0.172 0.6,-0.227 a 3.116,3.116 0 0 0 2.259,-2.652 10.653,10.653 0 0 0 0.01,-3.675 3.213,3.213 0 0 0 -2.948,-2.891 13.756,13.756 0 0 0 -1.84,-0.136 c -3.273,-0.013 -6.546,-0.006 -9.82,-0.006 -0.129,0 -0.26,-0.005 -0.388,0 -0.771,0.041 -0.908,0.174 -0.945,0.912 -0.01,0.129 0,0.259 0,0.389 v 12.445 c 0,0.449 0.225,0.638 0.667,0.628 0.551,-0.012 1.1,0.006 1.653,0 0.79,-0.013 0.835,-0.047 0.846,-0.815 0.015,-1 0.019,-2.009 0,-3.013 -0.01,-0.471 0.1,-0.7 0.642,-0.687 1.814,0.032 3.629,0.025 5.444,0 a 0.967,0.967 0 0 1 0.878,0.466 c 0.57,0.786 1.155,1.564 1.76,2.324 0.442,0.556 0.734,1.31 1.36,1.619 a 4.67,4.67 0 0 0 2.109,0.093 c 0.387,-0.005 0.93,0.248 1.136,-0.221 0.17,-0.398 -0.309,-0.674 -0.54,-0.966 z m -3.065,-7.666 c -0.062,1.327 -0.537,1.8 -1.86,1.825 -1.2,0.02 -2.4,0 -3.6,0 -1.2,0 -2.4,-0.023 -3.6,0.011 -0.511,0.014 -0.682,-0.153 -0.668,-0.659 0.028,-1.068 0.021,-2.138 0,-3.207 -0.01,-0.45 0.143,-0.631 0.617,-0.627 2.462,0.018 4.924,-0.006 7.385,0.016 a 1.475,1.475 0 0 1 1.695,1.57 7.73,7.73 0 0 1 0.022,1.066 z"
         transform="translate(-42.661,-223.455)"
         fill="#2d364d" />
      <path
         id="Path_94"
         data-name="Path 94"
         d="m 2485.281,890.437 c -0.849,-1.064 -1.71,-2.117 -2.557,-3.182 a 1.859,1.859 0 0 1 -0.532,-0.807 c 0.126,-0.041 0.246,-0.088 0.369,-0.122 a 3.166,3.166 0 0 0 2.429,-2.839 10.666,10.666 0 0 0 -0.067,-3.768 3.16,3.16 0 0 0 -2.837,-2.661 11.934,11.934 0 0 0 -1.741,-0.144 q -5.055,-0.02 -10.11,0 c -1.105,0 -1.155,0.057 -1.156,1.153 q 0,6.076 0,12.152 c 0,0.162 0.01,0.324 0,0.487 -0.014,0.409 0.181,0.588 0.587,0.581 0.583,-0.01 1.167,0.009 1.75,0 0.73,-0.016 0.783,-0.063 0.794,-0.769 0.016,-0.973 0.01,-1.944 0,-2.916 0,-0.857 -0.033,-0.82 0.768,-0.818 1.717,0 3.435,0.024 5.151,-0.013 a 1.21,1.21 0 0 1 1.118,0.582 c 0.838,1.152 1.725,2.271 2.569,3.418 a 1.138,1.138 0 0 0 1.059,0.527 c 0.679,-0.031 1.361,0 2.041,-0.011 0.215,0 0.484,0.084 0.615,-0.165 0.159,-0.306 -0.096,-0.493 -0.25,-0.685 z m -3.374,-7.594 a 1.44,1.44 0 0 1 -1.391,1.372 5.509,5.509 0 0 1 -0.773,0.029 q -3.393,0 -6.785,0 c -0.73,0 -0.736,-0.011 -0.741,-0.741 q -0.011,-1.454 0,-2.908 c 0.01,-0.815 0.012,-0.819 0.879,-0.823 1.163,0 2.326,0 3.488,0 1.162,0 2.326,-0.012 3.488,0 1.313,0.017 1.822,0.516 1.865,1.811 a 7.314,7.314 0 0 1 -0.031,1.256 z"
         transform="translate(-179.111,-223.452)"
         fill="#2d364d" />
      <path
         id="Path_95"
         data-name="Path 95"
         d="m 2186.965,890.66 c -0.122,-0.229 -0.246,-0.456 -0.371,-0.683 l -5.3,-9.608 c -0.391,-0.708 -0.791,-1.411 -1.174,-2.124 a 2.642,2.642 0 0 0 -2.283,-1.4 3.272,3.272 0 0 0 -3.589,1.992 c -1.968,3.79 -4.065,7.513 -6.111,11.263 -0.093,0.17 -0.2,0.335 -0.277,0.512 -0.207,0.472 -0.148,0.593 0.349,0.608 0.777,0.021 1.555,-0.009 2.332,0.013 a 0.821,0.821 0 0 0 0.821,-0.545 c 0.29,-0.578 0.644,-1.126 0.9,-1.717 a 1.032,1.032 0 0 1 1.123,-0.675 c 2.365,0.032 4.729,0.011 7.094,0.015 a 4.124,4.124 0 0 1 1.63,0.072 c 0.505,0.236 0.629,0.942 0.923,1.44 0.978,1.657 0.406,1.369 2.163,1.4 0.608,0 1.029,0 1.449,0 0.42,0 0.503,-0.223 0.321,-0.563 z m -6.2,-4.757 h -6.629 c -0.135,-0.233 0.027,-0.388 0.113,-0.55 q 1.3,-2.443 2.607,-4.879 a 3.176,3.176 0 0 1 0.305,-0.493 0.306,0.306 0 0 1 0.5,-0.014 1.008,1.008 0 0 1 0.149,0.247 q 1.478,2.731 2.951,5.464 c 0.025,0.047 0,0.119 0,0.225 z"
         transform="translate(0,-223.404)"
         fill="#2d364d" />
    </g>
  </g>
</svg>
