<svg id="svg" version="1.1" xmlns="http://www.w3.org/2000/svg" xmlns:xlink="http://www.w3.org/1999/xlink" width="400" height="400" viewBox="0, 0, 400,400"><g id="svgg"><path id="path0" d="M180.326 0.421 C 180.147 0.960,177.493 1.578,175.307 1.590 C 173.204 1.602,169.480 2.184,162.000 3.668 C 158.810 4.300,154.940 5.066,153.400 5.369 C 151.860 5.672,150.150 6.096,149.600 6.310 C 149.050 6.525,147.610 6.830,146.400 6.988 C 145.190 7.147,143.480 7.602,142.600 8.001 C 139.124 9.575,136.840 10.383,135.159 10.632 C 134.191 10.776,132.855 11.203,132.188 11.581 C 131.522 11.959,130.471 12.396,129.854 12.551 C 129.237 12.706,128.353 13.185,127.890 13.616 C 127.428 14.047,126.622 14.400,126.099 14.400 C 125.576 14.400,124.165 14.850,122.963 15.400 C 121.760 15.950,120.584 16.400,120.350 16.400 C 120.115 16.400,119.446 16.658,118.862 16.974 C 118.278 17.290,115.730 18.498,113.200 19.658 C 110.670 20.819,107.581 22.405,106.335 23.184 C 102.753 25.423,101.542 26.085,99.322 27.019 C 97.470 27.798,93.515 30.355,87.119 34.908 C 85.953 35.738,84.433 36.728,83.740 37.108 C 83.047 37.489,81.787 38.381,80.940 39.092 C 78.084 41.488,76.292 42.800,75.878 42.800 C 75.652 42.800,75.002 43.231,74.433 43.758 C 72.129 45.895,68.464 49.219,66.200 51.226 C 64.880 52.395,62.590 54.533,61.110 55.976 C 59.631 57.419,58.229 58.780,57.994 59.000 C 56.591 60.317,51.150 66.178,49.800 67.829 C 48.006 70.022,46.020 72.268,44.133 74.237 C 43.437 74.965,42.737 75.970,42.578 76.471 C 42.419 76.971,41.214 78.581,39.902 80.047 C 38.589 81.513,37.061 83.498,36.507 84.457 C 34.978 87.103,33.560 89.220,32.054 91.107 C 30.467 93.096,29.783 94.243,27.585 98.600 C 26.697 100.360,25.662 102.340,25.285 103.000 C 22.568 107.758,21.620 109.582,21.391 110.495 C 21.246 111.070,20.784 111.852,20.364 112.233 C 19.944 112.613,19.600 113.094,19.600 113.301 C 19.600 113.508,18.894 115.146,18.031 116.939 C 16.052 121.050,14.400 125.250,14.400 126.170 C 14.400 126.558,14.052 127.365,13.627 127.963 C 13.201 128.560,12.723 129.578,12.563 130.224 C 12.404 130.871,12.044 131.760,11.763 132.200 C 11.482 132.640,11.046 133.900,10.795 135.000 C 10.543 136.100,10.097 137.630,9.802 138.400 C 8.745 141.166,7.196 146.620,7.189 147.600 C 7.186 148.150,6.839 149.358,6.418 150.283 C 5.998 151.209,5.540 152.829,5.400 153.883 C 5.260 154.938,4.994 156.160,4.809 156.600 C 4.624 157.040,4.087 159.920,3.615 163.000 C 3.144 166.080,2.594 169.500,2.395 170.600 C 2.195 171.700,1.818 174.535,1.557 176.900 C 1.213 180.013,0.932 181.200,0.541 181.200 C 0.094 181.200,0.000 184.532,0.000 200.400 C 0.000 217.200,0.075 219.600,0.600 219.600 C 0.930 219.600,1.205 219.645,1.212 219.700 C 2.590 231.496,2.924 233.758,4.449 241.600 C 5.915 249.135,7.498 255.233,8.533 257.331 C 9.249 258.780,10.800 263.840,10.800 264.724 C 10.800 265.047,11.179 266.142,11.643 267.156 C 13.353 270.895,13.571 271.440,14.142 273.400 C 14.867 275.885,15.783 277.988,19.037 284.636 C 20.447 287.515,21.600 290.007,21.600 290.174 C 21.600 290.340,21.948 290.965,22.373 291.563 C 22.799 292.160,23.265 293.120,23.409 293.695 C 23.554 294.270,24.016 295.052,24.436 295.433 C 24.856 295.813,25.200 296.342,25.200 296.608 C 25.200 296.874,25.535 297.521,25.945 298.046 C 26.355 298.571,26.828 299.450,26.997 300.000 C 27.166 300.550,28.675 303.052,30.352 305.560 C 32.028 308.068,34.482 311.806,35.804 313.866 C 37.127 315.926,38.858 318.284,39.652 319.106 C 40.445 319.928,41.674 321.545,42.382 322.700 C 43.090 323.855,43.810 324.800,43.982 324.800 C 44.154 324.800,46.074 326.996,48.248 329.680 C 50.421 332.363,53.255 335.558,54.545 336.780 C 55.835 338.001,57.048 339.410,57.239 339.910 C 57.431 340.411,57.906 340.928,58.294 341.059 C 58.682 341.190,60.170 342.432,61.600 343.818 C 64.168 346.307,70.111 351.514,74.820 355.400 C 76.152 356.500,78.448 358.454,79.921 359.743 C 81.395 361.032,83.154 362.326,83.832 362.620 C 84.509 362.914,85.296 363.434,85.581 363.777 C 85.865 364.120,86.321 364.400,86.593 364.400 C 86.865 364.400,87.905 365.120,88.905 366.000 C 89.905 366.880,90.875 367.608,91.061 367.617 C 91.248 367.626,92.660 368.433,94.200 369.410 C 103.068 375.035,117.860 382.738,122.200 383.990 C 124.009 384.512,126.078 385.312,129.000 386.620 C 130.100 387.112,132.440 388.014,134.200 388.624 C 135.960 389.233,137.580 389.866,137.800 390.031 C 138.020 390.195,139.640 390.690,141.400 391.130 C 143.160 391.571,146.490 392.460,148.800 393.107 C 151.110 393.754,155.160 394.691,157.800 395.189 C 160.440 395.687,163.925 396.431,165.544 396.842 C 167.163 397.253,171.753 397.865,175.744 398.201 C 183.341 398.840,184.400 399.015,184.400 399.627 C 184.400 400.294,215.149 400.108,215.821 399.437 C 216.175 399.082,217.684 398.786,219.892 398.639 C 226.271 398.212,239.421 396.135,241.467 395.230 C 241.944 395.020,243.474 394.732,244.867 394.591 C 246.260 394.450,249.470 393.717,252.000 392.962 C 259.372 390.762,269.348 387.543,270.000 387.154 C 270.330 386.956,270.870 386.697,271.200 386.576 C 271.530 386.456,272.520 386.008,273.400 385.580 C 274.854 384.874,278.981 383.381,282.300 382.362 C 283.015 382.142,284.671 381.251,285.981 380.381 C 287.290 379.512,288.475 378.800,288.615 378.800 C 288.990 378.800,294.389 376.107,294.954 375.639 C 295.220 375.417,296.960 374.452,298.819 373.495 C 302.524 371.587,308.357 368.101,310.121 366.741 C 310.737 366.266,311.907 365.521,312.721 365.085 C 314.420 364.175,315.760 363.200,318.126 361.150 C 319.047 360.353,321.330 358.677,323.200 357.426 C 326.757 355.047,328.264 353.781,334.200 348.184 C 339.149 343.518,344.008 338.612,348.840 333.400 C 351.083 330.980,353.522 328.357,354.259 327.571 C 354.997 326.785,355.600 325.930,355.600 325.672 C 355.600 325.414,356.195 324.527,356.922 323.701 C 357.649 322.876,358.939 321.210,359.789 320.000 C 360.639 318.790,361.906 317.170,362.603 316.400 C 363.301 315.630,364.380 314.100,365.002 313.000 C 365.623 311.900,366.642 310.374,367.266 309.609 C 367.890 308.844,368.400 308.055,368.400 307.857 C 368.400 307.658,369.020 306.632,369.779 305.576 C 370.537 304.521,371.638 302.699,372.224 301.529 C 372.811 300.358,373.543 299.113,373.852 298.762 C 374.160 298.411,375.121 296.730,375.987 295.026 C 376.853 293.322,377.727 291.720,377.929 291.464 C 378.131 291.209,378.522 290.280,378.798 289.400 C 379.075 288.520,379.533 287.530,379.817 287.200 C 380.517 286.385,383.995 279.130,383.998 278.478 C 383.999 278.191,384.540 276.687,385.200 275.136 C 385.860 273.585,386.400 271.975,386.400 271.558 C 386.400 271.141,386.566 270.800,386.768 270.800 C 386.970 270.800,387.434 269.902,387.798 268.805 C 388.163 267.707,388.612 266.716,388.796 266.603 C 388.980 266.489,389.256 265.650,389.410 264.739 C 389.564 263.827,389.968 262.433,390.307 261.641 C 390.647 260.848,391.154 259.300,391.434 258.200 C 391.714 257.100,392.417 254.580,392.996 252.600 C 394.261 248.279,395.462 242.988,396.195 238.507 C 396.491 236.695,396.920 234.625,397.147 233.907 C 397.730 232.068,398.397 226.799,398.417 223.871 C 398.439 220.807,398.982 217.873,399.562 217.679 C 400.126 217.491,400.186 182.532,399.623 182.333 C 399.162 182.171,398.407 177.700,398.403 175.107 C 398.399 172.811,397.776 168.346,396.953 164.720 C 396.619 163.246,396.180 160.996,395.979 159.720 C 395.243 155.050,392.858 145.604,392.021 144.039 C 391.833 143.688,391.548 142.500,391.387 141.400 C 391.226 140.300,390.783 138.770,390.402 138.000 C 390.020 137.230,389.583 135.912,389.430 135.071 C 389.278 134.230,388.804 132.970,388.378 132.271 C 387.952 131.572,387.602 130.619,387.601 130.154 C 387.601 129.689,387.260 128.876,386.845 128.348 C 386.429 127.820,385.898 126.760,385.664 125.994 C 384.058 120.728,381.051 113.534,379.815 112.000 C 379.549 111.670,379.091 110.770,378.796 110.000 C 378.501 109.230,377.690 107.700,376.993 106.600 C 376.295 105.500,374.942 103.015,373.986 101.078 C 373.029 99.141,371.861 97.161,371.390 96.678 C 370.919 96.195,369.770 94.360,368.837 92.600 C 367.904 90.840,366.817 89.119,366.420 88.776 C 366.024 88.433,365.387 87.549,365.007 86.813 C 363.758 84.398,360.697 80.223,359.325 79.062 C 358.585 78.437,357.740 77.357,357.448 76.662 C 357.156 75.968,356.203 74.680,355.331 73.800 C 354.458 72.920,353.015 71.210,352.125 70.000 C 351.235 68.790,350.099 67.440,349.600 67.000 C 349.101 66.560,346.877 64.220,344.658 61.800 C 340.555 57.325,333.735 50.934,329.398 47.497 C 328.079 46.453,326.460 45.047,325.800 44.374 C 325.140 43.700,323.970 42.816,323.200 42.408 C 322.430 42.000,320.810 40.742,319.600 39.612 C 318.390 38.482,316.585 37.072,315.588 36.479 C 314.591 35.886,312.791 34.724,311.588 33.897 C 307.310 30.959,305.216 29.600,304.968 29.600 C 304.829 29.600,303.911 29.056,302.926 28.392 C 301.942 27.728,300.566 26.911,299.868 26.577 C 299.171 26.243,297.700 25.469,296.600 24.857 C 292.715 22.696,282.555 17.600,282.129 17.600 C 281.892 17.600,281.492 17.352,281.241 17.050 C 280.990 16.747,279.933 16.266,278.892 15.980 C 277.852 15.694,276.640 15.233,276.200 14.954 C 275.760 14.676,274.050 13.978,272.400 13.403 C 270.750 12.828,268.759 12.014,267.975 11.595 C 267.192 11.176,265.752 10.708,264.775 10.554 C 263.799 10.401,261.383 9.676,259.406 8.944 C 257.429 8.212,254.459 7.317,252.806 6.955 C 251.153 6.593,249.620 6.156,249.400 5.984 C 249.180 5.811,247.858 5.463,246.461 5.210 C 245.065 4.958,243.492 4.587,242.966 4.387 C 242.440 4.187,240.703 3.850,239.105 3.637 C 237.507 3.425,234.940 2.982,233.400 2.652 C 231.860 2.323,228.351 1.866,225.603 1.638 C 221.947 1.333,220.485 1.058,220.159 0.611 C 219.604 -0.148,180.578 -0.334,180.326 0.421 M99.230 141.559 C 99.855 142.021,100.475 142.400,100.607 142.400 C 100.891 142.400,103.614 144.507,105.516 146.200 C 106.258 146.860,107.615 147.882,108.532 148.472 C 109.450 149.061,111.010 150.199,112.000 150.999 C 113.828 152.477,115.610 153.797,118.208 155.600 C 119.001 156.150,121.082 157.725,122.833 159.100 C 124.584 160.475,126.171 161.600,126.359 161.600 C 126.548 161.600,126.949 161.900,127.251 162.266 C 127.553 162.633,128.790 163.563,130.000 164.334 C 131.210 165.105,133.280 166.711,134.600 167.904 C 135.920 169.097,137.540 170.347,138.200 170.682 C 138.860 171.018,140.675 172.329,142.233 173.596 C 143.791 174.863,145.446 176.103,145.910 176.352 C 146.375 176.601,147.335 177.334,148.044 177.981 C 148.753 178.629,150.338 179.841,151.566 180.674 C 153.632 182.076,155.714 183.624,159.167 186.329 C 159.919 186.918,161.539 188.172,162.767 189.116 C 163.995 190.060,166.684 192.130,168.743 193.716 C 170.802 195.302,173.159 197.050,173.981 197.600 C 178.946 200.921,179.897 201.617,180.800 202.594 C 181.350 203.189,182.340 203.955,183.000 204.295 C 183.660 204.636,184.576 205.294,185.035 205.757 C 185.495 206.221,186.726 207.382,187.771 208.337 C 188.816 209.293,190.105 211.003,190.635 212.137 L 191.598 214.200 191.587 236.486 L 191.575 258.772 190.699 259.386 C 189.642 260.126,174.904 260.298,173.574 259.586 C 172.825 259.185,172.800 258.536,172.794 239.486 C 172.791 228.659,172.656 219.620,172.494 219.400 C 172.332 219.180,171.210 218.332,170.000 217.516 C 168.790 216.699,167.201 215.482,166.469 214.810 C 165.737 214.138,164.657 213.331,164.069 213.017 C 163.481 212.703,162.370 211.892,161.600 211.216 C 160.830 210.540,159.480 209.500,158.600 208.906 C 157.720 208.312,156.730 207.585,156.400 207.290 C 156.070 206.996,153.370 204.946,150.400 202.734 C 147.430 200.523,144.820 198.495,144.600 198.228 C 144.380 197.960,142.708 196.722,140.884 195.476 C 139.060 194.230,136.990 192.667,136.284 192.003 C 135.578 191.338,133.754 189.941,132.232 188.897 C 130.709 187.854,128.963 186.528,128.351 185.950 C 127.740 185.373,127.005 184.811,126.720 184.701 C 126.182 184.495,117.954 178.447,117.600 177.998 C 117.490 177.858,116.410 177.011,115.200 176.116 C 113.990 175.220,112.640 174.153,112.200 173.744 C 110.882 172.519,108.479 170.800,108.085 170.800 C 107.883 170.800,107.264 170.380,106.711 169.868 C 105.263 168.525,102.353 167.087,101.933 167.507 C 101.734 167.706,101.583 187.622,101.587 213.430 C 101.590 239.261,101.439 259.241,101.238 259.556 C 100.693 260.410,84.878 260.250,84.010 259.382 C 83.469 258.840,83.400 252.515,83.400 203.485 L 83.400 148.200 84.814 145.728 C 87.557 140.930,95.336 138.680,99.230 141.559 M310.514 141.033 C 312.482 141.703,315.197 144.106,316.326 146.176 C 317.196 147.772,317.615 179.984,317.375 226.983 L 317.210 259.366 316.347 259.828 C 315.123 260.484,300.220 260.281,299.397 259.598 C 298.874 259.163,298.800 253.507,298.800 213.977 C 298.800 184.657,298.659 168.481,298.397 167.793 L 297.995 166.733 296.767 167.767 C 296.091 168.335,295.406 168.800,295.245 168.800 C 295.083 168.800,294.602 169.116,294.175 169.503 C 293.749 169.890,292.950 170.514,292.400 170.890 C 289.445 172.911,287.743 174.198,285.414 176.173 C 283.995 177.377,282.299 178.638,281.645 178.977 C 280.991 179.315,279.409 180.514,278.128 181.643 C 276.043 183.480,275.141 184.157,271.750 186.432 C 271.232 186.780,270.139 187.680,269.321 188.432 C 268.504 189.184,267.260 190.160,266.557 190.600 C 265.854 191.040,264.226 192.207,262.939 193.193 C 261.653 194.180,259.700 195.604,258.600 196.359 C 257.500 197.114,256.540 197.882,256.466 198.067 C 256.393 198.251,255.313 199.070,254.066 199.887 C 252.201 201.110,248.265 204.106,244.726 206.997 C 244.356 207.299,243.561 207.869,242.960 208.263 C 242.358 208.657,241.491 209.294,241.033 209.679 C 238.346 211.933,236.688 213.200,236.423 213.200 C 236.258 213.200,235.690 213.580,235.161 214.044 C 234.633 214.509,233.210 215.583,232.000 216.433 C 227.164 219.828,227.568 217.680,227.617 239.697 C 227.663 260.997,227.793 259.862,225.273 260.240 C 222.283 260.688,210.739 260.110,210.109 259.480 C 209.675 259.046,209.578 254.685,209.593 236.270 L 209.613 213.594 210.570 211.497 C 211.507 209.442,214.061 206.400,214.849 206.400 C 215.068 206.400,217.081 204.913,219.323 203.096 C 224.943 198.542,229.375 195.147,230.909 194.222 C 231.619 193.794,233.460 192.438,235.000 191.208 C 236.540 189.978,238.267 188.677,238.839 188.317 C 239.410 187.957,240.539 187.038,241.347 186.276 C 242.155 185.514,243.323 184.681,243.942 184.424 C 244.561 184.167,245.627 183.447,246.311 182.823 C 246.994 182.198,248.149 181.279,248.877 180.780 C 249.605 180.281,250.740 179.381,251.400 178.781 C 252.060 178.180,253.871 176.813,255.425 175.744 C 258.361 173.723,260.183 172.356,265.705 168.033 C 267.509 166.621,270.338 164.562,271.992 163.458 C 273.646 162.354,276.170 160.439,277.600 159.203 C 279.030 157.966,280.650 156.648,281.200 156.273 C 281.750 155.898,282.830 155.166,283.600 154.645 C 284.370 154.125,285.469 153.260,286.043 152.722 C 286.616 152.184,287.651 151.510,288.343 151.224 C 289.034 150.937,289.600 150.542,289.600 150.344 C 289.600 150.147,291.445 148.649,293.700 147.015 C 295.955 145.380,298.302 143.584,298.916 143.022 C 299.530 142.460,300.340 141.999,300.716 141.997 C 301.092 141.996,301.940 141.637,302.600 141.200 C 304.103 140.205,307.851 140.125,310.514 141.033 " stroke="none" fill="#5ebbac" fill-rule="evenodd"></path><path id="path1" d="M0.000 90.600 C 0.000 166.468,0.088 181.200,0.541 181.200 C 0.932 181.200,1.213 180.013,1.557 176.900 C 1.818 174.535,2.195 171.700,2.395 170.600 C 2.594 169.500,3.144 166.080,3.615 163.000 C 4.087 159.920,4.624 157.040,4.809 156.600 C 4.994 156.160,5.260 154.938,5.400 153.883 C 5.540 152.829,5.998 151.209,6.418 150.283 C 6.839 149.358,7.186 148.150,7.189 147.600 C 7.196 146.620,8.745 141.166,9.802 138.400 C 10.097 137.630,10.543 136.100,10.795 135.000 C 11.046 133.900,11.482 132.640,11.763 132.200 C 12.044 131.760,12.404 130.871,12.563 130.224 C 12.723 129.578,13.201 128.560,13.627 127.963 C 14.052 127.365,14.400 126.558,14.400 126.170 C 14.400 125.250,16.052 121.050,18.031 116.939 C 18.894 115.146,19.600 113.508,19.600 113.301 C 19.600 113.094,19.944 112.613,20.364 112.233 C 20.784 111.852,21.246 111.070,21.391 110.495 C 21.620 109.582,22.568 107.758,25.285 103.000 C 25.662 102.340,26.697 100.360,27.585 98.600 C 29.783 94.243,30.467 93.096,32.054 91.107 C 33.560 89.220,34.978 87.103,36.507 84.457 C 37.061 83.498,38.589 81.513,39.902 80.047 C 41.214 78.581,42.419 76.971,42.578 76.471 C 42.737 75.970,43.437 74.965,44.133 74.237 C 46.020 72.268,48.006 70.022,49.800 67.829 C 51.150 66.178,56.591 60.317,57.994 59.000 C 58.229 58.780,59.631 57.419,61.110 55.976 C 62.590 54.533,64.880 52.395,66.200 51.226 C 68.464 49.219,72.129 45.895,74.433 43.758 C 75.002 43.231,75.652 42.800,75.878 42.800 C 76.292 42.800,78.084 41.488,80.940 39.092 C 81.787 38.381,83.047 37.489,83.740 37.108 C 84.433 36.728,85.953 35.738,87.119 34.908 C 93.515 30.355,97.470 27.798,99.322 27.019 C 101.542 26.085,102.753 25.423,106.335 23.184 C 107.581 22.405,110.670 20.819,113.200 19.658 C 115.730 18.498,118.278 17.290,118.862 16.974 C 119.446 16.658,120.115 16.400,120.350 16.400 C 120.584 16.400,121.760 15.950,122.963 15.400 C 124.165 14.850,125.576 14.400,126.099 14.400 C 126.622 14.400,127.428 14.047,127.890 13.616 C 128.353 13.185,129.237 12.706,129.854 12.551 C 130.471 12.396,131.522 11.959,132.188 11.581 C 132.855 11.203,134.191 10.776,135.159 10.632 C 136.840 10.383,139.124 9.575,142.600 8.001 C 143.480 7.602,145.190 7.147,146.400 6.988 C 147.610 6.830,149.050 6.525,149.600 6.310 C 150.150 6.096,151.860 5.675,153.400 5.376 C 154.940 5.077,157.910 4.457,160.000 3.998 C 164.920 2.919,170.441 2.049,175.201 1.605 C 179.204 1.232,180.400 0.945,180.400 0.357 C 180.400 0.149,142.862 0.000,90.200 0.000 L 0.000 0.000 0.000 90.600 M220.100 0.500 C 220.290 1.071,221.965 1.370,228.234 1.949 C 230.673 2.174,233.823 2.620,235.234 2.941 C 236.645 3.261,238.970 3.719,240.400 3.959 C 244.269 4.606,248.494 5.563,249.400 5.995 C 249.840 6.206,251.460 6.659,253.000 7.004 C 254.540 7.348,257.510 8.240,259.600 8.985 C 261.690 9.731,264.120 10.460,265.000 10.605 C 265.880 10.750,267.230 11.203,268.000 11.613 C 268.770 12.022,270.750 12.828,272.400 13.403 C 274.050 13.978,275.760 14.676,276.200 14.954 C 276.640 15.233,277.852 15.694,278.892 15.980 C 279.933 16.266,280.990 16.747,281.241 17.050 C 281.492 17.352,281.892 17.600,282.129 17.600 C 282.555 17.600,292.715 22.696,296.600 24.857 C 297.700 25.469,299.171 26.243,299.868 26.577 C 300.566 26.911,301.942 27.728,302.926 28.392 C 303.911 29.056,304.829 29.600,304.968 29.600 C 305.216 29.600,307.310 30.959,311.588 33.897 C 312.791 34.724,314.591 35.886,315.588 36.479 C 316.585 37.072,318.390 38.482,319.600 39.612 C 320.810 40.742,322.430 42.000,323.200 42.408 C 323.970 42.816,325.140 43.700,325.800 44.374 C 326.460 45.047,328.079 46.453,329.398 47.497 C 333.735 50.934,340.555 57.325,344.658 61.800 C 346.877 64.220,349.101 66.560,349.600 67.000 C 350.099 67.440,351.235 68.790,352.125 70.000 C 353.015 71.210,354.458 72.920,355.331 73.800 C 356.203 74.680,357.156 75.968,357.448 76.662 C 357.740 77.357,358.585 78.437,359.325 79.062 C 360.697 80.223,363.758 84.398,365.007 86.813 C 365.387 87.549,366.024 88.433,366.420 88.776 C 366.817 89.119,367.904 90.840,368.837 92.600 C 369.770 94.360,370.919 96.195,371.390 96.678 C 371.861 97.161,373.029 99.141,373.986 101.078 C 374.942 103.015,376.295 105.500,376.993 106.600 C 377.690 107.700,378.501 109.230,378.796 110.000 C 379.091 110.770,379.549 111.670,379.815 112.000 C 381.051 113.534,384.058 120.728,385.664 125.994 C 385.898 126.760,386.429 127.820,386.845 128.348 C 387.260 128.876,387.601 129.689,387.601 130.154 C 387.602 130.619,387.952 131.572,388.378 132.271 C 388.804 132.970,389.278 134.230,389.430 135.071 C 389.583 135.912,390.020 137.230,390.402 138.000 C 390.783 138.770,391.226 140.300,391.387 141.400 C 391.548 142.500,391.833 143.688,392.021 144.039 C 392.896 145.674,395.275 155.190,396.011 160.000 C 396.230 161.430,396.597 163.140,396.827 163.800 C 397.320 165.214,397.882 169.358,398.375 175.208 C 398.805 180.314,399.173 182.400,399.645 182.400 C 399.851 182.400,400.000 144.119,400.000 91.200 L 400.000 0.000 309.967 0.000 C 238.118 0.000,219.967 0.101,220.100 0.500 M88.814 141.825 C 86.612 143.043,86.017 143.624,84.814 145.728 L 83.400 148.200 83.400 203.485 C 83.400 252.515,83.469 258.840,84.010 259.382 C 84.878 260.250,100.693 260.410,101.238 259.556 C 101.439 259.241,101.590 239.261,101.587 213.430 C 101.583 187.622,101.734 167.706,101.933 167.507 C 102.353 167.087,105.263 168.525,106.711 169.868 C 107.264 170.380,107.883 170.800,108.085 170.800 C 108.479 170.800,110.882 172.519,112.200 173.744 C 112.640 174.153,113.990 175.220,115.200 176.116 C 116.410 177.011,117.490 177.858,117.600 177.998 C 117.954 178.447,126.182 184.495,126.720 184.701 C 127.005 184.811,127.740 185.373,128.351 185.950 C 128.963 186.528,130.709 187.854,132.232 188.897 C 133.754 189.941,135.578 191.338,136.284 192.003 C 136.990 192.667,139.060 194.230,140.884 195.476 C 142.708 196.722,144.380 197.960,144.600 198.228 C 144.820 198.495,147.430 200.523,150.400 202.734 C 153.370 204.946,156.070 206.996,156.400 207.290 C 156.730 207.585,157.720 208.312,158.600 208.906 C 159.480 209.500,160.830 210.540,161.600 211.216 C 162.370 211.892,163.481 212.703,164.069 213.017 C 164.657 213.331,165.737 214.138,166.469 214.810 C 167.201 215.482,168.790 216.699,170.000 217.516 C 171.210 218.332,172.332 219.180,172.494 219.400 C 172.656 219.620,172.791 228.659,172.794 239.486 C 172.800 258.536,172.825 259.185,173.574 259.586 C 174.904 260.298,189.642 260.126,190.699 259.386 L 191.575 258.772 191.587 236.486 L 191.598 214.200 190.635 212.137 C 190.105 211.003,188.816 209.293,187.771 208.337 C 186.726 207.382,185.495 206.221,185.035 205.757 C 184.576 205.294,183.660 204.636,183.000 204.295 C 182.340 203.955,181.350 203.189,180.800 202.594 C 179.897 201.617,178.946 200.921,173.981 197.600 C 173.159 197.050,170.802 195.302,168.743 193.716 C 166.684 192.130,163.995 190.060,162.767 189.116 C 161.539 188.172,159.919 186.918,159.167 186.329 C 155.714 183.624,153.632 182.076,151.566 180.674 C 150.338 179.841,148.753 178.629,148.044 177.981 C 147.335 177.334,146.375 176.601,145.910 176.352 C 145.446 176.103,143.791 174.863,142.233 173.596 C 140.675 172.329,138.860 171.018,138.200 170.682 C 137.540 170.347,135.920 169.097,134.600 167.904 C 133.280 166.711,131.210 165.105,130.000 164.334 C 128.790 163.563,127.553 162.633,127.251 162.266 C 126.949 161.900,126.548 161.600,126.359 161.600 C 126.171 161.600,124.584 160.475,122.833 159.100 C 121.082 157.725,119.001 156.150,118.208 155.600 C 115.610 153.797,113.828 152.477,112.000 150.999 C 111.010 150.199,109.450 149.061,108.532 148.472 C 107.615 147.882,106.258 146.860,105.516 146.200 C 103.614 144.507,100.891 142.400,100.607 142.400 C 100.475 142.400,99.855 142.021,99.230 141.559 C 97.047 139.945,91.977 140.074,88.814 141.825 M302.600 141.200 C 301.940 141.637,301.092 141.996,300.716 141.997 C 300.340 141.999,299.530 142.460,298.916 143.022 C 298.302 143.584,295.955 145.380,293.700 147.015 C 291.445 148.649,289.600 150.147,289.600 150.344 C 289.600 150.542,289.034 150.937,288.343 151.224 C 287.651 151.510,286.616 152.184,286.043 152.722 C 285.469 153.260,284.370 154.125,283.600 154.645 C 282.830 155.166,281.750 155.898,281.200 156.273 C 280.650 156.648,279.030 157.966,277.600 159.203 C 276.170 160.439,273.646 162.354,271.992 163.458 C 270.338 164.562,267.509 166.621,265.705 168.033 C 260.183 172.356,258.361 173.723,255.425 175.744 C 253.871 176.813,252.060 178.180,251.400 178.781 C 250.740 179.381,249.605 180.281,248.877 180.780 C 248.149 181.279,246.994 182.198,246.311 182.823 C 245.627 183.447,244.561 184.167,243.942 184.424 C 243.323 184.681,242.155 185.514,241.347 186.276 C 240.539 187.038,239.410 187.957,238.839 188.317 C 238.267 188.677,236.540 189.978,235.000 191.208 C 233.460 192.438,231.619 193.794,230.909 194.222 C 229.375 195.147,224.943 198.542,219.323 203.096 C 217.081 204.913,215.068 206.400,214.849 206.400 C 214.061 206.400,211.507 209.442,210.570 211.497 L 209.613 213.594 209.593 236.270 C 209.578 254.685,209.675 259.046,210.109 259.480 C 210.739 260.110,222.283 260.688,225.273 260.240 C 227.793 259.862,227.663 260.997,227.617 239.697 C 227.568 217.680,227.164 219.828,232.000 216.433 C 233.210 215.583,234.633 214.509,235.161 214.044 C 235.690 213.580,236.258 213.200,236.423 213.200 C 236.688 213.200,238.346 211.933,241.033 209.679 C 241.491 209.294,242.358 208.657,242.960 208.263 C 243.561 207.869,244.356 207.299,244.726 206.997 C 248.265 204.106,252.201 201.110,254.066 199.887 C 255.313 199.070,256.393 198.251,256.466 198.067 C 256.540 197.882,257.500 197.114,258.600 196.359 C 259.700 195.604,261.653 194.180,262.939 193.193 C 264.226 192.207,265.854 191.040,266.557 190.600 C 267.260 190.160,268.504 189.184,269.321 188.432 C 270.139 187.680,271.232 186.780,271.750 186.432 C 275.141 184.157,276.043 183.480,278.128 181.643 C 279.409 180.514,280.991 179.315,281.645 178.977 C 282.299 178.638,283.995 177.377,285.414 176.173 C 287.743 174.198,289.445 172.911,292.400 170.890 C 292.950 170.514,293.749 169.890,294.175 169.503 C 294.602 169.116,295.083 168.800,295.245 168.800 C 295.406 168.800,296.091 168.335,296.767 167.767 L 297.995 166.733 298.397 167.793 C 298.659 168.481,298.800 184.657,298.800 213.977 C 298.800 253.507,298.874 259.163,299.397 259.598 C 300.220 260.281,315.123 260.484,316.347 259.828 L 317.210 259.366 317.375 226.983 C 317.615 179.984,317.196 147.772,316.326 146.176 C 313.706 141.373,306.361 138.709,302.600 141.200 M399.017 218.299 C 398.870 218.684,398.589 221.381,398.394 224.293 C 398.015 229.948,397.768 231.832,397.133 233.907 C 396.913 234.625,396.491 236.695,396.195 238.507 C 395.462 242.988,394.261 248.279,392.996 252.600 C 392.417 254.580,391.714 257.100,391.434 258.200 C 391.154 259.300,390.647 260.848,390.307 261.641 C 389.968 262.433,389.564 263.827,389.410 264.739 C 389.256 265.650,388.980 266.489,388.796 266.603 C 388.612 266.716,388.163 267.707,387.798 268.805 C 387.434 269.902,386.970 270.800,386.768 270.800 C 386.566 270.800,386.400 271.141,386.400 271.558 C 386.400 271.975,385.860 273.585,385.200 275.136 C 384.540 276.687,383.999 278.191,383.998 278.478 C 383.995 279.130,380.517 286.385,379.817 287.200 C 379.533 287.530,379.075 288.520,378.798 289.400 C 378.522 290.280,378.131 291.209,377.929 291.464 C 377.727 291.720,376.853 293.322,375.987 295.026 C 375.121 296.730,374.160 298.411,373.852 298.762 C 373.543 299.113,372.811 300.358,372.224 301.529 C 371.638 302.699,370.537 304.521,369.779 305.576 C 369.020 306.632,368.400 307.658,368.400 307.857 C 368.400 308.055,367.890 308.844,367.266 309.609 C 366.642 310.374,365.623 311.900,365.002 313.000 C 364.380 314.100,363.301 315.630,362.603 316.400 C 361.906 317.170,360.639 318.790,359.789 320.000 C 358.939 321.210,357.649 322.876,356.922 323.701 C 356.195 324.527,355.600 325.414,355.600 325.672 C 355.600 325.930,354.997 326.785,354.259 327.571 C 353.522 328.357,351.083 330.980,348.840 333.400 C 344.008 338.612,339.149 343.518,334.200 348.184 C 328.264 353.781,326.757 355.047,323.200 357.426 C 321.330 358.677,319.047 360.353,318.126 361.150 C 315.760 363.200,314.420 364.175,312.721 365.085 C 311.907 365.521,310.737 366.266,310.121 366.741 C 308.357 368.101,302.524 371.587,298.819 373.495 C 296.960 374.452,295.220 375.417,294.954 375.639 C 294.389 376.107,288.990 378.800,288.615 378.800 C 288.475 378.800,287.290 379.512,285.981 380.381 C 284.671 381.251,283.015 382.142,282.300 382.362 C 277.368 383.876,273.187 385.514,270.800 386.865 C 270.021 387.306,270.399 387.177,263.000 389.543 C 251.815 393.120,247.469 394.328,244.820 394.596 C 243.400 394.740,241.959 395.008,241.617 395.191 C 241.064 395.487,235.431 396.643,229.800 397.617 C 228.700 397.807,225.370 398.154,222.400 398.388 C 216.660 398.839,215.600 399.032,215.600 399.627 C 215.600 399.857,251.041 400.000,307.800 400.000 L 400.000 400.000 400.000 308.800 C 400.000 255.551,399.851 217.600,399.643 217.600 C 399.446 217.600,399.165 217.915,399.017 218.299 M0.000 309.800 L 0.000 400.000 92.200 400.000 C 148.959 400.000,184.400 399.857,184.400 399.627 C 184.400 399.015,183.341 398.840,175.744 398.201 C 171.753 397.865,167.163 397.253,165.544 396.842 C 163.925 396.431,160.440 395.687,157.800 395.189 C 155.160 394.691,151.110 393.754,148.800 393.107 C 146.490 392.460,143.160 391.571,141.400 391.130 C 139.640 390.690,138.020 390.195,137.800 390.031 C 137.580 389.866,135.960 389.233,134.200 388.624 C 132.440 388.014,130.100 387.112,129.000 386.620 C 126.078 385.312,124.009 384.512,122.200 383.990 C 120.621 383.535,119.098 382.877,114.000 380.449 C 109.481 378.296,98.976 372.440,94.200 369.410 C 92.660 368.433,91.248 367.626,91.061 367.617 C 90.875 367.608,89.905 366.880,88.905 366.000 C 87.905 365.120,86.865 364.400,86.593 364.400 C 86.321 364.400,85.865 364.120,85.581 363.777 C 85.296 363.434,84.509 362.914,83.832 362.620 C 83.154 362.326,81.395 361.032,79.921 359.743 C 78.448 358.454,76.152 356.500,74.820 355.400 C 70.111 351.514,64.168 346.307,61.600 343.818 C 60.170 342.432,58.682 341.190,58.294 341.059 C 57.906 340.928,57.431 340.411,57.239 339.910 C 57.048 339.410,55.835 338.001,54.545 336.780 C 53.255 335.558,50.421 332.363,48.248 329.680 C 46.074 326.996,44.154 324.800,43.982 324.800 C 43.810 324.800,43.090 323.855,42.382 322.700 C 41.674 321.545,40.445 319.928,39.652 319.106 C 38.858 318.284,37.127 315.926,35.804 313.866 C 34.482 311.806,32.028 308.068,30.352 305.560 C 28.675 303.052,27.166 300.550,26.997 300.000 C 26.828 299.450,26.355 298.571,25.945 298.046 C 25.535 297.521,25.200 296.874,25.200 296.608 C 25.200 296.342,24.856 295.813,24.436 295.433 C 24.016 295.052,23.554 294.270,23.409 293.695 C 23.265 293.120,22.799 292.160,22.373 291.563 C 21.948 290.965,21.600 290.340,21.600 290.174 C 21.600 290.007,20.447 287.515,19.037 284.636 C 15.783 277.988,14.867 275.885,14.142 273.400 C 13.571 271.440,13.353 270.895,11.643 267.156 C 11.179 266.142,10.800 265.047,10.800 264.724 C 10.800 263.840,9.249 258.780,8.533 257.331 C 7.498 255.233,5.915 249.135,4.449 241.600 C 2.924 233.758,2.590 231.496,1.212 219.700 C 1.205 219.645,0.930 219.600,0.600 219.600 C 0.068 219.600,0.000 229.889,0.000 309.800 " stroke="none" fill="#f9fbfb" fill-rule="evenodd"></path></g></svg>