<svg id="svg" version="1.1" xmlns="http://www.w3.org/2000/svg" xmlns:xlink="http://www.w3.org/1999/xlink" width="400" height="400" viewBox="0, 0, 400,400"><g id="svgg"><path id="path0" d="M327.269 107.150 C 327.319 107.233,324.086 108.245,320.083 109.400 C 316.080 110.555,312.804 111.560,312.802 111.633 C 312.801 111.707,314.533 113.324,316.650 115.228 C 344.979 140.696,365.083 165.145,376.910 188.510 C 378.027 190.715,379.037 192.488,379.155 192.448 C 380.021 192.160,387.751 193.389,391.563 194.421 C 393.561 194.962,393.334 194.613,395.069 199.814 C 401.171 218.099,401.083 233.911,394.805 247.162 C 393.412 250.103,393.718 249.875,395.291 246.801 C 411.678 214.757,384.891 158.473,329.802 109.198 C 328.757 108.264,327.783 107.388,327.637 107.250 C 327.344 106.974,327.124 106.915,327.269 107.150 M264.400 125.597 C 259.298 127.100,225.802 136.851,199.400 144.519 C 192.415 146.548,186.520 148.284,186.300 148.378 C 185.593 148.678,195.446 158.291,202.600 164.280 C 230.181 187.370,267.820 203.519,290.059 201.806 C 318.165 199.641,318.403 174.237,290.608 143.100 C 284.884 136.688,271.051 123.928,269.921 124.018 C 269.800 124.027,267.315 124.738,264.400 125.597 M135.352 163.169 C 130.980 164.451,127.403 165.569,127.402 165.654 C 127.395 166.300,142.051 181.085,148.200 186.635 C 161.288 198.447,179.049 212.147,190.172 219.011 L 191.555 219.864 191.977 221.406 C 192.767 224.287,192.547 224.735,190.037 225.358 C 187.802 225.913,188.182 226.062,183.365 222.742 C 161.303 207.536,141.856 190.617,124.428 171.465 C 122.408 169.245,120.653 167.465,120.528 167.508 C 120.403 167.551,112.425 169.877,102.800 172.676 C 78.513 179.740,34.659 192.499,19.200 196.999 C 8.972 199.976,6.286 200.825,6.231 201.100 C 6.132 201.593,6.826 203.549,8.606 207.800 C 18.890 232.355,39.434 259.845,67.083 286.048 L 70.665 289.443 71.647 289.313 C 82.189 287.914,96.287 279.200,108.343 266.630 C 137.384 236.352,149.761 228.845,165.400 232.025 C 175.680 234.116,187.824 245.170,207.009 269.898 C 217.507 283.430,227.432 291.773,238.690 296.528 C 253.749 302.890,266.889 301.891,277.983 293.540 C 279.129 292.678,280.569 291.717,281.183 291.405 C 284.459 289.740,295.917 279.462,298.318 276.035 C 298.558 275.692,298.339 275.600,294.938 274.625 C 282.548 271.071,283.406 271.490,283.406 269.000 C 283.406 266.474,284.751 266.076,288.914 267.368 C 294.670 269.154,302.070 271.212,302.181 271.057 C 305.007 267.142,310.924 257.637,310.676 257.412 C 310.579 257.324,308.970 256.913,307.100 256.498 C 257.817 245.576,195.963 209.706,147.300 163.827 C 145.285 161.927,143.952 160.816,143.700 160.825 C 143.480 160.832,139.723 161.887,135.352 163.169 " stroke="none" fill="#d363b0" fill-rule="evenodd"></path><path id="path1" d="M379.524 193.750 C 397.232 232.988,383.183 258.485,342.793 260.410 C 334.212 260.818,317.334 259.249,311.387 257.489 C 311.159 257.422,310.533 258.281,309.087 260.643 C 307.994 262.428,306.001 265.537,304.657 267.552 L 302.213 271.215 302.720 271.407 C 302.998 271.513,303.348 271.600,303.497 271.600 C 304.517 271.600,305.000 272.492,305.000 274.376 C 305.000 276.678,303.537 277.291,300.375 276.312 L 298.700 275.794 297.607 277.047 C 293.106 282.206,284.867 289.391,280.705 291.786 C 279.745 292.339,278.599 293.116,278.159 293.513 C 271.645 299.398,260.016 302.020,249.463 299.984 C 233.984 296.997,220.479 287.393,206.594 269.500 C 183.048 239.158,171.153 230.212,156.218 231.617 C 144.323 232.737,134.289 240.179,107.000 268.126 C 95.609 279.791,80.650 288.659,70.910 289.519 C 67.803 289.794,67.799 289.689,71.038 292.533 C 88.784 308.113,110.565 324.444,129.200 336.140 C 199.282 380.125,270.666 395.858,304.615 374.803 C 309.134 372.000,317.388 364.169,316.843 363.202 C 316.811 363.146,334.013 337.630,355.069 306.500 C 378.989 271.135,393.699 249.207,394.276 248.054 C 401.057 234.506,401.251 218.683,394.869 199.567 L 393.356 195.033 391.128 194.424 C 387.476 193.426,382.446 192.606,379.953 192.602 L 379.005 192.600 379.524 193.750 M321.800 273.892 C 326.340 274.434,330.414 274.854,334.800 275.232 C 338.764 275.575,349.877 275.569,354.007 275.223 C 357.753 274.908,357.995 274.959,359.167 276.293 C 360.551 277.870,360.167 280.046,358.301 281.200 C 355.197 283.118,333.990 282.557,317.263 280.114 C 314.788 279.753,313.700 278.915,313.310 277.071 C 312.935 275.296,315.152 273.032,317.000 273.301 C 317.385 273.357,319.545 273.623,321.800 273.892 " stroke="none" fill="#0c0c24" fill-rule="evenodd"></path><path id="path2" d="M127.700 17.408 C 107.888 18.887,92.799 25.606,84.377 36.700 C 83.876 37.360,75.067 50.140,64.802 65.100 C 54.537 80.060,44.684 94.415,42.905 97.000 C 41.127 99.585,38.875 102.870,37.901 104.300 C 36.927 105.730,35.546 107.750,34.833 108.790 C 34.119 109.829,33.077 111.359,32.517 112.190 C 31.958 113.020,31.433 113.730,31.350 113.767 C 31.268 113.803,31.200 113.953,31.200 114.100 C 31.200 114.247,31.088 114.407,30.950 114.456 C 30.813 114.505,30.748 114.598,30.807 114.663 C 30.904 114.770,52.992 108.392,90.422 97.450 L 95.743 95.894 94.859 93.697 C 87.121 74.474,87.022 58.494,94.572 47.287 C 112.072 21.309,163.478 23.944,226.289 54.039 L 231.296 56.438 239.357 54.099 C 245.183 52.409,247.567 51.799,247.958 51.897 C 248.658 52.072,248.550 51.984,247.100 51.195 C 246.440 50.836,245.090 50.101,244.100 49.562 C 203.732 27.588,158.549 15.106,127.700 17.408 M75.811 74.752 C 76.936 75.757,78.389 82.469,78.406 86.742 C 78.411 87.794,78.508 88.426,78.706 88.688 C 79.604 89.875,78.902 91.041,76.784 91.879 C 74.611 92.740,73.545 92.237,73.312 90.240 C 72.992 87.503,72.700 86.242,71.778 83.600 C 69.524 77.142,69.521 77.721,71.824 76.067 C 74.875 73.877,74.843 73.887,75.811 74.752 " stroke="none" fill="#37a2eb" fill-rule="evenodd"></path><path id="path3" d="M131.800 29.722 C 86.843 33.532,76.326 65.811,104.765 112.700 C 133.431 159.963,199.820 214.049,263.117 241.706 C 327.392 269.790,379.341 265.741,386.096 232.120 C 393.530 195.118,348.252 133.944,276.000 83.369 C 236.457 55.690,191.259 35.999,155.600 30.915 C 148.491 29.901,136.672 29.309,131.800 29.722 M73.175 75.150 C 72.670 75.563,71.838 76.192,71.325 76.548 C 69.748 77.645,69.748 77.630,71.351 82.141 C 72.801 86.224,73.071 87.237,73.389 89.800 C 73.670 92.067,74.631 92.831,76.173 92.015 C 76.573 91.803,77.133 91.580,77.419 91.519 C 78.653 91.255,79.367 89.812,78.720 88.890 C 78.539 88.630,78.394 87.615,78.307 85.995 C 78.148 83.034,77.766 80.528,77.118 78.200 C 76.858 77.265,76.586 76.245,76.515 75.933 C 76.139 74.303,74.641 73.952,73.175 75.150 M191.800 88.210 C 227.592 90.747,278.512 122.655,301.340 156.850 C 325.836 193.542,303.103 212.825,255.900 195.394 C 220.929 182.479,185.514 154.479,170.296 127.713 C 156.266 103.035,165.356 86.335,191.800 88.210 M81.988 101.452 C 79.143 103.370,79.255 103.962,84.411 114.200 C 104.459 154.011,139.652 192.614,183.365 222.742 C 188.182 226.062,187.802 225.913,190.037 225.358 C 192.547 224.735,192.767 224.287,191.977 221.406 L 191.555 219.864 190.172 219.011 C 161.400 201.256,128.089 169.981,107.425 141.319 C 98.218 128.549,85.926 107.485,84.903 102.724 C 84.589 101.260,83.183 100.647,81.988 101.452 M285.300 266.698 C 285.190 266.735,284.859 266.818,284.564 266.883 C 283.629 267.088,283.400 267.500,283.403 268.964 C 283.409 271.494,282.600 271.098,294.900 274.607 C 296.880 275.172,299.202 275.851,300.060 276.117 C 302.590 276.900,304.343 276.702,304.808 275.581 C 305.316 274.355,304.660 271.800,303.838 271.800 C 303.644 271.800,302.723 271.537,301.792 271.215 C 300.862 270.893,297.445 269.863,294.200 268.926 C 290.955 267.989,287.906 267.083,287.425 266.911 C 286.613 266.622,285.778 266.539,285.300 266.698 M315.496 273.679 C 312.942 274.792,312.800 278.259,315.256 279.529 C 315.922 279.873,322.004 280.664,329.600 281.394 C 342.727 282.655,356.527 282.419,358.520 280.898 C 361.574 278.569,359.441 274.681,355.388 275.190 C 347.174 276.220,336.824 275.831,320.851 273.892 C 316.197 273.327,316.295 273.331,315.496 273.679 " stroke="none" fill="#fbfbfb" fill-rule="evenodd"></path><path id="path4" d="M278.078 70.485 C 277.959 70.613,274.629 71.654,270.679 72.799 L 263.496 74.881 268.498 78.214 C 282.797 87.741,297.219 98.575,309.143 108.746 C 310.596 109.986,311.835 111.000,311.895 111.000 C 311.956 111.000,312.286 111.293,312.629 111.650 C 312.972 112.008,313.138 112.140,312.998 111.945 C 312.668 111.486,311.899 111.762,320.130 109.387 C 326.688 107.494,327.341 107.267,327.169 106.944 C 327.065 106.749,326.894 106.642,326.790 106.706 C 326.685 106.771,326.600 106.694,326.600 106.535 C 326.600 106.376,326.398 106.112,326.150 105.947 C 325.903 105.783,325.437 105.402,325.115 105.101 C 318.261 98.691,301.967 86.262,289.100 77.628 C 285.910 75.488,282.715 73.314,282.000 72.797 C 281.285 72.280,280.250 71.605,279.700 71.297 C 279.150 70.989,278.609 70.628,278.497 70.495 C 278.344 70.312,278.242 70.310,278.078 70.485 M186.400 97.306 C 175.015 100.639,165.322 103.464,164.859 103.584 C 163.785 103.862,163.708 104.216,163.859 108.172 C 164.261 118.731,171.252 131.991,184.039 146.450 C 185.474 148.072,186.698 149.400,186.759 149.400 C 186.820 149.400,186.666 149.184,186.418 148.919 C 185.995 148.469,185.990 148.431,186.333 148.328 C 186.535 148.267,192.415 146.556,199.400 144.525 C 212.404 140.743,250.868 129.553,263.155 125.977 C 266.925 124.880,270.097 124.036,270.205 124.103 C 271.603 124.967,266.095 120.618,262.100 117.702 C 252.141 110.436,238.647 102.844,226.194 97.500 C 219.899 94.799,209.194 91.165,207.703 91.224 C 207.371 91.237,197.785 93.974,186.400 97.306 M108.790 119.839 C 108.630 119.933,105.713 120.822,102.307 121.814 C 98.901 122.807,96.079 123.655,96.035 123.699 C 95.909 123.824,99.047 128.916,102.013 133.399 C 108.662 143.447,115.467 152.299,124.268 162.350 C 127.470 166.005,127.669 166.215,127.493 165.750 C 127.427 165.574,129.847 164.790,135.668 163.100 L 143.938 160.700 139.103 155.700 C 126.829 143.007,118.595 133.237,110.774 122.085 C 109.482 120.242,109.011 119.710,108.790 119.839 M80.900 128.029 C 50.678 136.908,7.473 149.394,7.256 149.311 C 6.988 149.208,6.978 149.227,6.902 149.944 C 6.876 150.188,6.315 151.493,5.654 152.844 C 1.014 162.333,-0.185 172.848,1.920 185.600 C 2.638 189.948,4.835 198.385,5.448 199.150 C 5.559 199.288,5.591 199.400,5.519 199.400 C 5.448 199.400,5.527 199.666,5.695 199.990 C 5.863 200.315,6.006 200.787,6.014 201.040 C 6.027 201.448,6.045 201.457,6.176 201.124 C 6.294 200.822,8.895 199.999,19.212 196.996 C 26.300 194.932,44.070 189.761,58.700 185.505 C 73.330 181.249,93.175 175.472,102.800 172.667 C 112.425 169.863,120.440 167.558,120.612 167.545 C 120.809 167.529,120.031 166.479,118.512 164.708 C 108.535 153.075,98.875 139.744,91.588 127.550 C 90.816 126.259,90.183 125.409,90.002 125.421 C 89.836 125.433,85.740 126.606,80.900 128.029 M386.854 221.800 C 386.854 222.295,386.893 222.498,386.941 222.250 C 386.989 222.003,386.989 221.597,386.941 221.350 C 386.893 221.103,386.854 221.305,386.854 221.800 M386.846 226.000 C 386.846 226.385,386.888 226.543,386.938 226.350 C 386.988 226.157,386.988 225.843,386.938 225.650 C 386.888 225.457,386.846 225.615,386.846 226.000 M343.650 260.338 C 343.843 260.388,344.158 260.388,344.350 260.338 C 344.543 260.288,344.385 260.246,344.000 260.246 C 343.615 260.246,343.457 260.288,343.650 260.338 M343.750 275.748 C 344.438 275.787,345.563 275.787,346.250 275.748 C 346.938 275.709,346.375 275.677,345.000 275.677 C 343.625 275.677,343.063 275.709,343.750 275.748 M342.350 282.345 C 342.707 282.389,343.293 282.389,343.650 282.345 C 344.007 282.300,343.715 282.264,343.000 282.264 C 342.285 282.264,341.993 282.300,342.350 282.345 M347.850 282.343 C 348.153 282.389,348.648 282.389,348.950 282.343 C 349.253 282.297,349.005 282.260,348.400 282.260 C 347.795 282.260,347.548 282.297,347.850 282.343 " stroke="none" fill="#7c86d0" fill-rule="evenodd"></path><path id="path5" d="M239.202 54.122 L 231.304 56.439 230.048 55.819 C 229.358 55.479,228.727 55.202,228.646 55.204 C 228.566 55.206,230.525 56.248,233.000 57.521 C 242.299 62.303,250.339 66.861,259.391 72.483 C 261.531 73.812,263.331 74.891,263.391 74.880 C 264.108 74.747,277.842 70.691,278.036 70.555 C 278.252 70.403,278.253 70.350,278.039 70.265 C 277.896 70.207,277.581 69.958,277.339 69.711 C 276.935 69.298,276.065 68.711,270.300 64.959 C 265.735 61.988,254.224 55.091,250.807 53.280 C 250.206 52.961,249.587 52.582,249.431 52.438 C 249.276 52.295,249.031 52.222,248.887 52.277 C 248.743 52.332,248.597 52.290,248.561 52.184 C 248.354 51.563,246.915 51.861,239.202 54.122 M89.046 70.800 C 89.046 71.185,89.088 71.343,89.138 71.150 C 89.188 70.958,89.188 70.642,89.138 70.450 C 89.088 70.258,89.046 70.415,89.046 70.800 M78.257 85.300 C 78.259 85.850,78.298 86.051,78.344 85.747 C 78.389 85.443,78.388 84.993,78.341 84.747 C 78.293 84.501,78.256 84.750,78.257 85.300 M184.318 88.219 C 173.300 89.127,166.123 94.154,164.183 102.324 C 163.960 103.264,163.820 104.137,163.873 104.266 C 163.925 104.395,163.976 104.346,163.984 104.158 C 163.994 103.935,164.271 103.742,164.776 103.607 C 165.202 103.492,174.975 100.653,186.492 97.299 C 198.010 93.944,207.629 91.194,207.867 91.187 L 208.300 91.175 207.856 90.996 C 206.977 90.642,200.971 89.383,197.869 88.903 C 192.622 88.090,188.448 87.879,184.318 88.219 M73.250 89.700 C 73.253 90.140,73.294 90.296,73.341 90.048 C 73.389 89.799,73.387 89.439,73.337 89.248 C 73.287 89.056,73.248 89.260,73.250 89.700 M95.664 95.600 C 95.718 95.832,94.777 96.179,91.517 97.128 C 89.198 97.804,84.375 99.212,80.800 100.257 C 77.225 101.303,64.490 105.011,52.500 108.498 C 40.510 111.986,30.673 114.912,30.639 115.001 C 30.606 115.090,30.426 115.348,30.239 115.574 C 30.053 115.801,29.601 116.416,29.236 116.943 C 28.492 118.014,26.247 121.272,24.992 123.100 C 24.539 123.760,22.083 127.335,19.534 131.044 C 16.985 134.754,14.225 138.786,13.400 140.005 C 11.725 142.479,10.043 144.917,8.810 146.660 C 8.358 147.298,8.043 147.908,8.109 148.015 C 8.176 148.122,8.111 148.185,7.965 148.155 C 7.805 148.122,7.725 148.246,7.763 148.470 C 7.798 148.674,7.740 148.787,7.634 148.721 C 7.437 148.599,7.115 149.182,7.286 149.352 C 7.338 149.405,14.563 147.359,23.341 144.805 C 32.118 142.252,50.730 136.838,64.700 132.774 C 78.670 128.710,90.157 125.366,90.228 125.343 C 90.298 125.319,89.550 123.860,88.566 122.100 C 84.650 115.095,80.000 105.431,80.000 104.298 C 80.000 103.090,81.994 101.000,83.145 101.000 C 83.756 101.000,84.740 101.965,84.903 102.724 C 85.246 104.319,89.974 113.667,93.894 120.500 C 95.729 123.699,96.393 124.746,96.101 123.976 C 96.020 123.766,96.104 123.618,96.339 123.552 C 100.118 122.502,108.762 119.899,108.942 119.756 C 109.122 119.613,108.834 119.040,107.825 117.532 C 103.630 111.264,100.419 105.445,95.832 95.800 C 95.701 95.525,95.625 95.435,95.664 95.600 M163.670 107.000 C 163.670 107.935,163.704 108.317,163.746 107.850 C 163.789 107.383,163.789 106.618,163.746 106.150 C 163.704 105.683,163.670 106.065,163.670 107.000 M344.950 282.346 C 345.418 282.389,346.183 282.389,346.650 282.346 C 347.118 282.304,346.735 282.270,345.800 282.270 C 344.865 282.270,344.483 282.304,344.950 282.346 " stroke="none" fill="#7397da" fill-rule="evenodd"></path><path id="path6" d="M379.352 192.541 C 379.601 192.589,379.961 192.587,380.152 192.537 C 380.344 192.487,380.140 192.448,379.700 192.450 C 379.260 192.453,379.104 192.494,379.352 192.541 M399.246 219.200 C 399.246 219.585,399.288 219.743,399.338 219.550 C 399.388 219.357,399.388 219.043,399.338 218.850 C 399.288 218.657,399.246 218.815,399.246 219.200 M399.462 222.300 C 399.463 222.960,399.500 223.206,399.545 222.846 C 399.589 222.487,399.589 221.947,399.543 221.646 C 399.497 221.346,399.461 221.640,399.462 222.300 M399.462 227.700 C 399.463 228.360,399.500 228.606,399.545 228.246 C 399.589 227.887,399.589 227.347,399.543 227.046 C 399.497 226.746,399.461 227.040,399.462 227.700 M156.350 231.541 C 156.597 231.589,157.003 231.589,157.250 231.541 C 157.498 231.493,157.295 231.454,156.800 231.454 C 156.305 231.454,156.103 231.493,156.350 231.541 M159.350 231.541 C 159.597 231.589,160.003 231.589,160.250 231.541 C 160.498 231.493,160.295 231.454,159.800 231.454 C 159.305 231.454,159.103 231.493,159.350 231.541 M161.853 231.744 C 162.157 231.789,162.607 231.788,162.853 231.741 C 163.099 231.693,162.850 231.656,162.300 231.657 C 161.750 231.659,161.549 231.698,161.853 231.744 M183.000 242.700 C 183.373 243.085,183.723 243.400,183.778 243.400 C 183.833 243.400,183.573 243.085,183.200 242.700 C 182.827 242.315,182.477 242.000,182.422 242.000 C 182.367 242.000,182.627 242.315,183.000 242.700 M186.500 246.000 C 187.042 246.550,187.530 247.000,187.585 247.000 C 187.640 247.000,187.242 246.550,186.700 246.000 C 186.158 245.450,185.670 245.000,185.615 245.000 C 185.560 245.000,185.958 245.450,186.500 246.000 M190.100 249.800 C 190.530 250.240,190.926 250.600,190.981 250.600 C 191.036 250.600,190.730 250.240,190.300 249.800 C 189.870 249.360,189.474 249.000,189.419 249.000 C 189.364 249.000,189.670 249.360,190.100 249.800 M358.000 302.157 C 315.234 365.402,316.468 363.573,316.844 363.200 C 317.265 362.784,393.660 249.791,393.572 249.716 C 393.532 249.683,377.525 273.281,358.000 302.157 M124.389 250.550 L 123.700 251.300 124.450 250.611 C 125.148 249.969,125.292 249.800,125.139 249.800 C 125.106 249.800,124.768 250.138,124.389 250.550 M117.398 257.350 L 112.900 261.900 117.450 257.402 C 119.953 254.928,122.000 252.880,122.000 252.852 C 122.000 252.710,121.578 253.122,117.398 257.350 M337.550 260.547 C 338.128 260.588,339.072 260.588,339.650 260.547 C 340.228 260.507,339.755 260.474,338.600 260.474 C 337.445 260.474,336.973 260.507,337.550 260.547 M110.292 264.650 L 109.300 265.700 110.350 264.708 C 110.928 264.162,111.400 263.689,111.400 263.658 C 111.400 263.508,111.215 263.674,110.292 264.650 M106.100 269.000 C 104.783 270.320,103.751 271.400,103.806 271.400 C 103.861 271.400,104.983 270.320,106.300 269.000 C 107.617 267.680,108.649 266.600,108.594 266.600 C 108.539 266.600,107.417 267.680,106.100 269.000 M338.650 275.538 C 338.843 275.588,339.158 275.588,339.350 275.538 C 339.543 275.488,339.385 275.446,339.000 275.446 C 338.615 275.446,338.457 275.488,338.650 275.538 M350.050 275.538 C 350.243 275.588,350.558 275.588,350.750 275.538 C 350.943 275.488,350.785 275.446,350.400 275.446 C 350.015 275.446,349.858 275.488,350.050 275.538 M301.952 276.741 C 302.201 276.789,302.561 276.787,302.752 276.737 C 302.944 276.687,302.740 276.648,302.300 276.650 C 301.860 276.653,301.704 276.694,301.952 276.741 M213.200 277.663 C 213.200 277.697,213.493 277.990,213.850 278.313 L 214.500 278.900 213.913 278.250 C 213.365 277.644,213.200 277.508,213.200 277.663 M295.589 279.150 L 294.900 279.900 295.650 279.211 C 296.348 278.569,296.492 278.400,296.339 278.400 C 296.306 278.400,295.968 278.738,295.589 279.150 M291.891 282.850 L 291.100 283.700 291.950 282.909 C 292.740 282.174,292.892 282.000,292.741 282.000 C 292.708 282.000,292.325 282.382,291.891 282.850 M340.550 282.341 C 340.798 282.389,341.203 282.389,341.450 282.341 C 341.697 282.293,341.495 282.254,341.000 282.254 C 340.505 282.254,340.303 282.293,340.550 282.341 M349.650 282.338 C 349.843 282.388,350.158 282.388,350.350 282.338 C 350.543 282.288,350.385 282.246,350.000 282.246 C 349.615 282.246,349.457 282.288,349.650 282.338 M256.355 300.747 C 256.826 300.789,257.546 300.788,257.955 300.745 C 258.365 300.702,257.980 300.668,257.100 300.669 C 256.220 300.669,255.885 300.704,256.355 300.747 " stroke="none" fill="#742c58" fill-rule="evenodd"></path></g></svg>