<svg id="svg" version="1.1" xmlns="http://www.w3.org/2000/svg" xmlns:xlink="http://www.w3.org/1999/xlink" width="400" height="400" viewBox="0, 0, 400,400"><g id="svgg"><path id="path0" d="M0.000 200.000 L 0.000 400.000 161.400 400.000 C 295.168 400.000,322.800 399.909,322.800 399.470 C 322.800 399.178,322.350 398.517,321.800 398.000 C 321.250 397.483,320.800 396.642,320.800 396.130 C 320.800 395.405,320.580 395.200,319.800 395.200 C 318.867 395.200,318.800 395.067,318.800 393.200 C 318.800 391.333,318.733 391.200,317.800 391.200 C 316.969 391.200,316.800 391.009,316.800 390.070 C 316.800 389.381,316.409 388.572,315.800 388.000 C 315.250 387.483,314.800 386.642,314.800 386.130 C 314.800 385.405,314.580 385.200,313.800 385.200 C 312.969 385.200,312.800 385.009,312.800 384.070 C 312.800 383.381,312.409 382.572,311.800 382.000 C 311.250 381.483,310.800 380.642,310.800 380.130 C 310.800 379.405,310.580 379.200,309.800 379.200 C 308.969 379.200,308.800 379.009,308.800 378.070 C 308.800 377.381,308.409 376.572,307.800 376.000 C 307.221 375.456,306.800 374.614,306.800 374.000 C 306.800 373.386,306.379 372.544,305.800 372.000 C 305.250 371.483,304.800 370.642,304.800 370.130 C 304.800 369.467,304.571 369.200,304.000 369.200 C 303.405 369.200,303.200 368.933,303.200 368.158 C 303.200 367.522,302.810 366.808,302.200 366.329 C 301.526 365.798,301.200 365.146,301.200 364.329 C 301.200 363.511,300.874 362.859,300.200 362.329 C 299.540 361.810,299.200 361.144,299.200 360.371 C 299.200 359.389,299.039 359.200,298.200 359.200 C 297.389 359.200,297.200 359.003,297.200 358.158 C 297.200 357.522,296.810 356.808,296.200 356.329 C 295.540 355.810,295.200 355.144,295.200 354.371 C 295.200 353.389,295.039 353.200,294.200 353.200 C 293.389 353.200,293.200 353.003,293.200 352.158 C 293.200 351.522,292.810 350.808,292.200 350.329 C 291.540 349.810,291.200 349.144,291.200 348.371 C 291.200 347.389,291.039 347.200,290.200 347.200 C 289.389 347.200,289.200 347.003,289.200 346.158 C 289.200 345.522,288.810 344.808,288.200 344.329 C 287.540 343.810,287.200 343.144,287.200 342.371 C 287.200 341.389,287.039 341.200,286.200 341.200 C 285.389 341.200,285.200 341.003,285.200 340.158 C 285.200 339.522,284.810 338.808,284.200 338.329 C 283.540 337.810,283.200 337.144,283.200 336.371 C 283.200 335.389,283.039 335.200,282.200 335.200 C 281.267 335.200,281.200 335.067,281.200 333.200 C 281.200 331.333,281.133 331.200,280.200 331.200 C 279.389 331.200,279.200 331.003,279.200 330.158 C 279.200 329.522,278.810 328.808,278.200 328.329 C 277.540 327.810,277.200 327.144,277.200 326.371 C 277.200 325.389,277.039 325.200,276.200 325.200 C 275.389 325.200,275.200 325.003,275.200 324.158 C 275.200 323.522,274.810 322.808,274.200 322.329 C 273.526 321.798,273.200 321.146,273.200 320.329 C 273.200 319.511,272.874 318.859,272.200 318.329 C 271.540 317.810,271.200 317.144,271.200 316.371 C 271.200 315.389,271.039 315.200,270.200 315.200 C 269.389 315.200,269.200 315.003,269.200 314.158 C 269.200 313.522,268.810 312.808,268.200 312.329 C 267.540 311.810,267.200 311.144,267.200 310.371 C 267.200 309.389,267.039 309.200,266.200 309.200 C 265.389 309.200,265.200 309.003,265.200 308.158 C 265.200 307.522,264.810 306.808,264.200 306.329 C 263.540 305.810,263.200 305.144,263.200 304.371 C 263.200 303.389,263.039 303.200,262.200 303.200 C 261.267 303.200,261.200 303.067,261.200 301.200 C 261.200 299.333,261.133 299.200,260.200 299.200 C 259.400 299.200,259.200 299.000,259.200 298.200 C 259.200 297.400,259.000 297.200,258.200 297.200 C 257.267 297.200,257.200 297.066,257.200 295.207 C 257.200 293.311,257.093 293.113,255.000 291.129 C 253.573 289.776,252.800 288.720,252.800 288.122 C 252.800 287.405,252.577 287.200,251.800 287.200 C 250.969 287.200,250.800 287.009,250.800 286.070 C 250.800 285.381,250.409 284.572,249.800 284.000 C 249.250 283.483,248.800 282.642,248.800 282.130 C 248.800 281.405,248.580 281.200,247.800 281.200 C 246.979 281.200,246.798 281.003,246.787 280.100 C 246.779 279.360,246.157 278.320,244.887 276.923 L 243.000 274.846 237.200 274.183 C 227.205 273.041,221.724 272.859,195.200 272.787 C 180.664 272.747,168.826 272.553,168.085 272.343 C 165.446 271.593,164.484 268.309,166.047 265.385 C 167.280 263.076,168.700 260.551,174.600 250.169 C 176.800 246.299,179.077 242.292,179.659 241.266 C 180.627 239.560,181.241 238.430,183.063 235.000 C 187.012 227.566,187.474 227.339,199.256 227.045 C 206.197 226.872,207.291 226.753,208.650 226.024 C 209.496 225.571,210.384 225.200,210.624 225.200 C 210.864 225.200,211.483 224.750,212.000 224.200 L 212.939 223.200 211.870 223.200 C 210.966 223.200,210.800 223.027,210.800 222.085 C 210.800 221.276,210.251 220.429,208.800 219.000 C 207.413 217.634,206.800 216.710,206.800 215.985 C 206.800 215.387,206.372 214.537,205.800 214.000 C 205.228 213.463,204.800 212.613,204.800 212.015 C 204.800 211.290,204.187 210.366,202.800 209.000 C 201.413 207.634,200.800 206.710,200.800 205.985 C 200.800 205.387,200.372 204.537,199.800 204.000 C 199.250 203.483,198.800 202.642,198.800 202.130 C 198.800 201.405,198.580 201.200,197.800 201.200 C 196.969 201.200,196.800 201.009,196.800 200.070 C 196.800 199.381,196.409 198.572,195.800 198.000 C 195.250 197.483,194.800 196.642,194.800 196.130 C 194.800 195.359,194.590 195.200,193.576 195.200 C 192.863 195.200,192.456 195.033,192.600 194.800 C 192.736 194.580,192.671 194.400,192.456 194.400 C 192.241 194.400,191.781 194.291,191.433 194.157 C 190.929 193.964,190.800 194.203,190.800 195.329 C 190.800 196.485,190.637 196.768,189.915 196.872 C 189.265 196.966,188.954 197.370,188.747 198.390 C 188.591 199.155,188.090 200.084,187.632 200.454 C 187.174 200.825,186.800 201.389,186.800 201.708 C 186.800 202.027,186.364 202.615,185.831 203.016 C 185.291 203.421,184.748 204.351,184.605 205.116 C 184.438 206.002,184.073 206.561,183.574 206.691 C 183.077 206.821,182.800 207.241,182.800 207.865 C 182.800 208.399,182.350 209.286,181.800 209.836 C 181.250 210.386,180.800 211.099,180.800 211.421 C 180.800 211.742,180.359 212.389,179.820 212.858 C 179.281 213.326,178.724 214.234,178.584 214.874 C 178.443 215.514,177.984 216.253,177.564 216.515 C 177.144 216.778,176.800 217.295,176.800 217.666 C 176.800 218.036,176.350 218.873,175.800 219.527 C 175.250 220.181,174.800 220.901,174.800 221.127 C 174.800 221.353,174.362 222.060,173.826 222.696 C 173.290 223.333,172.728 224.349,172.576 224.955 C 172.424 225.561,171.962 226.267,171.550 226.524 C 171.137 226.782,170.800 227.247,170.800 227.558 C 170.800 227.870,170.350 228.714,169.800 229.436 C 169.250 230.157,168.800 230.925,168.800 231.143 C 168.800 231.360,168.362 232.060,167.826 232.696 C 167.290 233.333,166.728 234.349,166.576 234.955 C 166.424 235.561,165.962 236.267,165.550 236.524 C 165.137 236.782,164.800 237.199,164.800 237.450 C 164.800 238.009,163.777 240.029,163.326 240.360 C 163.017 240.588,162.381 241.672,160.752 244.748 C 160.359 245.489,159.797 246.389,159.503 246.748 C 159.209 247.106,158.657 248.030,158.277 248.800 C 157.897 249.570,157.050 251.010,156.394 252.000 C 155.739 252.990,154.935 254.373,154.607 255.073 C 154.280 255.773,153.835 256.455,153.617 256.589 C 153.400 256.723,152.862 257.591,152.421 258.517 C 151.981 259.442,151.394 260.560,151.118 261.000 C 150.842 261.440,150.087 262.700,149.441 263.800 C 146.901 268.123,145.579 269.921,144.121 271.037 L 142.600 272.200 120.265 272.200 L 97.931 272.200 96.965 271.078 C 94.841 268.608,95.075 268.021,104.805 251.400 C 107.114 247.455,112.368 238.333,113.789 235.800 C 114.283 234.920,116.088 231.770,117.800 228.800 C 119.513 225.830,121.251 222.770,121.663 222.000 C 122.075 221.230,122.904 219.752,123.506 218.716 C 125.571 215.162,130.601 206.265,132.400 202.985 C 133.390 201.181,134.406 199.456,134.658 199.152 C 134.910 198.849,135.411 197.970,135.771 197.200 C 136.131 196.430,136.849 195.080,137.367 194.200 C 139.031 191.370,140.802 188.233,141.431 187.000 C 141.767 186.340,142.652 184.810,143.397 183.600 C 144.143 182.390,145.145 180.545,145.625 179.500 C 146.106 178.455,146.637 177.600,146.806 177.600 C 146.975 177.600,147.234 177.117,147.383 176.527 C 147.531 175.937,148.090 174.933,148.626 174.296 C 149.162 173.660,149.600 172.820,149.600 172.431 C 149.600 172.042,149.950 171.407,150.377 171.021 C 150.805 170.634,151.271 169.788,151.413 169.141 C 151.555 168.494,151.991 167.658,152.383 167.282 C 152.774 166.907,153.306 165.941,153.566 165.135 C 153.826 164.330,154.300 163.570,154.619 163.448 C 154.939 163.325,155.200 162.885,155.200 162.468 C 155.200 162.052,155.650 161.049,156.200 160.238 C 156.750 159.428,157.200 158.618,157.200 158.438 C 157.200 158.259,157.622 157.489,158.138 156.729 C 158.654 155.969,159.187 154.905,159.323 154.365 C 159.458 153.826,159.936 152.990,160.385 152.509 C 160.835 152.026,161.200 151.088,161.200 150.417 C 161.200 149.374,161.348 149.200,162.238 149.200 C 163.633 149.200,163.305 145.625,161.759 143.978 C 161.232 143.416,160.800 142.561,160.800 142.078 C 160.800 141.408,160.563 141.200,159.800 141.200 C 159.000 141.200,158.800 141.000,158.800 140.200 C 158.800 139.400,158.600 139.200,157.800 139.200 C 156.867 139.200,156.800 139.067,156.800 137.200 C 156.800 135.333,156.733 135.200,155.800 135.200 C 154.969 135.200,154.800 135.009,154.800 134.070 C 154.800 133.381,154.409 132.572,153.800 132.000 C 153.221 131.456,152.800 130.614,152.800 130.000 C 152.800 129.386,152.379 128.544,151.800 128.000 C 151.250 127.483,150.800 126.642,150.800 126.130 C 150.800 125.405,150.580 125.200,149.800 125.200 C 149.000 125.200,148.800 125.000,148.800 124.200 C 148.800 123.400,148.600 123.200,147.800 123.200 C 146.867 123.200,146.800 123.067,146.800 121.200 C 146.800 119.333,146.733 119.200,145.800 119.200 C 144.969 119.200,144.800 119.009,144.800 118.070 C 144.800 117.381,144.409 116.572,143.800 116.000 C 143.250 115.483,142.800 114.642,142.800 114.130 C 142.800 113.405,142.580 113.200,141.800 113.200 C 140.969 113.200,140.800 113.009,140.800 112.070 C 140.800 111.381,140.409 110.572,139.800 110.000 C 139.221 109.456,138.800 108.614,138.800 108.000 C 138.800 107.386,138.379 106.544,137.800 106.000 C 137.250 105.483,136.800 104.642,136.800 104.130 C 136.800 103.405,136.580 103.200,135.800 103.200 C 134.969 103.200,134.800 103.009,134.800 102.070 C 134.800 101.381,134.409 100.572,133.800 100.000 C 133.250 99.483,132.800 98.642,132.800 98.130 C 132.800 97.405,132.580 97.200,131.800 97.200 C 130.867 97.200,130.800 97.067,130.800 95.200 C 130.800 93.333,130.733 93.200,129.800 93.200 C 128.972 93.200,128.800 93.008,128.800 92.085 C 128.800 91.276,128.251 90.429,126.800 89.000 C 124.953 87.181,124.800 86.884,124.800 85.115 C 124.800 83.339,124.727 83.200,123.800 83.200 C 123.000 83.200,122.800 83.000,122.800 82.200 C 122.800 81.400,122.600 81.200,121.800 81.200 C 120.969 81.200,120.800 81.009,120.800 80.070 C 120.800 79.381,120.409 78.572,119.800 78.000 C 119.221 77.456,118.800 76.614,118.800 76.000 C 118.800 75.386,118.379 74.544,117.800 74.000 C 117.250 73.483,116.800 72.642,116.800 72.130 C 116.800 71.405,116.580 71.200,115.800 71.200 C 114.972 71.200,114.800 71.008,114.800 70.085 C 114.800 69.276,114.251 68.429,112.800 67.000 C 111.413 65.634,110.800 64.710,110.800 63.985 C 110.800 63.387,110.372 62.537,109.800 62.000 C 109.250 61.483,108.800 60.642,108.800 60.130 C 108.800 59.405,108.580 59.200,107.800 59.200 C 107.000 59.200,106.800 59.000,106.800 58.200 C 106.800 57.400,106.600 57.200,105.800 57.200 C 104.859 57.200,104.800 57.075,104.800 55.070 C 104.800 53.315,104.624 52.774,103.800 52.000 C 103.250 51.483,102.800 50.642,102.800 50.130 C 102.800 49.405,102.580 49.200,101.800 49.200 C 100.969 49.200,100.800 49.009,100.800 48.070 C 100.800 47.381,100.409 46.572,99.800 46.000 C 99.250 45.483,98.800 44.642,98.800 44.130 C 98.800 43.405,98.580 43.200,97.800 43.200 C 96.969 43.200,96.800 43.009,96.800 42.070 C 96.800 41.381,96.409 40.572,95.800 40.000 C 95.221 39.456,94.800 38.614,94.800 38.000 C 94.800 37.386,94.379 36.544,93.800 36.000 C 93.250 35.483,92.800 34.642,92.800 34.130 C 92.800 33.405,92.580 33.200,91.800 33.200 C 90.969 33.200,90.800 33.009,90.800 32.070 C 90.800 31.381,90.409 30.572,89.800 30.000 C 89.250 29.483,88.800 28.642,88.800 28.130 C 88.800 27.405,88.580 27.200,87.800 27.200 C 87.000 27.200,86.800 27.000,86.800 26.200 C 86.800 25.400,86.600 25.200,85.800 25.200 C 84.867 25.200,84.800 25.067,84.800 23.200 C 84.800 21.333,84.733 21.200,83.800 21.200 C 82.969 21.200,82.800 21.009,82.800 20.070 C 82.800 19.381,82.409 18.572,81.800 18.000 C 81.250 17.483,80.800 16.642,80.800 16.130 C 80.800 15.405,80.580 15.200,79.800 15.200 C 78.969 15.200,78.800 15.009,78.800 14.070 C 78.800 13.381,78.409 12.572,77.800 12.000 C 77.250 11.483,76.800 10.642,76.800 10.130 C 76.800 9.405,76.580 9.200,75.800 9.200 C 74.867 9.200,74.800 9.067,74.800 7.200 C 74.800 5.333,74.733 5.200,73.800 5.200 C 72.969 5.200,72.800 5.009,72.800 4.070 C 72.800 3.381,72.409 2.572,71.800 2.000 C 71.250 1.483,70.800 0.822,70.800 0.530 C 70.800 0.094,64.531 0.000,35.400 0.000 L 0.000 0.000 0.000 200.000 " stroke="none" fill="#4f3bfc" fill-rule="evenodd"></path><path id="path1" d="M188.800 1.600 C 188.800 3.040,188.900 3.200,189.800 3.200 C 190.580 3.200,190.800 3.405,190.800 4.130 C 190.800 4.642,191.250 5.483,191.800 6.000 C 192.372 6.537,192.800 7.387,192.800 7.985 C 192.800 8.710,193.413 9.634,194.800 11.000 C 196.251 12.429,196.800 13.276,196.800 14.085 C 196.800 15.008,196.972 15.200,197.800 15.200 C 198.580 15.200,198.800 15.405,198.800 16.130 C 198.800 16.642,199.250 17.483,199.800 18.000 C 200.372 18.537,200.800 19.387,200.800 19.985 C 200.800 20.710,201.413 21.634,202.800 23.000 C 204.187 24.366,204.800 25.290,204.800 26.015 C 204.800 26.613,205.228 27.463,205.800 28.000 C 206.409 28.572,206.800 29.381,206.800 30.070 C 206.800 31.009,206.969 31.200,207.800 31.200 C 208.580 31.200,208.800 31.405,208.800 32.130 C 208.800 32.642,209.250 33.483,209.800 34.000 C 210.409 34.572,210.800 35.381,210.800 36.070 C 210.800 37.009,210.969 37.200,211.800 37.200 C 212.733 37.200,212.800 37.333,212.800 39.200 C 212.800 41.067,212.867 41.200,213.800 41.200 C 214.600 41.200,214.800 41.400,214.800 42.200 C 214.800 43.000,215.000 43.200,215.800 43.200 C 216.733 43.200,216.800 43.333,216.800 45.200 C 216.800 47.067,216.867 47.200,217.800 47.200 C 218.580 47.200,218.800 47.405,218.800 48.130 C 218.800 48.642,219.250 49.483,219.800 50.000 C 220.409 50.572,220.800 51.381,220.800 52.070 C 220.800 53.009,220.969 53.200,221.800 53.200 C 222.580 53.200,222.800 53.405,222.800 54.130 C 222.800 54.642,223.250 55.483,223.800 56.000 C 224.379 56.544,224.800 57.386,224.800 58.000 C 224.800 58.614,225.221 59.456,225.800 60.000 C 226.409 60.572,226.800 61.381,226.800 62.070 C 226.800 63.009,226.969 63.200,227.800 63.200 C 228.600 63.200,228.800 63.400,228.800 64.200 C 228.800 65.000,229.000 65.200,229.800 65.200 C 230.733 65.200,230.800 65.333,230.800 67.200 C 230.800 69.067,230.867 69.200,231.800 69.200 C 232.733 69.200,232.800 69.333,232.800 71.200 C 232.800 73.067,232.867 73.200,233.800 73.200 C 234.580 73.200,234.800 73.405,234.800 74.130 C 234.800 74.642,235.250 75.483,235.800 76.000 C 236.409 76.572,236.800 77.381,236.800 78.070 C 236.800 79.009,236.969 79.200,237.800 79.200 C 238.580 79.200,238.800 79.405,238.800 80.130 C 238.800 80.642,239.250 81.483,239.800 82.000 C 240.409 82.572,240.800 83.381,240.800 84.070 C 240.800 85.009,240.969 85.200,241.800 85.200 C 242.580 85.200,242.800 85.405,242.800 86.130 C 242.800 86.642,243.250 87.483,243.800 88.000 C 244.409 88.572,244.800 89.381,244.800 90.070 C 244.800 91.009,244.969 91.200,245.800 91.200 C 246.733 91.200,246.800 91.333,246.800 93.200 C 246.800 95.067,246.867 95.200,247.800 95.200 C 248.600 95.200,248.800 95.400,248.800 96.200 C 248.800 97.000,249.000 97.200,249.800 97.200 C 250.580 97.200,250.800 97.405,250.800 98.130 C 250.800 98.642,251.250 99.483,251.800 100.000 C 252.409 100.572,252.800 101.381,252.800 102.070 C 252.800 103.059,252.950 103.200,254.000 103.200 C 255.173 103.200,255.200 103.244,255.200 105.200 C 255.200 107.067,255.267 107.200,256.200 107.200 C 257.039 107.200,257.200 107.389,257.200 108.371 C 257.200 109.144,257.540 109.810,258.200 110.329 C 258.874 110.859,259.200 111.511,259.200 112.329 C 259.200 113.146,259.526 113.798,260.200 114.329 C 260.810 114.808,261.200 115.522,261.200 116.158 C 261.200 117.003,261.389 117.200,262.200 117.200 C 263.000 117.200,263.200 117.400,263.200 118.200 C 263.200 119.000,263.400 119.200,264.200 119.200 C 265.133 119.200,265.200 119.333,265.200 121.200 C 265.200 123.067,265.267 123.200,266.200 123.200 C 267.133 123.200,267.200 123.333,267.200 125.200 C 267.200 127.067,267.267 127.200,268.200 127.200 C 269.000 127.200,269.200 127.400,269.200 128.200 C 269.200 129.000,269.400 129.200,270.200 129.200 C 271.133 129.200,271.200 129.333,271.200 131.200 C 271.200 133.067,271.267 133.200,272.200 133.200 C 273.028 133.200,273.200 133.392,273.200 134.317 C 273.200 135.140,273.728 135.933,275.200 137.322 C 276.711 138.748,277.200 139.495,277.200 140.376 C 277.200 141.143,277.542 141.811,278.200 142.329 C 278.810 142.808,279.200 143.522,279.200 144.158 C 279.200 145.003,279.389 145.200,280.200 145.200 C 281.039 145.200,281.200 145.389,281.200 146.371 C 281.200 147.144,281.540 147.810,282.200 148.329 C 282.856 148.844,283.200 149.514,283.200 150.275 C 283.200 151.148,283.694 151.901,285.200 153.322 C 286.668 154.708,287.200 155.506,287.200 156.322 C 287.200 157.139,287.732 157.937,289.200 159.322 C 291.080 161.097,291.200 161.329,291.200 163.205 C 291.200 165.066,291.267 165.200,292.200 165.200 C 293.000 165.200,293.200 165.400,293.200 166.200 C 293.200 167.000,293.400 167.200,294.200 167.200 C 295.039 167.200,295.200 167.389,295.200 168.371 C 295.200 169.144,295.540 169.810,296.200 170.329 C 296.874 170.859,297.200 171.511,297.200 172.329 C 297.200 173.146,297.526 173.798,298.200 174.329 C 298.810 174.808,299.200 175.522,299.200 176.158 C 299.200 177.003,299.389 177.200,300.200 177.200 C 301.000 177.200,301.200 177.400,301.200 178.200 C 301.200 179.000,301.400 179.200,302.200 179.200 C 303.133 179.200,303.200 179.333,303.200 181.200 C 303.200 182.933,303.307 183.200,304.000 183.200 C 304.571 183.200,304.800 183.467,304.800 184.130 C 304.800 184.642,305.250 185.483,305.800 186.000 C 306.409 186.572,306.800 187.381,306.800 188.070 C 306.800 189.009,306.969 189.200,307.800 189.200 C 308.580 189.200,308.800 189.405,308.800 190.130 C 308.800 190.642,309.250 191.483,309.800 192.000 C 310.379 192.544,310.800 193.386,310.800 194.000 C 310.800 194.614,311.221 195.456,311.800 196.000 C 312.409 196.572,312.800 197.381,312.800 198.070 C 312.800 199.009,312.969 199.200,313.800 199.200 C 314.580 199.200,314.800 199.405,314.800 200.130 C 314.800 200.642,315.250 201.483,315.800 202.000 C 316.409 202.572,316.800 203.381,316.800 204.070 C 316.800 205.009,316.969 205.200,317.800 205.200 C 318.580 205.200,318.800 205.405,318.800 206.130 C 318.800 206.642,319.250 207.483,319.800 208.000 C 320.379 208.544,320.800 209.386,320.800 210.000 C 320.800 210.614,321.221 211.456,321.800 212.000 C 322.409 212.572,322.800 213.381,322.800 214.070 C 322.800 215.009,322.969 215.200,323.800 215.200 C 324.600 215.200,324.800 215.400,324.800 216.200 C 324.800 217.000,325.000 217.200,325.800 217.200 C 326.580 217.200,326.800 217.405,326.800 218.130 C 326.800 218.642,327.250 219.483,327.800 220.000 C 328.379 220.544,328.800 221.386,328.800 222.000 C 328.800 222.614,329.221 223.456,329.800 224.000 C 330.372 224.537,330.800 225.387,330.800 225.985 C 330.800 226.710,331.413 227.634,332.800 229.000 C 334.699 230.871,334.800 231.076,334.800 233.085 C 334.800 235.074,334.859 235.200,335.800 235.200 C 336.600 235.200,336.800 235.400,336.800 236.200 C 336.800 237.000,337.000 237.200,337.800 237.200 C 338.580 237.200,338.800 237.405,338.800 238.130 C 338.800 238.642,339.250 239.483,339.800 240.000 C 340.409 240.572,340.800 241.381,340.800 242.070 C 340.800 243.009,340.969 243.200,341.800 243.200 C 342.733 243.200,342.800 243.333,342.800 245.200 C 342.800 247.067,342.867 247.200,343.800 247.200 C 344.600 247.200,344.800 247.400,344.800 248.200 C 344.800 249.000,345.000 249.200,345.800 249.200 C 346.733 249.200,346.800 249.333,346.800 251.200 C 346.800 253.067,346.867 253.200,347.800 253.200 C 348.600 253.200,348.800 253.400,348.800 254.200 C 348.800 255.000,349.000 255.200,349.800 255.200 C 350.733 255.200,350.800 255.333,350.800 257.200 C 350.800 259.067,350.867 259.200,351.800 259.200 C 352.733 259.200,352.800 259.333,352.800 261.200 C 352.800 263.067,352.867 263.200,353.800 263.200 C 354.600 263.200,354.800 263.400,354.800 264.200 C 354.800 265.000,355.000 265.200,355.800 265.200 C 356.580 265.200,356.800 265.405,356.800 266.130 C 356.800 266.642,357.250 267.483,357.800 268.000 C 358.379 268.544,358.800 269.386,358.800 270.000 C 358.800 270.614,359.221 271.456,359.800 272.000 C 360.409 272.572,360.800 273.381,360.800 274.070 C 360.800 275.009,360.969 275.200,361.800 275.200 C 362.600 275.200,362.800 275.400,362.800 276.200 C 362.800 277.000,363.000 277.200,363.800 277.200 C 364.580 277.200,364.800 277.405,364.800 278.130 C 364.800 278.642,365.250 279.483,365.800 280.000 C 366.624 280.774,366.800 281.315,366.800 283.070 C 366.800 285.075,366.859 285.200,367.800 285.200 C 368.600 285.200,368.800 285.400,368.800 286.200 C 368.800 287.000,369.000 287.200,369.800 287.200 C 370.733 287.200,370.800 287.333,370.800 289.200 C 370.800 291.067,370.867 291.200,371.800 291.200 C 372.600 291.200,372.800 291.400,372.800 292.200 C 372.800 293.000,373.000 293.200,373.800 293.200 C 374.729 293.200,374.800 293.338,374.800 295.130 C 374.800 296.672,375.001 297.250,375.800 298.000 C 376.409 298.572,376.800 299.381,376.800 300.070 C 376.800 301.009,376.969 301.200,377.800 301.200 C 378.580 301.200,378.800 301.405,378.800 302.130 C 378.800 302.642,379.250 303.483,379.800 304.000 C 380.409 304.572,380.800 305.381,380.800 306.070 C 380.800 307.009,380.969 307.200,381.800 307.200 C 382.575 307.200,382.800 307.406,382.800 308.115 C 382.800 308.684,383.557 309.776,384.800 311.000 C 386.251 312.429,386.800 313.276,386.800 314.085 C 386.800 315.008,386.972 315.200,387.800 315.200 C 388.733 315.200,388.800 315.333,388.800 317.200 C 388.800 319.067,388.867 319.200,389.800 319.200 C 390.733 319.200,390.800 319.333,390.800 321.200 C 390.800 323.067,390.867 323.200,391.800 323.200 C 392.580 323.200,392.800 323.405,392.800 324.130 C 392.800 324.642,393.250 325.483,393.800 326.000 C 394.409 326.572,394.800 327.381,394.800 328.070 C 394.800 329.009,394.969 329.200,395.800 329.200 C 396.733 329.200,396.800 329.333,396.800 331.200 C 396.800 333.067,396.867 333.200,397.800 333.200 C 398.600 333.200,398.800 333.400,398.800 334.200 C 398.800 334.822,399.027 335.200,399.400 335.200 C 399.931 335.200,400.000 327.489,400.000 268.200 C 400.000 208.911,399.931 201.200,399.400 201.200 C 398.983 201.200,398.800 200.781,398.800 199.829 C 398.800 198.843,398.519 198.237,397.800 197.671 C 397.250 197.239,396.800 196.506,396.800 196.042 C 396.800 195.411,396.550 195.200,395.800 195.200 C 394.928 195.200,394.800 195.025,394.800 193.829 C 394.800 192.843,394.519 192.237,393.800 191.671 C 393.250 191.239,392.800 190.506,392.800 190.042 C 392.800 189.411,392.550 189.200,391.800 189.200 C 390.928 189.200,390.800 189.025,390.800 187.829 C 390.800 186.843,390.519 186.237,389.800 185.671 C 389.250 185.239,388.800 184.506,388.800 184.042 C 388.800 183.411,388.550 183.200,387.800 183.200 C 386.867 183.200,386.800 183.067,386.800 181.200 C 386.800 179.333,386.733 179.200,385.800 179.200 C 384.965 179.200,384.800 179.010,384.800 178.047 C 384.800 177.235,384.566 176.832,384.011 176.687 C 383.451 176.541,383.146 176.005,382.960 174.840 C 382.738 173.455,382.550 173.200,381.749 173.200 C 380.877 173.200,380.800 173.038,380.800 171.200 C 380.800 169.333,380.733 169.200,379.800 169.200 C 379.000 169.200,378.800 169.000,378.800 168.200 C 378.800 167.400,378.600 167.200,377.800 167.200 C 376.956 167.200,376.800 167.013,376.800 166.000 C 376.800 165.191,376.601 164.800,376.190 164.800 C 375.478 164.800,374.800 163.240,374.800 161.603 C 374.800 160.858,374.451 160.183,373.800 159.671 C 373.250 159.239,372.800 158.506,372.800 158.042 C 372.800 157.411,372.550 157.200,371.800 157.200 C 370.928 157.200,370.800 157.025,370.800 155.829 C 370.800 154.843,370.519 154.237,369.800 153.671 C 369.190 153.192,368.800 152.478,368.800 151.842 C 368.800 151.175,368.581 150.800,368.190 150.800 C 367.855 150.800,367.409 150.350,367.200 149.800 C 366.991 149.250,366.541 148.800,366.200 148.800 C 365.510 148.800,364.800 147.266,364.800 145.774 C 364.800 145.168,364.570 144.800,364.190 144.800 C 363.855 144.800,363.409 144.350,363.200 143.800 C 362.991 143.250,362.541 142.800,362.200 142.800 C 361.859 142.800,361.409 142.350,361.200 141.800 C 360.991 141.250,360.635 140.800,360.410 140.800 C 360.184 140.800,360.000 140.461,360.000 140.046 C 360.000 139.631,359.731 138.776,359.402 138.146 C 359.074 137.516,358.804 136.505,358.802 135.900 C 358.801 135.182,358.588 134.800,358.190 134.800 C 357.855 134.800,357.409 134.350,357.200 133.800 C 356.991 133.250,356.635 132.800,356.410 132.800 C 356.184 132.800,356.000 132.468,356.000 132.061 C 356.000 130.915,354.807 128.800,354.161 128.800 C 353.841 128.800,353.409 128.350,353.200 127.800 C 352.991 127.250,352.541 126.800,352.200 126.800 C 351.510 126.800,350.800 125.266,350.800 123.774 C 350.800 123.168,350.570 122.800,350.190 122.800 C 349.855 122.800,349.409 122.350,349.200 121.800 C 348.991 121.250,348.541 120.800,348.200 120.800 C 347.510 120.800,346.800 119.266,346.800 117.774 C 346.800 117.168,346.570 116.800,346.190 116.800 C 345.517 116.800,344.800 115.263,344.800 113.821 C 344.800 113.234,344.510 112.817,344.011 112.687 C 343.451 112.541,343.146 112.005,342.960 110.840 C 342.738 109.455,342.550 109.200,341.749 109.200 C 340.961 109.200,340.800 108.996,340.800 108.000 C 340.800 107.191,340.601 106.800,340.190 106.800 C 339.855 106.800,339.409 106.350,339.200 105.800 C 338.991 105.250,338.541 104.800,338.200 104.800 C 337.510 104.800,336.800 103.266,336.800 101.774 C 336.800 101.168,336.570 100.800,336.190 100.800 C 335.508 100.800,334.800 99.258,334.800 97.774 C 334.800 97.168,334.570 96.800,334.190 96.800 C 333.855 96.800,333.409 96.350,333.200 95.800 C 332.991 95.250,332.541 94.800,332.200 94.800 C 331.859 94.800,331.409 94.350,331.200 93.800 C 330.991 93.250,330.635 92.800,330.410 92.800 C 330.184 92.800,330.000 92.403,330.000 91.917 C 330.000 91.431,329.356 90.374,328.569 89.568 C 327.553 88.528,327.073 87.623,326.916 86.451 C 326.777 85.412,326.488 84.800,326.137 84.800 C 325.831 84.800,325.409 84.350,325.200 83.800 C 324.991 83.250,324.541 82.800,324.200 82.800 C 323.510 82.800,322.800 81.266,322.800 79.774 C 322.800 79.168,322.570 78.800,322.190 78.800 C 321.508 78.800,320.800 77.258,320.800 75.774 C 320.800 75.168,320.570 74.800,320.190 74.800 C 319.855 74.800,319.409 74.350,319.200 73.800 C 318.991 73.250,318.541 72.800,318.200 72.800 C 317.510 72.800,316.800 71.266,316.800 69.774 C 316.800 69.168,316.570 68.800,316.190 68.800 C 315.855 68.800,315.409 68.350,315.200 67.800 C 314.991 67.250,314.541 66.800,314.200 66.800 C 313.518 66.800,312.800 65.271,312.800 63.821 C 312.800 63.234,312.510 62.817,312.011 62.687 C 311.451 62.541,311.146 62.005,310.960 60.840 C 310.738 59.455,310.550 59.200,309.749 59.200 C 308.877 59.200,308.800 59.038,308.800 57.200 C 308.800 55.495,308.687 55.200,308.033 55.200 C 306.757 55.200,306.000 54.754,306.000 54.003 C 306.000 53.612,305.731 52.776,305.402 52.146 C 305.074 51.516,304.804 50.595,304.802 50.100 C 304.801 49.467,304.562 49.200,304.000 49.200 C 303.382 49.200,303.200 48.933,303.200 48.028 C 303.200 47.117,303.000 46.827,302.300 46.728 C 301.740 46.648,301.354 46.279,301.279 45.750 C 301.212 45.282,300.717 44.486,300.179 43.980 C 299.600 43.436,299.200 42.610,299.200 41.958 C 299.200 41.119,298.985 40.825,298.300 40.728 C 297.552 40.622,297.379 40.313,297.277 38.900 C 297.168 37.398,297.040 37.200,296.177 37.200 C 295.271 37.200,295.200 37.054,295.200 35.200 C 295.200 33.333,295.133 33.200,294.200 33.200 C 293.361 33.200,293.200 33.011,293.200 32.028 C 293.200 31.117,293.000 30.827,292.300 30.728 C 291.552 30.622,291.379 30.313,291.277 28.900 C 291.168 27.398,291.040 27.200,290.177 27.200 C 289.363 27.200,289.200 27.004,289.200 26.028 C 289.200 25.117,289.000 24.827,288.300 24.728 C 287.552 24.622,287.379 24.313,287.277 22.900 C 287.168 21.398,287.040 21.200,286.177 21.200 C 285.271 21.200,285.200 21.054,285.200 19.200 C 285.200 17.333,285.133 17.200,284.200 17.200 C 283.400 17.200,283.200 17.000,283.200 16.200 C 283.200 15.400,283.000 15.200,282.200 15.200 C 281.267 15.200,281.200 15.067,281.200 13.200 C 281.200 11.333,281.133 11.200,280.200 11.200 C 279.361 11.200,279.200 11.011,279.200 10.028 C 279.200 9.117,279.000 8.827,278.300 8.728 C 277.534 8.619,277.382 8.321,277.279 6.725 C 277.177 5.144,277.021 4.831,276.279 4.725 C 275.730 4.647,275.353 4.271,275.275 3.725 C 275.198 3.179,274.821 2.802,274.275 2.725 C 273.613 2.630,273.370 2.284,273.275 1.300 L 273.149 0.000 230.975 0.000 L 188.800 0.000 188.800 1.600 M199.773 89.658 C 198.565 89.980,196.874 91.943,195.516 94.600 C 194.817 95.968,194.528 96.487,188.402 107.400 C 185.932 111.800,183.543 116.030,183.092 116.800 C 182.641 117.570,182.468 118.020,182.707 117.800 C 183.116 117.424,185.589 113.217,191.407 103.000 C 200.804 86.497,201.166 86.393,208.004 98.200 C 209.302 100.441,213.315 107.386,215.284 110.800 C 216.363 112.670,217.416 114.470,217.625 114.800 C 218.226 115.749,223.100 124.191,225.707 128.800 C 227.014 131.110,228.489 133.630,228.986 134.400 C 229.483 135.170,231.015 137.780,232.391 140.200 C 233.768 142.620,235.888 146.310,237.103 148.400 C 238.319 150.490,240.607 154.450,242.188 157.200 C 243.769 159.950,246.691 164.990,248.681 168.400 C 255.370 179.862,262.528 192.172,264.672 195.900 C 265.843 197.935,267.790 201.325,269.000 203.433 C 271.474 207.745,271.638 208.750,270.180 210.662 L 269.159 212.000 247.913 212.000 C 236.228 212.000,226.742 212.074,226.833 212.164 C 226.925 212.254,236.518 212.386,248.150 212.459 L 269.300 212.590 270.650 211.028 C 272.697 208.661,272.507 207.811,268.400 200.941 C 266.849 198.347,266.313 197.421,264.703 194.554 C 264.099 193.479,263.158 191.880,262.612 191.000 C 261.673 189.489,260.598 187.627,258.479 183.845 C 257.972 182.940,257.123 181.480,256.593 180.600 C 256.063 179.720,255.166 178.190,254.600 177.200 C 254.034 176.210,253.053 174.500,252.420 173.400 C 251.787 172.300,251.009 170.853,250.690 170.184 C 250.372 169.515,249.861 168.705,249.556 168.384 C 249.250 168.063,248.640 167.094,248.200 166.232 C 245.992 161.902,245.581 161.200,245.254 161.200 C 245.059 161.200,244.800 160.705,244.677 160.100 C 244.555 159.495,244.128 158.632,243.727 158.182 C 242.892 157.243,241.522 154.879,240.549 152.700 C 240.180 151.875,239.734 151.200,239.558 151.200 C 239.382 151.200,238.868 150.435,238.417 149.500 C 237.966 148.565,237.067 146.900,236.420 145.800 C 235.773 144.700,234.964 143.260,234.624 142.600 C 234.283 141.940,233.383 140.410,232.623 139.200 C 231.863 137.990,230.872 136.280,230.422 135.400 C 229.129 132.871,227.605 130.254,227.289 130.017 C 227.130 129.898,226.640 129.094,226.200 128.232 C 223.985 123.888,223.579 123.200,223.236 123.200 C 223.031 123.200,222.748 122.672,222.606 122.028 C 222.464 121.383,222.088 120.639,221.770 120.375 C 221.451 120.111,220.821 119.153,220.369 118.247 C 218.600 114.699,217.719 113.119,217.367 112.865 C 217.165 112.719,216.681 111.970,216.291 111.200 C 215.901 110.430,215.057 108.900,214.416 107.800 C 213.774 106.700,212.876 105.080,212.420 104.200 C 211.965 103.320,211.063 101.790,210.417 100.800 C 209.771 99.810,208.864 98.280,208.401 97.400 C 204.873 90.688,202.821 88.846,199.773 89.658 M176.909 130.000 C 176.909 130.990,176.987 131.395,177.082 130.900 C 177.178 130.405,177.178 129.595,177.082 129.100 C 176.987 128.605,176.909 129.010,176.909 130.000 M254.000 228.000 L 233.400 228.211 257.255 228.305 L 281.110 228.400 283.055 229.700 C 284.902 230.935,287.503 234.621,290.321 240.000 C 290.725 240.770,292.734 244.280,294.786 247.800 C 306.555 267.987,306.613 268.106,305.591 270.017 C 304.660 271.756,304.287 271.791,284.000 272.008 L 264.600 272.215 284.211 272.308 C 305.425 272.408,304.895 272.457,306.067 270.279 C 306.706 269.092,306.509 266.426,305.691 265.200 C 305.324 264.650,304.748 263.712,304.412 263.117 C 302.788 260.241,299.304 254.192,298.514 252.876 C 298.027 252.064,297.166 250.590,296.600 249.600 C 296.034 248.610,295.047 246.900,294.407 245.800 C 293.767 244.700,292.964 243.260,292.624 242.600 C 292.283 241.940,291.379 240.410,290.613 239.200 C 289.848 237.990,288.850 236.280,288.397 235.400 C 285.330 229.443,282.421 227.515,276.800 227.712 C 275.590 227.754,265.330 227.884,254.000 228.000 " stroke="none" fill="#2194fc" fill-rule="evenodd"></path><path id="path2" d="M199.748 90.395 C 198.509 90.895,197.007 93.165,191.407 103.000 C 190.029 105.420,187.589 109.650,185.985 112.400 C 176.841 128.080,177.414 126.905,177.406 130.003 C 177.399 132.984,176.073 130.413,190.042 154.500 C 191.604 157.195,193.899 161.166,195.142 163.325 C 196.384 165.483,197.692 167.733,198.049 168.325 C 198.672 169.356,201.001 173.373,205.361 180.936 C 206.483 182.880,207.850 185.238,208.400 186.176 C 208.950 187.114,210.300 189.452,211.400 191.371 C 212.500 193.291,213.582 195.163,213.805 195.531 C 214.028 195.899,214.732 197.100,215.369 198.200 C 224.390 213.768,220.267 212.000,247.540 212.000 L 269.159 212.000 270.180 210.662 C 271.643 208.743,271.475 207.746,268.943 203.333 C 263.191 193.307,259.031 186.134,248.681 168.400 C 246.691 164.990,243.769 159.950,242.188 157.200 C 240.607 154.450,238.319 150.490,237.103 148.400 C 235.888 146.310,233.768 142.620,232.391 140.200 C 231.015 137.780,229.483 135.170,228.986 134.400 C 228.489 133.630,227.014 131.110,225.707 128.800 C 223.100 124.191,218.226 115.749,217.625 114.800 C 217.416 114.470,216.363 112.670,215.284 110.800 C 213.315 107.386,209.302 100.441,208.004 98.200 C 203.404 90.258,202.412 89.319,199.748 90.395 M165.549 150.282 C 163.651 150.574,163.980 150.068,150.431 173.600 C 144.640 183.657,141.330 189.384,138.409 194.400 C 136.807 197.150,134.465 201.222,133.204 203.450 C 131.943 205.677,130.276 208.557,129.501 209.850 C 127.784 212.711,122.749 221.345,121.833 223.000 C 121.467 223.660,120.770 224.866,120.284 225.680 C 119.798 226.495,118.516 228.745,117.436 230.680 C 116.356 232.616,114.905 235.100,114.212 236.200 C 113.520 237.300,112.165 239.640,111.203 241.400 C 110.240 243.160,109.306 244.660,109.126 244.733 C 108.947 244.807,108.800 245.002,108.800 245.167 C 108.800 245.332,107.511 247.702,105.935 250.434 C 101.324 258.425,99.086 262.322,97.719 264.737 C 96.063 267.663,96.026 269.287,97.579 270.841 L 98.759 272.020 120.345 271.910 L 141.932 271.800 143.635 270.600 C 145.544 269.255,145.662 269.067,157.003 249.400 C 158.145 247.420,160.387 243.550,161.987 240.800 C 168.334 229.887,169.418 228.018,172.196 223.200 C 174.842 218.611,177.364 214.266,182.991 204.600 C 190.346 191.965,190.141 192.391,190.146 189.731 C 190.148 188.374,189.960 187.024,189.729 186.731 C 189.497 186.439,188.854 185.390,188.299 184.400 C 186.886 181.877,182.828 174.815,182.049 173.525 C 181.692 172.933,180.385 170.683,179.144 168.525 C 177.904 166.366,175.944 162.980,174.789 161.000 C 173.635 159.020,172.364 156.827,171.966 156.126 C 169.827 152.358,167.709 149.850,166.846 150.060 C 166.711 150.093,166.127 150.193,165.549 150.282 M189.775 229.117 C 186.991 230.670,186.690 231.113,177.209 247.600 C 175.374 250.790,172.669 255.470,171.197 258.000 C 165.596 267.629,165.398 268.127,166.412 270.022 C 167.525 272.103,163.907 272.000,236.000 272.000 C 308.093 272.000,304.475 272.103,305.588 270.022 C 306.614 268.106,306.560 267.995,294.786 247.800 C 292.734 244.280,290.725 240.770,290.321 240.000 C 287.503 234.621,284.902 230.935,283.055 229.700 L 281.110 228.400 236.055 228.417 C 194.330 228.432,190.909 228.484,189.775 229.117 " stroke="none" fill="#f8f9fc" fill-rule="evenodd"></path><path id="path3" d="M273.275 1.300 C 273.370 2.284,273.613 2.630,274.275 2.725 C 274.821 2.802,275.198 3.179,275.275 3.725 C 275.353 4.271,275.730 4.647,276.279 4.725 C 277.021 4.831,277.177 5.144,277.279 6.725 C 277.382 8.321,277.534 8.619,278.300 8.728 C 279.000 8.827,279.200 9.117,279.200 10.028 C 279.200 11.011,279.361 11.200,280.200 11.200 C 281.133 11.200,281.200 11.333,281.200 13.200 C 281.200 15.067,281.267 15.200,282.200 15.200 C 283.000 15.200,283.200 15.400,283.200 16.200 C 283.200 17.000,283.400 17.200,284.200 17.200 C 285.133 17.200,285.200 17.333,285.200 19.200 C 285.200 21.054,285.271 21.200,286.177 21.200 C 287.040 21.200,287.168 21.398,287.277 22.900 C 287.379 24.313,287.552 24.622,288.300 24.728 C 289.000 24.827,289.200 25.117,289.200 26.028 C 289.200 27.004,289.363 27.200,290.177 27.200 C 291.040 27.200,291.168 27.398,291.277 28.900 C 291.379 30.313,291.552 30.622,292.300 30.728 C 293.000 30.827,293.200 31.117,293.200 32.028 C 293.200 33.011,293.361 33.200,294.200 33.200 C 295.133 33.200,295.200 33.333,295.200 35.200 C 295.200 37.054,295.271 37.200,296.177 37.200 C 297.040 37.200,297.168 37.398,297.277 38.900 C 297.379 40.313,297.552 40.622,298.300 40.728 C 298.985 40.825,299.200 41.119,299.200 41.958 C 299.200 42.610,299.600 43.436,300.179 43.980 C 300.717 44.486,301.212 45.282,301.279 45.750 C 301.354 46.279,301.740 46.648,302.300 46.728 C 303.000 46.827,303.200 47.117,303.200 48.028 C 303.200 48.933,303.382 49.200,304.000 49.200 C 304.562 49.200,304.801 49.467,304.802 50.100 C 304.804 50.595,305.074 51.516,305.402 52.146 C 305.731 52.776,306.000 53.612,306.000 54.003 C 306.000 54.754,306.757 55.200,308.033 55.200 C 308.687 55.200,308.800 55.495,308.800 57.200 C 308.800 59.038,308.877 59.200,309.749 59.200 C 310.550 59.200,310.738 59.455,310.960 60.840 C 311.146 62.005,311.451 62.541,312.011 62.687 C 312.510 62.817,312.800 63.234,312.800 63.821 C 312.800 65.271,313.518 66.800,314.200 66.800 C 314.541 66.800,314.991 67.250,315.200 67.800 C 315.409 68.350,315.855 68.800,316.190 68.800 C 316.570 68.800,316.800 69.168,316.800 69.774 C 316.800 71.266,317.510 72.800,318.200 72.800 C 318.541 72.800,318.991 73.250,319.200 73.800 C 319.409 74.350,319.855 74.800,320.190 74.800 C 320.570 74.800,320.800 75.168,320.800 75.774 C 320.800 77.258,321.508 78.800,322.190 78.800 C 322.570 78.800,322.800 79.168,322.800 79.774 C 322.800 81.266,323.510 82.800,324.200 82.800 C 324.541 82.800,324.991 83.250,325.200 83.800 C 325.409 84.350,325.831 84.800,326.137 84.800 C 326.488 84.800,326.777 85.412,326.916 86.451 C 327.073 87.623,327.553 88.528,328.569 89.568 C 329.356 90.374,330.000 91.431,330.000 91.917 C 330.000 92.403,330.184 92.800,330.410 92.800 C 330.635 92.800,330.991 93.250,331.200 93.800 C 331.409 94.350,331.859 94.800,332.200 94.800 C 332.541 94.800,332.991 95.250,333.200 95.800 C 333.409 96.350,333.855 96.800,334.190 96.800 C 334.570 96.800,334.800 97.168,334.800 97.774 C 334.800 99.258,335.508 100.800,336.190 100.800 C 336.570 100.800,336.800 101.168,336.800 101.774 C 336.800 103.266,337.510 104.800,338.200 104.800 C 338.541 104.800,338.991 105.250,339.200 105.800 C 339.409 106.350,339.855 106.800,340.190 106.800 C 340.601 106.800,340.800 107.191,340.800 108.000 C 340.800 108.996,340.961 109.200,341.749 109.200 C 342.550 109.200,342.738 109.455,342.960 110.840 C 343.146 112.005,343.451 112.541,344.011 112.687 C 344.510 112.817,344.800 113.234,344.800 113.821 C 344.800 115.263,345.517 116.800,346.190 116.800 C 346.570 116.800,346.800 117.168,346.800 117.774 C 346.800 119.266,347.510 120.800,348.200 120.800 C 348.541 120.800,348.991 121.250,349.200 121.800 C 349.409 122.350,349.855 122.800,350.190 122.800 C 350.570 122.800,350.800 123.168,350.800 123.774 C 350.800 125.266,351.510 126.800,352.200 126.800 C 352.541 126.800,352.991 127.250,353.200 127.800 C 353.409 128.350,353.841 128.800,354.161 128.800 C 354.807 128.800,356.000 130.915,356.000 132.061 C 356.000 132.468,356.184 132.800,356.410 132.800 C 356.635 132.800,356.991 133.250,357.200 133.800 C 357.409 134.350,357.855 134.800,358.190 134.800 C 358.588 134.800,358.801 135.182,358.802 135.900 C 358.804 136.505,359.074 137.516,359.402 138.146 C 359.731 138.776,360.000 139.631,360.000 140.046 C 360.000 140.461,360.184 140.800,360.410 140.800 C 360.635 140.800,360.991 141.250,361.200 141.800 C 361.409 142.350,361.859 142.800,362.200 142.800 C 362.541 142.800,362.991 143.250,363.200 143.800 C 363.409 144.350,363.855 144.800,364.190 144.800 C 364.570 144.800,364.800 145.168,364.800 145.774 C 364.800 147.266,365.510 148.800,366.200 148.800 C 366.541 148.800,366.991 149.250,367.200 149.800 C 367.409 150.350,367.855 150.800,368.190 150.800 C 368.581 150.800,368.800 151.175,368.800 151.842 C 368.800 152.478,369.190 153.192,369.800 153.671 C 370.519 154.237,370.800 154.843,370.800 155.829 C 370.800 157.025,370.928 157.200,371.800 157.200 C 372.550 157.200,372.800 157.411,372.800 158.042 C 372.800 158.506,373.250 159.239,373.800 159.671 C 374.451 160.183,374.800 160.858,374.800 161.603 C 374.800 163.240,375.478 164.800,376.190 164.800 C 376.601 164.800,376.800 165.191,376.800 166.000 C 376.800 167.013,376.956 167.200,377.800 167.200 C 378.600 167.200,378.800 167.400,378.800 168.200 C 378.800 169.000,379.000 169.200,379.800 169.200 C 380.733 169.200,380.800 169.333,380.800 171.200 C 380.800 173.038,380.877 173.200,381.749 173.200 C 382.550 173.200,382.738 173.455,382.960 174.840 C 383.146 176.005,383.451 176.541,384.011 176.687 C 384.566 176.832,384.800 177.235,384.800 178.047 C 384.800 179.010,384.965 179.200,385.800 179.200 C 386.733 179.200,386.800 179.333,386.800 181.200 C 386.800 183.067,386.867 183.200,387.800 183.200 C 388.550 183.200,388.800 183.411,388.800 184.042 C 388.800 184.506,389.250 185.239,389.800 185.671 C 390.519 186.237,390.800 186.843,390.800 187.829 C 390.800 189.025,390.928 189.200,391.800 189.200 C 392.550 189.200,392.800 189.411,392.800 190.042 C 392.800 190.506,393.250 191.239,393.800 191.671 C 394.519 192.237,394.800 192.843,394.800 193.829 C 394.800 195.025,394.928 195.200,395.800 195.200 C 396.550 195.200,396.800 195.411,396.800 196.042 C 396.800 196.506,397.250 197.239,397.800 197.671 C 398.519 198.237,398.800 198.843,398.800 199.829 C 398.800 200.781,398.983 201.200,399.400 201.200 C 399.932 201.200,400.000 189.756,400.000 100.600 L 400.000 0.000 336.575 -0.000 L 273.149 -0.000 273.275 1.300 " stroke="none" fill="#0bbbfc" fill-rule="evenodd"></path><path id="path4" d="M70.800 0.530 C 70.800 0.822,71.250 1.483,71.800 2.000 C 72.409 2.572,72.800 3.381,72.800 4.070 C 72.800 5.009,72.969 5.200,73.800 5.200 C 74.733 5.200,74.800 5.333,74.800 7.200 C 74.800 9.067,74.867 9.200,75.800 9.200 C 76.580 9.200,76.800 9.405,76.800 10.130 C 76.800 10.642,77.250 11.483,77.800 12.000 C 78.409 12.572,78.800 13.381,78.800 14.070 C 78.800 15.009,78.969 15.200,79.800 15.200 C 80.580 15.200,80.800 15.405,80.800 16.130 C 80.800 16.642,81.250 17.483,81.800 18.000 C 82.409 18.572,82.800 19.381,82.800 20.070 C 82.800 21.009,82.969 21.200,83.800 21.200 C 84.733 21.200,84.800 21.333,84.800 23.200 C 84.800 25.067,84.867 25.200,85.800 25.200 C 86.600 25.200,86.800 25.400,86.800 26.200 C 86.800 27.000,87.000 27.200,87.800 27.200 C 88.580 27.200,88.800 27.405,88.800 28.130 C 88.800 28.642,89.250 29.483,89.800 30.000 C 90.409 30.572,90.800 31.381,90.800 32.070 C 90.800 33.009,90.969 33.200,91.800 33.200 C 92.580 33.200,92.800 33.405,92.800 34.130 C 92.800 34.642,93.250 35.483,93.800 36.000 C 94.379 36.544,94.800 37.386,94.800 38.000 C 94.800 38.614,95.221 39.456,95.800 40.000 C 96.409 40.572,96.800 41.381,96.800 42.070 C 96.800 43.009,96.969 43.200,97.800 43.200 C 98.580 43.200,98.800 43.405,98.800 44.130 C 98.800 44.642,99.250 45.483,99.800 46.000 C 100.409 46.572,100.800 47.381,100.800 48.070 C 100.800 49.009,100.969 49.200,101.800 49.200 C 102.580 49.200,102.800 49.405,102.800 50.130 C 102.800 50.642,103.250 51.483,103.800 52.000 C 104.624 52.774,104.800 53.315,104.800 55.070 C 104.800 57.075,104.859 57.200,105.800 57.200 C 106.600 57.200,106.800 57.400,106.800 58.200 C 106.800 59.000,107.000 59.200,107.800 59.200 C 108.580 59.200,108.800 59.405,108.800 60.130 C 108.800 60.642,109.250 61.483,109.800 62.000 C 110.372 62.537,110.800 63.387,110.800 63.985 C 110.800 64.710,111.413 65.634,112.800 67.000 C 114.251 68.429,114.800 69.276,114.800 70.085 C 114.800 71.008,114.972 71.200,115.800 71.200 C 116.580 71.200,116.800 71.405,116.800 72.130 C 116.800 72.642,117.250 73.483,117.800 74.000 C 118.379 74.544,118.800 75.386,118.800 76.000 C 118.800 76.614,119.221 77.456,119.800 78.000 C 120.409 78.572,120.800 79.381,120.800 80.070 C 120.800 81.009,120.969 81.200,121.800 81.200 C 122.600 81.200,122.800 81.400,122.800 82.200 C 122.800 83.000,123.000 83.200,123.800 83.200 C 124.727 83.200,124.800 83.339,124.800 85.115 C 124.800 86.884,124.953 87.181,126.800 89.000 C 128.251 90.429,128.800 91.276,128.800 92.085 C 128.800 93.008,128.972 93.200,129.800 93.200 C 130.733 93.200,130.800 93.333,130.800 95.200 C 130.800 97.067,130.867 97.200,131.800 97.200 C 132.580 97.200,132.800 97.405,132.800 98.130 C 132.800 98.642,133.250 99.483,133.800 100.000 C 134.409 100.572,134.800 101.381,134.800 102.070 C 134.800 103.009,134.969 103.200,135.800 103.200 C 136.580 103.200,136.800 103.405,136.800 104.130 C 136.800 104.642,137.250 105.483,137.800 106.000 C 138.379 106.544,138.800 107.386,138.800 108.000 C 138.800 108.614,139.221 109.456,139.800 110.000 C 140.409 110.572,140.800 111.381,140.800 112.070 C 140.800 113.009,140.969 113.200,141.800 113.200 C 142.580 113.200,142.800 113.405,142.800 114.130 C 142.800 114.642,143.250 115.483,143.800 116.000 C 144.409 116.572,144.800 117.381,144.800 118.070 C 144.800 119.009,144.969 119.200,145.800 119.200 C 146.733 119.200,146.800 119.333,146.800 121.200 C 146.800 123.067,146.867 123.200,147.800 123.200 C 148.600 123.200,148.800 123.400,148.800 124.200 C 148.800 125.000,149.000 125.200,149.800 125.200 C 150.580 125.200,150.800 125.405,150.800 126.130 C 150.800 126.642,151.250 127.483,151.800 128.000 C 152.379 128.544,152.800 129.386,152.800 130.000 C 152.800 130.614,153.221 131.456,153.800 132.000 C 154.409 132.572,154.800 133.381,154.800 134.070 C 154.800 135.009,154.969 135.200,155.800 135.200 C 156.733 135.200,156.800 135.333,156.800 137.200 C 156.800 139.067,156.867 139.200,157.800 139.200 C 158.600 139.200,158.800 139.400,158.800 140.200 C 158.800 141.000,159.000 141.200,159.800 141.200 C 160.563 141.200,160.800 141.408,160.800 142.078 C 160.800 142.561,161.232 143.416,161.759 143.978 C 163.305 145.625,163.633 149.200,162.238 149.200 C 161.348 149.200,161.200 149.374,161.200 150.417 C 161.200 151.088,160.835 152.026,160.385 152.509 C 159.936 152.990,159.458 153.826,159.323 154.365 C 159.187 154.905,158.654 155.969,158.138 156.729 C 157.622 157.489,157.200 158.259,157.200 158.438 C 157.200 158.618,156.750 159.428,156.200 160.238 C 155.650 161.049,155.200 162.052,155.200 162.468 C 155.200 162.885,154.939 163.325,154.619 163.448 C 154.300 163.570,153.826 164.330,153.566 165.135 C 153.306 165.941,152.774 166.907,152.383 167.282 C 151.991 167.658,151.555 168.494,151.413 169.141 C 151.271 169.788,150.805 170.634,150.377 171.021 C 149.950 171.407,149.600 172.042,149.600 172.431 C 149.600 172.820,149.162 173.660,148.626 174.296 C 148.090 174.933,147.531 175.937,147.383 176.527 C 147.234 177.117,146.975 177.600,146.806 177.600 C 146.637 177.600,146.106 178.455,145.625 179.500 C 145.145 180.545,144.143 182.390,143.397 183.600 C 142.652 184.810,141.767 186.340,141.431 187.000 C 140.802 188.233,139.031 191.370,137.367 194.200 C 136.849 195.080,136.131 196.430,135.771 197.200 C 135.411 197.970,134.910 198.849,134.658 199.152 C 134.406 199.456,133.390 201.181,132.400 202.985 C 130.601 206.265,125.571 215.162,123.506 218.716 C 122.904 219.752,122.075 221.230,121.663 222.000 C 121.251 222.770,119.513 225.830,117.800 228.800 C 116.088 231.770,114.283 234.920,113.789 235.800 C 112.368 238.333,107.114 247.455,104.805 251.400 C 95.075 268.021,94.841 268.608,96.965 271.078 L 97.931 272.200 120.265 272.200 L 142.600 272.200 144.121 271.037 C 145.579 269.921,146.901 268.123,149.441 263.800 C 150.087 262.700,150.842 261.440,151.118 261.000 C 151.394 260.560,151.981 259.442,152.421 258.517 C 152.862 257.591,153.400 256.723,153.617 256.589 C 153.835 256.455,154.280 255.773,154.607 255.073 C 154.935 254.373,155.739 252.990,156.394 252.000 C 157.050 251.010,157.897 249.570,158.277 248.800 C 158.657 248.030,159.209 247.106,159.503 246.748 C 159.797 246.389,160.359 245.489,160.752 244.748 C 162.381 241.672,163.017 240.588,163.326 240.360 C 163.777 240.029,164.800 238.009,164.800 237.450 C 164.800 237.199,165.137 236.782,165.550 236.524 C 165.962 236.267,166.424 235.561,166.576 234.955 C 166.728 234.349,167.290 233.333,167.826 232.696 C 168.362 232.060,168.800 231.360,168.800 231.143 C 168.800 230.925,169.250 230.157,169.800 229.436 C 170.350 228.714,170.800 227.870,170.800 227.558 C 170.800 227.247,171.137 226.782,171.550 226.524 C 171.962 226.267,172.424 225.561,172.576 224.955 C 172.728 224.349,173.290 223.333,173.826 222.696 C 174.362 222.060,174.800 221.353,174.800 221.127 C 174.800 220.901,175.250 220.181,175.800 219.527 C 176.350 218.873,176.800 218.036,176.800 217.666 C 176.800 217.295,177.144 216.778,177.564 216.515 C 177.984 216.253,178.443 215.514,178.584 214.874 C 178.724 214.234,179.281 213.326,179.820 212.858 C 180.359 212.389,180.800 211.742,180.800 211.421 C 180.800 211.099,181.250 210.386,181.800 209.836 C 182.350 209.286,182.800 208.399,182.800 207.865 C 182.800 207.241,183.077 206.821,183.574 206.691 C 184.073 206.561,184.438 206.002,184.605 205.116 C 184.748 204.351,185.291 203.421,185.831 203.016 C 186.364 202.615,186.800 202.027,186.800 201.708 C 186.800 201.389,187.174 200.825,187.632 200.454 C 188.090 200.084,188.591 199.155,188.747 198.390 C 188.954 197.370,189.265 196.966,189.915 196.872 C 190.637 196.768,190.800 196.485,190.800 195.329 C 190.800 194.203,190.929 193.964,191.433 194.157 C 191.781 194.291,192.241 194.400,192.456 194.400 C 192.671 194.400,192.736 194.580,192.600 194.800 C 192.456 195.033,192.863 195.200,193.576 195.200 C 194.590 195.200,194.800 195.359,194.800 196.130 C 194.800 196.642,195.250 197.483,195.800 198.000 C 196.409 198.572,196.800 199.381,196.800 200.070 C 196.800 201.009,196.969 201.200,197.800 201.200 C 198.580 201.200,198.800 201.405,198.800 202.130 C 198.800 202.642,199.250 203.483,199.800 204.000 C 200.372 204.537,200.800 205.387,200.800 205.985 C 200.800 206.710,201.413 207.634,202.800 209.000 C 204.187 210.366,204.800 211.290,204.800 212.015 C 204.800 212.613,205.228 213.463,205.800 214.000 C 206.372 214.537,206.800 215.387,206.800 215.985 C 206.800 216.710,207.413 217.634,208.800 219.000 C 210.251 220.429,210.800 221.276,210.800 222.085 C 210.800 223.027,210.966 223.200,211.870 223.200 L 212.939 223.200 212.000 224.200 C 211.483 224.750,210.864 225.200,210.624 225.200 C 210.384 225.200,209.496 225.571,208.650 226.024 C 207.291 226.753,206.197 226.872,199.256 227.045 C 187.474 227.339,187.012 227.566,183.063 235.000 C 181.241 238.430,180.627 239.560,179.659 241.266 C 179.077 242.292,176.800 246.299,174.600 250.169 C 168.700 260.551,167.280 263.076,166.047 265.385 C 164.484 268.309,165.446 271.593,168.085 272.343 C 168.826 272.553,180.664 272.747,195.200 272.787 C 221.724 272.859,227.205 273.041,237.200 274.183 L 243.000 274.846 244.887 276.923 C 246.157 278.320,246.779 279.360,246.787 280.100 C 246.798 281.003,246.979 281.200,247.800 281.200 C 248.580 281.200,248.800 281.405,248.800 282.130 C 248.800 282.642,249.250 283.483,249.800 284.000 C 250.409 284.572,250.800 285.381,250.800 286.070 C 250.800 287.009,250.969 287.200,251.800 287.200 C 252.577 287.200,252.800 287.405,252.800 288.122 C 252.800 288.720,253.573 289.776,255.000 291.129 C 257.093 293.113,257.200 293.311,257.200 295.207 C 257.200 297.066,257.267 297.200,258.200 297.200 C 259.000 297.200,259.200 297.400,259.200 298.200 C 259.200 299.000,259.400 299.200,260.200 299.200 C 261.133 299.200,261.200 299.333,261.200 301.200 C 261.200 303.067,261.267 303.200,262.200 303.200 C 263.039 303.200,263.200 303.389,263.200 304.371 C 263.200 305.144,263.540 305.810,264.200 306.329 C 264.810 306.808,265.200 307.522,265.200 308.158 C 265.200 309.003,265.389 309.200,266.200 309.200 C 267.039 309.200,267.200 309.389,267.200 310.371 C 267.200 311.144,267.540 311.810,268.200 312.329 C 268.810 312.808,269.200 313.522,269.200 314.158 C 269.200 315.003,269.389 315.200,270.200 315.200 C 271.039 315.200,271.200 315.389,271.200 316.371 C 271.200 317.144,271.540 317.810,272.200 318.329 C 272.874 318.859,273.200 319.511,273.200 320.329 C 273.200 321.146,273.526 321.798,274.200 322.329 C 274.810 322.808,275.200 323.522,275.200 324.158 C 275.200 325.003,275.389 325.200,276.200 325.200 C 277.039 325.200,277.200 325.389,277.200 326.371 C 277.200 327.144,277.540 327.810,278.200 328.329 C 278.810 328.808,279.200 329.522,279.200 330.158 C 279.200 331.003,279.389 331.200,280.200 331.200 C 281.133 331.200,281.200 331.333,281.200 333.200 C 281.200 335.067,281.267 335.200,282.200 335.200 C 283.039 335.200,283.200 335.389,283.200 336.371 C 283.200 337.144,283.540 337.810,284.200 338.329 C 284.810 338.808,285.200 339.522,285.200 340.158 C 285.200 341.003,285.389 341.200,286.200 341.200 C 287.039 341.200,287.200 341.389,287.200 342.371 C 287.200 343.144,287.540 343.810,288.200 344.329 C 288.810 344.808,289.200 345.522,289.200 346.158 C 289.200 347.003,289.389 347.200,290.200 347.200 C 291.039 347.200,291.200 347.389,291.200 348.371 C 291.200 349.144,291.540 349.810,292.200 350.329 C 292.810 350.808,293.200 351.522,293.200 352.158 C 293.200 353.003,293.389 353.200,294.200 353.200 C 295.039 353.200,295.200 353.389,295.200 354.371 C 295.200 355.144,295.540 355.810,296.200 356.329 C 296.810 356.808,297.200 357.522,297.200 358.158 C 297.200 359.003,297.389 359.200,298.200 359.200 C 299.039 359.200,299.200 359.389,299.200 360.371 C 299.200 361.144,299.540 361.810,300.200 362.329 C 300.874 362.859,301.200 363.511,301.200 364.329 C 301.200 365.146,301.526 365.798,302.200 366.329 C 302.810 366.808,303.200 367.522,303.200 368.158 C 303.200 368.933,303.405 369.200,304.000 369.200 C 304.571 369.200,304.800 369.467,304.800 370.130 C 304.800 370.642,305.250 371.483,305.800 372.000 C 306.379 372.544,306.800 373.386,306.800 374.000 C 306.800 374.614,307.221 375.456,307.800 376.000 C 308.409 376.572,308.800 377.381,308.800 378.070 C 308.800 379.009,308.969 379.200,309.800 379.200 C 310.580 379.200,310.800 379.405,310.800 380.130 C 310.800 380.642,311.250 381.483,311.800 382.000 C 312.409 382.572,312.800 383.381,312.800 384.070 C 312.800 385.009,312.969 385.200,313.800 385.200 C 314.580 385.200,314.800 385.405,314.800 386.130 C 314.800 386.642,315.250 387.483,315.800 388.000 C 316.409 388.572,316.800 389.381,316.800 390.070 C 316.800 391.009,316.969 391.200,317.800 391.200 C 318.733 391.200,318.800 391.333,318.800 393.200 C 318.800 395.067,318.867 395.200,319.800 395.200 C 320.580 395.200,320.800 395.405,320.800 396.130 C 320.800 396.642,321.250 397.483,321.800 398.000 C 322.350 398.517,322.800 399.178,322.800 399.470 C 322.800 399.906,329.611 400.000,361.400 400.000 L 400.000 400.000 400.000 367.600 C 400.000 339.067,399.928 335.200,399.400 335.200 C 399.027 335.200,398.800 334.822,398.800 334.200 C 398.800 333.400,398.600 333.200,397.800 333.200 C 396.867 333.200,396.800 333.067,396.800 331.200 C 396.800 329.333,396.733 329.200,395.800 329.200 C 394.969 329.200,394.800 329.009,394.800 328.070 C 394.800 327.381,394.409 326.572,393.800 326.000 C 393.250 325.483,392.800 324.642,392.800 324.130 C 392.800 323.405,392.580 323.200,391.800 323.200 C 390.867 323.200,390.800 323.067,390.800 321.200 C 390.800 319.333,390.733 319.200,389.800 319.200 C 388.867 319.200,388.800 319.067,388.800 317.200 C 388.800 315.333,388.733 315.200,387.800 315.200 C 386.972 315.200,386.800 315.008,386.800 314.085 C 386.800 313.276,386.251 312.429,384.800 311.000 C 383.557 309.776,382.800 308.684,382.800 308.115 C 382.800 307.406,382.575 307.200,381.800 307.200 C 380.969 307.200,380.800 307.009,380.800 306.070 C 380.800 305.381,380.409 304.572,379.800 304.000 C 379.250 303.483,378.800 302.642,378.800 302.130 C 378.800 301.405,378.580 301.200,377.800 301.200 C 376.969 301.200,376.800 301.009,376.800 300.070 C 376.800 299.381,376.409 298.572,375.800 298.000 C 375.001 297.250,374.800 296.672,374.800 295.130 C 374.800 293.338,374.729 293.200,373.800 293.200 C 373.000 293.200,372.800 293.000,372.800 292.200 C 372.800 291.400,372.600 291.200,371.800 291.200 C 370.867 291.200,370.800 291.067,370.800 289.200 C 370.800 287.333,370.733 287.200,369.800 287.200 C 369.000 287.200,368.800 287.000,368.800 286.200 C 368.800 285.400,368.600 285.200,367.800 285.200 C 366.859 285.200,366.800 285.075,366.800 283.070 C 366.800 281.315,366.624 280.774,365.800 280.000 C 365.250 279.483,364.800 278.642,364.800 278.130 C 364.800 277.405,364.580 277.200,363.800 277.200 C 363.000 277.200,362.800 277.000,362.800 276.200 C 362.800 275.400,362.600 275.200,361.800 275.200 C 360.969 275.200,360.800 275.009,360.800 274.070 C 360.800 273.381,360.409 272.572,359.800 272.000 C 359.221 271.456,358.800 270.614,358.800 270.000 C 358.800 269.386,358.379 268.544,357.800 268.000 C 357.250 267.483,356.800 266.642,356.800 266.130 C 356.800 265.405,356.580 265.200,355.800 265.200 C 355.000 265.200,354.800 265.000,354.800 264.200 C 354.800 263.400,354.600 263.200,353.800 263.200 C 352.867 263.200,352.800 263.067,352.800 261.200 C 352.800 259.333,352.733 259.200,351.800 259.200 C 350.867 259.200,350.800 259.067,350.800 257.200 C 350.800 255.333,350.733 255.200,349.800 255.200 C 349.000 255.200,348.800 255.000,348.800 254.200 C 348.800 253.400,348.600 253.200,347.800 253.200 C 346.867 253.200,346.800 253.067,346.800 251.200 C 346.800 249.333,346.733 249.200,345.800 249.200 C 345.000 249.200,344.800 249.000,344.800 248.200 C 344.800 247.400,344.600 247.200,343.800 247.200 C 342.867 247.200,342.800 247.067,342.800 245.200 C 342.800 243.333,342.733 243.200,341.800 243.200 C 340.969 243.200,340.800 243.009,340.800 242.070 C 340.800 241.381,340.409 240.572,339.800 240.000 C 339.250 239.483,338.800 238.642,338.800 238.130 C 338.800 237.405,338.580 237.200,337.800 237.200 C 337.000 237.200,336.800 237.000,336.800 236.200 C 336.800 235.400,336.600 235.200,335.800 235.200 C 334.859 235.200,334.800 235.074,334.800 233.085 C 334.800 231.076,334.699 230.871,332.800 229.000 C 331.413 227.634,330.800 226.710,330.800 225.985 C 330.800 225.387,330.372 224.537,329.800 224.000 C 329.221 223.456,328.800 222.614,328.800 222.000 C 328.800 221.386,328.379 220.544,327.800 220.000 C 327.250 219.483,326.800 218.642,326.800 218.130 C 326.800 217.405,326.580 217.200,325.800 217.200 C 325.000 217.200,324.800 217.000,324.800 216.200 C 324.800 215.400,324.600 215.200,323.800 215.200 C 322.969 215.200,322.800 215.009,322.800 214.070 C 322.800 213.381,322.409 212.572,321.800 212.000 C 321.221 211.456,320.800 210.614,320.800 210.000 C 320.800 209.386,320.379 208.544,319.800 208.000 C 319.250 207.483,318.800 206.642,318.800 206.130 C 318.800 205.405,318.580 205.200,317.800 205.200 C 316.969 205.200,316.800 205.009,316.800 204.070 C 316.800 203.381,316.409 202.572,315.800 202.000 C 315.250 201.483,314.800 200.642,314.800 200.130 C 314.800 199.405,314.580 199.200,313.800 199.200 C 312.969 199.200,312.800 199.009,312.800 198.070 C 312.800 197.381,312.409 196.572,311.800 196.000 C 311.221 195.456,310.800 194.614,310.800 194.000 C 310.800 193.386,310.379 192.544,309.800 192.000 C 309.250 191.483,308.800 190.642,308.800 190.130 C 308.800 189.405,308.580 189.200,307.800 189.200 C 306.969 189.200,306.800 189.009,306.800 188.070 C 306.800 187.381,306.409 186.572,305.800 186.000 C 305.250 185.483,304.800 184.642,304.800 184.130 C 304.800 183.467,304.571 183.200,304.000 183.200 C 303.307 183.200,303.200 182.933,303.200 181.200 C 303.200 179.333,303.133 179.200,302.200 179.200 C 301.400 179.200,301.200 179.000,301.200 178.200 C 301.200 177.400,301.000 177.200,300.200 177.200 C 299.389 177.200,299.200 177.003,299.200 176.158 C 299.200 175.522,298.810 174.808,298.200 174.329 C 297.526 173.798,297.200 173.146,297.200 172.329 C 297.200 171.511,296.874 170.859,296.200 170.329 C 295.540 169.810,295.200 169.144,295.200 168.371 C 295.200 167.389,295.039 167.200,294.200 167.200 C 293.400 167.200,293.200 167.000,293.200 166.200 C 293.200 165.400,293.000 165.200,292.200 165.200 C 291.267 165.200,291.200 165.066,291.200 163.205 C 291.200 161.329,291.080 161.097,289.200 159.322 C 287.732 157.937,287.200 157.139,287.200 156.322 C 287.200 155.506,286.668 154.708,285.200 153.322 C 283.694 151.901,283.200 151.148,283.200 150.275 C 283.200 149.514,282.856 148.844,282.200 148.329 C 281.540 147.810,281.200 147.144,281.200 146.371 C 281.200 145.389,281.039 145.200,280.200 145.200 C 279.389 145.200,279.200 145.003,279.200 144.158 C 279.200 143.522,278.810 142.808,278.200 142.329 C 277.542 141.811,277.200 141.143,277.200 140.376 C 277.200 139.495,276.711 138.748,275.200 137.322 C 273.728 135.933,273.200 135.140,273.200 134.317 C 273.200 133.392,273.028 133.200,272.200 133.200 C 271.267 133.200,271.200 133.067,271.200 131.200 C 271.200 129.333,271.133 129.200,270.200 129.200 C 269.400 129.200,269.200 129.000,269.200 128.200 C 269.200 127.400,269.000 127.200,268.200 127.200 C 267.267 127.200,267.200 127.067,267.200 125.200 C 267.200 123.333,267.133 123.200,266.200 123.200 C 265.267 123.200,265.200 123.067,265.200 121.200 C 265.200 119.333,265.133 119.200,264.200 119.200 C 263.400 119.200,263.200 119.000,263.200 118.200 C 263.200 117.400,263.000 117.200,262.200 117.200 C 261.389 117.200,261.200 117.003,261.200 116.158 C 261.200 115.522,260.810 114.808,260.200 114.329 C 259.526 113.798,259.200 113.146,259.200 112.329 C 259.200 111.511,258.874 110.859,258.200 110.329 C 257.540 109.810,257.200 109.144,257.200 108.371 C 257.200 107.389,257.039 107.200,256.200 107.200 C 255.267 107.200,255.200 107.067,255.200 105.200 C 255.200 103.244,255.173 103.200,254.000 103.200 C 252.950 103.200,252.800 103.059,252.800 102.070 C 252.800 101.381,252.409 100.572,251.800 100.000 C 251.250 99.483,250.800 98.642,250.800 98.130 C 250.800 97.405,250.580 97.200,249.800 97.200 C 249.000 97.200,248.800 97.000,248.800 96.200 C 248.800 95.400,248.600 95.200,247.800 95.200 C 246.867 95.200,246.800 95.067,246.800 93.200 C 246.800 91.333,246.733 91.200,245.800 91.200 C 244.969 91.200,244.800 91.009,244.800 90.070 C 244.800 89.381,244.409 88.572,243.800 88.000 C 243.250 87.483,242.800 86.642,242.800 86.130 C 242.800 85.405,242.580 85.200,241.800 85.200 C 240.969 85.200,240.800 85.009,240.800 84.070 C 240.800 83.381,240.409 82.572,239.800 82.000 C 239.250 81.483,238.800 80.642,238.800 80.130 C 238.800 79.405,238.580 79.200,237.800 79.200 C 236.969 79.200,236.800 79.009,236.800 78.070 C 236.800 77.381,236.409 76.572,235.800 76.000 C 235.250 75.483,234.800 74.642,234.800 74.130 C 234.800 73.405,234.580 73.200,233.800 73.200 C 232.867 73.200,232.800 73.067,232.800 71.200 C 232.800 69.333,232.733 69.200,231.800 69.200 C 230.867 69.200,230.800 69.067,230.800 67.200 C 230.800 65.333,230.733 65.200,229.800 65.200 C 229.000 65.200,228.800 65.000,228.800 64.200 C 228.800 63.400,228.600 63.200,227.800 63.200 C 226.969 63.200,226.800 63.009,226.800 62.070 C 226.800 61.381,226.409 60.572,225.800 60.000 C 225.221 59.456,224.800 58.614,224.800 58.000 C 224.800 57.386,224.379 56.544,223.800 56.000 C 223.250 55.483,222.800 54.642,222.800 54.130 C 222.800 53.405,222.580 53.200,221.800 53.200 C 220.969 53.200,220.800 53.009,220.800 52.070 C 220.800 51.381,220.409 50.572,219.800 50.000 C 219.250 49.483,218.800 48.642,218.800 48.130 C 218.800 47.405,218.580 47.200,217.800 47.200 C 216.867 47.200,216.800 47.067,216.800 45.200 C 216.800 43.333,216.733 43.200,215.800 43.200 C 215.000 43.200,214.800 43.000,214.800 42.200 C 214.800 41.400,214.600 41.200,213.800 41.200 C 212.867 41.200,212.800 41.067,212.800 39.200 C 212.800 37.333,212.733 37.200,211.800 37.200 C 210.969 37.200,210.800 37.009,210.800 36.070 C 210.800 35.381,210.409 34.572,209.800 34.000 C 209.250 33.483,208.800 32.642,208.800 32.130 C 208.800 31.405,208.580 31.200,207.800 31.200 C 206.969 31.200,206.800 31.009,206.800 30.070 C 206.800 29.381,206.409 28.572,205.800 28.000 C 205.228 27.463,204.800 26.613,204.800 26.015 C 204.800 25.290,204.187 24.366,202.800 23.000 C 201.413 21.634,200.800 20.710,200.800 19.985 C 200.800 19.387,200.372 18.537,199.800 18.000 C 199.250 17.483,198.800 16.642,198.800 16.130 C 198.800 15.405,198.580 15.200,197.800 15.200 C 196.972 15.200,196.800 15.008,196.800 14.085 C 196.800 13.276,196.251 12.429,194.800 11.000 C 193.413 9.634,192.800 8.710,192.800 7.985 C 192.800 7.387,192.372 6.537,191.800 6.000 C 191.250 5.483,190.800 4.642,190.800 4.130 C 190.800 3.405,190.580 3.200,189.800 3.200 C 188.900 3.200,188.800 3.040,188.800 1.600 L 188.800 0.000 129.800 0.000 C 81.070 0.000,70.800 0.092,70.800 0.530 M204.749 91.586 C 206.068 93.158,206.699 94.162,208.401 97.400 C 208.864 98.280,209.771 99.810,210.417 100.800 C 211.063 101.790,211.965 103.320,212.420 104.200 C 212.876 105.080,213.774 106.700,214.416 107.800 C 215.057 108.900,215.901 110.430,216.291 111.200 C 216.681 111.970,217.165 112.719,217.367 112.865 C 217.719 113.119,218.600 114.699,220.369 118.247 C 220.821 119.153,221.451 120.111,221.770 120.375 C 222.088 120.639,222.464 121.383,222.606 122.028 C 222.748 122.672,223.031 123.200,223.236 123.200 C 223.579 123.200,223.985 123.888,226.200 128.232 C 226.640 129.094,227.130 129.898,227.289 130.017 C 227.605 130.254,229.129 132.871,230.422 135.400 C 230.872 136.280,231.863 137.990,232.623 139.200 C 233.383 140.410,234.283 141.940,234.624 142.600 C 234.964 143.260,235.773 144.700,236.420 145.800 C 237.067 146.900,237.966 148.565,238.417 149.500 C 238.868 150.435,239.382 151.200,239.558 151.200 C 239.734 151.200,240.180 151.875,240.549 152.700 C 241.522 154.879,242.892 157.243,243.727 158.182 C 244.128 158.632,244.555 159.495,244.677 160.100 C 244.800 160.705,245.059 161.200,245.254 161.200 C 245.581 161.200,245.992 161.902,248.200 166.232 C 248.640 167.094,249.250 168.063,249.556 168.384 C 249.861 168.705,250.372 169.515,250.690 170.184 C 251.009 170.853,251.787 172.300,252.420 173.400 C 253.053 174.500,254.034 176.210,254.600 177.200 C 255.166 178.190,256.063 179.720,256.593 180.600 C 257.123 181.480,257.972 182.940,258.479 183.845 C 260.598 187.627,261.673 189.489,262.612 191.000 C 263.158 191.880,264.099 193.479,264.703 194.554 C 266.313 197.421,266.849 198.347,268.400 200.941 C 272.508 207.811,272.697 208.660,270.649 211.030 L 269.298 212.592 248.549 212.477 C 222.203 212.329,223.488 212.601,219.957 206.424 C 219.384 205.421,217.957 202.980,216.786 201.000 C 215.615 199.020,214.368 196.860,214.014 196.200 C 213.660 195.540,213.087 194.550,212.742 194.000 C 212.136 193.037,206.427 183.203,195.208 163.800 C 187.225 149.994,184.072 144.576,181.706 140.600 C 175.844 130.749,175.713 129.532,179.767 122.600 C 180.634 121.118,191.625 101.674,193.898 97.600 C 194.451 96.610,195.179 95.260,195.516 94.600 C 198.385 88.985,201.667 87.914,204.749 91.586 M168.204 150.737 C 168.936 151.183,170.191 152.837,171.404 154.951 C 172.502 156.865,173.584 158.739,173.808 159.116 C 174.032 159.492,175.348 161.780,176.732 164.200 C 178.116 166.620,179.419 168.870,179.627 169.200 C 179.835 169.530,181.204 171.870,182.668 174.400 C 192.614 191.582,192.577 188.131,182.991 204.600 C 177.364 214.266,174.842 218.611,172.196 223.200 C 169.418 228.018,168.334 229.887,161.987 240.800 C 160.387 243.550,158.145 247.420,157.003 249.400 C 145.662 269.067,145.544 269.255,143.635 270.600 L 141.932 271.800 120.345 271.910 L 98.759 272.020 97.579 270.841 C 96.026 269.287,96.063 267.663,97.719 264.737 C 99.086 262.322,101.324 258.425,105.935 250.434 C 107.511 247.702,108.800 245.332,108.800 245.167 C 108.800 245.002,108.947 244.807,109.126 244.733 C 109.306 244.660,110.240 243.160,111.203 241.400 C 112.165 239.640,113.520 237.300,114.212 236.200 C 114.905 235.100,116.356 232.616,117.436 230.680 C 118.516 228.745,119.798 226.495,120.284 225.680 C 120.770 224.866,121.467 223.660,121.833 223.000 C 122.749 221.345,127.784 212.711,129.501 209.850 C 130.276 208.557,131.943 205.677,133.204 203.450 C 134.465 201.222,136.807 197.150,138.409 194.400 C 142.320 187.685,146.696 180.105,150.301 173.800 C 151.937 170.940,154.540 166.440,156.087 163.800 C 157.633 161.160,159.711 157.560,160.705 155.800 C 163.866 150.198,165.505 149.091,168.204 150.737 M280.726 227.968 C 283.518 228.508,286.173 231.080,288.397 235.400 C 288.850 236.280,289.848 237.990,290.613 239.200 C 291.379 240.410,292.283 241.940,292.624 242.600 C 292.964 243.260,293.767 244.700,294.407 245.800 C 295.047 246.900,296.034 248.610,296.600 249.600 C 297.166 250.590,298.027 252.064,298.514 252.876 C 299.304 254.192,302.788 260.241,304.412 263.117 C 304.748 263.712,305.324 264.650,305.691 265.200 C 306.509 266.426,306.706 269.092,306.067 270.279 C 304.866 272.512,309.700 272.383,236.437 272.127 C 164.566 271.875,167.450 271.961,166.412 270.022 C 165.398 268.127,165.596 267.629,171.197 258.000 C 172.669 255.470,175.374 250.790,177.209 247.600 C 189.639 225.984,185.536 228.417,209.684 228.344 C 225.940 228.295,270.740 227.862,276.800 227.695 C 278.010 227.662,279.777 227.785,280.726 227.968 " stroke="none" fill="#2c7bfc" fill-rule="evenodd"></path></g></svg>