<?xml version="1.0" encoding="UTF-8" standalone="no"?>
<svg
   xmlns:dc="http://purl.org/dc/elements/1.1/"
   xmlns:cc="http://creativecommons.org/ns#"
   xmlns:rdf="http://www.w3.org/1999/02/22-rdf-syntax-ns#"
   xmlns:svg="http://www.w3.org/2000/svg"
   xmlns="http://www.w3.org/2000/svg"
   xmlns:sodipodi="http://sodipodi.sourceforge.net/DTD/sodipodi-0.dtd"
   xmlns:inkscape="http://www.inkscape.org/namespaces/inkscape"
   id="Layer_1"
   data-name="Layer 1"
   width="800"
   height="424"
   viewBox="0 0 800 424"
   version="1.1"
   sodipodi:docname="axi.svg">
  <metadata
     id="metadata15">
    <rdf:RDF>
      <cc:Work
         rdf:about="">
        <dc:format>image/svg+xml</dc:format>
        <dc:type
           rdf:resource="http://purl.org/dc/dcmitype/StillImage" />
      </cc:Work>
    </rdf:RDF>
  </metadata>
  <sodipodi:namedview
     pagecolor="#ffffff"
     bordercolor="#666666"
     borderopacity="1"
     objecttolerance="10"
     gridtolerance="10"
     guidetolerance="10"
     inkscape:pageopacity="0"
     inkscape:pageshadow="2"
     inkscape:window-width="640"
     inkscape:window-height="480"
     id="namedview13" />
  <defs
     id="defs4">
    <style
       id="style2">.cls-1{fill:#005adc;}.cls-2{fill:none;}</style>
  </defs>
  <title
     id="title6">axie_infinity_logo-freelogovectors.net_</title>
  <path
     class="cls-1"
     d="M486.57,216.42c2.6-2.21,5.88-5.83,9.61-3.71a271.76,271.76,0,0,1,37.6,29c7.76,7.24,15,15,22.58,22.43,0,1.78.25,3.77-1.1,5.17-14,20.05-30.8,37.92-48.7,54.47a29.31,29.31,0,0,1-6.11,3.83,32.93,32.93,0,0,1-7.28-3.42,364.11,364.11,0,0,1-31.21-24c-8.76-7.71-18-15.12-25.08-24.48-3.47-3.61,1.2-7.55,3.11-10.63a391.66,391.66,0,0,1,46.58-48.58m19.32,40.78c-6.78,6.18-13.24,12.73-20.38,18.52-2,1.54-3.81,3.63-6.43,4-2.48-6.09-2.27-12.81-1.64-19.23a18.45,18.45,0,0,1,5.87,1.81c-2.05,2.89-7.73,6.05-4.25,10q3.53-3.46,7-7c1.37.81,2.75,1.63,4.14,2.43,1.13-1.26,2.91-2.45,2.08-4.42a65.6,65.6,0,0,0-15.06-9.09c-1.64-.9-3.47-.49-5.2-.29-.66,4.31-1.61,8.68-.9,13.06,1,7,.43,14.48,3.93,20.87,6.13-1.42,10-6.78,14.62-10.62,6.95-6,12.85-13.21,20.49-18.39l3,.56c1.27,5.89,2.81,12.26.15,18-3.81-.79-6.72-3.39-9.78-5.58-2.06-1.73-6.54-.35-4.47,2.87A94.58,94.58,0,0,0,516.91,285L520,283c.63-10.76.4-21.89-2.86-32.2-4.87-.71-8,3.53-11.24,6.36m-407-24.88c4.6-2.16,9.44-4.84,14.7-4,6.69,10.8,15.72,19.92,22.49,30.68-8.48,5.89-15.21,14.69-16.31,25.22.79,4.05,1.88,8.35,5.21,11.1,7.47,6.1,16.81,9.25,26,11.85,27.54,7.58,55.78,12.35,83.35,19.73l1.57,2.46c-2.83,63.25-4.23,126.55-5.24,189.85-4.77,2.21-10.21.93-15.27,1.4-15.74-.2-31.39,2.33-47.12,1.21-3.12-11.75-5.67-23.67-8.95-35.39-10.32-3.81-20.61-7.68-31.11-11l-2.77,0c-8.9,15-16.79,30.62-26.15,45.37-15,.2-29.93-.15-44.89.28-6.9.56-15.22,2.44-20.82-2.88-1.41-1.63-5-2.93-3.77-5.55,11-25.43,22.66-50.56,34.08-75.81,11.59-26.64,23.06-53.33,33.82-80.32,1.6-3.63,2.3-7.88.75-11.66-2.15-6.24-7.41-10.64-12.58-14.42-12-8.86-24.74-16.87-36.49-26.09.27-3.16,2.16-5.83,3.39-8.67C56.62,287.06,60.24,278.27,65,270c5.37-1.17,8.43,4,11.81,7.15A57,57,0,0,1,90,238c2.24-2.82,5.73-4.1,8.84-5.7M149.19,376c-2.79,4.79-4.36,10.18-6.3,15.34-2.53,7.63-5.8,15-7.88,22.82-.82,2-.17,4,.55,5.83,9.46,3.59,19.18,6.87,29.21,8.32,2.24-1.6,4.55-3.1,6.91-4.49,2.31-14.77.52-29.67-.14-44.48l-1.93-2.76c-4.11-.74-8.09-2-12.15-3-2.94-.69-6.57-.53-8.27,2.39M657.44,274.62c8.47-3.19,16.71-7.05,25.37-9.71,2.61-.33,6-1.52,8.19.57a53.45,53.45,0,0,1,1.64,9.33c1,13.95,2.51,27.85,4.16,41.72.56,2.77-2.58,4-4.41,5.21-12.68,7.14-22.66,18.24-30.19,30.54-2.15,3.16-3.54,7.14-7.12,9-8.64-3-16.5-8.83-25.66-10-3.46,2.12-3.32,7.08-3.71,10.68-.77,7.76,3,15.21,8.47,20.53,1.83,1.53,4,3.8,6.64,2.9,5.83-3.91,10-9.66,14.7-14.78,1.73-2.27,5.11-1.93,7.35-.65a151.78,151.78,0,0,0,14.55,7c8.19,3.23,17,4.07,25.58,5.49,3,.42,6.19.36,9,1.82-.74,8.69-2.84,17.21-3,25.95a29.19,29.19,0,0,1-1.37,6.91c-7.95,4.14-16.55,6.76-24.79,10.21-2.23.95-4.45,1.87-6.7,2.71-5.15,2.22-10.48,4-15.56,6.39.64,2.05,1.37,4.09,2.13,6.11a52.34,52.34,0,0,1,1.47,5.43c10.24,1.61,20.65,1.25,31,1.7,17.82.39,35.63,1.5,53.47,1.11,3,0,6.11-.37,9.14.15,3.8,3.39,8.51,6.51,10.32,11.47-.66,4.73-3,9-4.39,13.56-1,2.23-1.86,4.48-2.66,6.77-1,2.19-1.91,4.42-2.72,6.69q-3.84,8.91-7.41,17.94c-.41,1.41-1.36,3.59.3,4.57,5.83,3.7,12.19,6.58,17.81,10.63,2.7,2.17,1.28,5.75-.09,8.28-2.24,3.24-6.23,4.11-9.72,5.33-16.34,5.38-32.47,11.41-48.77,16.86-4,1.28-8.34,2.9-12.39,1a408.2,408.2,0,0,1,1.5-44.1c-21.62.13-43.17,2.13-64.69,3.92-10.39.36-20.72,2.13-31.12,1.23-2.13-1.17-2.71-3.67-3.38-5.8-4.46-15.46-7.62-31.27-11.51-46.87-3.82-16.08-8.19-32-12-48.11-1.88-9-4-18-6.59-26.92-4.13-20.82-9.11-41.45-13.86-62.13a22.93,22.93,0,0,1-.08-6.41,125.59,125.59,0,0,1,15.32-8.16c24-10.45,48.37-20.19,72.34-30.82,4.47-1.81,9-3.44,13.49-5.28M349.65,379.91c20.63-16.31,40.59-33.45,61.22-49.72,15,14.33,31,27.77,43.8,44.19-7.27,7.73-16.19,13.64-24.23,20.51-9.83,8.06-19.24,16.63-29.37,24.33-2.37,1.24-2.21,4.22-1.27,6.35,4.91,12.26,14.72,22,26,28.65,8.23,5,18.83,5,27.43.92,3.73-1.47,7.05-4.66,11.33-4.06,3,12.92,6.8,25.64,9.58,38.61.79,2.2-1.87,3.38-3.19,4.57-13.17,9.1-25.84,19-39.27,27.69a8.76,8.76,0,0,1-10.54-.07c-15.37-10.36-30.6-21-45.14-32.5-8-6.19-15.54-12.94-24.05-18.41-11.12,10-21.63,20.57-32.73,30.55-9.28,8.27-18.68,16.43-27.59,25.12-5.36-3.39-9.5-8.27-14.22-12.45-10.6-9.46-20.62-19.57-31.3-29-2.1-2.3-7.1-5.37-3.55-8.62,14.62-16.59,29.94-32.56,44.64-49.08-8.66-14.34-18-28.25-26.31-42.8-3.7-6.77-8.64-12.88-11.46-20.09,17-10.71,34-21.42,51.58-31.15,6.13,4.19,10.25,10.52,15.55,15.63,9.58,9.58,18.42,19.87,28.26,29.21,1.21,1.25,3.08,2.88,4.85,1.57M460,341.61c27.44-5.08,55.19-8.45,82.8-12.65,3.23,10.67,2,22.1,3.34,33.09,1.08,7.94.29,16,1.26,24,1.27,9.12.64,18.38,1.39,27.55,1.17,7.75.51,15.63,1.53,23.37,1.08,8.46.05,17.06,1.48,25.48.25,16.76,3,33.44,1.88,50.21a42.69,42.69,0,0,1-6-.14c-19.56-3.28-39.14-6.49-58.55-10.61-2.81-.44-4.34-3-4.59-5.68-2.71-16.87-6.37-33.58-9.59-50.36-.61-3.52-.95-7.42,1.21-10.51,10.39-18.06,15.29-40.4,8.83-60.63-7,.09-13.84-1-20.77-1.49A170.89,170.89,0,0,1,460,341.61m-26.4,55.05a4.7,4.7,0,0,1,5.61-3.23c5.36,7.13,6.23,16.23,6.78,24.83-.52,6.34-.68,13.07-4.23,18.62-1.69-.24-3.74-.12-4.36-2.11-6.39-11.36-8.64-25.77-3.8-38.11M241.21,547.31c4.91-.16,9.83-.18,14.73.08-.11,13-.16,26.05-.08,39.08-4.93.43-9.89.31-14.84.27.11-13.15.23-26.29.19-39.43m28.36-.12c3.78.23,7.92-.68,11.48.54,4.81,6.73,8.55,14.18,13.59,20.76.35-7.09.2-14.19.28-21.28,4-.1,7.95-.08,11.92.18-.08,13.11,0,26.2.14,39.29q-5.85.17-11.71,0c-4.07-6.23-8.6-12.14-12.6-18.41-.36,6.16-.67,12.34-.59,18.53-4.22,0-8.44,0-12.66.05-.2-.91-.59-2.74-.78-3.66,1.41-11.9.47-24,.93-36m50.73,0c9.84,0,19.68-.05,29.51,0,0,3.58,0,7.16-.05,10.73-5.68-.05-11.35-.06-17,.19l.12,5.4,9.17.16c0,2.56,0,5.14,0,7.71-2.9-.06-5.78-.08-8.66-.12.06,5.12.11,10.24.27,15.37-4.74.56-9.5.15-14.23-.12.56-13.11,1.06-26.21.92-39.35m42.2.91c4.22-2.13,9.84-.33,14.58-.85-.1,13.14-.2,26.3-.19,39.46-4.91.08-9.82.12-14.74-.09.3-12.84-.14-25.69.35-38.52m28.57-.91a63.51,63.51,0,0,1,11.86.47c3.34,6.65,8,12.48,11.69,19l2.14-.1c-.16-6.45,0-12.89,0-19.34,3.77,0,7.52,0,11.29,0-.08,13.09.17,26.17.64,39.25-4.13.39-8.34.67-12.41-.24-3.11-5.5-7-10.5-10.76-15.56l-1.89-1c0,5.71,0,11.42-.08,17.13-4.45,0-8.89,0-13.31-.09.34-13.17.12-26.34.83-39.49m50.9,0c4.68,0,9.37,0,14,0q-.08,19.75-.12,39.53c-4.84,0-9.69.12-14.51-.16.23-13.15,0-26.28.59-39.41m28.22.17c12-1.42,24,.07,36-.17l1.79.18a63.46,63.46,0,0,0-1,13.55c-4.09,0-8.16,0-12.24.08q-.12,12.88-.16,25.8l-6.15,0-1,.72c-2.48-.12-5.13.18-7.37-1.12q1.14-12.74,1.49-25.49c-3.83,0-7.67.07-11.49.17a19.91,19.91,0,0,1,0-8.79c-.19-1.2-.56-3.6-.76-4.8l.92-.09m43.66-.15c4.85.27,9.92-1.24,14.62.15,3.5,3.4,6.08,7.68,9.38,11.31,1.77-3.81,3.61-7.57,5.42-11.35,5.05-.19,10.1-.19,15.16-.13-5.14,13.42-12.47,25.94-17.84,39.3-4.83,2.32-10.48-1.59-15,1.46-1.77-6.63,6.72-11.52,5.43-18.1-5.56-7.67-11.78-14.85-17.18-22.64Z"
     transform="translate(0 -188)"
     id="path8" />
  <rect
     class="cls-2"
     width="800"
     height="424"
     id="rect10" />
</svg>
