<svg id="svg" version="1.1" xmlns="http://www.w3.org/2000/svg" xmlns:xlink="http://www.w3.org/1999/xlink" width="400" height="209.33333333333334" viewBox="0, 0, 400,209.33333333333334"><g id="svgg"><path id="path0" d="M119.843 68.507 C 119.567 68.789,119.434 132.358,119.708 133.072 C 119.822 133.369,121.077 133.403,131.728 133.403 C 145.314 133.403,147.222 133.279,151.099 132.145 C 151.445 132.044,152.058 131.873,152.461 131.766 C 155.167 131.045,158.471 129.239,162.680 126.178 C 164.260 125.029,168.197 120.783,169.575 118.742 C 170.799 116.928,172.984 112.728,172.984 112.187 C 172.984 112.050,173.173 111.443,173.402 110.838 C 174.369 108.295,174.861 104.926,174.865 100.820 C 174.870 96.634,174.511 94.324,173.266 90.513 C 172.591 88.450,170.671 84.475,169.808 83.356 C 169.584 83.065,168.928 82.188,168.352 81.406 C 164.162 75.723,156.483 70.647,150.052 69.310 C 149.476 69.190,148.346 68.948,147.539 68.771 C 145.510 68.327,120.255 68.086,119.843 68.507 M227.592 68.487 C 227.124 68.774,227.010 132.685,227.476 133.152 C 227.804 133.479,250.249 133.506,253.433 133.183 C 258.529 132.666,264.973 130.315,268.168 127.808 C 268.283 127.718,268.943 127.227,269.634 126.718 C 272.305 124.748,277.696 118.863,277.696 117.917 C 277.696 117.796,277.773 117.696,277.867 117.696 C 278.386 117.696,280.766 112.274,281.590 109.215 C 282.717 105.026,282.900 97.537,281.960 94.031 C 281.790 93.398,281.476 92.212,281.262 91.396 C 281.048 90.580,280.667 89.449,280.415 88.883 C 279.643 87.149,278.560 85.024,278.148 84.434 C 277.932 84.126,277.719 83.764,277.674 83.629 C 277.322 82.577,272.115 76.860,270.262 75.491 C 269.801 75.150,269.377 74.817,269.319 74.750 C 268.677 74.008,262.852 70.848,261.257 70.376 C 260.796 70.239,260.230 70.051,260.000 69.957 C 259.535 69.767,258.395 69.457,256.963 69.131 C 256.445 69.013,255.550 68.809,254.974 68.676 C 253.529 68.345,228.109 68.169,227.592 68.487 M145.899 82.177 C 152.614 83.623,157.800 88.846,159.707 96.084 C 160.113 97.621,160.109 104.076,159.702 105.592 C 157.907 112.276,153.613 117.175,147.963 118.984 C 145.115 119.896,144.211 120.000,139.149 120.000 L 134.241 120.000 134.241 101.058 C 134.241 83.244,134.263 82.101,134.607 81.887 C 135.163 81.541,144.002 81.768,145.899 82.177 M254.098 82.283 C 256.129 82.821,257.717 83.483,259.160 84.394 C 261.341 85.772,264.712 89.182,264.712 90.011 C 264.712 90.113,264.896 90.364,265.122 90.568 C 265.347 90.772,265.785 91.611,266.094 92.433 C 266.404 93.254,266.725 94.021,266.808 94.136 C 267.649 95.300,268.115 101.868,267.551 104.607 C 265.389 115.115,258.829 119.993,246.859 119.998 L 241.885 120.000 241.885 101.058 C 241.885 83.237,241.907 82.103,242.251 81.904 C 242.966 81.492,252.227 81.789,254.098 82.283 M177.509 133.734 C 177.189 134.569,177.373 143.617,177.713 143.747 C 178.146 143.913,216.618 143.913,217.051 143.747 C 217.482 143.582,217.557 134.081,217.131 133.654 C 216.696 133.219,177.677 133.298,177.509 133.734 " stroke="none" fill="#f9f9f9" fill-rule="evenodd"></path><path id="path1" d="M0.000 104.712 L 0.000 209.424 200.000 209.424 L 400.000 209.424 400.000 104.712 L 400.000 0.000 200.000 0.000 L 0.000 0.000 0.000 104.712 M147.539 68.771 C 148.346 68.948,149.476 69.190,150.052 69.310 C 156.483 70.647,164.162 75.723,168.352 81.406 C 168.928 82.188,169.584 83.065,169.808 83.356 C 170.671 84.475,172.591 88.450,173.266 90.513 C 174.511 94.324,174.870 96.634,174.865 100.820 C 174.861 104.926,174.369 108.295,173.402 110.838 C 173.173 111.443,172.984 112.050,172.984 112.187 C 172.984 112.728,170.799 116.928,169.575 118.742 C 168.197 120.783,164.260 125.029,162.680 126.178 C 158.471 129.239,155.167 131.045,152.461 131.766 C 152.058 131.873,151.445 132.044,151.099 132.145 C 147.222 133.279,145.314 133.403,131.728 133.403 C 121.077 133.403,119.822 133.369,119.708 133.072 C 119.434 132.358,119.567 68.789,119.843 68.507 C 120.255 68.086,145.510 68.327,147.539 68.771 M254.974 68.676 C 255.550 68.809,256.445 69.013,256.963 69.131 C 258.395 69.457,259.535 69.767,260.000 69.957 C 260.230 70.051,260.796 70.239,261.257 70.376 C 262.852 70.848,268.677 74.008,269.319 74.750 C 269.377 74.817,269.801 75.150,270.262 75.491 C 272.115 76.860,277.322 82.577,277.674 83.629 C 277.719 83.764,277.932 84.126,278.148 84.434 C 278.560 85.024,279.643 87.149,280.415 88.883 C 280.667 89.449,281.048 90.580,281.262 91.396 C 281.476 92.212,281.790 93.398,281.960 94.031 C 282.900 97.537,282.717 105.026,281.590 109.215 C 280.766 112.274,278.386 117.696,277.867 117.696 C 277.773 117.696,277.696 117.796,277.696 117.917 C 277.696 118.863,272.305 124.748,269.634 126.718 C 268.943 127.227,268.283 127.718,268.168 127.808 C 265.792 129.673,261.593 131.463,256.754 132.675 C 253.825 133.408,228.151 133.827,227.476 133.152 C 227.010 132.685,227.124 68.774,227.592 68.487 C 228.109 68.169,253.529 68.345,254.974 68.676 M134.607 81.887 C 134.263 82.101,134.241 83.244,134.241 101.058 L 134.241 120.000 139.149 120.000 C 148.985 120.000,154.474 117.136,158.009 110.160 C 159.595 107.031,160.000 105.133,160.000 100.838 C 160.000 91.310,154.498 84.029,145.899 82.177 C 144.002 81.768,135.163 81.541,134.607 81.887 M242.251 81.904 C 241.907 82.103,241.885 83.237,241.885 101.058 L 241.885 120.000 246.859 119.998 C 258.829 119.993,265.389 115.115,267.551 104.607 C 268.115 101.868,267.649 95.300,266.808 94.136 C 266.725 94.021,266.404 93.254,266.094 92.433 C 265.785 91.611,265.347 90.772,265.122 90.568 C 264.896 90.364,264.712 90.113,264.712 90.011 C 264.712 89.445,262.075 86.522,260.403 85.236 C 258.707 83.931,256.606 82.947,254.098 82.283 C 252.227 81.789,242.966 81.492,242.251 81.904 M217.131 133.654 C 217.557 134.081,217.482 143.582,217.051 143.747 C 216.618 143.913,178.146 143.913,177.713 143.747 C 177.373 143.617,177.189 134.569,177.509 133.734 C 177.677 133.298,216.696 133.219,217.131 133.654 " stroke="none" fill="#040404" fill-rule="evenodd"></path></g></svg>