<svg id="svg" version="1.1" xmlns="http://www.w3.org/2000/svg" xmlns:xlink="http://www.w3.org/1999/xlink" width="400" height="400" viewBox="0, 0, 400,400"><g id="svgg"><path id="path0" d="M192.200 113.243 C 191.320 113.456,188.315 113.883,185.521 114.194 C 182.728 114.504,179.938 115.014,179.321 115.328 C 178.705 115.642,176.965 116.110,175.456 116.368 C 173.948 116.627,172.328 117.090,171.856 117.397 C 171.385 117.704,170.103 118.156,169.006 118.400 C 167.910 118.645,166.740 119.091,166.406 119.391 C 166.073 119.692,165.279 120.068,164.643 120.226 C 163.632 120.479,160.817 121.860,156.000 124.466 C 153.726 125.696,151.881 126.835,150.854 127.643 C 150.325 128.059,149.710 128.400,149.488 128.400 C 149.266 128.400,148.705 128.770,148.242 129.223 C 147.779 129.676,146.050 131.125,144.400 132.444 C 139.540 136.331,137.513 138.103,136.013 139.781 C 135.236 140.650,134.195 141.783,133.700 142.299 C 133.205 142.814,132.800 143.331,132.800 143.446 C 132.800 143.638,130.053 147.075,128.926 148.293 C 128.666 148.574,128.338 149.164,128.199 149.602 C 128.060 150.041,127.782 150.400,127.581 150.400 C 127.380 150.400,126.808 151.135,126.308 152.034 C 125.809 152.933,125.102 154.206,124.737 154.862 C 124.372 155.518,123.810 156.358,123.488 156.728 C 123.165 157.097,122.689 158.061,122.430 158.868 C 122.171 159.675,121.710 160.543,121.405 160.796 C 121.101 161.048,120.737 161.774,120.598 162.409 C 120.459 163.043,120.023 163.976,119.630 164.481 C 119.237 164.987,118.798 166.040,118.654 166.822 C 118.511 167.605,118.037 168.943,117.602 169.796 C 117.167 170.649,116.603 172.439,116.348 173.773 C 116.093 175.108,115.646 176.674,115.355 177.254 C 115.065 177.834,114.629 179.994,114.388 182.054 C 114.146 184.114,113.690 186.832,113.374 188.094 C 112.697 190.801,112.576 202.632,113.205 204.803 C 113.427 205.571,113.886 208.432,114.224 211.160 C 114.562 213.888,115.092 216.481,115.400 216.922 C 115.709 217.363,116.175 219.046,116.436 220.662 C 116.696 222.278,117.060 223.600,117.244 223.600 C 117.427 223.600,117.874 224.635,118.235 225.900 C 118.597 227.165,119.120 228.470,119.396 228.800 C 119.673 229.130,120.124 230.120,120.400 231.000 C 120.676 231.880,121.119 232.870,121.385 233.200 C 121.651 233.530,122.112 234.430,122.411 235.200 C 122.709 235.970,123.189 236.744,123.477 236.920 C 123.764 237.096,124.000 237.462,124.000 237.733 C 124.000 238.649,128.753 245.760,131.705 249.261 C 132.197 249.844,133.050 250.878,133.600 251.559 C 135.011 253.304,141.279 259.600,141.606 259.600 C 142.014 259.600,143.358 260.873,144.111 261.973 C 145.476 263.966,145.213 264.000,128.394 264.000 C 114.621 264.000,112.858 264.071,112.643 264.633 C 112.326 265.458,112.326 286.542,112.643 287.367 C 112.962 288.200,178.690 288.350,179.520 287.520 C 180.123 286.917,180.214 256.747,179.616 255.630 C 179.405 255.236,178.418 254.685,177.424 254.407 C 176.429 254.128,175.410 253.653,175.159 253.350 C 174.908 253.048,174.448 252.800,174.138 252.800 C 173.439 252.800,171.614 251.954,169.000 250.418 C 167.900 249.772,166.456 248.978,165.792 248.655 C 165.127 248.331,164.245 247.691,163.830 247.233 C 163.415 246.775,162.898 246.400,162.681 246.400 C 161.753 246.400,152.888 238.096,150.791 235.261 C 150.246 234.524,149.429 233.444,148.975 232.861 C 146.030 229.075,141.600 220.992,141.600 219.405 C 141.600 219.014,141.259 218.133,140.843 217.447 C 140.427 216.761,139.964 215.570,139.814 214.800 C 139.664 214.030,139.208 212.403,138.800 211.184 C 137.037 205.911,137.012 189.679,138.758 183.600 C 140.514 177.486,141.981 173.335,142.859 172.000 C 143.221 171.450,143.647 170.550,143.806 170.000 C 143.965 169.450,144.325 168.730,144.607 168.400 C 144.890 168.070,145.409 167.170,145.762 166.400 C 146.114 165.630,146.897 164.356,147.501 163.569 C 148.106 162.782,149.609 160.802,150.843 159.169 C 153.232 156.008,157.514 151.768,160.429 149.679 C 164.410 146.825,168.680 144.092,169.611 143.803 C 170.155 143.634,171.050 143.182,171.600 142.800 C 172.150 142.418,173.050 141.968,173.600 141.800 C 174.150 141.632,175.056 141.174,175.614 140.782 C 176.171 140.390,177.341 139.939,178.214 139.781 C 179.086 139.623,180.325 139.227,180.967 138.902 C 181.609 138.576,183.409 138.075,184.967 137.787 C 186.525 137.499,189.060 136.982,190.600 136.639 C 193.813 135.922,205.957 135.766,208.600 136.408 C 211.949 137.221,215.831 138.000,216.600 138.013 C 217.040 138.021,218.120 138.375,219.000 138.800 C 219.880 139.225,220.840 139.579,221.133 139.586 C 222.579 139.623,231.960 144.140,232.520 145.069 C 232.696 145.361,233.062 145.600,233.333 145.600 C 233.909 145.600,237.432 147.837,238.686 149.000 C 239.161 149.440,240.051 150.160,240.665 150.600 C 243.728 152.796,251.323 161.278,252.460 163.771 C 252.717 164.337,253.075 164.800,253.255 164.800 C 253.434 164.800,253.926 165.475,254.346 166.300 C 254.767 167.125,255.847 169.150,256.745 170.800 C 257.644 172.450,258.384 174.073,258.389 174.406 C 258.395 174.739,258.747 175.660,259.172 176.452 C 259.596 177.244,260.073 178.591,260.231 179.446 C 260.390 180.301,260.861 181.990,261.278 183.200 C 263.011 188.227,263.108 206.573,261.423 210.606 C 261.102 211.374,260.620 213.127,260.350 214.501 C 260.081 215.876,259.533 217.540,259.132 218.200 C 258.731 218.860,258.402 219.613,258.401 219.874 C 258.399 220.519,257.802 221.820,256.415 224.200 C 255.773 225.300,254.868 227.004,254.401 227.987 C 253.935 228.970,252.964 230.500,252.244 231.387 C 251.523 232.274,250.757 233.322,250.542 233.716 C 249.371 235.856,238.485 246.400,237.446 246.400 C 237.316 246.400,236.172 247.174,234.904 248.121 C 232.150 250.178,224.345 254.171,222.345 254.546 C 221.359 254.731,220.781 255.124,220.461 255.825 C 219.739 257.411,219.816 286.949,220.544 287.553 C 220.940 287.882,230.080 287.977,254.244 287.902 L 287.400 287.800 287.512 276.800 C 287.574 270.750,287.526 265.395,287.405 264.900 L 287.185 264.000 271.641 264.000 C 253.052 264.000,253.519 264.126,257.781 260.269 C 261.557 256.853,265.607 252.785,266.800 251.211 C 267.350 250.485,268.264 249.331,268.832 248.646 C 273.290 243.266,281.588 229.041,281.604 226.751 C 281.606 226.448,282.048 225.255,282.586 224.099 C 283.124 222.943,283.678 221.323,283.817 220.499 C 283.955 219.675,284.398 218.008,284.801 216.796 C 285.203 215.583,285.658 213.243,285.811 211.596 C 285.965 209.948,286.337 207.520,286.639 206.200 C 287.282 203.391,287.408 190.921,286.815 188.853 C 286.604 188.115,286.231 185.696,285.987 183.478 C 285.743 181.260,285.269 178.715,284.935 177.823 C 284.601 176.930,284.096 175.078,283.813 173.706 C 283.531 172.334,283.031 170.801,282.702 170.300 C 282.374 169.799,281.969 168.761,281.802 167.994 C 281.636 167.227,281.178 165.970,280.784 165.200 C 280.391 164.430,279.289 162.215,278.335 160.278 C 275.571 154.666,270.884 147.390,268.200 144.543 C 267.760 144.077,267.040 143.222,266.600 142.643 C 265.417 141.088,258.799 134.400,258.442 134.400 C 258.274 134.400,257.340 133.672,256.368 132.782 C 255.396 131.892,254.060 130.876,253.400 130.523 C 252.740 130.170,251.965 129.548,251.677 129.140 C 251.390 128.733,250.895 128.400,250.577 128.400 C 250.260 128.400,249.677 128.077,249.283 127.683 C 248.888 127.288,247.988 126.727,247.283 126.434 C 246.577 126.142,246.000 125.736,246.000 125.531 C 246.000 125.327,245.325 124.880,244.500 124.540 C 243.675 124.199,242.730 123.691,242.400 123.411 C 242.070 123.130,241.139 122.689,240.332 122.430 C 239.525 122.171,238.657 121.710,238.404 121.405 C 238.152 121.101,237.372 120.732,236.672 120.587 C 235.973 120.441,234.805 119.980,234.077 119.561 C 233.350 119.143,231.910 118.598,230.877 118.350 C 229.845 118.103,228.620 117.665,228.157 117.378 C 227.693 117.091,226.163 116.650,224.757 116.399 C 223.350 116.148,221.671 115.682,221.025 115.365 C 220.379 115.047,218.195 114.602,216.171 114.377 C 214.148 114.151,211.526 113.770,210.346 113.530 C 207.529 112.958,194.249 112.748,192.200 113.243 " stroke="none" fill="#f9fafa" fill-rule="evenodd"></path><path id="path1" d="M171.200 0.600 C 171.200 1.107,170.267 1.200,165.200 1.200 L 159.200 1.200 159.200 2.200 L 159.200 3.200 155.200 3.200 L 151.200 3.200 151.200 4.200 L 151.200 5.200 147.200 5.200 L 143.200 5.200 143.200 6.200 C 143.200 7.178,143.133 7.200,140.200 7.200 C 137.267 7.200,137.200 7.222,137.200 8.200 C 137.200 9.178,137.133 9.200,134.200 9.200 C 131.267 9.200,131.200 9.222,131.200 10.200 C 131.200 11.178,131.133 11.200,128.200 11.200 C 125.267 11.200,125.200 11.222,125.200 12.200 C 125.200 13.133,125.067 13.200,123.200 13.200 C 121.333 13.200,121.200 13.267,121.200 14.200 C 121.200 15.178,121.133 15.200,118.200 15.200 C 115.267 15.200,115.200 15.222,115.200 16.200 C 115.200 17.133,115.067 17.200,113.200 17.200 C 111.333 17.200,111.200 17.267,111.200 18.200 C 111.200 19.133,111.067 19.200,109.200 19.200 C 107.333 19.200,107.200 19.267,107.200 20.200 C 107.200 21.133,107.067 21.200,105.200 21.200 C 103.333 21.200,103.200 21.267,103.200 22.200 C 103.200 23.133,103.067 23.200,101.200 23.200 C 99.333 23.200,99.200 23.267,99.200 24.200 C 99.200 25.000,99.000 25.200,98.200 25.200 C 97.400 25.200,97.200 25.400,97.200 26.200 C 97.200 27.133,97.067 27.200,95.200 27.200 C 93.333 27.200,93.200 27.267,93.200 28.200 C 93.200 29.000,93.000 29.200,92.200 29.200 C 91.400 29.200,91.200 29.400,91.200 30.200 C 91.200 31.133,91.067 31.200,89.200 31.200 C 87.333 31.200,87.200 31.267,87.200 32.200 C 87.200 33.000,87.000 33.200,86.200 33.200 C 85.400 33.200,85.200 33.400,85.200 34.200 C 85.200 35.133,85.067 35.200,83.200 35.200 C 81.333 35.200,81.200 35.267,81.200 36.200 C 81.200 37.000,81.000 37.200,80.200 37.200 C 79.400 37.200,79.200 37.400,79.200 38.200 C 79.200 39.133,79.067 39.200,77.200 39.200 C 75.333 39.200,75.200 39.267,75.200 40.200 C 75.200 41.000,75.000 41.200,74.200 41.200 C 73.400 41.200,73.200 41.400,73.200 42.200 C 73.200 43.000,73.000 43.200,72.200 43.200 C 71.400 43.200,71.200 43.400,71.200 44.200 C 71.200 45.000,71.000 45.200,70.200 45.200 C 69.400 45.200,69.200 45.400,69.200 46.200 C 69.200 47.000,69.000 47.200,68.200 47.200 C 67.400 47.200,67.200 47.400,67.200 48.200 C 67.200 49.133,67.067 49.200,65.200 49.200 C 63.333 49.200,63.200 49.267,63.200 50.200 C 63.200 51.000,63.000 51.200,62.200 51.200 C 61.400 51.200,61.200 51.400,61.200 52.200 C 61.200 53.000,61.000 53.200,60.200 53.200 C 59.400 53.200,59.200 53.400,59.200 54.200 C 59.200 55.000,59.000 55.200,58.200 55.200 C 57.400 55.200,57.200 55.400,57.200 56.200 C 57.200 57.000,57.000 57.200,56.200 57.200 C 55.400 57.200,55.200 57.400,55.200 58.200 C 55.200 59.000,55.000 59.200,54.200 59.200 C 53.400 59.200,53.200 59.400,53.200 60.200 C 53.200 61.000,53.000 61.200,52.200 61.200 C 51.267 61.200,51.200 61.333,51.200 63.200 C 51.200 65.067,51.133 65.200,50.200 65.200 C 49.400 65.200,49.200 65.400,49.200 66.200 C 49.200 67.000,49.000 67.200,48.200 67.200 C 47.400 67.200,47.200 67.400,47.200 68.200 C 47.200 69.000,47.000 69.200,46.200 69.200 C 45.400 69.200,45.200 69.400,45.200 70.200 C 45.200 71.000,45.000 71.200,44.200 71.200 C 43.400 71.200,43.200 71.400,43.200 72.200 C 43.200 73.000,43.000 73.200,42.200 73.200 C 41.400 73.200,41.200 73.400,41.200 74.200 C 41.200 75.000,41.000 75.200,40.200 75.200 C 39.267 75.200,39.200 75.333,39.200 77.200 C 39.200 79.067,39.133 79.200,38.200 79.200 C 37.400 79.200,37.200 79.400,37.200 80.200 C 37.200 81.000,37.000 81.200,36.200 81.200 C 35.267 81.200,35.200 81.333,35.200 83.200 C 35.200 85.067,35.133 85.200,34.200 85.200 C 33.400 85.200,33.200 85.400,33.200 86.200 C 33.200 87.000,33.000 87.200,32.200 87.200 C 31.267 87.200,31.200 87.333,31.200 89.200 C 31.200 91.067,31.133 91.200,30.200 91.200 C 29.400 91.200,29.200 91.400,29.200 92.200 C 29.200 93.000,29.000 93.200,28.200 93.200 C 27.267 93.200,27.200 93.333,27.200 95.200 C 27.200 97.067,27.133 97.200,26.200 97.200 C 25.267 97.200,25.200 97.333,25.200 99.200 C 25.200 101.067,25.133 101.200,24.200 101.200 C 23.400 101.200,23.200 101.400,23.200 102.200 C 23.200 103.000,23.000 103.200,22.200 103.200 C 21.267 103.200,21.200 103.333,21.200 105.200 C 21.200 107.067,21.133 107.200,20.200 107.200 C 19.267 107.200,19.200 107.333,19.200 109.200 C 19.200 111.067,19.133 111.200,18.200 111.200 C 17.267 111.200,17.200 111.333,17.200 113.200 C 17.200 115.067,17.133 115.200,16.200 115.200 C 15.222 115.200,15.200 115.267,15.200 118.200 C 15.200 121.133,15.178 121.200,14.200 121.200 C 13.267 121.200,13.200 121.333,13.200 123.200 C 13.200 125.067,13.133 125.200,12.200 125.200 C 11.222 125.200,11.200 125.267,11.200 128.200 C 11.200 131.133,11.178 131.200,10.200 131.200 C 9.222 131.200,9.200 131.267,9.200 134.200 C 9.200 137.133,9.178 137.200,8.200 137.200 C 7.222 137.200,7.200 137.267,7.200 140.200 C 7.200 143.133,7.178 143.200,6.200 143.200 L 5.200 143.200 5.200 147.200 L 5.200 151.200 4.200 151.200 L 3.200 151.200 3.200 155.200 L 3.200 159.200 2.200 159.200 L 1.200 159.200 1.200 165.200 C 1.200 170.267,1.107 171.200,0.600 171.200 C 0.072 171.200,0.000 174.667,0.000 200.000 C 0.000 225.333,0.072 228.800,0.600 228.800 C 1.107 228.800,1.200 229.733,1.200 234.800 L 1.200 240.800 2.200 240.800 L 3.200 240.800 3.200 244.800 L 3.200 248.800 4.200 248.800 L 5.200 248.800 5.200 252.800 L 5.200 256.800 6.200 256.800 C 7.178 256.800,7.200 256.867,7.200 259.800 C 7.200 262.733,7.222 262.800,8.200 262.800 C 9.178 262.800,9.200 262.867,9.200 265.800 C 9.200 268.733,9.222 268.800,10.200 268.800 C 11.178 268.800,11.200 268.867,11.200 271.800 C 11.200 274.733,11.222 274.800,12.200 274.800 C 13.133 274.800,13.200 274.933,13.200 276.800 C 13.200 278.667,13.267 278.800,14.200 278.800 C 15.178 278.800,15.200 278.867,15.200 281.800 C 15.200 284.733,15.222 284.800,16.200 284.800 C 17.133 284.800,17.200 284.933,17.200 286.800 C 17.200 288.667,17.267 288.800,18.200 288.800 C 19.133 288.800,19.200 288.933,19.200 290.800 C 19.200 292.667,19.267 292.800,20.200 292.800 C 21.133 292.800,21.200 292.933,21.200 294.800 C 21.200 296.667,21.267 296.800,22.200 296.800 C 23.133 296.800,23.200 296.933,23.200 298.800 C 23.200 300.667,23.267 300.800,24.200 300.800 C 25.000 300.800,25.200 301.000,25.200 301.800 C 25.200 302.600,25.400 302.800,26.200 302.800 C 27.133 302.800,27.200 302.933,27.200 304.800 C 27.200 306.667,27.267 306.800,28.200 306.800 C 29.000 306.800,29.200 307.000,29.200 307.800 C 29.200 308.600,29.400 308.800,30.200 308.800 C 31.133 308.800,31.200 308.933,31.200 310.800 C 31.200 312.667,31.267 312.800,32.200 312.800 C 33.000 312.800,33.200 313.000,33.200 313.800 C 33.200 314.600,33.400 314.800,34.200 314.800 C 35.133 314.800,35.200 314.933,35.200 316.800 C 35.200 318.667,35.267 318.800,36.200 318.800 C 37.000 318.800,37.200 319.000,37.200 319.800 C 37.200 320.600,37.400 320.800,38.200 320.800 C 39.133 320.800,39.200 320.933,39.200 322.800 C 39.200 324.667,39.267 324.800,40.200 324.800 C 41.000 324.800,41.200 325.000,41.200 325.800 C 41.200 326.600,41.400 326.800,42.200 326.800 C 43.000 326.800,43.200 327.000,43.200 327.800 C 43.200 328.600,43.400 328.800,44.200 328.800 C 45.000 328.800,45.200 329.000,45.200 329.800 C 45.200 330.600,45.400 330.800,46.200 330.800 C 47.000 330.800,47.200 331.000,47.200 331.800 C 47.200 332.600,47.400 332.800,48.200 332.800 C 49.133 332.800,49.200 332.933,49.200 334.800 C 49.200 336.667,49.267 336.800,50.200 336.800 C 51.000 336.800,51.200 337.000,51.200 337.800 C 51.200 338.600,51.400 338.800,52.200 338.800 C 53.000 338.800,53.200 339.000,53.200 339.800 C 53.200 340.600,53.400 340.800,54.200 340.800 C 55.000 340.800,55.200 341.000,55.200 341.800 C 55.200 342.600,55.400 342.800,56.200 342.800 C 57.000 342.800,57.200 343.000,57.200 343.800 C 57.200 344.600,57.400 344.800,58.200 344.800 C 59.000 344.800,59.200 345.000,59.200 345.800 C 59.200 346.600,59.400 346.800,60.200 346.800 C 61.000 346.800,61.200 347.000,61.200 347.800 C 61.200 348.733,61.333 348.800,63.200 348.800 C 65.067 348.800,65.200 348.867,65.200 349.800 C 65.200 350.600,65.400 350.800,66.200 350.800 C 67.000 350.800,67.200 351.000,67.200 351.800 C 67.200 352.600,67.400 352.800,68.200 352.800 C 69.000 352.800,69.200 353.000,69.200 353.800 C 69.200 354.600,69.400 354.800,70.200 354.800 C 71.000 354.800,71.200 355.000,71.200 355.800 C 71.200 356.600,71.400 356.800,72.200 356.800 C 73.000 356.800,73.200 357.000,73.200 357.800 C 73.200 358.600,73.400 358.800,74.200 358.800 C 75.000 358.800,75.200 359.000,75.200 359.800 C 75.200 360.733,75.333 360.800,77.200 360.800 C 79.067 360.800,79.200 360.867,79.200 361.800 C 79.200 362.600,79.400 362.800,80.200 362.800 C 81.000 362.800,81.200 363.000,81.200 363.800 C 81.200 364.733,81.333 364.800,83.200 364.800 C 85.067 364.800,85.200 364.867,85.200 365.800 C 85.200 366.600,85.400 366.800,86.200 366.800 C 87.000 366.800,87.200 367.000,87.200 367.800 C 87.200 368.733,87.333 368.800,89.200 368.800 C 91.067 368.800,91.200 368.867,91.200 369.800 C 91.200 370.600,91.400 370.800,92.200 370.800 C 93.000 370.800,93.200 371.000,93.200 371.800 C 93.200 372.733,93.333 372.800,95.200 372.800 C 97.067 372.800,97.200 372.867,97.200 373.800 C 97.200 374.733,97.333 374.800,99.200 374.800 C 101.067 374.800,101.200 374.867,101.200 375.800 C 101.200 376.600,101.400 376.800,102.200 376.800 C 103.000 376.800,103.200 377.000,103.200 377.800 C 103.200 378.733,103.333 378.800,105.200 378.800 C 107.067 378.800,107.200 378.867,107.200 379.800 C 107.200 380.733,107.333 380.800,109.200 380.800 C 111.067 380.800,111.200 380.867,111.200 381.800 C 111.200 382.733,111.333 382.800,113.200 382.800 C 115.067 382.800,115.200 382.867,115.200 383.800 C 115.200 384.778,115.267 384.800,118.200 384.800 C 121.133 384.800,121.200 384.822,121.200 385.800 C 121.200 386.733,121.333 386.800,123.200 386.800 C 125.067 386.800,125.200 386.867,125.200 387.800 C 125.200 388.778,125.267 388.800,128.200 388.800 C 131.133 388.800,131.200 388.822,131.200 389.800 C 131.200 390.778,131.267 390.800,134.200 390.800 C 137.133 390.800,137.200 390.822,137.200 391.800 C 137.200 392.778,137.267 392.800,140.200 392.800 C 143.133 392.800,143.200 392.822,143.200 393.800 L 143.200 394.800 147.200 394.800 L 151.200 394.800 151.200 395.800 L 151.200 396.800 155.200 396.800 L 159.200 396.800 159.200 397.800 L 159.200 398.800 165.200 398.800 C 170.267 398.800,171.200 398.893,171.200 399.400 C 171.200 399.928,174.667 400.000,200.000 400.000 C 225.333 400.000,228.800 399.928,228.800 399.400 C 228.800 398.892,238.119 398.377,240.500 398.753 C 240.665 398.779,240.779 398.665,240.753 398.500 C 240.497 396.883,240.695 396.800,244.800 396.800 C 248.785 396.800,248.800 396.796,248.800 395.814 C 248.800 394.838,248.840 394.827,252.900 394.714 C 255.819 394.633,257.014 394.456,257.050 394.100 C 257.078 393.825,257.123 393.420,257.150 393.200 C 257.178 392.973,258.500 392.800,260.200 392.800 C 263.133 392.800,263.200 392.778,263.200 391.800 C 263.200 390.822,263.267 390.800,266.200 390.800 C 269.133 390.800,269.200 390.778,269.200 389.800 C 269.200 388.857,272.178 388.297,274.600 388.786 C 274.820 388.830,274.871 388.738,274.714 388.581 C 273.907 387.774,275.275 386.800,277.214 386.800 C 279.066 386.800,279.200 386.732,279.200 385.800 C 279.200 384.867,281.996 384.322,284.530 384.763 C 284.711 384.794,284.762 384.662,284.643 384.469 C 284.182 383.724,285.444 382.827,287.076 382.738 C 287.998 382.687,288.679 382.527,288.589 382.382 C 288.177 381.715,289.528 380.822,291.076 380.738 C 291.998 380.687,292.679 380.527,292.589 380.382 C 292.177 379.715,293.528 378.822,295.076 378.738 C 295.998 378.687,296.679 378.527,296.589 378.382 C 296.175 377.713,297.529 376.822,299.089 376.737 C 300.018 376.686,300.699 376.566,300.603 376.470 C 300.153 376.020,301.330 374.800,302.214 374.800 C 302.999 374.800,303.200 374.596,303.200 373.800 C 303.200 372.881,303.347 372.800,305.000 372.800 C 306.653 372.800,306.800 372.719,306.800 371.800 C 306.800 371.000,307.000 370.800,307.800 370.800 C 308.600 370.800,308.800 370.600,308.800 369.800 C 308.800 368.867,308.933 368.800,310.800 368.800 C 312.667 368.800,312.800 368.733,312.800 367.800 C 312.800 367.000,313.000 366.800,313.800 366.800 C 314.600 366.800,314.800 366.600,314.800 365.800 C 314.800 364.867,314.933 364.800,316.800 364.800 C 318.667 364.800,318.800 364.733,318.800 363.800 C 318.800 363.000,319.000 362.800,319.800 362.800 C 320.600 362.800,320.800 362.600,320.800 361.800 C 320.800 360.859,322.367 360.416,324.500 360.753 C 324.665 360.779,324.779 360.665,324.753 360.500 C 324.566 359.318,324.885 358.800,325.800 358.800 C 326.600 358.800,326.800 358.600,326.800 357.800 C 326.800 357.000,327.000 356.800,327.800 356.800 C 328.600 356.800,328.800 356.600,328.800 355.800 C 328.800 355.000,329.000 354.800,329.800 354.800 C 330.600 354.800,330.800 354.600,330.800 353.800 C 330.800 353.000,331.000 352.800,331.800 352.800 C 332.600 352.800,332.800 352.600,332.800 351.800 C 332.800 350.855,333.981 350.504,336.417 350.725 C 336.536 350.736,336.662 350.377,336.696 349.927 C 336.772 348.908,336.908 348.772,337.927 348.696 C 338.377 348.662,338.736 348.536,338.725 348.417 C 338.617 347.229,338.902 346.800,339.800 346.800 C 340.600 346.800,340.800 346.600,340.800 345.800 C 340.800 345.000,341.000 344.800,341.800 344.800 C 342.600 344.800,342.800 344.600,342.800 343.800 C 342.800 343.000,343.000 342.800,343.800 342.800 C 344.600 342.800,344.800 342.600,344.800 341.800 C 344.800 341.000,345.000 340.800,345.800 340.800 C 346.600 340.800,346.800 340.600,346.800 339.800 C 346.800 338.885,347.318 338.566,348.500 338.753 C 348.665 338.779,348.779 338.665,348.753 338.500 C 348.416 336.367,348.859 334.800,349.800 334.800 C 350.600 334.800,350.800 334.600,350.800 333.800 C 350.800 333.000,351.000 332.800,351.800 332.800 C 352.600 332.800,352.800 332.600,352.800 331.800 C 352.800 331.000,353.000 330.800,353.800 330.800 C 354.600 330.800,354.800 330.600,354.800 329.800 C 354.800 329.000,355.000 328.800,355.800 328.800 C 356.600 328.800,356.800 328.600,356.800 327.800 C 356.800 327.000,357.000 326.800,357.800 326.800 C 358.600 326.800,358.800 326.600,358.800 325.800 C 358.800 324.885,359.318 324.566,360.500 324.753 C 360.665 324.779,360.779 324.665,360.753 324.500 C 360.416 322.367,360.859 320.800,361.800 320.800 C 362.600 320.800,362.800 320.600,362.800 319.800 C 362.800 319.000,363.000 318.800,363.800 318.800 C 364.733 318.800,364.800 318.667,364.800 316.800 C 364.800 314.933,364.867 314.800,365.800 314.800 C 366.600 314.800,366.800 314.600,366.800 313.800 C 366.800 313.000,367.000 312.800,367.800 312.800 C 368.733 312.800,368.800 312.667,368.800 310.800 C 368.800 308.933,368.867 308.800,369.800 308.800 C 370.600 308.800,370.800 308.600,370.800 307.800 C 370.800 307.000,371.000 306.800,371.800 306.800 C 372.733 306.800,372.800 306.667,372.800 304.800 C 372.800 302.933,372.867 302.800,373.800 302.800 C 374.733 302.800,374.800 302.667,374.800 300.800 C 374.800 298.933,374.867 298.800,375.800 298.800 C 376.600 298.800,376.800 298.600,376.800 297.800 C 376.800 297.000,377.000 296.800,377.800 296.800 C 378.733 296.800,378.800 296.667,378.800 294.800 C 378.800 292.933,378.867 292.800,379.800 292.800 C 380.733 292.800,380.800 292.667,380.800 290.800 C 380.800 288.933,380.867 288.800,381.800 288.800 C 382.733 288.800,382.800 288.667,382.800 286.800 C 382.800 284.933,382.867 284.800,383.800 284.800 C 384.778 284.800,384.800 284.733,384.800 281.800 C 384.800 278.867,384.822 278.800,385.800 278.800 C 386.733 278.800,386.800 278.667,386.800 276.800 C 386.800 274.933,386.867 274.800,387.800 274.800 C 388.778 274.800,388.800 274.733,388.800 271.800 C 388.800 268.867,388.822 268.800,389.800 268.800 C 390.778 268.800,390.800 268.733,390.800 265.800 C 390.800 262.867,390.822 262.800,391.800 262.800 C 392.778 262.800,392.800 262.733,392.800 259.800 C 392.800 256.867,392.822 256.800,393.800 256.800 L 394.800 256.800 394.800 252.800 L 394.800 248.800 395.800 248.800 L 396.800 248.800 396.800 244.800 L 396.800 240.800 397.800 240.800 L 398.800 240.800 398.800 234.800 C 398.800 229.733,398.893 228.800,399.400 228.800 C 399.928 228.800,400.000 225.333,400.000 200.000 C 400.000 174.667,399.928 171.200,399.400 171.200 C 398.893 171.200,398.800 170.267,398.800 165.200 L 398.800 159.200 397.800 159.200 L 396.800 159.200 396.800 155.200 L 396.800 151.200 395.800 151.200 L 394.800 151.200 394.800 147.200 L 394.800 143.200 393.800 143.200 C 392.822 143.200,392.800 143.133,392.800 140.200 C 392.800 137.267,392.778 137.200,391.800 137.200 C 390.822 137.200,390.800 137.133,390.800 134.200 C 390.800 131.267,390.778 131.200,389.800 131.200 C 388.822 131.200,388.800 131.133,388.800 128.200 C 388.800 125.267,388.778 125.200,387.800 125.200 C 386.867 125.200,386.800 125.067,386.800 123.200 C 386.800 121.333,386.733 121.200,385.800 121.200 C 384.822 121.200,384.800 121.133,384.800 118.200 C 384.800 115.267,384.778 115.200,383.800 115.200 C 382.867 115.200,382.800 115.067,382.800 113.200 C 382.800 111.333,382.733 111.200,381.800 111.200 C 380.867 111.200,380.800 111.067,380.800 109.200 C 380.800 107.333,380.733 107.200,379.800 107.200 C 378.867 107.200,378.800 107.067,378.800 105.200 C 378.800 103.333,378.733 103.200,377.800 103.200 C 376.867 103.200,376.800 103.067,376.800 101.200 C 376.800 99.333,376.733 99.200,375.800 99.200 C 375.000 99.200,374.800 99.000,374.800 98.200 C 374.800 97.400,374.600 97.200,373.800 97.200 C 372.867 97.200,372.800 97.067,372.800 95.200 C 372.800 93.333,372.733 93.200,371.800 93.200 C 371.000 93.200,370.800 93.000,370.800 92.200 C 370.800 91.400,370.600 91.200,369.800 91.200 C 368.867 91.200,368.800 91.067,368.800 89.200 C 368.800 87.333,368.733 87.200,367.800 87.200 C 367.000 87.200,366.800 87.000,366.800 86.200 C 366.800 85.400,366.600 85.200,365.800 85.200 C 364.867 85.200,364.800 85.067,364.800 83.200 C 364.800 81.333,364.733 81.200,363.800 81.200 C 363.000 81.200,362.800 81.000,362.800 80.200 C 362.800 79.400,362.600 79.200,361.800 79.200 C 360.867 79.200,360.800 79.067,360.800 77.200 C 360.800 75.333,360.733 75.200,359.800 75.200 C 359.000 75.200,358.800 75.000,358.800 74.200 C 358.800 73.400,358.600 73.200,357.800 73.200 C 357.000 73.200,356.800 73.000,356.800 72.200 C 356.800 71.400,356.600 71.200,355.800 71.200 C 355.000 71.200,354.800 71.000,354.800 70.200 C 354.800 69.400,354.600 69.200,353.800 69.200 C 353.000 69.200,352.800 69.000,352.800 68.200 C 352.800 67.400,352.600 67.200,351.800 67.200 C 350.867 67.200,350.800 67.067,350.800 65.200 C 350.800 63.333,350.733 63.200,349.800 63.200 C 349.000 63.200,348.800 63.000,348.800 62.200 C 348.800 61.400,348.600 61.200,347.800 61.200 C 347.000 61.200,346.800 61.000,346.800 60.200 C 346.800 59.400,346.600 59.200,345.800 59.200 C 345.000 59.200,344.800 59.000,344.800 58.200 C 344.800 57.400,344.600 57.200,343.800 57.200 C 343.000 57.200,342.800 57.000,342.800 56.200 C 342.800 55.400,342.600 55.200,341.800 55.200 C 341.000 55.200,340.800 55.000,340.800 54.200 C 340.800 53.400,340.600 53.200,339.800 53.200 C 339.000 53.200,338.800 53.000,338.800 52.200 C 338.800 51.267,338.667 51.200,336.800 51.200 C 334.933 51.200,334.800 51.133,334.800 50.200 C 334.800 49.400,334.600 49.200,333.800 49.200 C 333.000 49.200,332.800 49.000,332.800 48.200 C 332.800 47.400,332.600 47.200,331.800 47.200 C 331.000 47.200,330.800 47.000,330.800 46.200 C 330.800 45.400,330.600 45.200,329.800 45.200 C 329.000 45.200,328.800 45.000,328.800 44.200 C 328.800 43.400,328.600 43.200,327.800 43.200 C 327.000 43.200,326.800 43.000,326.800 42.200 C 326.800 41.400,326.600 41.200,325.800 41.200 C 325.000 41.200,324.800 41.000,324.800 40.200 C 324.800 39.267,324.667 39.200,322.800 39.200 C 320.933 39.200,320.800 39.133,320.800 38.200 C 320.800 37.400,320.600 37.200,319.800 37.200 C 319.000 37.200,318.800 37.000,318.800 36.200 C 318.800 35.267,318.667 35.200,316.800 35.200 C 314.933 35.200,314.800 35.133,314.800 34.200 C 314.800 33.400,314.600 33.200,313.800 33.200 C 313.000 33.200,312.800 33.000,312.800 32.200 C 312.800 31.267,312.667 31.200,310.800 31.200 C 308.933 31.200,308.800 31.133,308.800 30.200 C 308.800 29.400,308.600 29.200,307.800 29.200 C 307.000 29.200,306.800 29.000,306.800 28.200 C 306.800 27.281,306.653 27.200,305.000 27.200 C 303.347 27.200,303.200 27.119,303.200 26.200 C 303.200 25.267,303.067 25.200,301.200 25.200 C 299.333 25.200,299.200 25.133,299.200 24.200 C 299.200 23.412,298.997 23.200,298.243 23.200 C 297.557 23.200,297.216 22.918,297.036 22.200 C 296.816 21.324,296.568 21.200,295.036 21.200 C 293.504 21.200,293.256 21.076,293.036 20.200 C 292.816 19.324,292.568 19.200,291.036 19.200 C 289.504 19.200,289.256 19.076,289.036 18.200 C 288.816 17.324,288.568 17.200,287.036 17.200 C 285.504 17.200,285.256 17.076,285.036 16.200 C 284.798 15.253,284.637 15.200,281.992 15.200 C 279.281 15.200,279.200 15.171,279.200 14.200 C 279.200 13.270,279.064 13.200,277.243 13.200 C 275.490 13.200,275.261 13.096,275.036 12.200 C 274.798 11.254,274.635 11.200,272.020 11.200 C 269.458 11.200,269.246 11.134,269.128 10.300 C 269.011 9.475,268.760 9.390,266.126 9.283 C 263.508 9.176,263.240 9.087,263.126 8.283 C 263.011 7.479,262.743 7.390,260.126 7.283 C 257.508 7.176,257.240 7.087,257.126 6.283 C 257.007 5.447,256.783 5.394,252.900 5.286 C 248.840 5.173,248.800 5.162,248.800 4.186 C 248.800 3.204,248.785 3.200,244.800 3.200 L 240.800 3.200 240.800 2.200 L 240.800 1.200 234.800 1.200 C 229.733 1.200,228.800 1.107,228.800 0.600 C 228.800 0.072,225.333 0.000,200.000 0.000 C 174.667 0.000,171.200 0.072,171.200 0.600 M214.736 112.732 C 216.130 113.210,218.207 113.600,219.351 113.600 C 220.626 113.600,222.025 113.903,222.967 114.383 C 223.812 114.814,225.335 115.283,226.352 115.426 C 227.368 115.569,228.750 116.000,229.423 116.384 C 230.095 116.768,231.355 117.214,232.223 117.376 C 233.090 117.538,234.610 118.089,235.600 118.600 C 236.590 119.110,237.850 119.730,238.400 119.977 C 239.340 120.398,240.014 120.745,242.700 122.193 C 243.305 122.519,244.375 123.057,245.078 123.389 C 245.781 123.721,246.501 124.239,246.678 124.540 C 246.855 124.841,247.630 125.292,248.400 125.542 C 249.170 125.793,250.591 126.721,251.558 127.606 C 252.525 128.490,253.715 129.314,254.201 129.436 C 254.688 129.558,255.967 130.541,257.043 131.620 C 258.119 132.700,259.159 133.587,259.353 133.591 C 259.645 133.598,261.431 135.226,264.035 137.857 C 267.408 141.265,272.800 147.848,272.800 148.559 C 272.800 148.806,273.160 149.232,273.600 149.507 C 274.040 149.782,274.400 150.244,274.400 150.534 C 274.400 150.823,274.841 151.475,275.379 151.981 C 275.918 152.486,276.468 153.399,276.602 154.009 C 276.736 154.618,277.192 155.430,277.615 155.813 C 278.038 156.196,278.498 157.118,278.638 157.861 C 278.777 158.603,279.114 159.344,279.387 159.506 C 280.062 159.906,280.800 161.378,280.800 162.325 C 280.800 162.752,281.069 163.326,281.399 163.599 C 281.728 163.872,282.254 164.959,282.567 166.013 C 282.880 167.068,283.420 168.363,283.766 168.892 C 284.112 169.420,284.514 170.740,284.659 171.826 C 284.804 172.912,285.243 174.404,285.634 175.143 C 286.025 175.882,286.462 177.682,286.605 179.143 C 286.747 180.604,287.209 182.836,287.632 184.102 C 288.674 187.223,288.769 205.531,287.764 209.400 C 287.421 210.720,286.962 213.150,286.745 214.800 C 286.528 216.450,286.023 218.439,285.624 219.219 C 285.224 219.999,284.769 221.571,284.612 222.711 C 284.455 223.852,283.989 225.214,283.577 225.739 C 283.164 226.263,282.707 227.443,282.560 228.361 C 282.413 229.279,281.984 230.248,281.607 230.515 C 281.230 230.782,280.797 231.670,280.645 232.489 C 280.493 233.307,280.043 234.207,279.645 234.489 C 279.247 234.770,278.795 235.679,278.641 236.509 C 278.487 237.339,278.009 238.237,277.580 238.505 C 277.151 238.773,276.800 239.303,276.800 239.682 C 276.800 240.062,276.260 240.987,275.600 241.739 C 274.940 242.491,274.400 243.297,274.400 243.530 C 274.400 243.764,274.076 244.190,273.680 244.477 C 273.284 244.765,272.732 245.561,272.453 246.247 C 272.175 246.933,271.152 248.283,270.181 249.247 C 269.211 250.211,268.412 251.231,268.408 251.513 C 268.404 251.794,268.123 252.131,267.785 252.261 C 267.447 252.391,266.902 253.015,266.575 253.648 C 266.247 254.282,265.735 254.800,265.436 254.800 C 265.138 254.800,264.796 255.173,264.676 255.630 C 264.557 256.086,264.086 256.557,263.630 256.676 C 263.173 256.796,262.800 257.136,262.800 257.433 C 262.800 257.729,262.444 258.162,262.009 258.395 C 261.574 258.628,260.798 259.238,260.286 259.750 C 259.774 260.263,259.095 260.775,258.777 260.889 C 258.328 261.051,258.298 261.263,258.643 261.849 C 259.062 262.558,259.879 262.606,273.338 262.705 L 287.588 262.810 288.211 263.761 C 289.278 265.389,288.907 288.135,287.800 288.971 C 286.385 290.039,221.475 289.887,219.711 288.811 C 217.930 287.725,217.954 287.988,218.084 271.129 C 218.217 253.855,218.158 254.150,221.629 253.464 C 222.591 253.273,223.797 252.789,224.308 252.386 C 224.819 251.984,225.757 251.541,226.391 251.402 C 227.026 251.263,227.752 250.899,228.004 250.595 C 228.257 250.290,229.100 249.831,229.878 249.574 C 230.656 249.317,231.587 248.846,231.946 248.528 C 232.927 247.658,235.289 246.070,236.237 245.644 C 238.060 244.824,249.600 233.540,249.600 232.577 C 249.600 232.339,250.050 231.753,250.600 231.275 C 251.150 230.797,251.600 230.156,251.600 229.852 C 251.600 229.547,251.895 229.053,252.255 228.755 C 252.615 228.456,253.238 227.444,253.640 226.506 C 254.043 225.568,254.537 224.800,254.738 224.800 C 254.940 224.800,255.311 223.983,255.562 222.984 C 255.814 221.985,256.272 221.071,256.580 220.952 C 256.888 220.834,257.261 219.986,257.408 219.069 C 257.555 218.151,258.008 216.823,258.414 216.117 C 258.820 215.412,259.340 213.489,259.568 211.845 C 259.797 210.201,260.303 208.078,260.692 207.128 C 261.744 204.561,261.744 189.317,260.692 187.122 C 260.302 186.310,259.827 184.399,259.636 182.876 C 259.445 181.353,259.010 179.678,258.670 179.153 C 258.330 178.629,257.828 177.300,257.554 176.200 C 257.280 175.100,256.823 173.967,256.538 173.682 C 256.254 173.397,255.837 172.481,255.612 171.646 C 255.387 170.810,254.843 169.801,254.402 169.402 C 253.961 169.002,253.600 168.489,253.600 168.260 C 253.600 167.879,253.272 167.330,250.964 163.847 C 250.544 163.213,250.001 162.352,249.757 161.935 C 248.694 160.112,239.608 150.983,238.510 150.635 C 238.032 150.483,237.530 150.008,237.394 149.580 C 237.257 149.151,236.790 148.800,236.355 148.800 C 235.920 148.800,235.158 148.395,234.663 147.900 C 234.167 147.405,233.270 146.777,232.670 146.503 C 232.069 146.230,231.473 145.735,231.346 145.403 C 231.219 145.072,230.762 144.800,230.331 144.800 C 229.374 144.800,227.907 144.063,227.501 143.379 C 227.337 143.102,226.316 142.754,225.233 142.605 C 224.129 142.453,222.976 142.015,222.608 141.609 C 222.247 141.210,221.108 140.761,220.076 140.610 C 219.044 140.460,217.480 140.002,216.600 139.592 C 211.536 137.233,186.757 137.257,183.695 139.623 C 183.198 140.008,181.668 140.449,180.295 140.603 C 178.798 140.771,177.480 141.169,177.000 141.598 C 176.560 141.992,175.634 142.433,174.941 142.579 C 174.249 142.726,173.383 143.177,173.015 143.583 C 172.648 143.989,171.754 144.432,171.029 144.568 C 170.303 144.704,169.387 145.172,168.993 145.608 C 168.599 146.044,168.013 146.400,167.691 146.400 C 167.369 146.400,166.491 146.940,165.739 147.600 C 164.987 148.260,164.018 148.800,163.586 148.800 C 163.154 148.800,162.800 149.064,162.800 149.386 C 162.800 149.708,162.395 150.183,161.900 150.441 C 160.762 151.035,160.565 151.205,156.105 155.468 C 154.072 157.411,152.407 159.215,152.405 159.477 C 152.402 159.740,152.073 160.190,151.674 160.477 C 151.274 160.765,150.823 161.332,150.672 161.738 C 150.520 162.144,150.056 162.565,149.641 162.673 C 149.208 162.787,148.789 163.355,148.659 164.005 C 148.534 164.629,148.089 165.468,147.669 165.869 C 147.250 166.271,146.689 167.274,146.423 168.097 C 146.157 168.920,145.719 169.730,145.450 169.897 C 145.180 170.064,144.734 170.975,144.458 171.921 C 144.181 172.868,143.710 173.736,143.411 173.851 C 143.112 173.966,142.745 174.943,142.597 176.022 C 142.448 177.102,142.002 178.398,141.605 178.903 C 141.172 179.454,140.767 180.900,140.594 182.519 C 140.435 184.003,139.963 185.888,139.544 186.709 C 138.393 188.966,138.400 205.377,139.553 208.032 C 139.976 209.004,140.452 210.970,140.611 212.400 C 140.779 213.907,141.202 215.383,141.617 215.912 C 142.011 216.413,142.458 217.583,142.609 218.512 C 142.761 219.440,143.206 220.560,143.599 221.000 C 143.992 221.440,144.433 222.366,144.579 223.059 C 144.726 223.751,145.195 224.634,145.623 225.021 C 146.050 225.407,146.400 226.029,146.400 226.403 C 146.400 226.776,146.940 227.646,147.600 228.337 C 148.260 229.028,148.800 229.911,148.800 230.300 C 148.800 230.689,149.160 231.232,149.600 231.507 C 150.040 231.782,150.400 232.215,150.400 232.470 C 150.400 232.987,150.879 233.525,155.679 238.400 C 159.460 242.240,163.319 245.600,163.950 245.600 C 164.182 245.600,164.557 245.945,164.783 246.367 C 165.009 246.790,165.743 247.256,166.414 247.403 C 167.086 247.551,167.942 247.984,168.318 248.366 C 168.693 248.748,169.630 249.302,170.400 249.596 C 171.170 249.891,172.070 250.355,172.400 250.629 C 172.730 250.902,173.751 251.326,174.669 251.570 C 175.587 251.814,176.410 252.231,176.498 252.495 C 176.587 252.760,177.454 253.170,178.426 253.406 C 182.027 254.283,182.000 254.140,182.000 271.997 C 182.000 288.925,182.161 287.728,179.705 289.100 C 178.150 289.969,113.299 289.813,112.331 288.938 C 111.400 288.095,111.181 263.918,112.100 263.324 C 112.375 263.146,119.080 262.910,127.000 262.800 L 141.400 262.600 141.528 261.700 C 141.598 261.205,141.469 260.800,141.242 260.800 C 140.897 260.800,139.906 259.996,137.898 258.087 C 134.348 254.713,127.200 246.263,127.200 245.441 C 127.200 245.194,126.840 244.768,126.400 244.493 C 125.960 244.218,125.600 243.796,125.600 243.554 C 125.600 243.313,125.150 242.581,124.600 241.927 C 124.050 241.273,123.600 240.517,123.600 240.247 C 123.600 239.977,123.159 239.158,122.621 238.428 C 122.082 237.699,121.526 236.571,121.383 235.924 C 121.241 235.276,120.873 234.649,120.566 234.532 C 120.259 234.414,119.795 233.571,119.535 232.659 C 119.275 231.746,118.841 230.730,118.570 230.400 C 118.300 230.070,117.848 228.990,117.567 228.000 C 117.285 227.010,116.752 225.750,116.381 225.200 C 116.011 224.650,115.581 223.300,115.426 222.200 C 115.272 221.100,114.811 219.480,114.402 218.600 C 113.993 217.720,113.533 215.740,113.379 214.200 C 113.225 212.660,112.812 210.860,112.461 210.200 C 111.064 207.572,111.404 184.756,112.868 182.934 C 113.074 182.677,113.403 180.907,113.600 179.000 C 113.797 177.093,114.169 175.278,114.428 174.967 C 114.686 174.655,115.147 173.212,115.451 171.761 C 115.755 170.309,116.363 168.664,116.802 168.106 C 117.241 167.549,117.600 166.601,117.600 166.000 C 117.600 165.399,117.934 164.479,118.342 163.954 C 118.750 163.429,119.299 162.339,119.562 161.532 C 119.826 160.725,120.290 159.857,120.595 159.604 C 120.899 159.352,121.263 158.626,121.402 157.991 C 121.541 157.357,121.999 156.400,122.420 155.866 C 122.840 155.331,123.372 154.468,123.602 153.947 C 124.061 152.907,125.553 150.725,126.801 149.266 C 127.240 148.752,127.605 148.122,127.611 147.866 C 127.617 147.610,128.504 146.410,129.583 145.200 C 130.662 143.990,131.963 142.481,132.473 141.847 C 135.352 138.267,142.864 131.507,147.416 128.400 C 148.222 127.850,149.238 127.069,149.675 126.665 C 150.113 126.261,151.084 125.673,151.835 125.360 C 152.586 125.046,153.200 124.629,153.200 124.434 C 153.200 124.238,153.748 123.887,154.419 123.653 C 155.089 123.420,156.103 122.862,156.673 122.414 C 157.242 121.966,158.009 121.600,158.376 121.600 C 158.744 121.600,159.630 121.168,160.346 120.640 C 161.061 120.112,162.311 119.556,163.123 119.405 C 163.935 119.253,164.898 118.811,165.262 118.422 C 165.627 118.033,166.702 117.590,167.652 117.438 C 168.602 117.286,169.673 116.896,170.032 116.571 C 170.391 116.246,171.836 115.785,173.242 115.547 C 174.649 115.309,176.204 114.859,176.699 114.548 C 177.193 114.238,179.083 113.798,180.899 113.572 C 182.714 113.345,184.650 112.968,185.200 112.733 C 188.572 111.292,210.527 111.292,214.736 112.732 " stroke="none" fill="#748c94" fill-rule="evenodd"></path><path id="path2" d="M188.200 111.989 C 187.100 112.163,185.750 112.498,185.200 112.733 C 184.650 112.968,182.714 113.345,180.899 113.572 C 179.083 113.798,177.193 114.238,176.699 114.548 C 176.204 114.859,174.649 115.309,173.242 115.547 C 171.836 115.785,170.391 116.246,170.032 116.571 C 169.673 116.896,168.602 117.286,167.652 117.438 C 166.702 117.590,165.627 118.033,165.262 118.422 C 164.898 118.811,163.935 119.253,163.123 119.405 C 162.311 119.556,161.061 120.112,160.346 120.640 C 159.630 121.168,158.744 121.600,158.376 121.600 C 158.009 121.600,157.242 121.966,156.673 122.414 C 156.103 122.862,155.089 123.420,154.419 123.653 C 153.748 123.887,153.200 124.238,153.200 124.434 C 153.200 124.629,152.586 125.046,151.835 125.360 C 151.084 125.673,150.113 126.261,149.675 126.665 C 149.238 127.069,148.222 127.850,147.416 128.400 C 142.864 131.507,135.352 138.267,132.473 141.847 C 131.963 142.481,130.662 143.990,129.583 145.200 C 128.504 146.410,127.617 147.610,127.611 147.866 C 127.605 148.122,127.240 148.752,126.801 149.266 C 125.553 150.725,124.061 152.907,123.602 153.947 C 123.372 154.468,122.840 155.331,122.420 155.866 C 121.999 156.400,121.541 157.357,121.402 157.991 C 121.263 158.626,120.899 159.352,120.595 159.604 C 120.290 159.857,119.826 160.725,119.562 161.532 C 119.299 162.339,118.750 163.429,118.342 163.954 C 117.934 164.479,117.600 165.399,117.600 166.000 C 117.600 166.601,117.241 167.549,116.802 168.106 C 116.363 168.664,115.755 170.309,115.451 171.761 C 115.147 173.212,114.686 174.655,114.428 174.967 C 114.169 175.278,113.797 177.093,113.600 179.000 C 113.403 180.907,113.074 182.677,112.868 182.934 C 111.404 184.756,111.064 207.572,112.461 210.200 C 112.812 210.860,113.225 212.660,113.379 214.200 C 113.533 215.740,113.993 217.720,114.402 218.600 C 114.811 219.480,115.272 221.100,115.426 222.200 C 115.581 223.300,116.011 224.650,116.381 225.200 C 116.752 225.750,117.285 227.010,117.567 228.000 C 117.848 228.990,118.300 230.070,118.570 230.400 C 118.841 230.730,119.275 231.746,119.535 232.659 C 119.795 233.571,120.259 234.414,120.566 234.532 C 120.873 234.649,121.241 235.276,121.383 235.924 C 121.526 236.571,122.082 237.699,122.621 238.428 C 123.159 239.158,123.600 239.977,123.600 240.247 C 123.600 240.517,124.050 241.273,124.600 241.927 C 125.150 242.581,125.600 243.313,125.600 243.554 C 125.600 243.796,125.960 244.218,126.400 244.493 C 126.840 244.768,127.200 245.194,127.200 245.441 C 127.200 246.263,134.348 254.713,137.898 258.087 C 139.906 259.996,140.897 260.800,141.242 260.800 C 141.469 260.800,141.598 261.205,141.528 261.700 L 141.400 262.600 127.000 262.800 C 119.080 262.910,112.375 263.146,112.100 263.324 C 111.181 263.918,111.400 288.095,112.331 288.938 C 113.299 289.813,178.150 289.969,179.705 289.100 C 182.161 287.728,182.000 288.925,182.000 271.997 C 182.000 254.140,182.027 254.283,178.426 253.406 C 177.454 253.170,176.587 252.760,176.498 252.495 C 176.410 252.231,175.587 251.814,174.669 251.570 C 173.751 251.326,172.730 250.902,172.400 250.629 C 172.070 250.355,171.170 249.891,170.400 249.596 C 169.630 249.302,168.693 248.748,168.318 248.366 C 167.942 247.984,167.086 247.551,166.414 247.403 C 165.743 247.256,165.009 246.790,164.783 246.367 C 164.557 245.945,164.182 245.600,163.950 245.600 C 163.319 245.600,159.460 242.240,155.679 238.400 C 150.879 233.525,150.400 232.987,150.400 232.470 C 150.400 232.215,150.040 231.782,149.600 231.507 C 149.160 231.232,148.800 230.689,148.800 230.300 C 148.800 229.911,148.260 229.028,147.600 228.337 C 146.940 227.646,146.400 226.776,146.400 226.403 C 146.400 226.029,146.050 225.407,145.623 225.021 C 145.195 224.634,144.726 223.751,144.579 223.059 C 144.433 222.366,143.992 221.440,143.599 221.000 C 143.206 220.560,142.761 219.440,142.609 218.512 C 142.458 217.583,142.011 216.413,141.617 215.912 C 141.202 215.383,140.779 213.907,140.611 212.400 C 140.452 210.970,139.976 209.004,139.553 208.032 C 138.400 205.377,138.393 188.966,139.544 186.709 C 139.963 185.888,140.435 184.003,140.594 182.519 C 140.767 180.900,141.172 179.454,141.605 178.903 C 142.002 178.398,142.448 177.102,142.597 176.022 C 142.745 174.943,143.112 173.966,143.411 173.851 C 143.710 173.736,144.181 172.868,144.458 171.921 C 144.734 170.975,145.180 170.064,145.450 169.897 C 145.719 169.730,146.157 168.920,146.423 168.097 C 146.689 167.274,147.250 166.271,147.669 165.869 C 148.089 165.468,148.534 164.629,148.659 164.005 C 148.789 163.355,149.208 162.787,149.641 162.673 C 150.056 162.565,150.520 162.144,150.672 161.738 C 150.823 161.332,151.274 160.765,151.674 160.477 C 152.073 160.190,152.402 159.740,152.405 159.477 C 152.407 159.215,154.072 157.411,156.105 155.468 C 160.565 151.205,160.762 151.035,161.900 150.441 C 162.395 150.183,162.800 149.708,162.800 149.386 C 162.800 149.064,163.154 148.800,163.586 148.800 C 164.018 148.800,164.987 148.260,165.739 147.600 C 166.491 146.940,167.369 146.400,167.691 146.400 C 168.013 146.400,168.599 146.044,168.993 145.608 C 169.387 145.172,170.303 144.704,171.029 144.568 C 171.754 144.432,172.648 143.989,173.015 143.583 C 173.383 143.177,174.249 142.726,174.941 142.579 C 175.634 142.433,176.560 141.992,177.000 141.598 C 177.480 141.169,178.798 140.771,180.295 140.603 C 181.668 140.449,183.198 140.008,183.695 139.623 C 186.757 137.257,211.536 137.233,216.600 139.592 C 217.480 140.002,219.044 140.460,220.076 140.610 C 221.108 140.761,222.247 141.210,222.608 141.609 C 222.976 142.015,224.129 142.453,225.233 142.605 C 226.316 142.754,227.337 143.102,227.501 143.379 C 227.907 144.063,229.374 144.800,230.331 144.800 C 230.762 144.800,231.219 145.072,231.346 145.403 C 231.473 145.735,232.069 146.230,232.670 146.503 C 233.270 146.777,234.167 147.405,234.663 147.900 C 235.158 148.395,235.920 148.800,236.355 148.800 C 236.790 148.800,237.257 149.151,237.394 149.580 C 237.530 150.008,238.032 150.483,238.510 150.635 C 239.608 150.983,248.694 160.112,249.757 161.935 C 250.001 162.352,250.544 163.213,250.964 163.847 C 253.272 167.330,253.600 167.879,253.600 168.260 C 253.600 168.489,253.961 169.002,254.402 169.402 C 254.843 169.801,255.387 170.810,255.612 171.646 C 255.837 172.481,256.254 173.397,256.538 173.682 C 256.823 173.967,257.280 175.100,257.554 176.200 C 257.828 177.300,258.330 178.629,258.670 179.153 C 259.010 179.678,259.445 181.353,259.636 182.876 C 259.827 184.399,260.302 186.310,260.692 187.122 C 261.744 189.317,261.744 204.561,260.692 207.128 C 260.303 208.078,259.797 210.201,259.568 211.845 C 259.340 213.489,258.820 215.412,258.414 216.117 C 258.008 216.823,257.555 218.151,257.408 219.069 C 257.261 219.986,256.888 220.834,256.580 220.952 C 256.272 221.071,255.814 221.985,255.562 222.984 C 255.311 223.983,254.940 224.800,254.738 224.800 C 254.537 224.800,254.043 225.568,253.640 226.506 C 253.238 227.444,252.615 228.456,252.255 228.755 C 251.895 229.053,251.600 229.547,251.600 229.852 C 251.600 230.156,251.150 230.797,250.600 231.275 C 250.050 231.753,249.600 232.339,249.600 232.577 C 249.600 233.540,238.060 244.824,236.237 245.644 C 235.289 246.070,232.927 247.658,231.946 248.528 C 231.587 248.846,230.656 249.317,229.878 249.574 C 229.100 249.831,228.257 250.290,228.004 250.595 C 227.752 250.899,227.026 251.263,226.391 251.402 C 225.757 251.541,224.819 251.984,224.308 252.386 C 223.797 252.789,222.591 253.273,221.629 253.464 C 218.158 254.150,218.217 253.855,218.084 271.129 C 217.954 287.988,217.930 287.725,219.711 288.811 C 221.475 289.887,286.385 290.039,287.800 288.971 C 288.907 288.135,289.278 265.389,288.211 263.761 L 287.588 262.810 273.338 262.705 C 259.879 262.606,259.062 262.558,258.643 261.849 C 258.298 261.263,258.328 261.051,258.777 260.889 C 259.095 260.775,259.774 260.263,260.286 259.750 C 260.798 259.238,261.574 258.628,262.009 258.395 C 262.444 258.162,262.800 257.729,262.800 257.433 C 262.800 257.136,263.173 256.796,263.630 256.676 C 264.086 256.557,264.557 256.086,264.676 255.630 C 264.796 255.173,265.138 254.800,265.436 254.800 C 265.735 254.800,266.247 254.282,266.575 253.648 C 266.902 253.015,267.447 252.391,267.785 252.261 C 268.123 252.131,268.404 251.794,268.408 251.513 C 268.412 251.231,269.211 250.211,270.181 249.247 C 271.152 248.283,272.175 246.933,272.453 246.247 C 272.732 245.561,273.284 244.765,273.680 244.477 C 274.076 244.190,274.400 243.764,274.400 243.530 C 274.400 243.297,274.940 242.491,275.600 241.739 C 276.260 240.987,276.800 240.062,276.800 239.682 C 276.800 239.303,277.151 238.773,277.580 238.505 C 278.009 238.237,278.487 237.339,278.641 236.509 C 278.795 235.679,279.247 234.770,279.645 234.489 C 280.043 234.207,280.493 233.307,280.645 232.489 C 280.797 231.670,281.230 230.782,281.607 230.515 C 281.984 230.248,282.413 229.279,282.560 228.361 C 282.707 227.443,283.164 226.263,283.577 225.739 C 283.989 225.214,284.455 223.852,284.612 222.711 C 284.769 221.571,285.224 219.999,285.624 219.219 C 286.023 218.439,286.528 216.450,286.745 214.800 C 286.962 213.150,287.421 210.720,287.764 209.400 C 288.769 205.531,288.674 187.223,287.632 184.102 C 287.209 182.836,286.747 180.604,286.605 179.143 C 286.462 177.682,286.025 175.882,285.634 175.143 C 285.243 174.404,284.804 172.912,284.659 171.826 C 284.514 170.740,284.112 169.420,283.766 168.892 C 283.420 168.363,282.880 167.068,282.567 166.013 C 282.254 164.959,281.728 163.872,281.399 163.599 C 281.069 163.326,280.800 162.752,280.800 162.325 C 280.800 161.378,280.062 159.906,279.387 159.506 C 279.114 159.344,278.777 158.603,278.638 157.861 C 278.498 157.118,278.038 156.196,277.615 155.813 C 277.192 155.430,276.736 154.618,276.602 154.009 C 276.468 153.399,275.918 152.486,275.379 151.981 C 274.841 151.475,274.400 150.823,274.400 150.534 C 274.400 150.244,274.040 149.782,273.600 149.507 C 273.160 149.232,272.800 148.806,272.800 148.559 C 272.800 147.848,267.408 141.265,264.035 137.857 C 261.431 135.226,259.645 133.598,259.353 133.591 C 259.159 133.587,258.119 132.700,257.043 131.620 C 255.967 130.541,254.688 129.558,254.201 129.436 C 253.715 129.314,252.525 128.490,251.558 127.606 C 250.591 126.721,249.170 125.793,248.400 125.542 C 247.630 125.292,246.855 124.841,246.678 124.540 C 246.501 124.239,245.781 123.721,245.078 123.389 C 244.375 123.057,243.305 122.519,242.700 122.193 C 240.014 120.745,239.340 120.398,238.400 119.977 C 237.850 119.730,236.590 119.110,235.600 118.600 C 234.610 118.089,233.090 117.538,232.223 117.376 C 231.355 117.214,230.095 116.768,229.423 116.384 C 228.750 116.000,227.368 115.569,226.352 115.426 C 225.335 115.283,223.812 114.814,222.967 114.383 C 222.025 113.903,220.626 113.600,219.351 113.600 C 218.207 113.600,216.130 113.210,214.736 112.732 C 211.997 111.795,192.818 111.258,188.200 111.989 M210.346 113.530 C 211.526 113.770,214.148 114.151,216.171 114.377 C 218.195 114.602,220.379 115.047,221.025 115.365 C 221.671 115.682,223.350 116.148,224.757 116.399 C 226.163 116.650,227.693 117.091,228.157 117.378 C 228.620 117.665,229.845 118.103,230.877 118.350 C 231.910 118.598,233.350 119.143,234.077 119.561 C 234.805 119.980,235.973 120.441,236.672 120.587 C 237.372 120.732,238.152 121.101,238.404 121.405 C 238.657 121.710,239.525 122.171,240.332 122.430 C 241.139 122.689,242.070 123.130,242.400 123.411 C 242.730 123.691,243.675 124.199,244.500 124.540 C 245.325 124.880,246.000 125.327,246.000 125.531 C 246.000 125.736,246.577 126.142,247.283 126.434 C 247.988 126.727,248.888 127.288,249.283 127.683 C 249.677 128.077,250.260 128.400,250.577 128.400 C 250.895 128.400,251.390 128.733,251.677 129.140 C 251.965 129.548,252.740 130.170,253.400 130.523 C 254.060 130.876,255.396 131.892,256.368 132.782 C 257.340 133.672,258.274 134.400,258.442 134.400 C 258.799 134.400,265.417 141.088,266.600 142.643 C 267.040 143.222,267.760 144.077,268.200 144.543 C 270.884 147.390,275.571 154.666,278.335 160.278 C 279.289 162.215,280.391 164.430,280.784 165.200 C 281.178 165.970,281.636 167.227,281.802 167.994 C 281.969 168.761,282.374 169.799,282.702 170.300 C 283.031 170.801,283.531 172.334,283.813 173.706 C 284.096 175.078,284.601 176.930,284.935 177.823 C 285.269 178.715,285.743 181.260,285.987 183.478 C 286.231 185.696,286.604 188.115,286.815 188.853 C 287.408 190.921,287.282 203.391,286.639 206.200 C 286.337 207.520,285.965 209.948,285.811 211.596 C 285.658 213.243,285.203 215.583,284.801 216.796 C 284.398 218.008,283.955 219.675,283.817 220.499 C 283.678 221.323,283.124 222.943,282.586 224.099 C 282.048 225.255,281.606 226.448,281.604 226.751 C 281.588 229.041,273.290 243.266,268.832 248.646 C 268.264 249.331,267.350 250.485,266.800 251.211 C 265.607 252.785,261.557 256.853,257.781 260.269 C 253.519 264.126,253.052 264.000,271.641 264.000 L 287.185 264.000 287.405 264.900 C 287.526 265.395,287.574 270.750,287.512 276.800 L 287.400 287.800 254.244 287.902 C 230.080 287.977,220.940 287.882,220.544 287.553 C 219.816 286.949,219.739 257.411,220.461 255.825 C 220.781 255.124,221.359 254.731,222.345 254.546 C 224.345 254.171,232.150 250.178,234.904 248.121 C 236.172 247.174,237.316 246.400,237.446 246.400 C 238.485 246.400,249.371 235.856,250.542 233.716 C 250.757 233.322,251.523 232.274,252.244 231.387 C 252.964 230.500,253.935 228.970,254.401 227.987 C 254.868 227.004,255.773 225.300,256.415 224.200 C 257.802 221.820,258.399 220.519,258.401 219.874 C 258.402 219.613,258.731 218.860,259.132 218.200 C 259.533 217.540,260.081 215.876,260.350 214.501 C 260.620 213.127,261.102 211.374,261.423 210.606 C 263.108 206.573,263.011 188.227,261.278 183.200 C 260.861 181.990,260.390 180.301,260.231 179.446 C 260.073 178.591,259.596 177.244,259.172 176.452 C 258.747 175.660,258.395 174.739,258.389 174.406 C 258.384 174.073,257.644 172.450,256.745 170.800 C 255.847 169.150,254.767 167.125,254.346 166.300 C 253.926 165.475,253.434 164.800,253.255 164.800 C 253.075 164.800,252.717 164.337,252.460 163.771 C 251.323 161.278,243.728 152.796,240.665 150.600 C 240.051 150.160,239.161 149.440,238.686 149.000 C 237.432 147.837,233.909 145.600,233.333 145.600 C 233.062 145.600,232.696 145.361,232.520 145.069 C 231.960 144.140,222.579 139.623,221.133 139.586 C 220.840 139.579,219.880 139.225,219.000 138.800 C 218.120 138.375,217.040 138.021,216.600 138.013 C 215.831 138.000,211.949 137.221,208.600 136.408 C 205.957 135.766,193.813 135.922,190.600 136.639 C 189.060 136.982,186.525 137.499,184.967 137.787 C 183.409 138.075,181.609 138.576,180.967 138.902 C 180.325 139.227,179.086 139.623,178.214 139.781 C 177.341 139.939,176.171 140.390,175.614 140.782 C 175.056 141.174,174.150 141.632,173.600 141.800 C 173.050 141.968,172.150 142.418,171.600 142.800 C 171.050 143.182,170.155 143.634,169.611 143.803 C 168.680 144.092,164.410 146.825,160.429 149.679 C 157.514 151.768,153.232 156.008,150.843 159.169 C 149.609 160.802,148.106 162.782,147.501 163.569 C 146.897 164.356,146.114 165.630,145.762 166.400 C 145.409 167.170,144.890 168.070,144.607 168.400 C 144.325 168.730,143.965 169.450,143.806 170.000 C 143.647 170.550,143.221 171.450,142.859 172.000 C 141.981 173.335,140.514 177.486,138.758 183.600 C 137.012 189.679,137.037 205.911,138.800 211.184 C 139.208 212.403,139.664 214.030,139.814 214.800 C 139.964 215.570,140.427 216.761,140.843 217.447 C 141.259 218.133,141.600 219.014,141.600 219.405 C 141.600 220.992,146.030 229.075,148.975 232.861 C 149.429 233.444,150.246 234.524,150.791 235.261 C 152.888 238.096,161.753 246.400,162.681 246.400 C 162.898 246.400,163.415 246.775,163.830 247.233 C 164.245 247.691,165.127 248.331,165.792 248.655 C 166.456 248.978,167.900 249.772,169.000 250.418 C 171.614 251.954,173.439 252.800,174.138 252.800 C 174.448 252.800,174.908 253.048,175.159 253.350 C 175.410 253.653,176.429 254.128,177.424 254.407 C 178.418 254.685,179.405 255.236,179.616 255.630 C 180.214 256.747,180.123 286.917,179.520 287.520 C 178.690 288.350,112.962 288.200,112.643 287.367 C 112.326 286.542,112.326 265.458,112.643 264.633 C 112.858 264.071,114.621 264.000,128.394 264.000 C 145.213 264.000,145.476 263.966,144.111 261.973 C 143.358 260.873,142.014 259.600,141.606 259.600 C 141.279 259.600,135.011 253.304,133.600 251.559 C 133.050 250.878,132.197 249.844,131.705 249.261 C 128.753 245.760,124.000 238.649,124.000 237.733 C 124.000 237.462,123.764 237.096,123.477 236.920 C 123.189 236.744,122.709 235.970,122.411 235.200 C 122.112 234.430,121.651 233.530,121.385 233.200 C 121.119 232.870,120.676 231.880,120.400 231.000 C 120.124 230.120,119.673 229.130,119.396 228.800 C 119.120 228.470,118.597 227.165,118.235 225.900 C 117.874 224.635,117.427 223.600,117.244 223.600 C 117.060 223.600,116.696 222.278,116.436 220.662 C 116.175 219.046,115.709 217.363,115.400 216.922 C 115.092 216.481,114.562 213.888,114.224 211.160 C 113.886 208.432,113.427 205.571,113.205 204.803 C 112.576 202.632,112.697 190.801,113.374 188.094 C 113.690 186.832,114.146 184.114,114.388 182.054 C 114.629 179.994,115.065 177.834,115.355 177.254 C 115.646 176.674,116.093 175.108,116.348 173.773 C 116.603 172.439,117.167 170.649,117.602 169.796 C 118.037 168.943,118.511 167.605,118.654 166.822 C 118.798 166.040,119.237 164.987,119.630 164.481 C 120.023 163.976,120.459 163.043,120.598 162.409 C 120.737 161.774,121.101 161.048,121.405 160.796 C 121.710 160.543,122.171 159.675,122.430 158.868 C 122.689 158.061,123.165 157.097,123.488 156.728 C 123.810 156.358,124.372 155.518,124.737 154.862 C 125.102 154.206,125.809 152.933,126.308 152.034 C 126.808 151.135,127.380 150.400,127.581 150.400 C 127.782 150.400,128.060 150.041,128.199 149.602 C 128.338 149.164,128.666 148.574,128.926 148.293 C 130.053 147.075,132.800 143.638,132.800 143.446 C 132.800 143.331,133.205 142.814,133.700 142.299 C 134.195 141.783,135.236 140.650,136.013 139.781 C 137.513 138.103,139.540 136.331,144.400 132.444 C 146.050 131.125,147.779 129.676,148.242 129.223 C 148.705 128.770,149.266 128.400,149.488 128.400 C 149.710 128.400,150.325 128.059,150.854 127.643 C 151.881 126.835,153.726 125.696,156.000 124.466 C 160.817 121.860,163.632 120.479,164.643 120.226 C 165.279 120.068,166.073 119.692,166.406 119.391 C 166.740 119.091,167.910 118.645,169.006 118.400 C 170.103 118.156,171.385 117.704,171.856 117.397 C 172.328 117.090,173.948 116.627,175.456 116.368 C 176.965 116.110,178.705 115.642,179.321 115.328 C 179.938 115.014,182.728 114.504,185.521 114.194 C 188.315 113.883,191.320 113.456,192.200 113.243 C 194.249 112.748,207.529 112.958,210.346 113.530 " stroke="none" fill="#a4b4bc" fill-rule="evenodd"></path></g></svg>