<svg id="svg" version="1.1" xmlns="http://www.w3.org/2000/svg" xmlns:xlink="http://www.w3.org/1999/xlink" width="400" height="400" viewBox="0, 0, 400,400"><g id="svgg"><path id="path0" d="M204.917 348.792 C 195.250 349.197,186.915 354.771,182.902 363.512 C 180.291 369.200,179.708 376.261,181.412 381.574 C 181.620 382.221,181.842 382.975,181.907 383.250 C 182.086 384.006,184.140 388.091,184.510 388.425 C 184.688 388.586,184.833 388.784,184.833 388.864 C 184.833 389.630,190.766 395.667,191.519 395.667 C 191.602 395.667,191.988 395.898,192.376 396.181 C 193.092 396.703,196.069 398.186,196.834 398.402 C 197.063 398.467,197.963 398.734,198.833 398.995 C 203.698 400.453,213.631 400.248,215.242 398.656 C 215.329 398.570,215.540 398.500,215.711 398.500 C 216.490 398.500,221.275 395.849,222.500 394.739 C 222.729 394.531,223.404 393.926,224.000 393.394 C 224.596 392.862,225.290 392.143,225.543 391.796 C 225.795 391.450,226.060 391.167,226.132 391.167 C 226.203 391.167,226.403 390.923,226.576 390.625 C 226.750 390.327,227.129 389.783,227.419 389.417 C 228.344 388.246,229.451 386.143,230.256 384.026 C 231.340 381.176,231.379 380.894,231.398 375.667 C 231.410 372.331,231.350 370.594,231.196 369.833 C 230.620 366.996,228.607 362.181,227.256 360.409 C 227.023 360.105,226.833 359.807,226.833 359.748 C 226.833 359.151,222.407 354.716,220.501 353.403 C 218.772 352.212,216.443 350.945,215.167 350.501 C 214.846 350.389,213.983 350.086,213.250 349.827 C 211.294 349.136,207.612 348.679,204.917 348.792 " stroke="none" fill="#e4047c" fill-rule="evenodd"></path><path id="path1" d="M192.954 0.101 C 192.919 0.137,192.408 0.197,191.820 0.236 C 188.717 0.439,187.999 0.495,187.562 0.569 C 187.299 0.613,186.597 0.697,186.002 0.756 C 185.407 0.814,184.869 0.895,184.805 0.934 C 184.741 0.974,184.290 1.041,183.803 1.084 C 182.792 1.172,182.007 1.278,181.167 1.439 C 180.846 1.500,180.263 1.544,179.872 1.537 C 179.481 1.529,179.193 1.574,179.231 1.636 C 179.270 1.699,179.009 1.762,178.651 1.776 C 177.490 1.821,177.167 1.873,177.167 2.011 C 177.167 2.086,177.006 2.117,176.809 2.079 C 176.613 2.041,176.373 2.059,176.276 2.119 C 176.179 2.178,175.946 2.239,175.758 2.253 C 174.986 2.311,173.833 2.545,173.832 2.644 C 173.831 2.702,173.445 2.769,172.974 2.792 C 172.502 2.815,172.034 2.899,171.933 2.979 C 171.833 3.059,171.600 3.100,171.417 3.070 C 171.233 3.041,170.071 3.278,168.833 3.597 C 166.261 4.261,165.878 4.352,165.417 4.413 C 165.233 4.438,165.083 4.476,165.083 4.498 C 165.083 4.520,164.866 4.563,164.599 4.594 C 164.333 4.625,163.996 4.703,163.849 4.767 C 163.703 4.831,163.493 4.903,163.383 4.926 C 162.656 5.079,160.574 5.753,160.534 5.849 C 160.506 5.912,160.354 5.930,160.194 5.889 C 160.035 5.847,158.761 6.193,157.364 6.656 C 155.967 7.120,154.714 7.500,154.579 7.500 C 154.444 7.500,154.333 7.556,154.333 7.625 C 154.333 7.694,154.129 7.762,153.880 7.776 C 153.631 7.791,153.400 7.885,153.366 7.985 C 153.333 8.085,153.129 8.167,152.913 8.167 C 152.696 8.167,152.477 8.235,152.426 8.319 C 152.374 8.403,152.032 8.522,151.665 8.584 C 151.299 8.646,151.037 8.758,151.083 8.833 C 151.129 8.908,151.005 8.927,150.808 8.875 C 150.563 8.811,150.486 8.842,150.566 8.972 C 150.641 9.093,150.595 9.129,150.438 9.069 C 150.303 9.017,150.018 9.071,149.805 9.189 C 149.591 9.307,149.360 9.388,149.292 9.369 C 149.223 9.349,149.167 9.413,149.167 9.510 C 149.167 9.607,149.101 9.646,149.020 9.596 C 148.939 9.546,148.546 9.679,148.145 9.892 C 147.744 10.105,147.323 10.247,147.208 10.209 C 147.094 10.170,147.000 10.225,147.000 10.329 C 147.000 10.434,146.927 10.474,146.837 10.419 C 146.747 10.363,146.503 10.412,146.295 10.528 C 146.087 10.643,145.860 10.722,145.792 10.702 C 145.723 10.683,145.667 10.742,145.667 10.833 C 145.667 10.925,145.533 11.000,145.370 11.000 C 145.207 11.000,144.907 11.117,144.704 11.259 C 144.500 11.402,144.333 11.462,144.333 11.393 C 144.333 11.323,144.243 11.357,144.133 11.467 C 144.023 11.577,143.796 11.667,143.628 11.667 C 143.460 11.667,142.600 12.038,141.716 12.492 C 140.833 12.946,140.047 13.279,139.972 13.232 C 139.896 13.185,139.833 13.239,139.833 13.351 C 139.833 13.464,139.787 13.509,139.730 13.452 C 139.609 13.332,138.075 14.077,137.917 14.333 C 137.858 14.428,137.740 14.462,137.655 14.410 C 137.570 14.357,137.500 14.398,137.500 14.500 C 137.500 14.602,137.429 14.643,137.343 14.589 C 137.199 14.501,134.308 15.872,133.350 16.483 C 133.130 16.623,132.831 16.755,132.686 16.776 C 132.541 16.798,132.396 16.894,132.364 16.991 C 132.332 17.088,132.209 17.167,132.092 17.167 C 131.974 17.167,131.666 17.334,131.405 17.539 C 131.145 17.743,130.999 17.803,131.080 17.672 C 131.161 17.542,130.995 17.599,130.713 17.801 C 130.430 18.002,130.126 18.167,130.038 18.167 C 129.950 18.167,129.679 18.324,129.435 18.516 C 129.191 18.708,128.787 18.922,128.537 18.993 C 128.288 19.063,128.105 19.216,128.132 19.331 C 128.161 19.459,128.080 19.502,127.923 19.442 C 127.782 19.388,127.667 19.400,127.667 19.469 C 127.667 19.537,127.460 19.684,127.208 19.796 C 126.956 19.907,126.395 20.204,125.961 20.457 C 125.527 20.710,124.665 21.210,124.044 21.569 C 123.424 21.929,122.892 22.285,122.861 22.361 C 122.831 22.438,122.708 22.500,122.590 22.500 C 122.471 22.500,122.291 22.600,122.189 22.723 C 122.088 22.845,121.666 23.119,121.252 23.332 C 120.839 23.545,120.500 23.782,120.500 23.860 C 120.500 23.937,120.423 24.000,120.330 24.000 C 120.127 24.000,118.774 24.862,118.694 25.042 C 118.664 25.110,118.536 25.167,118.411 25.167 C 118.286 25.167,118.123 25.269,118.050 25.395 C 117.977 25.521,117.600 25.783,117.214 25.979 C 116.827 26.174,116.430 26.486,116.331 26.672 C 116.231 26.857,116.085 26.969,116.006 26.920 C 115.926 26.871,115.638 27.019,115.365 27.249 C 115.092 27.479,114.803 27.667,114.723 27.667 C 114.597 27.667,114.068 28.069,112.583 29.293 C 112.400 29.444,112.225 29.546,112.195 29.519 C 112.164 29.492,111.843 29.736,111.480 30.061 C 111.118 30.387,110.786 30.656,110.744 30.660 C 110.701 30.664,110.671 30.723,110.677 30.792 C 110.682 30.860,110.514 30.957,110.303 31.007 C 110.092 31.057,109.843 31.251,109.750 31.437 C 109.657 31.624,109.488 31.746,109.374 31.708 C 109.260 31.670,109.167 31.720,109.167 31.819 C 109.167 31.919,109.073 32.000,108.958 32.001 C 108.844 32.001,108.475 32.254,108.139 32.563 C 107.803 32.872,107.278 33.297,106.972 33.508 C 106.667 33.720,106.163 34.160,105.852 34.488 C 105.542 34.815,105.228 35.066,105.154 35.045 C 105.080 35.024,104.884 35.174,104.718 35.379 C 104.552 35.584,104.208 35.886,103.953 36.050 C 103.692 36.217,103.539 36.429,103.604 36.533 C 103.673 36.645,103.642 36.671,103.526 36.599 C 103.420 36.534,103.333 36.554,103.333 36.645 C 103.333 36.735,103.229 36.833,103.102 36.863 C 102.884 36.913,101.320 38.259,99.420 40.031 C 98.960 40.460,98.343 41.007,98.050 41.247 C 97.695 41.537,97.551 41.773,97.620 41.952 C 97.691 42.137,97.660 42.182,97.519 42.095 C 97.279 41.947,95.450 43.721,95.633 43.924 C 95.698 43.995,95.669 44.008,95.571 43.952 C 95.394 43.851,93.691 45.507,93.126 46.328 C 92.966 46.560,92.835 46.682,92.834 46.598 C 92.834 46.515,92.552 46.745,92.208 47.109 C 90.065 49.379,89.551 49.965,89.346 50.369 C 89.220 50.618,89.059 50.786,88.988 50.743 C 88.836 50.649,88.223 51.393,88.079 51.847 C 88.023 52.023,87.868 52.167,87.735 52.167 C 87.602 52.167,87.407 52.354,87.303 52.583 C 87.199 52.813,87.050 53.000,86.973 53.000 C 86.896 53.000,86.833 53.117,86.833 53.260 C 86.833 53.403,86.772 53.482,86.696 53.435 C 86.548 53.343,86.308 53.592,85.667 54.500 C 85.440 54.821,85.044 55.261,84.787 55.479 C 84.530 55.697,84.355 55.911,84.400 55.955 C 84.490 56.046,84.254 56.363,83.721 56.864 C 83.522 57.052,83.399 57.310,83.448 57.438 C 83.509 57.598,83.454 57.638,83.269 57.567 C 83.089 57.498,83.000 57.555,83.000 57.737 C 83.000 57.888,82.888 58.053,82.751 58.106 C 82.614 58.159,82.538 58.261,82.583 58.333 C 82.627 58.405,82.477 58.586,82.250 58.735 C 82.022 58.884,81.844 59.061,81.854 59.128 C 81.900 59.429,81.823 59.712,81.723 59.612 C 81.662 59.551,81.436 59.762,81.220 60.079 C 81.005 60.397,80.642 60.842,80.416 61.069 C 80.142 61.343,80.040 61.583,80.112 61.782 C 80.171 61.948,80.162 62.032,80.092 61.969 C 79.911 61.806,78.639 63.320,78.774 63.538 C 78.840 63.645,78.807 63.670,78.692 63.599 C 78.580 63.530,78.500 63.583,78.500 63.726 C 78.500 63.862,78.444 63.997,78.375 64.028 C 78.198 64.106,77.296 65.333,77.415 65.333 C 77.469 65.333,77.360 65.497,77.173 65.698 C 76.986 65.899,76.832 66.142,76.830 66.240 C 76.829 66.337,76.637 66.597,76.404 66.818 C 75.968 67.232,75.409 68.167,75.598 68.167 C 75.656 68.167,75.527 68.322,75.310 68.513 C 75.094 68.703,75.029 68.809,75.167 68.748 C 75.304 68.687,75.229 68.793,75.000 68.982 C 74.771 69.171,74.640 69.328,74.708 69.330 C 74.777 69.332,74.683 69.483,74.500 69.667 C 74.317 69.850,74.167 70.112,74.167 70.250 C 74.167 70.387,74.101 70.500,74.020 70.500 C 73.940 70.500,73.784 70.717,73.674 70.982 C 73.564 71.248,73.347 71.604,73.192 71.774 C 72.755 72.254,71.320 74.625,71.371 74.783 C 71.396 74.860,71.248 75.105,71.042 75.326 C 70.835 75.548,70.667 75.822,70.667 75.934 C 70.667 76.047,70.588 76.165,70.493 76.197 C 70.397 76.229,70.306 76.417,70.291 76.616 C 70.276 76.814,70.215 76.947,70.155 76.910 C 70.095 76.873,69.910 77.159,69.742 77.546 C 69.575 77.933,69.308 78.400,69.148 78.583 C 68.989 78.767,68.834 79.029,68.804 79.167 C 68.774 79.304,68.709 79.454,68.658 79.500 C 68.451 79.688,67.673 81.334,67.790 81.336 C 67.860 81.337,67.804 81.410,67.667 81.496 C 67.529 81.583,67.413 81.713,67.409 81.786 C 67.399 81.945,66.617 83.477,66.029 84.489 C 65.792 84.896,65.689 85.172,65.799 85.104 C 65.910 85.036,66.000 85.060,66.000 85.157 C 66.000 85.254,65.924 85.333,65.831 85.333 C 65.671 85.333,63.678 89.244,63.605 89.702 C 63.586 89.820,63.436 90.120,63.271 90.368 C 63.106 90.616,63.027 90.909,63.095 91.018 C 63.178 91.154,63.147 91.174,62.997 91.082 C 62.837 90.983,62.806 91.021,62.883 91.223 C 62.942 91.375,62.925 91.500,62.846 91.500 C 62.767 91.500,62.658 91.616,62.603 91.759 C 62.548 91.901,62.571 91.976,62.652 91.925 C 62.734 91.875,62.578 92.246,62.305 92.750 C 62.032 93.254,61.870 93.668,61.946 93.669 C 62.021 93.671,61.986 93.734,61.867 93.809 C 61.747 93.885,61.638 94.109,61.623 94.307 C 61.608 94.505,61.532 94.667,61.455 94.667 C 61.377 94.667,61.360 94.742,61.417 94.833 C 61.473 94.925,61.440 95.000,61.343 95.000 C 61.246 95.000,61.167 95.100,61.167 95.222 C 61.167 95.345,60.859 96.189,60.483 97.097 C 60.106 98.006,59.777 98.909,59.750 99.104 C 59.723 99.299,59.617 99.614,59.516 99.804 C 59.414 99.994,59.316 100.337,59.297 100.567 C 59.277 100.796,59.226 100.949,59.183 100.905 C 59.065 100.788,58.498 102.362,58.599 102.526 C 58.647 102.603,58.607 102.667,58.510 102.667 C 58.413 102.667,58.345 102.723,58.360 102.792 C 58.374 102.860,58.343 103.029,58.291 103.167 C 57.966 104.016,57.704 105.000,57.802 105.003 C 57.865 105.004,57.804 105.078,57.667 105.167 C 57.456 105.303,57.454 105.329,57.657 105.331 C 57.836 105.333,57.821 105.389,57.597 105.553 C 57.431 105.674,57.287 106.003,57.276 106.288 C 57.264 106.572,57.197 106.769,57.127 106.726 C 57.057 106.682,56.989 106.783,56.975 106.948 C 56.961 107.114,56.941 107.338,56.931 107.447 C 56.921 107.555,56.857 107.698,56.790 107.766 C 56.722 107.834,56.667 108.024,56.667 108.189 C 56.667 108.353,56.545 108.847,56.396 109.286 C 56.247 109.724,56.103 110.196,56.075 110.333 C 56.048 110.471,56.010 110.602,55.992 110.625 C 55.973 110.648,55.942 110.723,55.923 110.792 C 55.904 110.860,55.830 111.048,55.759 111.208 C 55.689 111.369,55.676 111.616,55.730 111.759 C 55.787 111.907,55.759 111.974,55.665 111.915 C 55.574 111.859,55.500 111.887,55.500 111.977 C 55.500 112.066,55.452 112.277,55.394 112.445 C 55.300 112.717,55.320 112.714,55.578 112.417 C 55.860 112.093,55.862 112.095,55.630 112.500 C 55.420 112.867,55.075 113.940,54.933 114.667 C 54.906 114.804,54.827 115.048,54.757 115.208 C 54.688 115.369,54.676 115.616,54.730 115.759 C 54.785 115.901,54.765 115.977,54.685 115.928 C 54.507 115.818,54.294 116.801,54.443 117.043 C 54.507 117.145,54.472 117.169,54.359 117.099 C 54.233 117.021,54.158 117.141,54.141 117.448 C 54.104 118.138,54.086 118.231,53.954 118.442 C 53.888 118.547,53.840 118.810,53.847 119.025 C 53.853 119.240,53.772 119.754,53.666 120.167 C 53.560 120.579,53.404 121.292,53.319 121.750 C 53.154 122.648,53.057 123.106,52.952 123.500 C 52.662 124.587,52.629 124.771,52.426 126.467 C 52.368 126.946,52.230 127.833,52.083 128.667 C 51.950 129.426,51.786 130.457,51.715 130.984 C 51.671 131.314,51.599 131.846,51.555 132.167 C 51.512 132.487,51.447 133.012,51.412 133.333 C 51.376 133.654,51.295 134.134,51.233 134.400 C 51.162 134.700,51.180 134.845,51.281 134.782 C 51.371 134.727,51.444 134.787,51.444 134.917 C 51.444 135.046,51.369 135.105,51.277 135.049 C 51.178 134.987,51.153 135.057,51.216 135.223 C 51.275 135.375,51.266 135.500,51.197 135.500 C 51.128 135.500,51.053 135.730,51.032 136.012 C 51.003 136.388,51.049 136.490,51.205 136.397 C 51.375 136.294,51.376 136.320,51.209 136.527 C 51.094 136.668,50.958 137.451,50.906 138.267 C 50.788 140.102,50.721 141.077,50.550 143.417 C 50.378 145.783,50.377 157.816,50.549 160.417 C 50.622 161.517,50.752 163.242,50.837 164.250 C 50.923 165.258,51.008 166.552,51.027 167.125 C 51.045 167.698,51.112 168.167,51.174 168.167 C 51.236 168.167,51.265 168.373,51.237 168.625 C 51.151 169.397,51.357 170.505,51.564 170.381 C 51.666 170.320,51.647 170.396,51.521 170.551 C 51.395 170.706,51.362 170.833,51.447 170.833 C 51.533 170.833,51.589 171.040,51.572 171.292 C 51.545 171.692,51.776 173.375,52.068 174.917 C 52.120 175.192,52.211 175.773,52.270 176.208 C 52.328 176.644,52.442 177.000,52.523 177.000 C 52.604 177.000,52.575 177.160,52.460 177.355 C 52.291 177.640,52.291 177.725,52.459 177.786 C 52.575 177.828,52.627 177.930,52.576 178.013 C 52.488 178.154,52.663 179.226,53.023 180.750 C 53.203 181.513,53.306 182.006,53.398 182.542 C 53.433 182.748,53.544 183.254,53.644 183.667 C 53.743 184.079,53.828 184.679,53.832 185.000 C 53.837 185.456,53.877 185.529,54.013 185.333 C 54.151 185.137,54.166 185.162,54.085 185.453 C 53.976 185.842,54.723 188.983,55.285 190.500 C 55.336 190.637,55.389 190.938,55.402 191.167 C 55.442 191.845,55.884 193.333,56.045 193.333 C 56.127 193.333,56.161 193.427,56.120 193.542 C 56.079 193.656,56.179 194.125,56.341 194.583 C 56.503 195.042,56.687 195.717,56.749 196.083 C 56.812 196.450,56.941 196.844,57.035 196.958 C 57.130 197.073,57.152 197.167,57.083 197.167 C 57.015 197.167,57.053 197.279,57.167 197.417 C 57.281 197.554,57.328 197.667,57.272 197.667 C 57.216 197.667,57.396 198.285,57.672 199.042 C 57.949 199.798,58.209 200.603,58.250 200.831 C 58.387 201.582,58.703 202.166,58.979 202.180 C 59.146 202.188,59.172 202.225,59.045 202.276 C 58.798 202.376,59.395 203.667,59.688 203.667 C 59.787 203.667,59.828 203.773,59.778 203.904 C 59.688 204.137,60.351 205.269,60.957 205.917 C 61.128 206.100,61.272 206.317,61.276 206.398 C 61.300 206.918,65.535 210.991,66.065 211.005 C 66.167 211.007,66.467 211.230,66.732 211.500 C 66.996 211.770,67.278 211.951,67.357 211.902 C 67.435 211.854,67.500 211.877,67.500 211.954 C 67.500 212.075,68.067 212.351,68.583 212.482 C 68.675 212.505,68.862 212.622,69.000 212.742 C 69.345 213.045,70.667 213.698,70.667 213.566 C 70.667 213.507,70.762 213.539,70.879 213.636 C 70.996 213.733,71.277 213.843,71.504 213.880 C 71.731 213.918,72.042 214.004,72.195 214.071 C 72.349 214.138,72.574 214.213,72.695 214.238 C 72.817 214.263,73.029 214.328,73.167 214.383 C 75.563 215.345,82.259 215.289,84.664 214.288 C 84.895 214.191,85.140 214.125,85.208 214.140 C 85.277 214.155,85.333 214.092,85.333 214.000 C 85.333 213.908,85.515 213.833,85.736 213.833 C 86.271 213.833,86.686 213.666,86.579 213.493 C 86.531 213.416,86.626 213.362,86.788 213.373 C 86.950 213.383,87.511 213.116,88.034 212.779 C 88.556 212.442,89.063 212.167,89.159 212.167 C 89.255 212.167,89.333 212.092,89.333 212.000 C 89.333 211.908,89.417 211.833,89.519 211.833 C 89.728 211.833,90.471 211.253,91.599 210.208 C 92.020 209.819,92.426 209.500,92.501 209.500 C 92.740 209.500,93.663 208.220,93.537 208.065 C 93.471 207.983,93.486 207.974,93.571 208.043 C 93.733 208.176,94.500 207.553,94.500 207.289 C 94.500 207.205,94.760 206.832,95.078 206.461 C 95.396 206.089,95.621 205.727,95.577 205.657 C 95.534 205.586,95.564 205.503,95.645 205.473 C 95.857 205.392,97.391 202.500,97.223 202.497 C 97.146 202.496,97.162 202.440,97.258 202.372 C 97.573 202.152,98.709 198.396,98.582 197.995 C 98.507 197.760,98.526 197.663,98.634 197.730 C 98.815 197.842,98.851 197.280,98.875 194.000 C 98.891 191.703,98.826 190.138,98.705 189.933 C 98.656 189.851,98.593 189.525,98.565 189.208 C 98.536 188.892,98.426 188.528,98.319 188.400 C 98.213 188.272,98.165 188.167,98.213 188.167 C 98.262 188.167,98.117 187.660,97.891 187.042 C 97.514 186.007,97.413 185.628,97.355 185.032 C 97.343 184.912,97.259 184.859,97.169 184.915 C 97.076 184.973,97.045 184.910,97.098 184.771 C 97.150 184.635,97.037 184.172,96.847 183.741 C 96.656 183.310,96.500 182.855,96.500 182.729 C 96.500 182.603,96.441 182.500,96.369 182.500 C 96.297 182.500,96.225 182.369,96.209 182.208 C 96.158 181.688,95.978 180.756,95.879 180.500 C 95.826 180.362,95.756 180.100,95.723 179.917 C 95.690 179.733,95.614 179.471,95.554 179.333 C 95.406 178.994,95.408 179.000,95.260 178.290 C 95.188 177.945,95.066 177.624,94.988 177.576 C 94.911 177.528,94.890 177.379,94.942 177.245 C 94.993 177.110,94.971 177.000,94.893 177.000 C 94.814 177.000,94.739 176.831,94.725 176.625 C 94.711 176.419,94.616 175.800,94.514 175.250 C 94.411 174.700,94.316 174.156,94.303 174.042 C 94.289 173.927,94.234 173.833,94.181 173.833 C 94.127 173.833,94.075 173.665,94.065 173.458 C 94.048 173.092,93.885 172.250,93.831 172.250 C 93.816 172.250,93.780 172.010,93.749 171.717 C 93.719 171.424,93.604 170.749,93.493 170.217 C 93.382 169.685,93.270 169.137,93.242 169.000 C 93.215 168.862,93.186 168.352,93.179 167.865 C 93.172 167.379,93.099 167.022,93.016 167.074 C 92.932 167.125,92.901 167.029,92.945 166.860 C 92.989 166.691,92.940 165.960,92.835 165.235 C 92.731 164.510,92.603 163.429,92.552 162.833 C 92.501 162.237,92.412 161.712,92.355 161.667 C 92.154 161.507,92.030 148.376,92.215 146.868 C 92.297 146.197,92.274 146.016,92.120 146.109 C 91.988 146.188,91.996 146.133,92.142 145.953 C 92.281 145.782,92.345 145.390,92.309 144.937 C 92.276 144.531,92.310 144.236,92.384 144.282 C 92.458 144.327,92.509 144.001,92.497 143.557 C 92.485 143.113,92.528 142.536,92.593 142.274 C 92.676 141.944,92.641 141.753,92.481 141.651 C 92.354 141.571,92.331 141.504,92.431 141.503 C 92.530 141.501,92.621 141.406,92.634 141.292 C 92.647 141.177,92.698 140.858,92.748 140.583 C 92.798 140.308,92.869 139.693,92.906 139.215 C 92.942 138.738,93.018 138.273,93.074 138.182 C 93.130 138.091,93.163 137.732,93.147 137.383 C 93.121 136.830,93.174 136.337,93.412 134.917 C 93.567 133.992,94.550 129.115,94.768 128.189 C 94.905 127.606,94.977 127.088,94.927 127.038 C 94.877 126.988,94.904 126.865,94.987 126.765 C 95.193 126.518,96.000 123.614,96.000 123.123 C 96.000 122.905,96.262 121.994,96.583 121.097 C 96.903 120.200,97.124 119.399,97.073 119.316 C 97.022 119.234,97.054 119.167,97.144 119.167 C 97.233 119.167,97.356 118.923,97.416 118.625 C 97.477 118.327,97.826 117.277,98.193 116.291 C 98.560 115.304,98.829 114.405,98.792 114.292 C 98.754 114.179,98.824 113.986,98.946 113.863 C 99.069 113.740,99.127 113.571,99.075 113.487 C 99.023 113.402,99.052 113.333,99.139 113.333 C 99.274 113.333,99.355 113.146,99.591 112.292 C 99.610 112.223,99.643 112.110,99.666 112.042 C 99.688 111.973,99.697 111.860,99.686 111.792 C 99.676 111.723,99.750 111.667,99.851 111.667 C 99.953 111.667,99.991 111.550,99.936 111.408 C 99.879 111.260,99.907 111.193,100.002 111.251 C 100.093 111.307,100.178 111.255,100.192 111.135 C 100.206 111.015,100.232 110.842,100.251 110.750 C 100.305 110.477,100.821 109.313,101.322 108.333 C 101.731 107.533,102.025 106.696,101.997 106.411 C 101.992 106.362,102.104 106.206,102.246 106.064 C 102.387 105.922,102.460 105.738,102.408 105.653 C 102.356 105.569,102.379 105.500,102.459 105.500 C 102.619 105.500,103.166 104.435,103.262 103.936 C 103.296 103.763,103.420 103.500,103.538 103.352 C 104.051 102.713,105.000 100.801,104.892 100.626 C 104.849 100.557,104.892 100.500,104.987 100.500 C 105.186 100.500,105.857 99.260,105.743 99.104 C 105.701 99.047,105.719 99.040,105.783 99.088 C 105.947 99.214,106.514 97.992,106.387 97.786 C 106.327 97.688,106.364 97.666,106.474 97.734 C 106.580 97.799,106.667 97.770,106.667 97.670 C 106.667 97.569,106.817 97.325,107.000 97.128 C 107.303 96.803,107.413 96.483,107.349 96.113 C 107.336 96.037,107.394 96.018,107.478 96.070 C 107.623 96.160,107.783 95.927,107.798 95.602 C 107.802 95.521,107.870 95.408,107.949 95.352 C 108.282 95.117,109.167 93.744,109.167 93.462 C 109.167 93.294,109.279 93.113,109.416 93.061 C 109.553 93.008,109.628 92.906,109.583 92.833 C 109.539 92.761,109.614 92.659,109.751 92.606 C 109.888 92.553,110.000 92.396,110.000 92.255 C 110.000 92.115,110.058 92.000,110.128 92.000 C 110.199 92.000,110.441 91.662,110.667 91.250 C 110.892 90.837,111.115 90.499,111.163 90.499 C 111.377 90.496,112.019 89.331,111.906 89.150 C 111.830 89.027,111.852 88.992,111.962 89.060 C 112.062 89.121,112.191 89.019,112.250 88.833 C 112.309 88.647,112.427 88.538,112.512 88.591 C 112.597 88.643,112.667 88.607,112.667 88.510 C 112.667 88.413,112.819 88.181,113.006 87.994 C 113.193 87.807,113.293 87.563,113.229 87.452 C 113.165 87.341,113.175 87.306,113.251 87.375 C 113.327 87.444,113.751 86.994,114.193 86.375 C 114.635 85.756,115.058 85.175,115.133 85.083 C 115.207 84.992,115.264 84.879,115.259 84.833 C 115.254 84.787,115.476 84.524,115.753 84.250 C 116.393 83.613,116.820 83.061,116.542 83.228 C 116.427 83.297,116.333 83.313,116.333 83.264 C 116.333 83.215,116.561 83.058,116.839 82.914 C 117.117 82.770,117.300 82.581,117.246 82.493 C 117.191 82.405,117.210 82.333,117.287 82.333 C 117.475 82.333,119.250 80.232,119.250 80.010 C 119.250 79.913,119.300 79.852,119.362 79.875 C 119.509 79.930,120.333 79.151,120.333 78.957 C 120.333 78.873,120.593 78.575,120.911 78.294 C 121.228 78.012,121.448 77.717,121.398 77.637 C 121.349 77.557,121.408 77.512,121.529 77.538 C 121.651 77.563,121.729 77.484,121.704 77.363 C 121.679 77.241,121.727 77.184,121.811 77.236 C 121.970 77.334,122.602 76.511,122.537 76.292 C 122.517 76.223,122.594 76.185,122.708 76.208 C 122.823 76.231,122.892 76.138,122.861 76.000 C 122.831 75.863,122.861 75.806,122.929 75.873 C 122.997 75.941,123.828 75.215,124.776 74.259 C 125.724 73.302,126.500 72.569,126.500 72.630 C 126.500 72.690,126.856 72.393,127.292 71.970 C 129.049 70.262,129.680 69.672,129.796 69.629 C 129.862 69.604,129.896 69.522,129.871 69.446 C 129.846 69.370,129.889 69.348,129.968 69.397 C 130.046 69.445,130.372 69.207,130.692 68.868 C 131.011 68.528,131.380 68.227,131.511 68.198 C 131.643 68.170,132.040 67.851,132.394 67.490 C 132.748 67.129,133.137 66.833,133.257 66.833 C 133.377 66.833,133.613 66.660,133.780 66.448 C 133.947 66.235,134.308 65.919,134.583 65.745 C 135.245 65.327,136.569 64.283,136.639 64.125 C 136.669 64.056,136.797 64.000,136.922 64.000 C 137.048 64.000,137.227 63.869,137.320 63.708 C 137.413 63.548,137.492 63.479,137.495 63.555 C 137.498 63.631,137.813 63.424,138.197 63.096 C 138.580 62.768,138.974 62.500,139.072 62.499 C 139.170 62.499,139.490 62.274,139.783 61.999 C 140.076 61.725,140.397 61.500,140.496 61.500 C 140.596 61.500,140.720 61.388,140.773 61.251 C 140.825 61.114,140.923 61.036,140.990 61.077 C 141.132 61.165,142.360 60.370,142.540 60.073 C 142.607 59.962,142.854 59.822,143.088 59.764 C 143.349 59.698,143.468 59.584,143.396 59.467 C 143.320 59.344,143.370 59.312,143.538 59.376 C 143.685 59.433,143.964 59.319,144.186 59.113 C 144.400 58.913,144.615 58.747,144.663 58.744 C 144.711 58.741,144.938 58.633,145.167 58.504 C 145.396 58.375,145.883 58.105,146.250 57.905 C 146.617 57.705,146.899 57.459,146.877 57.360 C 146.855 57.260,146.943 57.219,147.072 57.269 C 147.202 57.319,147.463 57.203,147.654 57.013 C 147.844 56.822,148.037 56.667,148.083 56.667 C 148.129 56.667,148.185 56.661,148.208 56.654 C 148.231 56.647,148.394 56.614,148.571 56.581 C 148.747 56.548,148.957 56.404,149.037 56.260 C 149.118 56.117,149.273 56.000,149.383 55.999 C 149.705 55.998,151.159 55.214,151.047 55.102 C 150.990 55.046,151.057 55.000,151.195 55.000 C 151.332 55.000,151.964 54.748,152.597 54.440 C 153.231 54.132,153.920 53.827,154.127 53.761 C 154.335 53.696,154.456 53.563,154.396 53.466 C 154.333 53.365,154.385 53.324,154.518 53.371 C 154.646 53.415,155.135 53.248,155.605 52.999 C 156.304 52.629,157.218 52.227,157.667 52.092 C 158.250 51.916,158.500 51.783,158.500 51.646 C 158.500 51.555,158.564 51.520,158.642 51.568 C 158.720 51.616,158.927 51.548,159.100 51.417 C 159.274 51.285,159.548 51.175,159.708 51.172 C 159.869 51.169,160.000 51.092,160.000 51.000 C 160.000 50.908,160.220 50.833,160.488 50.833 C 160.757 50.833,161.089 50.721,161.226 50.583 C 161.364 50.446,161.636 50.333,161.831 50.333 C 162.057 50.333,162.143 50.263,162.067 50.141 C 162.002 50.035,162.017 49.991,162.100 50.042 C 162.260 50.141,164.540 49.430,164.428 49.316 C 164.392 49.280,164.562 49.240,164.806 49.228 C 165.050 49.216,165.625 49.035,166.083 48.827 C 166.542 48.619,166.992 48.430,167.083 48.407 C 168.305 48.108,170.121 47.565,170.917 47.263 C 171.880 46.896,173.391 46.488,174.083 46.408 C 174.267 46.386,174.867 46.245,175.417 46.095 C 175.967 45.944,176.529 45.792,176.667 45.757 C 176.804 45.723,177.254 45.609,177.667 45.504 C 178.079 45.400,178.717 45.278,179.083 45.234 C 179.450 45.190,179.938 45.108,180.167 45.053 C 180.396 44.997,180.696 44.935,180.833 44.914 C 180.971 44.893,181.308 44.825,181.583 44.764 C 181.858 44.702,182.346 44.618,182.667 44.576 C 182.987 44.535,183.438 44.453,183.667 44.396 C 183.896 44.338,184.271 44.271,184.500 44.245 C 184.729 44.220,185.704 44.070,186.667 43.912 C 187.629 43.755,188.904 43.601,189.500 43.570 C 191.498 43.469,191.667 43.445,191.669 43.264 C 191.671 43.165,191.744 43.196,191.833 43.333 C 191.922 43.471,191.996 43.508,191.997 43.417 C 191.999 43.325,192.431 43.245,192.958 43.238 C 195.783 43.203,196.679 43.155,196.609 43.042 C 196.567 42.973,198.268 42.930,200.391 42.947 C 203.877 42.975,205.691 43.043,209.250 43.280 C 209.892 43.323,210.810 43.371,211.292 43.387 C 211.773 43.403,212.167 43.464,212.167 43.521 C 212.167 43.578,212.748 43.640,213.458 43.658 C 215.326 43.706,215.904 43.754,216.104 43.878 C 216.474 44.106,218.167 44.288,218.169 44.100 C 218.171 43.990,218.226 44.002,218.307 44.129 C 218.381 44.246,218.661 44.371,218.929 44.407 C 219.197 44.443,219.782 44.556,220.228 44.658 C 220.674 44.760,221.190 44.796,221.374 44.737 C 221.577 44.673,221.668 44.696,221.606 44.797 C 221.503 44.963,222.956 45.267,223.111 45.111 C 223.155 45.067,223.430 45.103,223.721 45.192 C 225.282 45.670,227.434 46.164,227.628 46.089 C 227.751 46.042,227.810 46.070,227.760 46.150 C 227.648 46.331,228.613 46.525,229.129 46.424 C 229.338 46.384,229.467 46.418,229.416 46.500 C 229.366 46.583,229.607 46.703,229.954 46.768 C 230.300 46.833,230.827 46.987,231.125 47.112 C 231.423 47.236,231.667 47.290,231.667 47.232 C 231.667 47.174,231.774 47.215,231.905 47.324 C 232.036 47.433,232.371 47.528,232.649 47.536 C 232.928 47.544,233.116 47.614,233.068 47.692 C 233.020 47.770,233.154 47.846,233.365 47.862 C 234.028 47.911,234.240 47.948,234.583 48.077 C 234.767 48.146,235.329 48.355,235.833 48.543 C 236.338 48.730,236.977 48.980,237.254 49.098 C 237.531 49.216,237.944 49.350,238.171 49.394 C 238.812 49.520,239.709 49.862,240.159 50.153 C 240.384 50.298,240.572 50.393,240.576 50.363 C 240.584 50.302,241.462 50.624,241.716 50.781 C 241.812 50.840,241.834 50.802,241.766 50.692 C 241.596 50.417,241.812 50.455,242.109 50.752 C 242.247 50.890,242.429 50.960,242.513 50.908 C 242.598 50.856,242.667 50.878,242.667 50.956 C 242.667 51.034,243.323 51.382,244.125 51.730 C 246.249 52.652,249.185 53.990,249.667 54.255 C 251.274 55.140,251.698 55.334,251.840 55.246 C 251.928 55.192,252.000 55.225,252.000 55.320 C 252.000 55.552,253.257 56.184,253.423 56.035 C 253.495 55.970,253.503 56.005,253.441 56.113 C 253.347 56.276,253.655 56.476,254.167 56.585 C 254.213 56.594,254.656 56.861,255.152 57.176 C 255.648 57.492,256.098 57.743,256.152 57.733 C 256.206 57.724,256.338 57.837,256.445 57.983 C 256.552 58.130,256.689 58.200,256.750 58.138 C 256.812 58.077,257.007 58.152,257.185 58.305 C 257.641 58.697,260.326 60.333,260.512 60.333 C 260.597 60.333,260.667 60.406,260.667 60.496 C 260.667 60.701,261.590 61.188,261.725 61.053 C 261.780 60.998,261.873 61.076,261.931 61.226 C 261.988 61.377,262.098 61.500,262.174 61.500 C 262.250 61.500,262.557 61.723,262.855 61.996 C 263.154 62.268,263.427 62.462,263.463 62.426 C 263.499 62.390,263.653 62.462,263.806 62.587 C 263.958 62.711,264.409 63.080,264.807 63.406 C 265.206 63.733,265.605 64.000,265.695 64.000 C 265.785 64.000,266.085 64.226,266.360 64.501 C 266.636 64.777,266.949 64.952,267.056 64.891 C 267.163 64.830,267.198 64.838,267.135 64.908 C 266.996 65.062,268.857 66.505,269.045 66.389 C 269.116 66.345,269.154 66.370,269.129 66.446 C 269.104 66.522,269.150 66.621,269.231 66.667 C 269.313 66.712,269.751 67.087,270.206 67.500 C 270.661 67.912,271.068 68.227,271.110 68.199 C 271.153 68.171,271.450 68.433,271.771 68.782 C 272.092 69.131,272.464 69.394,272.597 69.367 C 272.730 69.340,272.819 69.378,272.794 69.452 C 272.726 69.657,274.183 71.010,274.356 70.903 C 274.440 70.851,274.488 70.872,274.462 70.951 C 274.437 71.029,274.689 71.353,275.022 71.671 C 275.356 71.990,276.286 72.887,277.090 73.667 C 277.893 74.446,278.490 74.978,278.416 74.849 C 278.325 74.691,278.345 74.654,278.477 74.736 C 278.584 74.802,278.635 74.916,278.590 74.989 C 278.545 75.062,278.656 75.256,278.837 75.420 C 279.018 75.584,279.171 75.650,279.177 75.567 C 279.183 75.485,279.257 75.590,279.342 75.802 C 279.436 76.034,279.574 76.140,279.691 76.068 C 279.798 76.002,279.841 76.020,279.787 76.108 C 279.732 76.195,280.010 76.575,280.404 76.951 C 280.797 77.328,281.165 77.755,281.221 77.900 C 281.276 78.046,281.568 78.315,281.869 78.498 C 282.170 78.681,282.382 78.850,282.339 78.874 C 282.189 78.957,283.064 79.998,283.363 80.093 C 283.530 80.146,283.667 80.286,283.667 80.405 C 283.667 80.775,284.358 81.526,284.610 81.429 C 284.767 81.369,284.830 81.436,284.798 81.628 C 284.770 81.796,284.842 81.898,284.971 81.871 C 285.092 81.846,285.149 81.893,285.098 81.976 C 284.962 82.196,285.661 83.023,285.872 82.893 C 285.979 82.827,286.003 82.860,285.932 82.975 C 285.865 83.084,285.927 83.213,286.072 83.269 C 286.215 83.323,286.290 83.435,286.239 83.517 C 286.188 83.600,286.226 83.667,286.323 83.667 C 286.421 83.667,286.500 83.750,286.500 83.852 C 286.500 84.026,286.658 84.227,287.667 85.340 C 287.896 85.592,288.105 85.901,288.132 86.025 C 288.159 86.149,288.309 86.366,288.465 86.508 C 288.622 86.650,288.825 86.883,288.917 87.026 C 289.595 88.086,290.793 89.659,291.083 89.872 C 291.175 89.940,291.192 89.996,291.121 89.997 C 291.050 89.999,291.115 90.187,291.264 90.415 C 291.414 90.644,291.602 90.790,291.683 90.740 C 291.764 90.690,291.788 90.757,291.738 90.888 C 291.686 91.024,291.828 91.269,292.068 91.458 C 292.299 91.640,292.446 91.832,292.394 91.884 C 292.342 91.936,292.407 92.133,292.540 92.321 C 292.672 92.510,292.820 92.624,292.869 92.575 C 292.919 92.526,293.005 92.605,293.061 92.751 C 293.131 92.934,293.098 92.978,292.956 92.891 C 292.843 92.822,292.951 93.005,293.197 93.298 C 293.443 93.592,293.691 93.982,293.750 94.166 C 293.808 94.350,293.918 94.500,293.993 94.500 C 294.069 94.500,294.175 94.679,294.230 94.897 C 294.285 95.116,294.552 95.532,294.823 95.822 C 295.094 96.112,295.320 96.384,295.325 96.425 C 295.329 96.466,295.339 96.519,295.346 96.542 C 295.353 96.565,295.385 96.723,295.417 96.893 C 295.449 97.063,295.613 97.363,295.781 97.560 C 295.949 97.756,296.273 98.292,296.501 98.750 C 296.730 99.208,296.973 99.608,297.043 99.639 C 297.112 99.670,297.130 99.759,297.082 99.836 C 297.034 99.914,297.164 100.096,297.372 100.242 C 297.580 100.387,297.723 100.546,297.691 100.594 C 297.596 100.734,298.027 101.669,298.151 101.593 C 298.213 101.554,298.275 101.673,298.289 101.855 C 298.317 102.230,299.682 105.053,299.876 105.139 C 299.945 105.170,299.960 105.264,299.908 105.348 C 299.856 105.431,299.893 105.500,299.990 105.500 C 300.087 105.500,300.150 105.556,300.129 105.625 C 300.059 105.860,300.886 107.487,301.031 107.398 C 301.110 107.349,301.164 107.370,301.151 107.446 C 301.083 107.839,301.186 108.341,301.318 108.260 C 301.401 108.208,301.430 108.316,301.382 108.500 C 301.333 108.686,301.376 108.833,301.481 108.833 C 301.583 108.833,301.668 108.965,301.669 109.125 C 301.670 109.285,301.857 109.743,302.085 110.142 C 302.313 110.541,302.500 110.997,302.500 111.156 C 302.500 111.315,302.556 111.501,302.625 111.569 C 302.694 111.638,302.753 111.744,302.757 111.806 C 302.776 112.107,303.207 113.167,303.311 113.167 C 303.376 113.167,303.441 113.329,303.456 113.527 C 303.471 113.725,303.551 113.931,303.633 113.985 C 303.716 114.039,303.834 114.308,303.895 114.583 C 303.956 114.858,304.027 115.170,304.052 115.275 C 304.077 115.380,304.207 115.601,304.341 115.765 C 304.554 116.028,304.553 116.049,304.333 115.936 C 304.184 115.860,304.200 115.904,304.372 116.046 C 304.531 116.176,304.617 116.327,304.563 116.381 C 304.509 116.435,304.691 117.140,304.967 117.948 C 305.242 118.756,305.601 119.904,305.763 120.500 C 305.926 121.096,306.130 121.677,306.216 121.792 C 306.303 121.906,306.329 122.000,306.273 122.000 C 306.217 122.000,306.317 122.394,306.496 122.875 C 306.674 123.356,306.861 124.013,306.913 124.333 C 307.145 125.792,307.570 127.310,307.721 127.216 C 307.811 127.161,307.832 127.200,307.768 127.304 C 307.704 127.407,307.743 127.813,307.854 128.204 C 307.966 128.596,308.070 128.992,308.086 129.083 C 308.103 129.175,308.132 129.287,308.153 129.333 C 308.229 129.507,308.377 130.599,308.373 130.957 C 308.371 131.176,308.441 131.286,308.543 131.223 C 308.648 131.159,308.668 131.196,308.594 131.316 C 308.484 131.494,309.054 135.196,309.290 135.833 C 309.341 135.971,309.394 136.233,309.408 136.417 C 309.515 137.764,309.719 139.167,309.809 139.167 C 309.868 139.167,309.921 139.785,309.926 140.542 C 309.939 142.453,310.025 143.667,310.147 143.667 C 310.204 143.666,310.239 144.011,310.225 144.432 C 310.211 144.853,310.268 146.522,310.353 148.140 C 310.569 152.279,310.454 158.122,310.106 160.667 C 310.075 160.896,310.003 161.646,309.946 162.333 C 309.827 163.777,309.651 165.858,309.585 166.583 C 309.561 166.858,309.499 167.196,309.448 167.333 C 309.397 167.471,309.308 167.958,309.249 168.417 C 309.191 168.875,309.116 169.400,309.084 169.583 C 309.052 169.767,308.976 170.207,308.916 170.563 C 308.803 171.226,308.791 171.282,308.514 172.411 C 308.404 172.862,308.409 173.140,308.530 173.286 C 308.637 173.415,308.643 173.500,308.545 173.500 C 308.407 173.500,307.828 175.707,307.757 176.503 C 307.744 176.642,307.688 176.830,307.632 176.921 C 307.494 177.144,306.987 179.117,307.025 179.284 C 307.041 179.357,307.000 179.609,306.934 179.843 C 306.868 180.078,306.786 180.415,306.753 180.593 C 306.719 180.771,306.677 180.935,306.659 180.958 C 306.640 180.981,306.610 181.056,306.593 181.125 C 306.575 181.194,306.456 181.588,306.329 182.000 C 306.202 182.412,306.095 182.825,306.091 182.917 C 306.087 183.008,306.017 183.132,305.935 183.191 C 305.854 183.250,305.779 183.524,305.769 183.799 C 305.758 184.075,305.694 184.266,305.625 184.224 C 305.556 184.182,305.491 184.339,305.479 184.573 C 305.452 185.139,305.435 185.214,305.279 185.458 C 305.207 185.573,305.193 185.742,305.250 185.833 C 305.307 185.925,305.280 186.000,305.190 186.000 C 305.100 186.000,304.978 186.222,304.918 186.493 C 304.859 186.764,304.662 187.291,304.482 187.665 C 304.301 188.038,304.199 188.417,304.253 188.505 C 304.308 188.594,304.269 188.667,304.167 188.667 C 304.064 188.667,304.017 188.726,304.061 188.798 C 304.106 188.870,303.929 189.435,303.668 190.053 C 303.407 190.672,303.189 191.214,303.183 191.257 C 303.178 191.301,303.060 191.556,302.921 191.825 C 302.783 192.093,302.719 192.442,302.780 192.600 C 302.855 192.796,302.828 192.849,302.695 192.768 C 302.579 192.696,302.500 192.749,302.500 192.900 C 302.500 193.149,301.703 195.033,300.541 197.529 C 300.214 198.232,299.965 198.861,299.987 198.927 C 300.010 198.992,299.943 199.099,299.839 199.163 C 299.735 199.227,299.638 199.442,299.623 199.640 C 299.608 199.838,299.537 200.000,299.465 200.000 C 299.392 200.000,299.333 200.112,299.333 200.250 C 299.333 200.387,299.181 200.653,298.994 200.839 C 298.807 201.026,298.699 201.251,298.754 201.339 C 298.808 201.428,298.769 201.500,298.667 201.500 C 298.564 201.500,298.527 201.575,298.583 201.667 C 298.640 201.758,298.599 201.833,298.492 201.833 C 298.377 201.833,298.342 201.950,298.408 202.120 C 298.468 202.278,298.467 202.356,298.405 202.294 C 298.344 202.232,298.101 202.572,297.866 203.049 C 297.631 203.526,297.359 203.972,297.261 204.039 C 297.163 204.106,297.145 204.163,297.220 204.164 C 297.296 204.166,297.242 204.281,297.102 204.421 C 296.962 204.562,296.895 204.799,296.952 204.949 C 297.015 205.112,296.989 205.179,296.887 205.117 C 296.794 205.059,296.544 205.384,296.331 205.839 C 296.117 206.294,295.890 206.667,295.824 206.667 C 295.717 206.667,295.556 207.047,295.413 207.634 C 295.384 207.754,295.167 208.046,294.930 208.282 C 294.694 208.519,294.500 208.777,294.500 208.856 C 294.500 208.935,294.500 209.037,294.500 209.083 C 294.500 209.129,294.385 209.298,294.245 209.458 C 293.714 210.065,292.528 211.972,292.623 212.068 C 292.678 212.122,292.630 212.167,292.518 212.167 C 292.406 212.167,292.355 212.234,292.406 212.316 C 292.457 212.398,292.386 212.508,292.249 212.561 C 292.112 212.613,292.000 212.738,292.000 212.837 C 292.000 212.937,291.775 213.258,291.501 213.551 C 291.226 213.844,291.001 214.215,291.001 214.375 C 291.000 214.535,290.925 214.667,290.833 214.667 C 290.742 214.667,290.667 214.736,290.667 214.821 C 290.667 214.907,290.404 215.255,290.083 215.595 C 289.762 215.935,289.499 216.297,289.497 216.398 C 289.496 216.500,289.197 216.921,288.833 217.333 C 288.470 217.746,288.171 218.140,288.169 218.208 C 288.168 218.277,288.035 218.474,287.875 218.645 C 286.780 219.815,286.644 219.999,286.944 219.904 C 287.202 219.823,287.198 219.841,286.917 220.016 C 286.531 220.257,286.067 220.859,286.126 221.042 C 286.148 221.110,286.081 221.148,285.976 221.125 C 285.731 221.072,284.832 222.359,284.958 222.582 C 285.011 222.674,284.995 222.697,284.923 222.632 C 284.851 222.568,284.496 222.830,284.134 223.216 C 283.771 223.601,283.237 224.159,282.946 224.456 C 282.655 224.752,282.417 225.059,282.417 225.136 C 282.417 225.214,282.063 225.599,281.632 225.991 C 281.200 226.384,280.858 226.753,280.872 226.811 C 280.906 226.947,277.184 230.647,275.851 231.804 C 275.281 232.298,274.878 232.770,274.940 232.871 C 275.006 232.977,274.974 233.004,274.862 232.935 C 274.754 232.868,274.349 233.142,273.916 233.576 C 273.499 233.992,273.092 234.333,273.010 234.333 C 272.929 234.333,272.688 234.540,272.473 234.792 C 272.259 235.044,271.766 235.482,271.377 235.766 C 270.989 236.050,270.717 236.328,270.774 236.385 C 270.830 236.441,270.682 236.576,270.443 236.685 C 270.205 236.793,270.057 236.958,270.114 237.050 C 270.171 237.143,270.139 237.169,270.043 237.110 C 269.833 236.980,268.230 238.275,268.296 238.521 C 268.321 238.615,268.257 238.639,268.153 238.575 C 268.048 238.510,267.804 238.643,267.607 238.872 C 267.411 239.099,267.100 239.333,266.917 239.391 C 266.733 239.449,266.360 239.703,266.087 239.956 C 265.815 240.210,265.515 240.420,265.421 240.424 C 265.327 240.428,265.275 240.541,265.306 240.674 C 265.336 240.808,265.307 240.862,265.241 240.796 C 265.174 240.730,264.831 240.905,264.477 241.185 C 264.123 241.465,263.833 241.642,263.833 241.577 C 263.833 241.512,263.722 241.552,263.585 241.665 C 263.449 241.778,263.370 241.925,263.411 241.991 C 263.452 242.057,263.393 242.111,263.279 242.111 C 262.926 242.111,262.164 242.694,262.277 242.877 C 262.341 242.981,262.304 243.002,262.185 242.928 C 261.973 242.797,261.219 243.216,260.880 243.654 C 260.769 243.799,260.675 243.851,260.672 243.771 C 260.669 243.691,260.555 243.719,260.419 243.832 C 260.282 243.945,260.211 244.103,260.260 244.184 C 260.310 244.264,260.244 244.289,260.113 244.239 C 259.983 244.188,259.741 244.283,259.575 244.449 C 259.409 244.614,259.231 244.750,259.179 244.750 C 259.126 244.750,259.102 244.806,259.125 244.875 C 259.148 244.944,259.110 244.992,259.042 244.982 C 258.818 244.950,258.167 245.202,258.167 245.322 C 258.167 245.386,257.904 245.541,257.583 245.667 C 257.262 245.793,257.000 245.961,257.000 246.041 C 257.000 246.121,256.930 246.143,256.844 246.090 C 256.758 246.036,256.610 246.126,256.515 246.288 C 256.421 246.451,256.341 246.533,256.338 246.470 C 256.336 246.408,255.906 246.615,255.385 246.929 C 254.863 247.243,254.371 247.500,254.292 247.500 C 254.212 247.500,254.201 247.587,254.266 247.692 C 254.340 247.812,254.312 247.840,254.193 247.766 C 253.995 247.644,253.000 248.141,253.000 248.363 C 253.000 248.431,252.700 248.568,252.333 248.667 C 251.967 248.765,251.667 248.923,251.667 249.016 C 251.667 249.110,251.592 249.140,251.500 249.083 C 251.408 249.027,251.333 249.064,251.333 249.167 C 251.333 249.269,251.258 249.307,251.167 249.250 C 251.075 249.193,251.000 249.231,251.000 249.333 C 251.000 249.436,250.925 249.473,250.833 249.417 C 250.742 249.360,250.667 249.406,250.667 249.518 C 250.667 249.630,250.619 249.675,250.561 249.617 C 250.503 249.558,250.268 249.658,250.039 249.839 C 249.809 250.019,249.482 250.167,249.311 250.167 C 249.140 250.167,249.000 250.246,249.000 250.343 C 249.000 250.440,248.933 250.478,248.851 250.427 C 248.769 250.377,248.659 250.446,248.607 250.581 C 248.555 250.717,248.412 250.789,248.288 250.742 C 248.164 250.694,247.770 250.854,247.411 251.098 C 247.052 251.341,246.682 251.556,246.588 251.575 C 245.906 251.711,245.026 252.074,245.097 252.190 C 245.145 252.267,245.077 252.289,244.947 252.239 C 244.816 252.188,244.606 252.251,244.480 252.377 C 244.353 252.504,244.213 252.610,244.167 252.612 C 243.764 252.638,243.348 252.891,243.441 253.054 C 243.503 253.162,243.500 253.203,243.435 253.145 C 243.249 252.979,242.093 253.291,240.956 253.814 C 239.692 254.394,239.325 254.537,239.000 254.576 C 238.538 254.631,237.167 255.211,237.167 255.351 C 237.167 255.427,237.064 255.450,236.938 255.402 C 236.812 255.354,236.606 255.418,236.478 255.545 C 236.351 255.673,236.159 255.747,236.050 255.711 C 235.942 255.675,235.674 255.763,235.455 255.907 C 235.236 256.050,235.010 256.121,234.952 256.063 C 234.895 256.006,234.713 256.017,234.549 256.088 C 234.384 256.159,234.150 256.237,234.029 256.262 C 233.907 256.287,233.682 256.361,233.529 256.427 C 233.375 256.493,233.137 256.564,233.000 256.585 C 232.862 256.607,232.150 256.815,231.417 257.048 C 230.683 257.281,229.765 257.522,229.375 257.584 C 228.985 257.646,228.667 257.769,228.667 257.858 C 228.667 257.947,228.604 257.981,228.528 257.934 C 228.452 257.887,227.983 257.961,227.487 258.098 C 226.990 258.236,226.396 258.386,226.167 258.432 C 225.938 258.478,225.450 258.595,225.084 258.692 C 223.980 258.984,223.769 259.023,223.294 259.023 C 223.042 259.023,222.764 259.148,222.674 259.303 C 222.571 259.479,222.508 259.503,222.505 259.367 C 222.500 259.131,221.412 259.249,221.063 259.525 C 220.960 259.606,220.754 259.626,220.604 259.568 C 220.455 259.511,220.333 259.529,220.333 259.607 C 220.333 259.686,220.165 259.756,219.958 259.762 C 219.752 259.769,219.358 259.821,219.083 259.879 C 217.727 260.160,216.543 260.310,214.811 260.420 C 213.251 260.519,212.500 260.671,212.497 260.890 C 212.496 261.009,212.439 260.995,212.349 260.852 C 212.246 260.690,212.061 260.659,211.726 260.747 C 211.464 260.816,210.912 260.890,210.500 260.912 C 210.088 260.933,209.188 261.002,208.500 261.065 C 207.038 261.198,205.606 261.304,203.750 261.416 C 203.017 261.460,201.367 261.573,200.083 261.668 C 198.800 261.763,197.037 261.871,196.167 261.909 C 192.655 262.062,190.920 262.198,190.656 262.339 C 190.502 262.421,190.330 262.441,190.272 262.383 C 190.214 262.325,190.167 262.374,190.167 262.493 C 190.167 262.660,190.114 262.664,189.929 262.510 C 189.773 262.381,189.473 262.357,189.054 262.439 C 188.704 262.508,188.173 262.556,187.875 262.546 C 187.577 262.535,187.333 262.585,187.333 262.657 C 187.333 262.729,187.156 262.753,186.939 262.712 C 186.722 262.670,185.391 262.756,183.981 262.903 C 180.829 263.230,180.089 263.300,178.500 263.420 C 177.813 263.471,177.063 263.542,176.833 263.576 C 176.604 263.610,176.021 263.680,175.537 263.732 C 175.053 263.784,174.519 263.901,174.350 263.991 C 174.182 264.081,174.010 264.121,173.969 264.080 C 173.899 264.010,172.106 264.334,171.167 264.586 C 170.938 264.648,170.539 264.689,170.281 264.679 C 170.024 264.668,169.727 264.713,169.623 264.777 C 169.519 264.841,169.280 264.911,169.092 264.931 C 167.991 265.051,166.243 265.477,164.833 265.967 C 164.696 266.015,164.533 266.061,164.472 266.069 C 164.411 266.077,164.305 266.140,164.236 266.208 C 163.655 266.789,162.103 265.840,162.394 265.081 C 162.442 264.957,162.392 264.818,162.282 264.774 C 162.173 264.729,162.215 264.687,162.375 264.680 C 162.535 264.673,162.677 264.535,162.689 264.375 C 162.701 264.215,162.726 263.821,162.743 263.500 C 162.761 263.179,162.822 262.804,162.877 262.667 C 163.067 262.198,163.304 260.782,163.245 260.474 C 163.212 260.305,163.244 260.167,163.315 260.167 C 163.386 260.167,163.454 260.073,163.466 259.958 C 163.554 259.121,163.625 258.700,163.701 258.569 C 163.749 258.485,163.777 258.210,163.764 257.958 C 163.750 257.706,163.806 257.500,163.889 257.500 C 163.971 257.500,164.000 257.350,163.952 257.167 C 163.904 256.983,163.928 256.833,164.006 256.833 C 164.083 256.833,164.127 256.627,164.103 256.375 C 164.078 256.123,164.129 255.824,164.215 255.710 C 164.301 255.596,164.338 255.277,164.298 255.002 C 164.258 254.726,164.270 254.500,164.326 254.500 C 164.492 254.500,164.868 252.191,164.736 251.978 C 164.669 251.869,164.686 251.826,164.775 251.881 C 164.970 252.001,166.085 246.255,166.053 245.292 C 166.048 245.131,166.117 245.000,166.206 245.000 C 166.296 245.000,166.329 244.897,166.281 244.770 C 166.232 244.644,166.256 244.475,166.333 244.395 C 166.457 244.266,166.611 243.647,166.730 242.795 C 166.753 242.637,166.823 242.455,166.885 242.392 C 166.948 242.329,167.000 242.089,167.000 241.859 C 167.000 241.629,167.069 241.210,167.153 240.928 C 167.392 240.133,168.061 237.123,168.085 236.742 C 168.096 236.554,168.161 236.310,168.229 236.200 C 168.297 236.090,168.308 236.000,168.254 236.000 C 168.200 236.000,168.231 235.859,168.323 235.686 C 168.416 235.513,168.532 235.046,168.582 234.647 C 168.632 234.249,168.937 232.839,169.259 231.513 C 169.581 230.187,169.805 229.000,169.757 228.876 C 169.710 228.751,169.740 228.692,169.825 228.745 C 169.909 228.797,170.024 228.482,170.080 228.045 C 170.136 227.608,170.477 226.041,170.836 224.564 C 171.196 223.087,171.531 221.553,171.581 221.155 C 171.631 220.757,171.742 220.166,171.828 219.841 C 171.914 219.516,172.021 219.063,172.066 218.833 C 172.111 218.604,172.215 218.192,172.298 217.917 C 172.381 217.642,172.435 217.248,172.419 217.042 C 172.402 216.835,172.439 216.667,172.501 216.667 C 172.562 216.667,172.742 216.048,172.901 215.292 C 173.059 214.535,173.371 213.103,173.594 212.108 C 173.816 211.113,173.961 210.238,173.915 210.163 C 173.869 210.089,173.900 210.003,173.984 209.973 C 174.068 209.942,174.187 209.654,174.248 209.333 C 174.515 207.931,174.641 206.926,174.563 206.801 C 174.518 206.727,174.560 206.667,174.657 206.667 C 174.754 206.667,174.820 206.610,174.804 206.542 C 174.788 206.473,174.866 206.097,174.977 205.707 C 175.089 205.316,175.162 204.904,175.139 204.790 C 175.116 204.676,175.194 204.407,175.313 204.191 C 175.432 203.976,175.553 203.526,175.581 203.191 C 175.608 202.857,175.716 202.369,175.819 202.106 C 175.922 201.844,175.991 201.544,175.972 201.440 C 175.953 201.335,176.001 200.987,176.079 200.667 C 176.156 200.346,176.239 199.933,176.263 199.750 C 176.286 199.567,176.318 199.417,176.332 199.417 C 176.369 199.417,176.507 198.829,176.580 198.357 C 176.614 198.141,176.716 197.766,176.806 197.523 C 177.029 196.930,177.334 195.615,177.508 194.500 C 177.641 193.649,177.711 193.281,177.905 192.417 C 177.947 192.233,178.176 191.345,178.415 190.443 C 178.653 189.540,178.831 188.678,178.809 188.526 C 178.787 188.374,178.818 188.100,178.878 187.917 C 178.938 187.733,179.023 187.371,179.068 187.112 C 179.113 186.853,179.225 186.403,179.319 186.112 C 179.412 185.821,179.525 185.396,179.570 185.167 C 179.616 184.938,179.773 184.310,179.920 183.772 C 180.067 183.234,180.148 182.690,180.099 182.564 C 180.050 182.437,180.073 182.333,180.150 182.333 C 180.227 182.333,180.350 181.865,180.423 181.292 C 180.554 180.260,180.586 180.078,180.667 179.917 C 180.690 179.871,180.719 179.702,180.732 179.542 C 180.745 179.381,180.806 179.170,180.869 179.072 C 180.931 178.974,181.019 178.711,181.064 178.488 C 181.109 178.266,181.229 177.708,181.332 177.250 C 181.434 176.792,181.545 176.267,181.578 176.083 C 181.612 175.900,181.657 175.713,181.678 175.667 C 181.700 175.621,181.730 175.508,181.745 175.417 C 181.938 174.259,182.113 173.464,182.515 171.926 C 182.777 170.923,182.956 170.067,182.913 170.025 C 182.871 169.982,182.919 169.848,183.020 169.726 C 183.121 169.604,183.161 169.393,183.109 169.257 C 183.057 169.122,183.081 168.969,183.163 168.919 C 183.244 168.869,183.311 168.623,183.311 168.372 C 183.310 168.122,183.357 167.729,183.415 167.500 C 183.472 167.271,183.538 167.008,183.562 166.917 C 183.585 166.825,183.652 166.600,183.712 166.417 C 183.822 166.079,183.982 165.360,184.083 164.750 C 184.114 164.567,184.151 164.417,184.166 164.417 C 184.193 164.417,184.277 164.091,184.445 163.333 C 184.496 163.104,184.557 162.692,184.580 162.417 C 184.618 161.963,184.765 161.332,185.162 159.917 C 185.239 159.642,185.390 159.004,185.497 158.500 C 185.605 157.996,185.770 157.328,185.866 157.017 C 186.186 155.974,186.321 151.945,186.124 149.327 C 186.022 147.974,185.978 147.723,185.725 147.042 C 185.665 146.881,185.591 146.618,185.559 146.457 C 185.528 146.296,185.309 145.696,185.072 145.124 C 184.836 144.552,184.613 143.939,184.575 143.762 C 184.538 143.586,184.412 143.381,184.296 143.306 C 184.179 143.232,184.146 143.171,184.222 143.169 C 184.344 143.167,183.748 142.049,183.509 141.833 C 183.458 141.787,183.392 141.637,183.362 141.500 C 183.333 141.362,183.239 141.225,183.154 141.194 C 183.069 141.164,183.000 141.046,183.000 140.933 C 183.000 140.820,182.738 140.432,182.417 140.072 C 182.096 139.712,181.834 139.355,181.833 139.279 C 181.833 139.083,179.780 136.837,179.598 136.835 C 179.515 136.834,179.252 136.627,179.015 136.375 C 178.447 135.771,177.744 135.194,177.898 135.458 C 178.110 135.821,177.881 135.685,177.252 135.075 C 176.917 134.749,176.479 134.412,176.280 134.325 C 176.080 134.238,175.804 134.101,175.667 134.019 C 174.812 133.511,173.700 133.022,173.608 133.114 C 173.549 133.174,173.500 133.150,173.500 133.061 C 173.500 132.900,172.670 132.546,171.983 132.413 C 171.782 132.375,171.363 132.259,171.052 132.156 C 170.741 132.054,170.373 132.013,170.234 132.066 C 170.096 132.119,170.024 132.096,170.075 132.013 C 170.321 131.616,164.821 131.181,164.343 131.560 C 164.153 131.710,164.132 131.702,164.242 131.519 C 164.378 131.293,163.883 131.314,162.443 131.595 C 162.245 131.634,161.821 131.710,161.500 131.764 C 160.844 131.876,159.048 132.317,158.667 132.460 C 158.328 132.588,158.314 132.592,157.792 132.740 C 157.540 132.811,157.333 132.936,157.333 133.018 C 157.333 133.100,157.223 133.167,157.088 133.167 C 156.666 133.167,155.345 133.883,155.451 134.055 C 155.507 134.146,155.466 134.165,155.359 134.099 C 155.129 133.957,154.147 134.501,154.271 134.701 C 154.319 134.778,154.296 134.821,154.221 134.797 C 153.969 134.715,152.829 135.525,152.941 135.707 C 153.008 135.814,152.972 135.836,152.852 135.761 C 152.618 135.617,152.128 135.969,152.262 136.186 C 152.312 136.267,152.236 136.333,152.093 136.333 C 151.950 136.333,151.833 136.408,151.833 136.500 C 151.833 136.592,151.740 136.648,151.625 136.625 C 151.510 136.602,151.442 136.696,151.472 136.833 C 151.503 136.971,151.471 137.026,151.401 136.957 C 151.241 136.796,150.500 137.481,150.500 137.789 C 150.500 137.916,150.433 137.979,150.352 137.928 C 150.202 137.835,149.030 139.149,149.065 139.372 C 149.075 139.439,148.910 139.615,148.697 139.764 C 148.474 139.920,148.350 140.137,148.404 140.276 C 148.455 140.411,148.423 140.472,148.331 140.415 C 148.241 140.359,148.167 140.396,148.167 140.497 C 148.167 140.599,147.986 140.876,147.765 141.115 C 147.536 141.361,147.404 141.658,147.460 141.802 C 147.523 141.967,147.489 142.013,147.362 141.934 C 147.187 141.826,147.091 142.023,147.147 142.375 C 147.158 142.444,147.087 142.500,146.990 142.500 C 146.893 142.500,146.860 142.575,146.917 142.667 C 146.973 142.758,146.928 142.833,146.815 142.833 C 146.703 142.833,146.658 142.880,146.714 142.937 C 146.771 142.993,146.709 143.149,146.575 143.282 C 146.442 143.415,146.333 143.710,146.333 143.938 C 146.333 144.166,146.272 144.315,146.197 144.269 C 146.065 144.187,145.640 145.153,145.581 145.667 C 145.565 145.804,145.458 146.253,145.342 146.665 C 145.227 147.077,145.106 147.622,145.074 147.877 C 145.041 148.132,144.970 148.414,144.915 148.503 C 144.860 148.592,144.789 148.797,144.757 148.958 C 144.725 149.118,144.575 149.730,144.422 150.317 C 144.217 151.104,144.195 151.414,144.336 151.502 C 144.467 151.583,144.438 151.655,144.245 151.729 C 144.033 151.810,144.008 151.892,144.144 152.056 C 144.251 152.185,144.264 152.338,144.176 152.429 C 143.969 152.643,143.311 155.496,143.426 155.682 C 143.478 155.765,143.452 155.833,143.369 155.833 C 143.161 155.833,142.600 158.591,142.757 158.845 C 142.833 158.967,142.816 159.009,142.718 158.948 C 142.565 158.854,142.530 159.025,142.442 160.292 C 142.428 160.498,142.373 160.667,142.319 160.667 C 142.266 160.667,142.218 160.760,142.212 160.875 C 142.207 160.990,142.085 161.533,141.940 162.083 C 141.796 162.633,141.642 163.271,141.598 163.500 C 141.553 163.729,141.476 164.085,141.425 164.292 C 141.257 164.978,141.207 165.243,141.069 166.167 C 140.994 166.671,140.938 167.215,140.945 167.375 C 140.951 167.535,140.904 167.667,140.839 167.667 C 140.775 167.667,140.713 167.760,140.702 167.875 C 140.690 167.990,140.454 168.983,140.176 170.083 C 139.898 171.183,139.701 172.289,139.737 172.541 C 139.774 172.793,139.730 173.044,139.641 173.099 C 139.551 173.155,139.514 173.296,139.559 173.413 C 139.604 173.530,139.577 173.691,139.500 173.771 C 139.340 173.937,138.797 176.356,138.769 177.026 C 138.759 177.270,138.704 177.440,138.647 177.405 C 138.590 177.369,138.469 177.711,138.380 178.164 C 138.290 178.618,138.280 178.949,138.358 178.901 C 138.436 178.854,138.422 179.016,138.328 179.264 C 138.234 179.511,138.194 179.750,138.239 179.794 C 138.283 179.839,138.221 180.072,138.100 180.313 C 137.979 180.553,137.836 181.012,137.781 181.333 C 137.686 181.897,137.586 182.348,137.421 182.958 C 137.109 184.117,136.998 184.755,137.074 184.953 C 137.123 185.080,137.089 185.138,136.998 185.082 C 136.907 185.026,136.820 185.172,136.804 185.407 C 136.734 186.438,136.683 186.782,136.528 187.279 C 136.438 187.570,136.405 187.850,136.456 187.900 C 136.506 187.951,136.467 188.089,136.368 188.209 C 136.269 188.328,136.210 188.628,136.237 188.875 C 136.264 189.122,136.222 189.284,136.143 189.236 C 136.064 189.187,135.989 189.320,135.975 189.532 C 135.941 190.043,135.908 190.196,135.758 190.542 C 135.688 190.702,135.676 190.950,135.730 191.092 C 135.785 191.234,135.723 191.516,135.594 191.717 C 135.464 191.919,135.372 192.364,135.390 192.707 C 135.408 193.051,135.372 193.351,135.310 193.374 C 135.247 193.397,135.156 193.642,135.107 193.917 C 135.057 194.192,134.870 194.979,134.691 195.667 C 134.512 196.354,134.324 197.142,134.273 197.417 C 134.223 197.692,134.110 198.217,134.022 198.583 C 133.870 199.222,133.477 201.312,133.411 201.833 C 133.394 201.971,133.335 202.196,133.280 202.333 C 133.016 202.997,132.633 204.818,132.639 205.378 C 132.644 205.797,132.584 205.969,132.461 205.893 C 132.344 205.820,132.313 205.874,132.377 206.041 C 132.433 206.185,132.374 206.697,132.247 207.180 C 132.119 207.662,132.051 208.114,132.094 208.183 C 132.137 208.253,132.095 208.358,132.000 208.417 C 131.905 208.475,131.869 208.590,131.919 208.671 C 131.969 208.752,131.907 209.066,131.781 209.368 C 131.655 209.670,131.503 210.179,131.442 210.500 C 131.382 210.821,131.289 211.271,131.236 211.500 C 131.183 211.729,131.109 212.142,131.072 212.417 C 130.969 213.173,130.585 214.919,130.177 216.489 C 129.975 217.262,129.845 218.027,129.888 218.189 C 129.930 218.351,129.888 218.510,129.795 218.541 C 129.701 218.572,129.600 218.894,129.569 219.257 C 129.481 220.296,129.317 221.169,129.116 221.667 C 129.061 221.804,128.980 222.142,128.936 222.417 C 128.891 222.692,128.776 223.177,128.678 223.496 C 128.581 223.815,128.547 224.218,128.602 224.392 C 128.674 224.619,128.643 224.672,128.492 224.578 C 128.357 224.495,128.323 224.516,128.399 224.637 C 128.463 224.741,128.443 224.962,128.354 225.127 C 128.209 225.399,128.107 225.908,127.924 227.286 C 127.890 227.541,127.710 228.313,127.523 229.000 C 127.337 229.688,127.148 230.475,127.102 230.750 C 127.057 231.025,126.934 231.541,126.829 231.897 C 126.725 232.252,126.676 232.684,126.721 232.855 C 126.766 233.027,126.746 233.132,126.676 233.089 C 126.607 233.046,126.542 233.215,126.531 233.464 C 126.520 233.713,126.474 234.067,126.429 234.250 C 125.938 236.233,125.844 236.716,125.925 236.847 C 125.977 236.931,125.940 237.000,125.843 237.000 C 125.596 237.000,125.622 237.454,125.875 237.556 C 125.996 237.605,125.957 237.646,125.782 237.654 C 125.542 237.664,125.496 237.769,125.559 238.168 C 125.610 238.494,125.576 238.631,125.461 238.560 C 125.348 238.489,125.315 238.605,125.368 238.887 C 125.414 239.127,125.399 239.291,125.334 239.251 C 125.270 239.211,125.211 239.392,125.204 239.653 C 125.196 239.914,125.106 240.438,125.004 240.818 C 124.902 241.197,124.864 241.581,124.919 241.671 C 124.974 241.760,124.950 241.833,124.864 241.833 C 124.723 241.833,124.414 243.070,124.478 243.382 C 124.492 243.454,124.428 243.656,124.335 243.830 C 124.219 244.047,124.221 244.181,124.343 244.256 C 124.458 244.327,124.431 244.432,124.264 244.558 C 124.033 244.731,123.885 245.306,123.761 246.500 C 123.738 246.729,123.671 247.104,123.613 247.333 C 122.895 250.167,122.498 252.028,122.583 252.165 C 122.640 252.258,122.601 252.333,122.496 252.333 C 122.391 252.333,122.339 252.427,122.380 252.542 C 122.421 252.656,122.390 252.877,122.310 253.032 C 122.222 253.205,122.233 253.355,122.341 253.421 C 122.463 253.497,122.461 253.596,122.336 253.747 C 122.237 253.866,122.120 254.216,122.077 254.523 C 121.967 255.302,121.914 255.512,121.684 256.073 C 121.574 256.342,121.503 256.717,121.525 256.906 C 121.548 257.095,121.486 257.400,121.389 257.583 C 121.115 258.097,120.788 259.641,120.894 259.919 C 120.947 260.055,120.909 260.167,120.810 260.167 C 120.712 260.167,120.671 260.272,120.721 260.400 C 120.770 260.529,120.709 260.973,120.584 261.386 C 120.460 261.800,120.319 262.351,120.270 262.611 C 120.222 262.871,120.066 263.558,119.924 264.139 C 119.781 264.719,119.707 265.263,119.759 265.347 C 119.810 265.431,119.774 265.500,119.677 265.500 C 119.579 265.500,119.513 265.556,119.529 265.625 C 119.576 265.835,119.330 267.381,119.150 268.000 C 119.057 268.321,118.957 268.771,118.929 269.000 C 118.901 269.229,118.826 269.537,118.763 269.685 C 118.700 269.833,118.625 270.133,118.596 270.352 C 118.568 270.571,118.489 270.881,118.421 271.042 C 118.353 271.202,118.339 271.441,118.389 271.573 C 118.440 271.704,118.406 271.837,118.314 271.867 C 118.222 271.898,118.133 272.233,118.115 272.612 C 118.098 272.990,118.027 273.266,117.958 273.224 C 117.851 273.158,117.771 273.877,117.775 274.875 C 117.776 275.035,117.702 275.167,117.610 275.167 C 117.519 275.167,117.484 275.206,117.532 275.254 C 117.580 275.302,117.484 275.831,117.318 276.429 C 117.152 277.027,117.058 277.625,117.109 277.758 C 117.161 277.891,117.124 278.000,117.028 278.000 C 116.848 278.000,116.570 279.360,116.645 279.875 C 116.668 280.035,116.619 280.167,116.534 280.167 C 116.450 280.167,116.380 280.373,116.377 280.625 C 116.373 281.204,116.259 281.883,116.131 282.090 C 116.077 282.178,115.990 282.512,115.937 282.833 C 115.884 283.154,115.767 283.671,115.676 283.982 C 115.584 284.293,115.546 284.607,115.591 284.679 C 115.636 284.751,115.603 284.853,115.517 284.906 C 115.432 284.958,115.383 285.187,115.408 285.413 C 115.433 285.639,115.404 285.793,115.343 285.756 C 115.232 285.687,114.651 288.618,114.575 289.629 C 114.552 289.929,114.441 290.287,114.327 290.425 C 114.212 290.562,114.167 290.722,114.225 290.780 C 114.283 290.838,114.247 290.986,114.146 291.109 C 114.044 291.231,113.999 291.478,114.046 291.658 C 114.093 291.837,114.071 292.006,113.997 292.034 C 113.924 292.061,113.826 292.322,113.781 292.615 C 113.736 292.907,113.643 293.237,113.574 293.349 C 113.494 293.478,113.518 293.508,113.641 293.433 C 113.747 293.367,113.833 293.393,113.833 293.490 C 113.833 293.587,113.755 293.667,113.659 293.667 C 113.564 293.667,113.503 293.760,113.524 293.875 C 113.545 293.990,113.504 294.333,113.432 294.638 C 113.360 294.943,113.271 295.374,113.234 295.596 C 113.074 296.555,113.021 296.777,112.837 297.250 C 112.731 297.525,112.656 297.750,112.673 297.750 C 112.689 297.750,112.619 298.058,112.518 298.434 C 112.417 298.810,112.320 299.335,112.303 299.601 C 112.287 299.866,112.198 300.183,112.105 300.304 C 111.988 300.460,112.009 300.570,112.177 300.677 C 112.309 300.760,112.335 300.829,112.236 300.831 C 112.137 300.832,112.050 300.927,112.043 301.042 C 112.036 301.156,111.946 301.625,111.842 302.083 C 111.738 302.542,111.622 303.110,111.583 303.347 C 111.545 303.584,111.440 303.970,111.350 304.205 C 111.261 304.440,111.231 304.676,111.284 304.729 C 111.337 304.782,111.294 304.930,111.188 305.058 C 111.082 305.186,110.977 305.581,110.956 305.937 C 110.934 306.292,110.861 306.625,110.793 306.676 C 110.725 306.727,110.628 307.177,110.577 307.676 C 110.469 308.738,110.423 308.982,110.255 309.375 C 110.187 309.535,110.176 309.783,110.230 309.925 C 110.291 310.083,110.261 310.141,110.154 310.075 C 110.057 310.015,109.996 310.068,110.019 310.192 C 110.042 310.315,109.974 310.712,109.868 311.074 C 109.762 311.435,109.711 311.766,109.753 311.809 C 109.796 311.851,109.748 311.986,109.647 312.108 C 109.545 312.229,109.506 312.443,109.559 312.581 C 109.613 312.720,109.588 312.833,109.505 312.833 C 109.422 312.833,109.353 312.965,109.351 313.125 C 109.348 313.482,109.217 314.385,109.054 315.167 C 108.988 315.487,108.919 315.825,108.903 315.917 C 108.886 316.008,108.858 316.121,108.840 316.167 C 108.823 316.212,108.771 316.438,108.725 316.667 C 108.620 317.184,108.603 317.250,108.352 318.135 C 108.172 318.769,108.074 319.253,107.938 320.170 C 107.918 320.309,107.855 320.496,107.800 320.587 C 107.744 320.677,107.678 321.088,107.654 321.500 C 107.629 321.913,107.549 322.373,107.475 322.524 C 107.401 322.674,107.303 323.049,107.256 323.357 C 107.210 323.665,107.058 324.327,106.919 324.827 C 106.780 325.328,106.712 325.882,106.768 326.057 C 106.841 326.287,106.810 326.339,106.656 326.244 C 106.508 326.152,106.473 326.190,106.542 326.369 C 106.596 326.510,106.565 326.701,106.473 326.793 C 106.381 326.885,106.293 327.382,106.278 327.897 C 106.263 328.412,106.201 328.833,106.142 328.833 C 106.082 328.833,106.049 329.057,106.068 329.330 C 106.087 329.604,106.046 329.847,105.977 329.872 C 105.909 329.897,105.816 330.122,105.771 330.372 C 105.726 330.623,105.635 330.916,105.569 331.023 C 105.490 331.150,105.521 331.173,105.658 331.089 C 105.825 330.986,105.825 331.037,105.659 331.347 C 105.330 331.963,105.008 333.333,105.194 333.333 C 105.284 333.333,105.233 333.458,105.081 333.610 C 104.919 333.772,104.836 334.049,104.880 334.280 C 104.921 334.497,104.890 334.715,104.811 334.764 C 104.732 334.813,104.667 335.042,104.667 335.274 C 104.667 335.505,104.512 336.302,104.322 337.045 C 104.132 337.787,104.013 338.531,104.056 338.698 C 104.100 338.864,104.079 338.965,104.010 338.923 C 103.881 338.843,103.559 340.081,103.416 341.205 C 103.328 341.887,103.153 342.714,102.658 344.776 C 102.479 345.524,102.382 346.267,102.444 346.428 C 102.524 346.636,102.496 346.684,102.351 346.594 C 102.222 346.514,102.160 346.551,102.185 346.692 C 102.207 346.815,102.134 347.237,102.022 347.629 C 101.910 348.021,101.854 348.399,101.897 348.469 C 101.941 348.539,101.841 349.100,101.676 349.715 C 101.472 350.476,101.436 350.834,101.563 350.836 C 101.696 350.838,101.694 350.874,101.557 350.961 C 101.368 351.082,100.934 352.560,100.778 353.615 C 100.734 353.907,100.651 354.224,100.592 354.319 C 100.533 354.414,100.457 354.925,100.423 355.454 C 100.388 355.984,100.277 356.633,100.175 356.898 C 100.074 357.163,100.030 357.419,100.077 357.466 C 100.125 357.514,100.093 357.638,100.006 357.743 C 99.920 357.847,99.812 358.191,99.768 358.508 C 99.723 358.824,99.611 359.383,99.520 359.750 C 99.272 360.741,99.145 361.359,99.076 361.917 C 98.995 362.565,98.746 363.729,98.414 365.012 C 98.268 365.576,98.189 366.078,98.239 366.128 C 98.289 366.178,98.264 366.301,98.183 366.401 C 97.993 366.635,97.524 369.025,97.477 370.000 C 97.458 370.412,97.388 370.825,97.323 370.917 C 96.891 371.523,96.770 376.475,97.153 377.795 C 97.241 378.094,97.317 378.376,97.323 378.420 C 97.328 378.464,97.338 378.519,97.343 378.542 C 97.349 378.565,97.390 378.956,97.435 379.412 C 97.479 379.867,97.597 380.290,97.696 380.351 C 97.795 380.413,97.825 380.545,97.764 380.645 C 97.702 380.745,97.746 380.997,97.861 381.205 C 97.977 381.413,98.075 381.621,98.079 381.667 C 98.105 381.939,98.563 382.833,98.677 382.833 C 98.751 382.833,98.807 382.965,98.800 383.125 C 98.782 383.553,99.130 384.333,99.339 384.333 C 99.438 384.333,99.476 384.404,99.423 384.490 C 99.370 384.576,99.496 384.812,99.705 385.015 C 99.913 385.217,99.971 385.328,99.833 385.262 C 99.696 385.196,99.733 385.263,99.917 385.411 C 100.100 385.560,100.259 385.753,100.271 385.841 C 100.282 385.928,100.301 386.070,100.313 386.156 C 100.324 386.242,100.615 386.627,100.958 387.012 C 102.761 389.031,103.224 389.484,103.380 389.388 C 103.474 389.329,103.504 389.358,103.446 389.452 C 103.389 389.546,103.489 389.756,103.671 389.920 C 103.852 390.084,104.000 390.167,104.000 390.103 C 104.000 390.040,104.233 390.253,104.517 390.577 C 104.801 390.901,105.095 391.128,105.169 391.082 C 105.244 391.036,105.330 391.055,105.361 391.124 C 105.544 391.537,108.530 393.167,109.105 393.167 C 109.230 393.167,109.333 393.236,109.333 393.320 C 109.333 393.472,111.190 394.129,111.667 394.146 C 112.694 394.181,114.385 394.409,114.600 394.542 C 115.281 394.963,121.098 395.102,121.728 394.712 C 121.823 394.653,122.130 394.581,122.409 394.552 C 122.688 394.523,123.109 394.421,123.345 394.325 C 123.580 394.230,123.977 394.136,124.226 394.116 C 124.476 394.097,124.751 393.970,124.837 393.832 C 124.944 393.664,124.996 393.651,124.997 393.793 C 124.999 393.938,125.091 393.957,125.292 393.856 C 126.369 393.313,127.834 392.667,127.986 392.667 C 128.085 392.667,128.167 392.587,128.167 392.490 C 128.167 392.393,128.242 392.360,128.333 392.417 C 128.425 392.473,128.500 392.436,128.500 392.333 C 128.500 392.231,128.562 392.185,128.638 392.232 C 128.714 392.279,129.033 392.113,129.346 391.864 C 129.660 391.614,130.126 391.303,130.381 391.174 C 130.636 391.044,130.809 390.843,130.764 390.727 C 130.714 390.597,130.776 390.552,130.925 390.610 C 131.074 390.667,131.167 390.600,131.167 390.434 C 131.167 390.287,131.262 390.167,131.379 390.167 C 131.719 390.167,132.847 389.157,132.726 388.961 C 132.665 388.862,132.692 388.830,132.787 388.888 C 132.881 388.946,133.211 388.686,133.521 388.310 C 133.830 387.935,134.281 387.392,134.522 387.105 C 134.763 386.818,135.101 386.348,135.272 386.060 C 135.443 385.772,135.826 385.128,136.122 384.628 C 136.418 384.129,136.688 383.577,136.722 383.402 C 136.756 383.227,136.994 382.639,137.250 382.096 C 137.507 381.553,137.725 380.904,137.734 380.654 C 137.743 380.404,137.817 380.241,137.899 380.291 C 137.981 380.342,138.011 380.186,137.965 379.946 C 137.919 379.706,137.937 379.544,138.005 379.586 C 138.073 379.628,138.134 379.232,138.140 378.706 C 138.153 377.674,138.219 377.227,138.484 376.356 C 138.577 376.048,138.648 375.748,138.641 375.690 C 138.633 375.631,138.642 375.546,138.660 375.500 C 138.861 374.983,139.450 372.172,139.373 372.095 C 139.325 372.047,139.370 371.907,139.472 371.784 C 139.574 371.661,139.654 371.340,139.649 371.072 C 139.641 370.569,139.972 368.935,140.405 367.347 C 140.541 366.850,140.616 366.386,140.573 366.317 C 140.530 366.247,140.578 366.138,140.681 366.075 C 140.789 366.008,140.826 365.755,140.769 365.472 C 140.714 365.195,140.738 365.024,140.824 365.077 C 140.907 365.129,141.027 364.739,141.090 364.211 C 141.152 363.682,141.343 362.654,141.514 361.926 C 141.685 361.198,141.789 360.567,141.747 360.525 C 141.704 360.482,141.736 360.365,141.817 360.265 C 141.899 360.165,142.014 359.783,142.073 359.417 C 142.133 359.050,142.215 358.600,142.256 358.417 C 142.297 358.233,142.369 357.821,142.414 357.500 C 142.460 357.179,142.616 356.392,142.761 355.750 C 142.906 355.108,143.055 354.349,143.092 354.062 C 143.129 353.775,143.235 353.342,143.328 353.098 C 143.420 352.854,143.484 352.601,143.469 352.536 C 143.453 352.470,143.533 352.094,143.646 351.700 C 143.758 351.306,143.801 350.828,143.741 350.638 C 143.674 350.427,143.696 350.331,143.796 350.394 C 143.892 350.453,143.969 350.237,143.981 349.873 C 144.007 349.024,144.067 348.599,144.172 348.500 C 144.256 348.420,145.063 345.153,145.242 344.167 C 145.267 344.029,145.332 343.804,145.387 343.667 C 145.442 343.529,145.515 343.192,145.550 342.917 C 145.585 342.642,145.700 342.206,145.806 341.947 C 145.913 341.689,146.000 341.404,146.000 341.314 C 146.000 341.224,146.122 340.913,146.272 340.624 C 146.422 340.335,146.562 339.907,146.585 339.674 C 146.607 339.441,146.776 338.912,146.959 338.500 C 147.143 338.087,147.489 337.311,147.729 336.774 C 147.968 336.237,148.116 335.719,148.056 335.623 C 147.997 335.527,148.026 335.496,148.121 335.555 C 148.264 335.644,148.519 334.941,148.482 334.559 C 148.476 334.501,148.542 334.408,148.629 334.352 C 148.831 334.221,149.413 333.123,149.368 332.958 C 149.349 332.890,149.403 332.833,149.487 332.833 C 149.572 332.833,149.733 332.552,149.845 332.208 C 149.957 331.865,150.094 331.546,150.151 331.500 C 150.412 331.287,151.170 329.975,150.973 330.077 C 150.851 330.140,150.881 330.084,151.042 329.952 C 151.202 329.821,151.333 329.638,151.333 329.547 C 151.333 329.455,151.591 329.055,151.906 328.657 C 152.221 328.259,152.441 327.873,152.396 327.800 C 152.351 327.727,152.380 327.667,152.462 327.667 C 152.544 327.667,152.717 327.460,152.847 327.208 C 152.977 326.956,153.212 326.607,153.369 326.433 C 153.526 326.259,153.609 326.041,153.552 325.949 C 153.495 325.857,153.532 325.833,153.634 325.896 C 153.742 325.963,153.935 325.784,154.099 325.464 C 154.254 325.163,154.463 324.862,154.565 324.794 C 154.667 324.727,154.691 324.671,154.619 324.669 C 154.547 324.668,154.756 324.432,155.083 324.144 C 155.410 323.857,155.641 323.585,155.596 323.540 C 155.551 323.495,155.755 323.216,156.049 322.919 C 156.343 322.622,156.844 322.050,157.163 321.648 C 157.482 321.246,158.194 320.484,158.746 319.956 C 159.298 319.428,159.725 318.903,159.694 318.790 C 159.664 318.676,159.690 318.635,159.753 318.697 C 159.856 318.801,160.161 318.561,161.477 317.343 C 161.719 317.119,161.896 316.869,161.871 316.789 C 161.846 316.708,161.902 316.689,161.996 316.747 C 162.090 316.806,162.167 316.774,162.167 316.677 C 162.167 316.579,162.271 316.500,162.397 316.500 C 162.524 316.500,162.751 316.312,162.901 316.083 C 163.051 315.854,163.278 315.667,163.406 315.667 C 163.533 315.667,163.826 315.442,164.058 315.167 C 164.289 314.892,164.540 314.667,164.616 314.667 C 164.692 314.667,164.959 314.476,165.210 314.243 C 165.461 314.010,165.667 313.860,165.667 313.909 C 165.667 313.987,166.754 313.215,167.528 312.586 C 167.680 312.462,167.847 312.403,167.899 312.454 C 167.950 312.506,168.039 312.425,168.097 312.275 C 168.154 312.125,168.269 312.044,168.352 312.095 C 168.435 312.146,168.546 312.074,168.599 311.935 C 168.652 311.797,169.027 311.557,169.431 311.402 C 169.836 311.248,170.168 311.075,170.169 311.019 C 170.170 310.963,170.470 310.773,170.835 310.598 C 171.201 310.423,171.500 310.225,171.500 310.158 C 171.500 310.091,171.696 309.987,171.936 309.927 C 172.176 309.866,173.115 309.414,174.022 308.921 C 174.929 308.428,175.627 308.096,175.573 308.183 C 175.478 308.337,177.001 307.675,177.167 307.491 C 177.251 307.397,178.311 306.940,178.542 306.898 C 178.610 306.885,178.723 306.857,178.792 306.835 C 178.860 306.813,178.992 306.783,179.083 306.768 C 179.760 306.657,180.323 306.451,180.253 306.339 C 180.208 306.265,180.263 306.213,180.377 306.223 C 180.718 306.253,182.667 305.633,182.667 305.494 C 182.667 305.423,182.816 305.403,182.998 305.451 C 183.179 305.499,183.461 305.480,183.623 305.410 C 183.952 305.267,184.114 305.229,184.552 305.192 C 184.717 305.178,184.817 305.108,184.773 305.037 C 184.729 304.965,184.893 304.916,185.138 304.927 C 185.383 304.938,185.958 304.843,186.417 304.716 C 186.875 304.588,187.547 304.445,187.910 304.397 C 188.272 304.349,188.632 304.271,188.709 304.224 C 188.786 304.176,189.727 304.069,190.799 303.985 C 191.872 303.901,192.975 303.801,193.250 303.762 C 193.525 303.724,194.463 303.647,195.333 303.591 C 196.204 303.535,197.029 303.449,197.167 303.400 C 197.304 303.351,198.054 303.275,198.833 303.231 C 199.612 303.186,200.925 303.075,201.750 302.983 C 202.575 302.890,203.625 302.792,204.083 302.764 C 204.542 302.736,205.742 302.654,206.750 302.581 C 207.758 302.509,209.090 302.453,209.708 302.457 C 210.327 302.461,210.833 302.416,210.833 302.357 C 210.833 302.298,211.189 302.265,211.625 302.284 C 212.297 302.312,215.683 301.974,216.750 301.772 C 216.933 301.737,217.533 301.648,218.083 301.575 C 218.633 301.501,219.121 301.432,219.167 301.421 C 219.576 301.321,220.962 301.149,221.900 301.082 C 222.532 301.037,223.139 300.925,223.249 300.835 C 223.358 300.744,223.487 300.709,223.535 300.757 C 223.619 300.841,227.235 300.162,228.561 299.813 C 228.916 299.720,229.419 299.637,229.681 299.630 C 229.942 299.622,230.118 299.557,230.073 299.484 C 230.028 299.410,230.137 299.379,230.315 299.413 C 230.627 299.473,231.957 299.179,234.417 298.506 C 235.058 298.330,235.808 298.150,236.083 298.106 C 237.178 297.930,237.667 297.784,237.667 297.636 C 237.667 297.550,237.735 297.522,237.818 297.574 C 237.901 297.625,238.670 297.434,239.526 297.149 C 240.383 296.865,241.271 296.614,241.500 296.592 C 241.729 296.570,242.015 296.540,242.135 296.526 C 242.255 296.512,242.300 296.413,242.234 296.308 C 242.160 296.187,242.188 296.160,242.311 296.236 C 242.500 296.353,244.072 295.924,244.417 295.663 C 244.508 295.593,244.997 295.451,245.503 295.348 C 246.008 295.244,246.622 295.055,246.866 294.929 C 247.111 294.802,247.542 294.647,247.824 294.585 C 248.106 294.524,248.301 294.416,248.259 294.348 C 248.216 294.279,248.272 294.218,248.382 294.212 C 248.850 294.189,250.780 293.618,251.119 293.402 C 251.322 293.272,251.571 293.167,251.671 293.167 C 251.772 293.167,252.246 292.981,252.726 292.754 C 253.205 292.527,253.744 292.318,253.924 292.288 C 254.497 292.194,255.833 291.627,255.833 291.477 C 255.833 291.398,255.890 291.349,255.958 291.368 C 256.133 291.416,257.792 290.771,259.257 290.085 C 259.933 289.769,260.677 289.462,260.910 289.403 C 261.143 289.345,261.333 289.218,261.333 289.121 C 261.333 289.024,261.382 288.993,261.442 289.053 C 261.502 289.113,261.633 289.051,261.734 288.916 C 261.834 288.782,262.479 288.478,263.167 288.242 C 263.854 288.006,264.499 287.706,264.600 287.576 C 264.701 287.445,264.832 287.387,264.891 287.447 C 264.951 287.507,265.000 287.464,265.000 287.351 C 265.000 287.239,265.075 287.193,265.167 287.250 C 265.258 287.307,265.333 287.269,265.333 287.167 C 265.333 287.064,265.406 287.025,265.494 287.080 C 265.582 287.134,265.790 287.045,265.956 286.881 C 266.122 286.717,266.443 286.558,266.670 286.526 C 267.091 286.468,268.167 285.888,268.352 285.620 C 268.408 285.538,268.500 285.472,268.556 285.473 C 268.814 285.477,269.667 285.078,269.667 284.954 C 269.667 284.877,269.742 284.860,269.833 284.917 C 269.925 284.973,270.000 284.928,270.000 284.815 C 270.000 284.703,270.047 284.658,270.105 284.716 C 270.162 284.773,270.518 284.608,270.896 284.350 C 271.274 284.091,271.752 283.826,271.958 283.762 C 272.165 283.697,272.333 283.562,272.333 283.461 C 272.333 283.360,272.383 283.327,272.443 283.388 C 272.504 283.448,272.659 283.347,272.788 283.163 C 272.917 282.979,273.104 282.878,273.203 282.939 C 273.303 283.001,273.485 282.913,273.609 282.744 C 273.732 282.575,273.833 282.489,273.833 282.553 C 273.833 282.713,275.567 281.740,276.579 281.013 C 277.035 280.685,277.410 280.451,277.412 280.492 C 277.420 280.624,278.500 279.934,278.500 279.797 C 278.500 279.725,278.609 279.667,278.742 279.667 C 278.875 279.667,279.050 279.547,279.132 279.402 C 279.213 279.256,279.329 279.144,279.390 279.152 C 279.725 279.197,279.842 279.149,279.751 279.002 C 279.693 278.908,279.759 278.879,279.907 278.936 C 280.058 278.994,280.206 278.925,280.266 278.768 C 280.322 278.622,280.435 278.543,280.517 278.594 C 280.600 278.645,280.667 278.619,280.667 278.536 C 280.667 278.453,280.929 278.244,281.250 278.072 C 281.571 277.899,281.833 277.695,281.833 277.619 C 281.833 277.543,281.895 277.518,281.970 277.565 C 282.045 277.611,282.304 277.465,282.546 277.241 C 282.788 277.017,283.066 276.833,283.165 276.833 C 283.263 276.833,283.384 276.728,283.434 276.598 C 283.484 276.469,283.700 276.319,283.914 276.265 C 284.129 276.212,284.626 275.867,285.020 275.500 C 285.413 275.134,285.864 274.833,286.022 274.833 C 286.180 274.833,286.457 274.646,286.637 274.417 C 286.817 274.188,287.048 274.000,287.149 274.000 C 287.250 274.000,287.333 273.942,287.333 273.871 C 287.333 273.800,287.594 273.602,287.912 273.431 C 288.230 273.260,288.454 273.060,288.409 272.988 C 288.365 272.916,288.498 272.831,288.706 272.800 C 288.913 272.768,289.065 272.650,289.042 272.538 C 289.019 272.425,289.056 272.347,289.125 272.365 C 289.379 272.428,290.496 271.628,290.391 271.458 C 290.328 271.356,290.361 271.331,290.469 271.397 C 290.572 271.461,290.751 271.360,290.868 271.173 C 290.985 270.986,291.175 270.833,291.290 270.833 C 291.406 270.833,291.500 270.758,291.500 270.667 C 291.500 270.575,291.586 270.500,291.691 270.500 C 291.796 270.500,292.039 270.347,292.232 270.160 C 292.425 269.972,293.146 269.379,293.833 268.841 C 294.521 268.303,295.383 267.592,295.750 267.261 C 296.538 266.550,297.081 266.101,297.710 265.642 C 297.963 265.458,298.129 265.241,298.079 265.160 C 298.030 265.080,298.235 264.889,298.536 264.737 C 298.837 264.585,299.346 264.212,299.667 263.909 C 300.509 263.113,301.221 262.405,301.442 262.144 C 301.547 262.019,301.866 261.740,302.149 261.524 C 302.432 261.308,302.616 261.052,302.556 260.956 C 302.497 260.860,302.524 260.828,302.616 260.885 C 302.846 261.028,305.870 258.028,305.728 257.798 C 305.663 257.692,305.692 257.662,305.796 257.727 C 305.896 257.789,306.096 257.669,306.242 257.461 C 306.387 257.253,306.561 257.096,306.628 257.111 C 306.695 257.126,306.781 257.108,306.819 257.069 C 306.858 257.031,306.785 257.000,306.657 257.000 C 306.530 257.000,306.611 256.873,306.838 256.718 C 307.739 256.102,310.520 253.082,310.355 252.898 C 310.297 252.833,310.334 252.828,310.436 252.886 C 310.538 252.944,310.756 252.844,310.920 252.663 C 311.084 252.482,311.164 252.333,311.097 252.333 C 311.031 252.333,311.300 252.004,311.696 251.602 C 312.854 250.427,313.333 249.866,313.333 249.686 C 313.333 249.593,313.437 249.457,313.565 249.383 C 313.692 249.310,314.070 248.912,314.405 248.500 C 314.740 248.088,315.144 247.600,315.304 247.417 C 316.006 246.612,316.667 245.687,316.667 245.508 C 316.667 245.401,316.742 245.360,316.834 245.417 C 316.925 245.474,317.068 245.347,317.149 245.135 C 317.231 244.923,317.501 244.563,317.748 244.333 C 317.996 244.104,318.315 243.692,318.457 243.417 C 318.600 243.142,318.856 242.818,319.028 242.697 C 319.199 242.576,319.296 242.407,319.243 242.322 C 319.190 242.237,319.231 242.167,319.333 242.167 C 319.436 242.167,319.473 242.092,319.417 242.000 C 319.360 241.908,319.435 241.833,319.583 241.833 C 319.732 241.833,319.812 241.766,319.761 241.684 C 319.710 241.602,319.791 241.488,319.941 241.430 C 320.092 241.373,320.174 241.285,320.125 241.236 C 320.076 241.187,320.294 240.870,320.610 240.532 C 320.927 240.193,321.305 239.692,321.450 239.417 C 321.596 239.142,321.967 238.622,322.274 238.262 C 322.582 237.901,322.833 237.537,322.833 237.452 C 322.833 237.367,323.058 237.014,323.333 236.667 C 323.608 236.319,323.833 235.952,323.833 235.851 C 323.833 235.750,323.902 235.667,323.985 235.667 C 324.069 235.667,324.308 235.310,324.518 234.875 C 324.727 234.440,325.112 233.868,325.373 233.605 C 325.635 233.341,325.808 233.086,325.758 233.036 C 325.709 232.987,325.855 232.701,326.084 232.401 C 326.313 232.101,326.500 231.810,326.500 231.754 C 326.500 231.698,326.652 231.490,326.837 231.291 C 327.023 231.091,327.132 230.816,327.079 230.678 C 327.026 230.540,327.036 230.481,327.102 230.546 C 327.226 230.671,327.925 229.677,327.867 229.458 C 327.848 229.390,327.897 229.333,327.974 229.333 C 328.051 229.333,328.257 229.052,328.432 228.708 C 328.607 228.365,328.935 227.783,329.161 227.417 C 329.387 227.050,329.555 226.694,329.536 226.625 C 329.516 226.556,329.563 226.500,329.640 226.500 C 329.855 226.500,330.185 225.667,330.059 225.446 C 329.997 225.338,330.008 225.306,330.083 225.374 C 330.227 225.504,331.380 223.734,331.386 223.375 C 331.387 223.260,331.456 223.167,331.538 223.167 C 331.619 223.167,331.645 223.100,331.595 223.019 C 331.545 222.938,331.615 222.779,331.750 222.667 C 331.885 222.554,331.958 222.401,331.912 222.326 C 331.866 222.251,331.905 222.142,332.000 222.083 C 332.095 222.025,332.122 221.896,332.060 221.796 C 331.998 221.695,332.025 221.663,332.123 221.723 C 332.323 221.847,332.550 221.383,332.405 221.147 C 332.352 221.062,332.382 221.012,332.471 221.038 C 332.560 221.063,332.638 221.024,332.644 220.952 C 332.650 220.880,332.765 220.711,332.901 220.575 C 333.036 220.440,333.118 220.178,333.082 219.994 C 333.047 219.809,333.083 219.698,333.164 219.748 C 333.331 219.851,334.705 217.199,334.619 216.941 C 334.588 216.847,334.704 216.629,334.877 216.456 C 335.051 216.283,335.150 216.030,335.098 215.895 C 335.046 215.760,335.069 215.690,335.149 215.739 C 335.295 215.829,335.780 214.859,335.706 214.625 C 335.684 214.556,335.742 214.500,335.833 214.500 C 335.925 214.500,336.001 214.406,336.002 214.292 C 336.003 214.177,336.221 213.633,336.486 213.083 C 336.750 212.533,336.895 212.057,336.808 212.025 C 336.721 211.993,336.770 211.878,336.919 211.769 C 337.204 211.561,338.025 209.778,338.054 209.304 C 338.064 209.150,338.143 209.069,338.231 209.123 C 338.320 209.178,338.345 209.104,338.288 208.955 C 338.231 208.808,338.258 208.664,338.346 208.635 C 338.435 208.605,338.547 208.364,338.595 208.098 C 338.643 207.832,338.757 207.477,338.847 207.308 C 338.938 207.138,338.966 207.000,338.911 207.000 C 338.855 207.000,338.928 206.881,339.073 206.737 C 339.218 206.592,339.294 206.404,339.242 206.320 C 339.190 206.236,339.234 206.167,339.341 206.167 C 339.448 206.167,339.492 206.054,339.440 205.917 C 339.387 205.779,339.400 205.667,339.470 205.667 C 339.539 205.667,339.608 205.508,339.622 205.315 C 339.637 205.121,339.754 204.840,339.882 204.690 C 340.010 204.540,340.288 203.854,340.501 203.167 C 340.713 202.479,340.955 201.827,341.040 201.716 C 341.125 201.606,341.148 201.371,341.092 201.194 C 341.026 200.985,341.082 200.837,341.256 200.771 C 341.402 200.715,341.478 200.600,341.426 200.515 C 341.374 200.431,341.414 200.334,341.515 200.300 C 341.617 200.267,341.718 200.010,341.740 199.730 C 341.762 199.450,341.819 199.153,341.868 199.069 C 342.025 198.798,342.389 197.584,342.318 197.567 C 342.281 197.558,342.334 197.446,342.436 197.317 C 342.748 196.925,343.336 194.941,343.259 194.542 C 343.219 194.335,343.265 194.167,343.361 194.167 C 343.457 194.167,343.492 194.054,343.440 193.917 C 343.387 193.779,343.403 193.667,343.475 193.667 C 343.680 193.667,344.381 191.212,344.241 190.985 C 344.156 190.847,344.185 190.825,344.332 190.916 C 344.498 191.019,344.522 190.944,344.434 190.594 C 344.359 190.296,344.380 190.176,344.493 190.246 C 344.598 190.310,344.675 190.150,344.688 189.843 C 344.707 189.363,344.736 189.173,344.832 188.875 C 344.855 188.806,344.861 188.686,344.847 188.607 C 344.833 188.529,344.905 188.365,345.006 188.242 C 345.108 188.120,345.167 187.877,345.137 187.702 C 345.108 187.527,345.163 187.279,345.260 187.151 C 345.452 186.898,346.138 184.129,346.145 183.583 C 346.150 183.136,346.254 182.609,346.568 181.429 C 346.712 180.886,346.794 180.405,346.750 180.361 C 346.706 180.317,346.736 180.199,346.817 180.099 C 346.897 179.999,347.008 179.593,347.062 179.198 C 347.116 178.803,347.197 178.419,347.243 178.345 C 347.288 178.271,347.365 177.882,347.413 177.481 C 347.462 177.079,347.534 176.525,347.575 176.250 C 347.615 175.975,347.689 175.375,347.739 174.917 C 347.789 174.458,347.900 173.746,347.985 173.333 C 348.070 172.921,348.178 172.171,348.225 171.667 C 348.272 171.162,348.353 170.563,348.404 170.333 C 348.610 169.415,348.860 167.144,348.779 166.933 C 348.732 166.809,348.763 166.637,348.850 166.550 C 348.936 166.464,349.046 165.461,349.093 164.322 C 349.141 163.182,349.229 161.350,349.290 160.250 C 349.429 157.725,349.438 145.635,349.302 143.417 C 349.246 142.500,349.193 140.981,349.185 140.042 C 349.176 139.102,349.104 138.333,349.026 138.333 C 348.947 138.333,348.913 137.914,348.950 137.402 C 348.986 136.890,348.956 136.507,348.883 136.553 C 348.810 136.598,348.747 136.286,348.743 135.859 C 348.739 135.432,348.679 134.746,348.611 134.333 C 348.542 133.921,348.492 133.333,348.499 133.028 C 348.506 132.723,348.453 132.509,348.381 132.554 C 348.309 132.598,348.240 132.323,348.228 131.942 C 348.216 131.562,348.162 130.878,348.109 130.423 C 348.017 129.646,347.966 129.362,347.734 128.333 C 347.682 128.104,347.637 127.599,347.634 127.210 C 347.632 126.821,347.570 126.540,347.497 126.585 C 347.424 126.630,347.402 126.524,347.447 126.350 C 347.515 126.090,347.397 125.329,347.069 123.917 C 347.048 123.825,346.985 123.487,346.929 123.167 C 346.694 121.827,346.457 120.740,346.364 120.586 C 346.310 120.496,346.252 120.309,346.236 120.170 C 346.220 120.030,346.162 119.520,346.109 119.035 C 346.055 118.550,345.966 118.080,345.911 117.990 C 345.855 117.901,345.774 117.623,345.731 117.372 C 345.603 116.643,345.332 115.611,345.172 115.250 C 345.092 115.067,344.905 114.317,344.758 113.583 C 344.404 111.810,344.386 111.743,344.171 111.341 C 344.068 111.150,344.022 110.933,344.067 110.860 C 344.112 110.786,344.045 110.525,343.918 110.280 C 343.791 110.034,343.721 109.833,343.764 109.833 C 343.807 109.833,343.727 109.612,343.588 109.342 C 343.448 109.071,343.333 108.626,343.333 108.351 C 343.333 108.077,343.262 107.809,343.174 107.754 C 343.086 107.700,343.062 107.534,343.119 107.384 C 343.188 107.203,343.158 107.152,343.030 107.231 C 342.904 107.309,342.872 107.261,342.937 107.090 C 342.992 106.946,342.945 106.718,342.832 106.581 C 342.718 106.445,342.675 106.333,342.735 106.333 C 342.796 106.333,342.751 106.165,342.637 105.958 C 342.523 105.752,342.444 105.532,342.461 105.469 C 342.479 105.406,342.346 105.031,342.167 104.635 C 341.987 104.240,341.839 103.706,341.837 103.448 C 341.835 103.138,341.769 103.020,341.641 103.099 C 341.517 103.176,341.494 103.145,341.575 103.013 C 341.706 102.802,341.227 101.333,341.028 101.333 C 340.967 101.333,340.907 101.165,340.894 100.958 C 340.868 100.506,340.304 98.956,340.116 98.818 C 340.043 98.764,339.995 98.651,340.011 98.568 C 340.089 98.153,339.984 97.824,339.808 97.933 C 339.692 98.004,339.660 97.979,339.728 97.869 C 339.790 97.769,339.620 97.176,339.350 96.552 C 339.081 95.927,338.816 95.216,338.763 94.970 C 338.710 94.724,338.567 94.424,338.445 94.302 C 338.323 94.180,338.254 93.987,338.292 93.874 C 338.330 93.760,338.267 93.667,338.153 93.667 C 338.038 93.667,337.992 93.619,338.050 93.561 C 338.108 93.504,338.068 93.297,337.961 93.103 C 337.855 92.909,337.605 92.290,337.407 91.727 C 337.208 91.164,336.810 90.270,336.523 89.739 C 336.235 89.208,336.000 88.673,336.000 88.549 C 336.000 88.424,335.881 88.277,335.736 88.222 C 335.560 88.154,335.534 88.082,335.658 88.006 C 335.785 87.927,335.745 87.764,335.530 87.487 C 335.358 87.265,335.166 86.874,335.104 86.618 C 335.034 86.333,334.918 86.198,334.803 86.269 C 334.691 86.338,334.661 86.310,334.730 86.199 C 334.793 86.097,334.775 85.879,334.690 85.715 C 334.605 85.551,334.449 85.229,334.343 85.000 C 334.043 84.351,333.653 83.623,333.362 83.167 C 333.215 82.938,333.091 82.675,333.086 82.583 C 333.061 82.148,332.786 81.667,332.562 81.667 C 332.426 81.667,332.361 81.589,332.420 81.495 C 332.478 81.401,332.317 80.969,332.061 80.537 C 331.805 80.104,331.580 79.645,331.559 79.517 C 331.539 79.388,331.436 79.230,331.330 79.165 C 331.225 79.099,331.152 78.992,331.170 78.925 C 331.187 78.858,331.054 78.635,330.875 78.429 C 330.696 78.223,330.504 77.874,330.449 77.652 C 330.314 77.117,329.059 75.076,328.886 75.111 C 328.811 75.126,328.740 74.967,328.727 74.756 C 328.715 74.546,328.396 73.910,328.019 73.342 C 327.642 72.774,327.333 72.236,327.333 72.145 C 327.333 72.054,327.247 72.034,327.141 72.099 C 327.014 72.178,326.994 72.144,327.083 72.000 C 327.163 71.870,327.124 71.709,326.984 71.600 C 326.855 71.499,326.644 71.212,326.515 70.961 C 326.386 70.711,326.161 70.370,326.015 70.205 C 325.869 70.039,325.729 69.806,325.704 69.687 C 325.678 69.569,325.322 68.982,324.912 68.383 C 324.502 67.784,324.167 67.220,324.167 67.129 C 324.167 67.039,324.058 67.006,323.925 67.057 C 323.775 67.114,323.714 67.070,323.764 66.939 C 323.809 66.823,323.674 66.543,323.464 66.317 C 323.255 66.091,323.083 65.855,323.083 65.792 C 323.083 65.729,322.958 65.531,322.805 65.353 C 322.652 65.174,322.558 64.998,322.595 64.961 C 322.632 64.924,322.401 64.608,322.081 64.259 C 321.761 63.910,321.500 63.540,321.499 63.437 C 321.499 63.334,321.306 63.025,321.070 62.750 C 320.835 62.475,320.697 62.355,320.764 62.484 C 320.844 62.639,320.819 62.678,320.690 62.598 C 320.582 62.531,320.534 62.414,320.581 62.337 C 320.629 62.259,320.443 61.984,320.167 61.724 C 319.892 61.464,319.667 61.180,319.667 61.093 C 319.667 60.792,318.794 59.677,318.481 59.577 C 318.308 59.522,318.167 59.403,318.167 59.312 C 318.167 59.221,318.260 59.194,318.375 59.253 C 318.490 59.311,318.438 59.240,318.260 59.096 C 318.082 58.951,318.000 58.833,318.077 58.833 C 318.155 58.833,318.084 58.685,317.920 58.504 C 317.756 58.323,317.538 58.222,317.436 58.281 C 317.334 58.339,317.301 58.330,317.363 58.261 C 317.521 58.085,317.032 57.328,316.121 56.340 C 315.696 55.878,315.401 55.497,315.466 55.494 C 315.530 55.491,315.420 55.397,315.219 55.286 C 315.019 55.174,314.854 55.024,314.854 54.951 C 314.851 54.765,313.872 53.555,313.118 52.807 C 312.771 52.462,312.484 52.121,312.479 52.048 C 312.475 51.976,311.897 51.287,311.194 50.517 C 310.492 49.747,309.739 48.922,309.522 48.683 C 309.304 48.445,309.061 48.269,308.980 48.292 C 308.899 48.315,308.833 48.224,308.833 48.091 C 308.833 47.862,306.415 45.291,306.067 45.149 C 305.978 45.113,305.733 44.839,305.523 44.540 C 305.313 44.241,305.070 44.040,304.983 44.094 C 304.896 44.147,304.844 44.130,304.867 44.054 C 304.905 43.930,302.120 41.000,301.965 41.000 C 301.929 41.000,301.273 40.403,300.507 39.673 C 299.741 38.943,299.049 38.386,298.970 38.435 C 298.890 38.485,298.846 38.451,298.871 38.361 C 298.937 38.124,296.818 36.323,296.617 36.447 C 296.524 36.505,296.499 36.470,296.561 36.369 C 296.623 36.269,296.484 36.051,296.253 35.885 C 296.022 35.719,295.589 35.369,295.291 35.106 C 294.994 34.844,294.337 34.320,293.833 33.943 C 293.329 33.565,292.756 33.091,292.559 32.888 C 292.363 32.686,292.162 32.560,292.114 32.608 C 292.066 32.656,291.942 32.537,291.838 32.343 C 291.735 32.149,291.593 32.026,291.524 32.069 C 291.455 32.111,291.111 31.851,290.761 31.490 C 290.410 31.129,289.979 30.833,289.802 30.833 C 289.625 30.833,289.522 30.766,289.573 30.684 C 289.666 30.533,289.199 30.255,288.946 30.311 C 288.870 30.328,288.851 30.273,288.903 30.189 C 288.991 30.047,288.160 29.384,288.019 29.483 C 287.983 29.508,287.908 29.466,287.852 29.389 C 287.661 29.129,286.085 27.888,285.667 27.669 C 285.438 27.549,285.037 27.274,284.778 27.057 C 284.518 26.841,284.218 26.714,284.111 26.776 C 284.004 26.837,283.973 26.825,284.041 26.750 C 284.150 26.629,283.176 25.833,282.918 25.833 C 282.864 25.833,282.616 25.645,282.368 25.415 C 282.120 25.185,281.819 25.034,281.700 25.080 C 281.580 25.125,281.525 25.094,281.577 25.010 C 281.629 24.926,281.529 24.812,281.356 24.757 C 281.182 24.702,280.863 24.504,280.648 24.317 C 280.432 24.130,279.805 23.706,279.253 23.376 C 278.701 23.045,278.072 22.638,277.855 22.473 C 277.638 22.307,277.383 22.219,277.288 22.278 C 277.188 22.340,277.165 22.304,277.234 22.192 C 277.299 22.087,277.292 21.994,277.218 21.987 C 276.693 21.938,276.421 21.817,276.285 21.574 C 276.156 21.344,276.102 21.335,275.983 21.522 C 275.865 21.708,275.838 21.703,275.836 21.494 C 275.833 21.193,274.941 20.621,274.747 20.796 C 274.673 20.862,274.668 20.822,274.734 20.706 C 274.816 20.564,274.698 20.465,274.368 20.399 C 274.100 20.345,273.682 20.130,273.439 19.921 C 273.195 19.713,272.416 19.251,271.707 18.896 C 270.997 18.541,270.376 18.196,270.327 18.130 C 270.277 18.065,269.677 17.739,268.994 17.407 C 267.923 16.888,266.757 16.300,265.833 15.815 C 264.830 15.287,264.162 14.980,264.066 15.002 C 264.004 15.017,263.901 14.942,263.835 14.836 C 263.770 14.731,263.612 14.626,263.483 14.604 C 263.355 14.581,262.710 14.287,262.050 13.950 C 260.731 13.277,259.570 12.811,259.137 12.781 C 258.984 12.771,258.894 12.703,258.939 12.631 C 258.983 12.559,258.865 12.500,258.677 12.500 C 258.488 12.500,258.333 12.431,258.333 12.346 C 258.333 12.262,258.052 12.103,257.708 11.994 C 257.365 11.886,256.484 11.530,255.751 11.204 C 255.018 10.878,254.324 10.611,254.209 10.611 C 254.094 10.611,254.000 10.549,254.000 10.472 C 254.000 10.396,253.944 10.342,253.875 10.353 C 253.806 10.364,253.694 10.355,253.625 10.332 C 253.556 10.310,253.425 10.273,253.333 10.250 C 253.242 10.227,253.129 10.190,253.083 10.167 C 253.037 10.144,252.944 10.109,252.875 10.090 C 252.745 10.054,252.462 9.935,251.096 9.343 C 250.644 9.147,250.172 9.026,250.045 9.075 C 249.919 9.123,249.857 9.097,249.907 9.016 C 249.957 8.935,249.792 8.820,249.541 8.760 C 249.289 8.700,248.577 8.461,247.958 8.227 C 247.338 7.994,246.738 7.784,246.624 7.760 C 246.510 7.736,246.304 7.676,246.167 7.625 C 246.029 7.574,245.542 7.439,245.083 7.324 C 244.625 7.209,244.175 7.062,244.083 6.998 C 243.770 6.777,242.417 6.383,242.124 6.427 C 241.963 6.451,241.869 6.411,241.914 6.338 C 241.959 6.264,241.847 6.166,241.665 6.118 C 241.482 6.070,241.371 6.092,241.417 6.167 C 241.463 6.241,241.351 6.263,241.169 6.216 C 240.986 6.168,240.885 6.050,240.945 5.955 C 241.013 5.845,240.917 5.816,240.685 5.877 C 240.484 5.929,240.116 5.867,239.868 5.737 C 239.620 5.608,239.295 5.502,239.145 5.501 C 238.996 5.500,238.604 5.387,238.273 5.249 C 237.943 5.111,237.615 5.011,237.545 5.026 C 237.474 5.041,237.192 4.958,236.917 4.841 C 236.642 4.724,236.211 4.618,235.959 4.606 C 235.707 4.593,235.501 4.524,235.500 4.451 C 235.500 4.378,235.406 4.337,235.292 4.359 C 235.127 4.392,234.146 4.226,233.667 4.085 C 232.640 3.783,232.039 3.630,231.754 3.600 C 231.561 3.579,231.330 3.517,231.241 3.462 C 231.032 3.333,228.612 2.887,227.417 2.757 C 227.142 2.728,226.804 2.665,226.667 2.618 C 226.270 2.482,224.963 2.181,224.417 2.099 C 224.142 2.057,223.478 1.938,222.942 1.833 C 222.406 1.729,221.858 1.685,221.725 1.737 C 221.586 1.790,221.527 1.757,221.587 1.660 C 221.654 1.552,221.364 1.501,220.787 1.520 C 220.289 1.537,219.815 1.508,219.733 1.458 C 219.651 1.407,219.133 1.312,218.583 1.247 C 217.437 1.112,217.322 1.096,216.417 0.945 C 215.806 0.843,214.655 0.711,213.167 0.572 C 212.846 0.542,212.096 0.461,211.500 0.392 C 210.904 0.323,209.880 0.262,209.224 0.258 C 208.568 0.254,208.060 0.204,208.095 0.148 C 208.162 0.039,193.063 -0.007,192.954 0.101 " stroke="none" fill="#1c1c1c" fill-rule="evenodd"></path><path id="path2" d="" stroke="none" fill="#e8104c" fill-rule="evenodd"></path><path id="path3" d="" stroke="none" fill="#50104c" fill-rule="evenodd"></path><path id="path4" d="" stroke="none" fill="#1c1050" fill-rule="evenodd"></path><path id="path5" d="M112.627 394.285 C 112.834 394.324,113.134 394.323,113.294 394.281 C 113.453 394.239,113.283 394.207,112.917 394.209 C 112.550 394.211,112.420 394.245,112.627 394.285 " stroke="none" fill="#1c201c" fill-rule="evenodd"></path><path id="path6" d="M112.627 394.285 C 112.834 394.324,113.134 394.323,113.294 394.281 C 113.453 394.239,113.283 394.207,112.917 394.209 C 112.550 394.211,112.420 394.245,112.627 394.285 " stroke="none" fill="#1c201c" fill-rule="evenodd"></path></g></svg>