<svg id="svg" version="1.1" xmlns="http://www.w3.org/2000/svg" xmlns:xlink="http://www.w3.org/1999/xlink" width="400" height="400" viewBox="0, 0, 400,400"><g id="svgg"><path id="path0" d="M136.582 92.966 C 62.977 135.570,72.562 129.837,72.638 131.221 L 72.700 132.342 90.700 122.395 L 108.700 112.447 110.601 114.321 L 112.502 116.195 123.080 110.597 C 128.898 107.519,133.690 105.000,133.728 105.000 C 133.766 105.000,134.360 106.111,135.048 107.469 L 136.300 109.937 174.706 87.619 C 195.829 75.343,213.226 65.225,213.365 65.133 C 214.058 64.674,201.235 56.337,199.957 56.416 C 199.815 56.425,171.297 72.872,136.582 92.966 M146.250 110.047 L 72.600 152.491 72.600 154.267 C 72.600 155.666,72.657 156.021,72.867 155.940 C 73.014 155.884,80.957 151.253,90.517 145.649 C 100.078 140.045,108.100 135.355,108.344 135.227 C 108.760 135.007,108.903 135.147,110.650 137.469 L 112.512 139.946 132.106 128.661 C 142.883 122.455,152.169 117.107,152.743 116.778 L 153.786 116.179 155.043 118.677 L 156.300 121.176 195.539 98.752 C 217.121 86.418,234.740 76.265,234.694 76.190 C 234.356 75.644,228.097 72.268,225.600 71.286 C 222.896 70.222,222.612 70.059,221.395 68.872 C 220.677 68.173,220.047 67.601,219.995 67.601 C 219.943 67.602,186.758 86.703,146.250 110.047 M156.376 128.102 L 72.700 176.183 72.640 177.404 C 72.580 178.621,72.582 178.624,73.040 178.384 C 73.293 178.251,81.392 173.790,91.037 168.471 C 100.682 163.152,108.647 158.803,108.737 158.807 C 108.827 158.811,109.697 159.891,110.671 161.207 C 111.645 162.523,112.500 163.599,112.571 163.597 C 112.642 163.596,126.425 155.466,143.200 145.531 L 173.700 127.468 174.952 129.934 C 175.640 131.290,176.236 132.400,176.277 132.400 C 176.394 132.400,254.481 87.775,254.667 87.602 C 255.004 87.288,248.821 83.806,245.746 82.579 C 244.111 81.926,242.161 81.083,241.413 80.706 L 240.052 80.021 156.376 128.102 M166.300 145.009 C 114.930 174.477,72.829 198.613,72.742 198.646 C 72.655 198.679,72.610 199.523,72.642 200.521 L 72.700 202.337 90.400 191.955 C 100.135 186.245,108.249 181.491,108.432 181.389 C 108.704 181.238,109.097 181.653,110.622 183.697 L 112.480 186.190 113.751 185.479 C 114.449 185.088,132.716 174.696,154.344 162.384 C 175.971 150.073,193.694 140.000,193.728 140.000 C 193.762 140.000,194.339 140.817,195.010 141.815 C 195.739 142.898,196.333 143.592,196.484 143.534 C 196.757 143.429,273.581 99.563,274.383 99.054 C 274.854 98.755,274.788 98.716,271.761 97.503 C 269.615 96.642,267.675 95.670,265.478 94.352 C 262.005 92.270,260.353 91.392,259.957 91.416 C 259.815 91.424,217.670 115.541,166.300 145.009 M176.250 162.549 L 72.600 222.494 72.600 223.647 C 72.600 224.281,72.640 224.800,72.688 224.800 C 72.753 224.800,101.651 208.899,108.056 205.340 L 108.812 204.920 110.691 206.791 L 112.569 208.661 162.535 180.290 C 190.016 164.686,212.787 151.752,213.138 151.547 L 213.777 151.174 215.038 153.056 L 216.300 154.938 255.553 133.129 C 286.053 116.182,294.749 111.268,294.553 111.087 C 293.844 110.435,280.454 102.597,280.058 102.602 C 279.971 102.603,233.257 129.579,176.250 162.549 M186.683 179.162 C 124.414 215.098,73.267 244.635,73.024 244.800 C 72.615 245.077,72.585 245.233,72.640 246.843 L 72.700 248.586 84.400 241.728 C 90.835 237.955,98.954 233.196,102.442 231.151 L 108.785 227.434 110.639 229.920 C 111.659 231.288,112.585 232.369,112.697 232.322 C 112.808 232.276,140.080 216.539,173.300 197.352 L 233.700 162.466 234.952 164.933 C 235.640 166.290,236.236 167.400,236.277 167.400 C 236.394 167.400,314.481 122.775,314.667 122.601 C 314.882 122.401,309.261 119.025,306.011 117.401 C 304.642 116.717,302.733 115.627,301.769 114.979 C 300.804 114.330,299.989 113.806,299.958 113.812 C 299.926 113.819,248.952 143.227,186.683 179.162 M196.157 196.955 L 72.615 268.700 72.607 269.871 C 72.601 270.842,72.652 271.023,72.906 270.925 C 73.118 270.844,106.786 252.325,108.630 251.275 C 108.702 251.234,109.598 252.324,110.621 253.696 L 112.481 256.191 113.390 255.663 C 113.891 255.373,140.985 239.459,173.600 220.298 C 206.215 201.137,233.101 185.354,233.346 185.225 C 233.773 185.000,233.845 185.095,235.046 187.464 L 236.300 189.938 281.800 164.376 L 327.300 138.813 327.354 134.410 L 327.408 130.007 324.854 128.721 C 322.872 127.723,322.055 127.184,321.207 126.317 C 320.606 125.703,320.021 125.202,319.907 125.205 C 319.793 125.208,264.106 157.496,196.157 196.955 M206.400 214.326 C 140.015 252.327,85.574 283.493,85.420 283.584 C 85.217 283.704,85.637 284.083,86.957 284.971 L 88.775 286.193 98.686 279.997 C 104.138 276.588,108.643 273.800,108.697 273.800 C 108.752 273.800,109.342 274.888,110.009 276.217 C 110.800 277.796,111.310 278.601,111.478 278.536 C 111.620 278.482,139.155 262.769,172.667 243.619 C 206.180 224.468,233.644 208.800,233.698 208.800 C 233.752 208.800,234.341 209.886,235.007 211.214 C 235.672 212.541,236.303 213.599,236.409 213.564 C 236.515 213.528,257.028 201.755,281.994 187.400 L 327.386 161.300 327.393 153.250 C 327.397 148.822,327.332 145.208,327.250 145.217 C 327.168 145.226,272.785 176.325,206.400 214.326 M297.000 185.199 C 280.335 194.843,230.565 223.638,186.400 249.188 C 142.235 274.738,105.884 295.779,105.621 295.945 C 105.154 296.240,105.188 296.262,106.976 296.834 L 108.809 297.422 118.555 291.341 C 123.915 287.997,128.409 285.199,128.541 285.124 C 128.695 285.036,129.457 285.884,130.648 287.467 L 132.513 289.946 183.106 261.206 L 233.700 232.466 234.952 234.933 C 235.640 236.290,236.235 237.400,236.273 237.400 C 236.375 237.400,327.070 183.982,327.252 183.815 C 327.336 183.738,327.381 180.073,327.352 175.671 L 327.300 167.666 297.000 185.199 M240.200 241.419 C 192.295 268.920,146.808 295.033,139.117 299.448 L 125.134 307.475 126.808 308.037 C 127.729 308.347,128.586 308.600,128.713 308.600 C 128.841 308.600,133.615 306.126,139.322 303.103 C 145.030 300.079,149.793 297.604,149.907 297.603 C 150.020 297.601,150.647 298.680,151.300 300.000 C 151.953 301.320,152.510 302.400,152.538 302.400 C 152.567 302.400,170.833 291.735,193.129 278.700 C 215.425 265.665,233.697 255.000,233.732 255.000 C 233.768 255.000,234.360 256.111,235.048 257.469 L 236.300 259.938 281.600 233.859 C 306.515 219.516,327.014 207.713,327.152 207.631 C 327.350 207.514,327.393 205.747,327.352 199.449 L 327.300 191.417 240.200 241.419 M236.206 266.317 C 186.215 295.084,145.282 318.651,145.245 318.689 C 145.207 318.726,145.980 319.026,146.962 319.355 L 148.747 319.954 159.276 314.377 C 165.067 311.310,169.874 308.800,169.959 308.800 C 170.044 308.800,170.648 309.882,171.302 311.204 C 172.186 312.991,172.567 313.579,172.789 313.493 C 172.953 313.430,186.703 305.599,203.343 296.089 C 219.984 286.580,233.643 278.800,233.698 278.800 C 233.752 278.800,234.341 279.886,235.007 281.214 C 235.672 282.541,236.303 283.599,236.409 283.564 C 236.515 283.528,257.028 271.755,281.994 257.400 L 327.386 231.300 327.393 222.650 C 327.397 217.893,327.332 214.003,327.250 214.006 C 327.168 214.010,286.198 237.550,236.206 266.317 M246.256 283.782 C 201.682 309.147,165.211 329.945,165.209 330.000 C 165.208 330.055,166.010 330.626,166.992 331.268 L 168.778 332.437 179.239 326.291 C 184.992 322.911,189.765 320.109,189.844 320.064 C 189.924 320.020,190.532 321.067,191.196 322.392 C 191.860 323.716,192.485 324.800,192.584 324.800 C 192.717 324.800,225.603 305.946,232.941 301.663 L 233.783 301.172 235.041 303.676 L 236.300 306.180 281.800 279.999 L 327.300 253.819 327.354 249.696 C 327.384 247.429,327.384 243.794,327.354 241.619 L 327.300 237.664 246.256 283.782 M256.736 301.358 L 186.372 342.480 187.516 343.058 C 188.929 343.773,187.598 344.438,198.900 337.366 C 204.070 334.131,208.404 331.421,208.530 331.343 C 208.674 331.254,209.452 332.129,210.614 333.686 L 212.467 336.172 213.583 335.607 C 214.198 335.296,218.964 332.782,224.175 330.021 C 229.387 327.259,233.684 325.000,233.724 325.000 C 233.764 325.000,234.360 326.111,235.048 327.469 L 236.300 329.938 281.850 303.724 L 327.400 277.509 327.400 268.855 C 327.400 264.095,327.332 260.208,327.250 260.218 C 327.168 260.228,295.436 278.741,256.736 301.358 " stroke="none" fill="#fafbfb" fill-rule="evenodd"></path><path id="path1" d="M190.100 0.136 C 83.460 5.514,0.029 93.213,0.002 199.958 C -0.026 310.667,89.285 399.996,200.000 399.996 C 325.902 399.996,420.387 285.293,396.374 161.600 C 377.474 64.247,289.186 -4.861,190.100 0.136 M201.455 56.923 C 204.879 58.636,213.778 64.465,213.786 65.000 C 213.788 65.094,136.802 109.826,136.402 109.964 C 136.300 109.999,135.672 108.941,135.007 107.614 C 134.341 106.286,133.730 105.202,133.648 105.205 C 133.567 105.207,128.775 107.719,123.000 110.786 L 112.500 116.363 110.600 114.492 L 108.700 112.620 90.600 122.610 L 72.500 132.600 72.440 131.370 C 72.407 130.694,72.466 130.054,72.572 129.948 C 72.741 129.779,199.816 56.212,199.955 56.203 C 199.985 56.202,200.660 56.525,201.455 56.923 M221.399 68.699 C 222.638 69.929,222.875 70.066,225.816 71.249 C 228.580 72.362,234.980 75.829,234.995 76.222 C 235.001 76.368,156.916 121.007,156.434 121.133 C 156.174 121.201,155.827 120.674,154.905 118.811 C 154.250 117.485,153.700 116.400,153.684 116.400 C 153.668 116.400,144.505 121.669,133.322 128.108 C 122.139 134.548,112.864 139.865,112.712 139.923 C 112.531 139.993,111.796 139.184,110.600 137.600 C 109.591 136.264,108.661 135.211,108.533 135.262 C 108.405 135.312,100.301 140.043,90.525 145.776 C 80.749 151.509,72.668 156.200,72.568 156.200 C 72.467 156.200,72.411 155.354,72.443 154.304 L 72.500 152.409 146.200 109.919 C 186.735 86.549,219.943 67.422,219.995 67.414 C 220.047 67.406,220.679 67.985,221.399 68.699 M241.389 80.594 C 242.036 80.921,243.946 81.740,245.633 82.413 C 248.829 83.689,255.206 87.277,254.867 87.610 C 254.741 87.734,178.308 131.470,176.554 132.422 C 176.257 132.583,176.031 132.259,174.954 130.115 L 173.700 127.620 143.138 145.710 C 126.329 155.659,112.546 163.800,112.508 163.800 C 112.471 163.800,111.605 162.680,110.585 161.312 L 108.730 158.824 107.915 159.295 C 105.995 160.405,72.583 178.800,72.487 178.800 C 72.429 178.800,72.408 178.205,72.441 177.478 L 72.500 176.157 156.100 128.096 C 202.080 101.662,239.815 80.027,239.956 80.017 C 240.096 80.008,240.741 80.267,241.389 80.594 M261.455 91.923 C 262.250 92.321,264.295 93.478,266.000 94.494 C 268.096 95.743,270.055 96.719,272.050 97.507 C 273.673 98.147,274.997 98.723,274.993 98.786 C 274.987 98.880,196.887 143.566,196.386 143.762 C 196.298 143.796,195.674 143.002,194.998 141.997 C 194.322 140.992,193.663 140.210,193.534 140.260 C 193.406 140.310,175.178 150.667,153.030 163.275 C 130.881 175.884,112.656 186.197,112.530 186.193 C 112.403 186.190,111.535 185.147,110.600 183.877 C 109.665 182.607,108.842 181.531,108.772 181.486 C 108.702 181.441,100.512 186.172,90.572 191.999 L 72.500 202.595 72.442 200.671 C 72.411 199.614,72.411 198.726,72.442 198.699 C 72.543 198.612,259.897 91.207,259.955 91.203 C 259.985 91.202,260.660 91.525,261.455 91.923 M281.057 102.916 C 282.505 103.633,294.987 111.072,294.994 111.223 C 295.001 111.361,216.508 155.002,216.260 154.997 C 216.172 154.995,215.571 154.185,214.924 153.197 C 214.278 152.209,213.728 151.400,213.703 151.400 C 213.677 151.400,190.904 164.321,163.096 180.114 L 112.535 208.827 110.714 207.014 C 109.712 206.016,108.817 205.200,108.725 205.200 C 108.633 205.200,100.572 209.607,90.810 214.994 C 81.049 220.381,72.909 224.847,72.722 224.919 C 72.418 225.036,72.387 224.905,72.440 223.729 L 72.500 222.408 176.200 162.418 C 233.235 129.424,279.925 102.422,279.957 102.414 C 279.988 102.406,280.483 102.632,281.057 102.916 M301.969 114.979 C 302.933 115.627,304.842 116.717,306.211 117.401 C 309.500 119.045,315.079 122.402,314.867 122.610 C 314.741 122.734,238.308 166.470,236.554 167.422 C 236.257 167.583,236.031 167.259,234.954 165.115 L 233.700 162.620 173.600 197.325 C 140.545 216.413,113.265 232.155,112.978 232.306 C 112.457 232.581,112.447 232.571,110.609 230.091 C 109.593 228.720,108.704 227.634,108.631 227.676 C 108.559 227.718,100.419 232.488,90.542 238.276 C 80.665 244.064,72.539 248.800,72.485 248.800 C 72.430 248.800,72.411 247.925,72.443 246.855 L 72.500 244.911 186.100 179.363 C 248.580 143.311,299.816 113.811,299.958 113.807 C 300.099 113.803,301.004 114.330,301.969 114.979 M321.306 126.217 C 322.265 127.195,323.002 127.687,325.054 128.720 L 327.608 130.007 327.554 134.428 L 327.500 138.849 282.100 164.349 C 257.130 178.373,236.592 189.890,236.460 189.941 C 236.315 189.998,235.741 189.077,235.000 187.600 C 234.258 186.120,233.685 185.202,233.540 185.259 C 233.408 185.311,206.177 201.294,173.026 220.777 C 139.875 240.260,112.650 256.197,112.526 256.193 C 112.402 256.190,111.535 255.147,110.600 253.877 C 109.665 252.607,108.842 251.531,108.771 251.486 C 108.701 251.440,100.571 255.857,90.704 261.301 C 80.838 266.746,72.684 271.200,72.583 271.200 C 72.482 271.200,72.401 270.637,72.403 269.950 L 72.406 268.700 196.053 196.868 C 264.059 157.360,319.793 125.027,319.906 125.018 C 320.020 125.008,320.650 125.548,321.306 126.217 M327.599 153.150 L 327.597 161.300 283.272 186.800 C 258.893 200.825,238.331 212.643,237.579 213.062 L 236.210 213.825 234.975 211.344 L 233.739 208.863 172.548 243.830 C 138.892 263.062,111.299 278.760,111.228 278.716 C 111.158 278.672,110.570 277.561,109.921 276.247 L 108.743 273.859 98.742 280.111 L 88.741 286.362 86.875 285.131 C 85.850 284.454,85.030 283.833,85.055 283.751 C 85.080 283.668,116.105 265.861,154.000 244.178 C 191.895 222.495,240.450 194.713,261.900 182.440 C 283.350 170.167,306.840 156.725,314.100 152.568 C 321.360 148.412,327.368 145.009,327.450 145.006 C 327.533 145.003,327.599 148.667,327.599 153.150 M327.452 183.824 C 327.301 183.971,320.957 187.713,266.200 219.949 C 250.415 229.241,237.211 237.020,236.857 237.234 L 236.215 237.623 234.957 235.122 L 233.700 232.621 183.200 261.307 C 155.425 277.084,132.635 289.994,132.556 289.996 C 132.477 289.998,131.597 288.920,130.600 287.600 C 129.603 286.280,128.745 285.200,128.693 285.200 C 128.640 285.200,124.137 287.989,118.685 291.397 L 108.772 297.595 106.848 296.927 C 104.949 296.267,104.931 296.255,105.412 295.944 C 105.680 295.771,155.760 266.779,216.700 231.519 L 327.500 167.408 327.552 175.542 C 327.581 180.015,327.536 183.742,327.452 183.824 M327.600 199.375 L 327.600 207.549 321.850 210.853 C 318.688 212.670,308.990 218.248,300.300 223.247 C 291.610 228.247,273.682 238.562,260.460 246.169 C 247.238 253.776,236.371 260.000,236.311 260.000 C 236.252 260.000,235.658 258.912,234.991 257.583 C 234.254 256.113,233.685 255.202,233.540 255.260 C 233.408 255.311,215.120 265.983,192.900 278.975 L 152.501 302.596 151.243 300.086 L 149.985 297.576 148.342 298.464 C 147.439 298.952,142.670 301.484,137.743 304.090 L 128.787 308.829 126.851 308.184 C 124.975 307.559,124.929 307.529,125.375 307.233 C 126.191 306.692,327.294 191.232,327.450 191.215 C 327.533 191.207,327.600 194.879,327.600 199.375 M327.599 222.550 L 327.597 231.300 283.272 256.800 C 258.893 270.825,238.331 282.643,237.579 283.062 L 236.210 283.825 234.975 281.344 L 233.739 278.863 203.160 296.337 C 186.341 305.948,172.518 313.772,172.440 313.724 C 172.363 313.675,171.771 312.564,171.124 311.253 L 169.948 308.871 159.433 314.435 C 153.650 317.496,148.820 320.000,148.700 320.000 C 148.260 320.000,145.208 318.895,145.192 318.729 C 145.175 318.541,326.951 213.850,327.350 213.819 C 327.547 213.804,327.600 215.672,327.599 222.550 M327.452 253.823 C 327.369 253.904,318.975 258.758,308.800 264.610 C 298.625 270.462,283.460 279.185,275.100 283.996 C 266.740 288.806,254.700 295.734,248.344 299.391 C 241.988 303.048,236.633 306.081,236.443 306.131 C 236.171 306.202,235.843 305.706,234.905 303.811 C 234.250 302.485,233.700 301.400,233.684 301.400 C 233.668 301.400,224.505 306.669,213.322 313.108 C 202.139 319.548,192.861 324.866,192.705 324.926 C 192.502 325.004,192.074 324.343,191.209 322.617 C 190.542 321.288,189.956 320.200,189.907 320.200 C 189.857 320.200,185.082 322.986,179.295 326.392 L 168.772 332.584 166.891 331.342 C 165.856 330.659,165.008 330.055,165.006 330.000 C 165.004 329.945,201.565 309.090,246.252 283.655 L 327.500 237.409 327.552 245.542 C 327.581 250.016,327.536 253.742,327.452 253.823 M327.600 268.775 L 327.600 277.549 321.850 280.853 C 318.688 282.670,308.990 288.248,300.300 293.247 C 291.610 298.247,273.682 308.562,260.460 316.169 C 247.238 323.776,236.371 330.000,236.311 330.000 C 236.252 330.000,235.658 328.912,234.991 327.583 C 234.049 325.702,233.709 325.192,233.461 325.287 C 233.286 325.355,228.559 327.837,222.958 330.805 C 217.356 333.772,212.667 336.197,212.537 336.193 C 212.407 336.189,211.503 335.109,210.530 333.793 C 209.462 332.350,208.668 331.453,208.530 331.531 C 208.403 331.602,203.901 334.405,198.524 337.760 L 188.748 343.860 187.450 343.220 C 186.737 342.868,186.215 342.518,186.291 342.442 C 186.511 342.222,327.284 260.011,327.450 260.005 C 327.533 260.002,327.600 263.949,327.600 268.775 " stroke="none" fill="#041d3d" fill-rule="evenodd"></path><path id="path2" d="M110.500 114.400 C 111.485 115.390,112.337 116.200,112.392 116.200 C 112.447 116.200,111.685 115.390,110.700 114.400 C 109.715 113.410,108.863 112.600,108.808 112.600 C 108.753 112.600,109.515 113.410,110.500 114.400 " stroke="none" fill="#596f82" fill-rule="evenodd"></path><path id="path3" d="M319.822 125.050 C 319.871 125.078,320.538 125.685,321.305 126.400 L 322.700 127.700 321.406 126.350 C 320.694 125.608,320.026 125.000,319.922 125.000 C 319.818 125.000,319.773 125.022,319.822 125.050 M72.482 130.074 C 72.425 130.224,72.406 130.832,72.442 131.424 L 72.507 132.500 72.603 131.150 C 72.701 129.790,72.676 129.570,72.482 130.074 M327.400 134.260 L 327.499 138.700 327.554 134.414 C 327.584 132.057,327.539 130.059,327.454 129.974 C 327.369 129.889,327.345 131.817,327.400 134.260 M327.491 153.200 C 327.491 157.655,327.518 159.478,327.550 157.250 C 327.582 155.023,327.582 151.378,327.550 149.150 C 327.518 146.923,327.491 148.745,327.491 153.200 M72.432 154.350 C 72.414 155.368,72.468 156.200,72.550 156.200 C 72.633 156.201,72.675 155.638,72.644 154.950 C 72.544 152.693,72.465 152.469,72.432 154.350 M327.491 175.600 C 327.491 180.055,327.518 181.878,327.550 179.650 C 327.582 177.423,327.582 173.778,327.550 171.550 C 327.518 169.323,327.491 171.145,327.491 175.600 M72.462 177.500 C 72.463 178.160,72.500 178.406,72.545 178.046 C 72.589 177.687,72.589 177.147,72.543 176.846 C 72.497 176.546,72.461 176.840,72.462 177.500 M327.491 199.400 C 327.491 203.855,327.518 205.678,327.550 203.450 C 327.582 201.223,327.582 197.578,327.550 195.350 C 327.518 193.123,327.491 194.945,327.491 199.400 M72.472 200.600 C 72.472 201.645,72.506 202.072,72.547 201.550 C 72.588 201.028,72.588 200.173,72.547 199.650 C 72.506 199.128,72.472 199.555,72.472 200.600 M110.600 206.900 C 111.641 207.945,112.537 208.800,112.592 208.800 C 112.647 208.800,111.841 207.945,110.800 206.900 C 109.759 205.855,108.863 205.000,108.808 205.000 C 108.753 205.000,109.559 205.855,110.600 206.900 M327.351 219.450 C 327.379 222.557,327.426 226.495,327.456 228.200 C 327.486 229.905,327.531 227.363,327.555 222.550 C 327.580 217.738,327.533 213.800,327.450 213.800 C 327.368 213.800,327.323 216.342,327.351 219.450 M72.462 223.700 C 72.463 224.360,72.500 224.606,72.545 224.246 C 72.589 223.887,72.589 223.347,72.543 223.046 C 72.497 222.746,72.461 223.040,72.462 223.700 M327.491 245.600 C 327.491 250.055,327.518 251.878,327.550 249.650 C 327.582 247.423,327.582 243.778,327.550 241.550 C 327.518 239.322,327.491 241.145,327.491 245.600 M72.485 245.067 C 72.429 245.213,72.410 246.091,72.443 247.017 L 72.504 248.700 72.602 246.750 C 72.699 244.812,72.681 244.555,72.485 245.067 M327.492 268.800 C 327.492 273.585,327.518 275.543,327.550 273.150 C 327.582 270.757,327.582 266.843,327.550 264.450 C 327.518 262.058,327.492 264.015,327.492 268.800 M72.423 269.950 C 72.410 270.637,72.468 271.200,72.551 271.200 C 72.635 271.200,72.675 270.772,72.642 270.250 C 72.544 268.730,72.448 268.599,72.423 269.950 " stroke="none" fill="#848c9c" fill-rule="evenodd"></path><path id="path4" d="" stroke="none" fill="#748c9c" fill-rule="evenodd"></path><path id="path5" d="M219.822 67.450 C 219.871 67.478,220.538 68.085,221.305 68.800 L 222.700 70.100 221.406 68.750 C 220.694 68.008,220.026 67.400,219.922 67.400 C 219.818 67.400,219.773 67.422,219.822 67.450 " stroke="none" fill="#2b435d" fill-rule="evenodd"></path></g></svg>