<?xml version="1.0" encoding="UTF-8"?>
<svg width="30px" height="30px" viewBox="0 0 30 30" version="1.1" xmlns="http://www.w3.org/2000/svg" xmlns:xlink="http://www.w3.org/1999/xlink">
    <!-- Generator: Sketch 53.2 (72643) - https://sketchapp.com -->
    <title>Fill 23</title>
    <desc>Created with Sketch.</desc>
    <g id="Desktop-[1200]" stroke="none" stroke-width="1" fill="none" fill-rule="evenodd">
        <g id="Fill-23" fill="#28286E">
            <path d="M14.5564335,16.92375 L11.9801536,19.57465 C11.9785014,19.57615 11.9769465,19.57785 11.9750028,19.57905 C11.9686857,19.58325 11.9611053,19.58565 11.9530389,19.58565 C11.9306864,19.58565 11.9125127,19.56695 11.9125127,19.54385 C11.9125127,19.53925 11.913193,19.53465 11.9146508,19.53045 C11.9146508,19.53035 11.9144564,19.53085 11.9144564,19.53075 L12.8946654,15.76865 C12.9782446,15.49895 12.9161433,15.19195 12.7081672,14.97805 L10.1318873,12.32705 C10.1304295,12.32535 10.1288745,12.32375 10.1276111,12.32175 C10.1236265,12.31535 10.1211969,12.30755 10.1211969,12.29925 C10.1211969,12.27615 10.1393705,12.25745 10.1618203,12.25745 C10.166388,12.25745 10.1707613,12.25825 10.1748431,12.25965 C10.1749403,12.25975 10.1745515,12.25945 10.1745515,12.25945 L13.8308495,13.26815 C14.0928606,13.35415 14.3912188,13.29025 14.5990978,13.07625 L17.1754749,10.42545 C17.177127,10.42385 17.178682,10.42215 17.1806257,10.42095 C17.1869427,10.41675 17.194426,10.41435 17.2025895,10.41435 C17.2249421,10.41435 17.2431157,10.43305 17.2431157,10.45615 C17.2431157,10.46085 17.2423382,10.46535 17.2409776,10.46955 C17.2409776,10.46955 17.241172,10.46925 17.241172,10.46925 L16.260963,14.23135 C16.1773839,14.50095 16.2394851,14.80805 16.4473641,15.02195 L19.023644,17.67295 C19.025199,17.67465 19.0267539,17.67625 19.0279201,17.67815 C19.0320019,17.68465 19.0344315,17.69245 19.0344315,17.70075 C19.0344315,17.72375 19.0161607,17.74245 18.9938082,17.74245 C18.9892405,17.74245 18.9848671,17.74175 18.9807854,17.74035 C18.9806882,17.74035 18.9810769,17.74045 18.9809797,17.74045 L15.3247789,16.73185 C15.0627679,16.64585 14.7643124,16.70985 14.5564335,16.92375 M29.0444001,14.72375 L22.8907365,8.39195 C22.6828575,8.17805 22.3844993,8.11405 22.1224882,8.20005 L18.0758949,9.31665 C18.0754089,9.31655 18.0753118,9.31595 18.0745343,9.31625 C18.0707441,9.31745 18.0666623,9.31815 18.0623861,9.31815 C18.0400336,9.31815 18.0218599,9.29945 18.0218599,9.27635 C18.0218599,9.26155 18.029246,9.24865 18.0405195,9.24125 C18.0406167,9.24115 18.0401307,9.24125 18.0401307,9.24125 C18.481837,8.93895 19.1516368,8.39195 20.7527614,6.74445 C20.9009687,6.59195 20.9009687,6.34455 20.7527614,6.19195 L14.8462395,0.11445 C14.6980322,-0.03815 14.4575962,-0.03815 14.309389,0.11445 L8.15572535,6.44625 C7.94784641,6.66015 7.88574513,6.96725 7.96932432,7.23685 L9.05439601,11.40055 C9.05429883,11.40105 9.0538129,11.40115 9.05400727,11.40205 C9.05527068,11.40595 9.05585379,11.41015 9.05585379,11.41445 C9.05585379,11.43755 9.03768017,11.45625 9.01523041,11.45625 C9.0009442,11.45625 8.98831014,11.44855 8.98111844,11.43695 C8.98102126,11.43695 8.98111844,11.43735 8.98111844,11.43735 C8.68732787,10.98285 8.15572535,10.29375 6.55469795,8.64625 C6.40639348,8.49365 6.16595753,8.49365 6.01775024,8.64625 L0.111228352,14.72375 C-0.0370761173,14.87635 -0.0370761173,15.12375 0.111228352,15.27625 L6.26479478,21.60805 C6.47267372,21.82195 6.77112917,21.88595 7.03314021,21.79995 L11.0797336,20.68335 C11.0802195,20.68345 11.0802195,20.68405 11.0810942,20.68375 C11.0848844,20.68255 11.0889662,20.68185 11.0931451,20.68185 C11.1155949,20.68185 11.1337685,20.70055 11.1337685,20.72365 C11.1337685,20.73835 11.1263824,20.75135 11.115109,20.75885 C11.1150118,20.75885 11.1154977,20.75875 11.1154977,20.75885 C10.6736942,21.06105 10.0039917,21.60805 8.40286707,23.25555 C8.2545626,23.40815 8.2545626,23.65545 8.40286707,23.80805 L14.309389,29.88555 C14.4575962,30.03815 14.6980322,30.03815 14.8462395,29.88555 L20.9998059,23.55375 C21.2076848,23.33985 21.2698833,23.03275 21.1863041,22.76315 L20.1012324,18.59945 C20.1012324,18.59885 20.1018155,18.59885 20.101524,18.59805 C20.1003578,18.59405 20.0997747,18.58995 20.0997747,18.58555 C20.0997747,18.56245 20.1179483,18.54375 20.1403008,18.54375 C20.1546842,18.54375 20.1673183,18.55145 20.17451,18.56305 C20.17451,18.56305 20.17451,18.56265 20.17451,18.56265 C20.4682034,19.01715 20.9998059,19.70635 22.6009305,21.35375 C22.749235,21.50635 22.9895737,21.50635 23.1378782,21.35375 L29.0444001,15.27625 C29.1926074,15.12375 29.1926074,14.87635 29.0444001,14.72375" id="Fill-20"></path>
        </g>
    </g>
</svg>