<svg id="svg" version="1.1" xmlns="http://www.w3.org/2000/svg" xmlns:xlink="http://www.w3.org/1999/xlink" width="400" height="400" viewBox="0, 0, 400,400"><g id="svgg"><path id="path0" d="M108.583 98.900 C 108.478 99.175,108.439 108.940,108.496 120.600 L 108.600 141.800 141.200 142.000 C 159.130 142.110,174.102 142.349,174.472 142.532 C 175.816 143.196,176.000 145.092,176.000 158.244 C 176.000 173.372,176.247 172.534,171.681 172.925 C 170.206 173.051,167.830 173.338,166.400 173.561 C 164.970 173.784,159.861 174.161,155.046 174.398 C 150.231 174.636,146.001 174.981,145.646 175.166 C 144.876 175.568,139.571 176.273,134.687 176.622 C 132.755 176.761,130.685 177.112,130.087 177.404 C 129.489 177.695,126.930 178.148,124.400 178.409 C 121.870 178.671,119.306 179.140,118.701 179.452 C 118.097 179.764,116.297 180.186,114.701 180.389 C 113.106 180.592,111.250 181.033,110.577 181.370 C 109.905 181.706,108.168 182.149,106.718 182.355 C 105.268 182.560,103.658 182.996,103.141 183.324 C 102.623 183.652,101.222 184.123,100.027 184.372 C 98.832 184.620,97.658 184.986,97.417 185.185 C 97.177 185.385,96.085 185.852,94.990 186.223 C 91.186 187.512,85.338 190.559,84.481 191.700 C 84.191 192.085,83.767 192.400,83.538 192.400 C 82.623 192.400,80.655 195.090,80.142 197.044 C 78.415 203.612,86.022 209.487,102.174 214.059 C 103.699 214.491,105.114 214.947,105.318 215.073 C 105.742 215.335,110.884 216.582,115.000 217.420 C 116.540 217.734,119.330 218.352,121.200 218.793 C 123.070 219.235,126.343 219.764,128.473 219.969 C 130.604 220.175,132.723 220.545,133.184 220.791 C 133.644 221.038,136.851 221.495,140.310 221.808 C 143.770 222.120,147.230 222.554,148.000 222.771 C 148.770 222.988,152.730 223.353,156.800 223.581 C 173.275 224.508,174.225 224.625,175.253 225.864 C 175.706 226.410,175.834 234.506,176.000 272.961 L 176.200 319.400 199.800 319.400 L 223.400 319.400 223.600 272.714 C 223.784 229.793,223.854 225.975,224.468 225.360 C 225.237 224.591,228.468 224.254,241.200 223.615 C 245.710 223.388,250.120 223.020,251.000 222.796 C 251.880 222.573,255.279 222.123,258.553 221.796 C 261.828 221.469,265.213 221.012,266.077 220.779 C 266.941 220.547,269.710 220.101,272.232 219.788 C 274.754 219.475,277.162 219.034,277.583 218.809 C 278.005 218.583,279.756 218.214,281.475 217.987 C 283.194 217.760,285.770 217.230,287.200 216.809 C 288.630 216.387,290.880 215.778,292.200 215.455 C 297.956 214.048,308.495 210.274,310.800 208.795 C 311.130 208.583,311.940 208.110,312.600 207.743 C 316.385 205.640,319.600 201.621,319.600 198.994 C 319.600 196.424,315.517 191.376,312.326 190.001 C 311.816 189.781,311.130 189.427,310.800 189.214 C 309.714 188.512,304.844 186.400,304.311 186.400 C 304.023 186.400,303.110 186.037,302.281 185.592 C 301.453 185.148,299.690 184.532,298.365 184.223 C 297.039 183.913,295.707 183.455,295.405 183.204 C 295.102 182.953,293.633 182.574,292.141 182.363 C 290.648 182.152,289.041 181.726,288.568 181.416 C 288.096 181.106,286.200 180.649,284.355 180.399 C 282.510 180.150,280.460 179.678,279.800 179.352 C 279.140 179.026,276.630 178.575,274.222 178.349 C 271.814 178.124,269.364 177.692,268.778 177.389 C 268.162 177.070,265.121 176.647,261.560 176.384 C 258.176 176.134,254.811 175.681,254.081 175.376 C 253.237 175.024,249.675 174.666,244.278 174.394 C 233.780 173.863,224.469 172.749,223.960 171.963 C 223.331 170.991,223.696 143.447,224.349 142.661 C 224.851 142.056,227.639 142.000,257.023 142.000 C 276.928 142.000,289.538 141.852,290.174 141.610 L 291.200 141.220 291.200 120.060 L 291.200 98.900 289.950 98.650 C 287.308 98.122,108.787 98.368,108.583 98.900 M174.820 176.210 L 176.000 176.821 176.000 192.161 C 176.000 204.488,176.105 207.589,176.536 207.946 C 178.418 209.509,222.249 209.410,223.294 207.841 C 223.456 207.598,223.591 200.528,223.594 192.129 C 223.599 178.784,223.679 176.778,224.229 176.229 C 225.239 175.218,239.758 175.625,245.057 176.813 C 245.983 177.020,249.665 177.376,253.240 177.603 C 256.816 177.830,260.834 178.268,262.170 178.578 C 263.507 178.887,266.400 179.340,268.600 179.584 C 270.800 179.829,273.320 180.215,274.200 180.444 C 275.080 180.672,277.510 181.184,279.600 181.581 C 303.447 186.110,315.616 195.140,306.580 201.600 C 305.811 202.150,304.728 203.003,304.174 203.497 C 303.619 203.990,302.724 204.504,302.183 204.640 C 301.642 204.776,301.200 205.042,301.200 205.232 C 301.200 205.422,300.165 205.871,298.900 206.230 C 297.635 206.589,296.233 207.113,295.784 207.395 C 295.335 207.678,293.895 208.128,292.584 208.396 C 291.273 208.664,289.930 209.113,289.600 209.394 C 289.270 209.675,287.740 210.117,286.200 210.377 C 284.660 210.636,282.590 211.103,281.600 211.413 C 279.279 212.140,268.029 213.962,258.200 215.203 C 256.440 215.425,253.650 215.790,252.000 216.014 C 250.350 216.238,245.760 216.589,241.800 216.794 C 237.840 216.999,232.530 217.399,230.000 217.682 C 222.443 218.528,173.858 218.377,166.719 217.485 C 163.705 217.108,159.911 216.800,158.289 216.800 C 154.793 216.800,148.163 216.210,142.600 215.403 C 140.400 215.084,136.102 214.542,133.049 214.198 C 129.995 213.854,127.205 213.421,126.849 213.235 C 126.492 213.049,124.580 212.674,122.600 212.401 C 120.620 212.128,118.280 211.670,117.400 211.382 C 116.520 211.094,114.630 210.639,113.200 210.371 C 111.770 210.103,110.150 209.661,109.600 209.388 C 109.050 209.115,107.520 208.672,106.200 208.404 C 104.880 208.136,103.530 207.682,103.200 207.396 C 102.870 207.109,101.856 206.676,100.947 206.434 C 100.037 206.192,99.085 205.743,98.830 205.436 C 98.576 205.130,97.880 204.757,97.284 204.608 C 90.564 202.933,87.991 196.490,92.300 192.128 C 96.632 187.743,107.597 183.518,119.600 181.609 C 121.250 181.346,123.459 180.886,124.508 180.585 C 125.557 180.284,128.257 179.844,130.508 179.607 C 132.759 179.370,135.680 178.921,137.000 178.609 C 138.320 178.297,142.179 177.844,145.575 177.601 C 148.971 177.358,152.574 176.983,153.582 176.767 C 158.672 175.675,173.056 175.298,174.820 176.210 " stroke="none" fill="#f9fbfa" fill-rule="evenodd"></path><path id="path1" d="M148.000 0.551 C 148.000 1.824,152.650 2.954,153.837 1.970 C 155.415 0.659,154.533 0.000,151.200 0.000 C 148.749 0.000,148.000 0.129,148.000 0.551 M165.200 0.588 C 165.200 1.067,164.292 1.196,160.300 1.288 C 155.586 1.396,155.395 1.434,155.274 2.286 C 155.155 3.121,154.928 3.178,151.274 3.286 C 147.642 3.393,147.392 3.454,147.276 4.270 C 147.106 5.468,140.797 5.896,140.799 4.710 C 140.800 4.013,141.172 4.005,144.294 4.632 C 146.273 5.030,147.363 2.209,145.506 1.496 C 144.634 1.161,141.244 1.837,140.502 2.493 C 140.116 2.835,138.858 3.240,137.708 3.393 C 136.557 3.547,135.207 3.989,134.708 4.375 C 134.208 4.762,133.080 5.190,132.200 5.327 C 131.318 5.464,130.302 5.940,129.936 6.388 C 129.469 6.959,128.795 7.200,127.667 7.200 C 126.538 7.200,125.709 7.497,124.873 8.200 C 124.219 8.750,123.319 9.200,122.873 9.200 C 122.427 9.200,121.527 9.650,120.873 10.200 C 120.156 10.804,119.185 11.200,118.424 11.200 C 117.631 11.200,116.812 11.552,116.214 12.149 C 115.692 12.672,114.616 13.220,113.823 13.369 C 113.031 13.518,112.163 13.991,111.895 14.420 C 111.627 14.849,111.097 15.200,110.718 15.200 C 110.338 15.200,109.437 15.710,108.714 16.333 C 107.991 16.955,107.081 17.581,106.691 17.723 C 105.535 18.145,105.365 19.242,106.333 20.026 C 107.586 21.041,107.433 21.200,105.200 21.200 C 103.345 21.200,103.200 21.271,103.200 22.178 C 103.200 23.061,103.015 23.168,101.300 23.278 C 99.679 23.382,99.381 23.532,99.272 24.300 C 99.117 25.395,96.438 25.610,95.596 24.595 C 95.209 24.129,94.966 24.096,94.537 24.452 C 94.063 24.846,94.071 25.015,94.590 25.589 C 95.486 26.579,95.335 27.200,94.200 27.200 C 93.400 27.200,93.200 27.400,93.200 28.200 C 93.200 29.076,93.027 29.200,91.800 29.200 C 90.207 29.200,90.052 28.839,91.199 27.801 C 91.818 27.241,91.894 26.955,91.539 26.526 C 91.155 26.063,90.939 26.106,90.214 26.787 C 89.738 27.234,88.969 27.600,88.505 27.600 C 88.041 27.600,87.127 28.050,86.473 28.600 C 85.819 29.150,85.096 29.600,84.865 29.600 C 84.634 29.600,84.208 29.938,83.918 30.352 C 83.629 30.766,83.035 31.173,82.599 31.257 C 82.163 31.341,81.570 31.903,81.281 32.505 C 80.993 33.107,80.477 33.600,80.136 33.600 C 79.560 33.600,78.809 34.107,75.864 36.483 C 74.713 37.413,72.491 39.595,70.066 42.179 C 69.333 42.960,68.558 43.600,68.346 43.600 C 68.133 43.600,67.713 44.189,67.413 44.908 C 67.112 45.628,66.491 46.555,66.033 46.970 C 65.575 47.385,65.200 48.056,65.200 48.462 C 65.200 49.358,64.288 49.428,63.589 48.587 C 63.136 48.041,62.984 48.064,62.214 48.787 C 61.738 49.234,61.202 49.600,61.023 49.600 C 60.708 49.600,59.075 51.110,55.087 55.090 C 51.905 58.265,51.600 58.612,51.600 59.048 C 51.600 59.279,50.790 60.290,49.800 61.294 C 48.657 62.453,48.000 63.476,48.000 64.096 C 48.000 64.751,47.668 65.223,46.989 65.532 C 46.433 65.786,45.866 66.310,45.730 66.697 C 45.407 67.614,43.567 69.600,43.039 69.600 C 42.813 69.600,42.262 69.954,41.814 70.387 C 39.004 73.101,37.287 74.871,36.499 75.864 C 36.003 76.489,34.608 78.123,33.399 79.497 C 32.189 80.870,31.200 82.258,31.200 82.582 C 31.200 82.907,30.852 83.358,30.427 83.586 C 30.002 83.813,29.527 84.404,29.372 84.900 C 29.217 85.395,28.755 86.229,28.345 86.754 C 27.935 87.279,27.600 88.023,27.600 88.408 C 27.600 88.793,27.150 89.403,26.600 89.763 C 26.050 90.124,25.600 90.656,25.600 90.947 C 25.600 91.238,25.241 91.801,24.801 92.199 C 23.785 93.119,24.395 94.000,26.049 94.000 C 27.427 94.000,27.578 94.844,26.300 95.405 C 25.608 95.709,25.372 96.188,25.278 97.475 C 25.178 98.849,24.999 99.173,24.278 99.275 C 23.536 99.381,23.381 99.694,23.278 101.300 C 23.168 103.015,23.061 103.200,22.178 103.200 C 21.271 103.200,21.200 103.345,21.200 105.200 C 21.200 106.300,21.020 107.200,20.800 107.200 C 20.580 107.200,20.400 106.860,20.400 106.444 C 20.400 106.029,20.070 105.281,19.666 104.782 L 18.932 103.876 18.266 104.827 C 17.900 105.350,17.600 106.077,17.600 106.443 C 17.600 106.809,17.150 107.403,16.600 107.763 C 15.862 108.247,15.600 108.770,15.600 109.763 C 15.600 110.749,15.338 111.279,14.619 111.751 C 14.015 112.146,13.534 112.947,13.368 113.829 C 13.220 114.619,12.672 115.692,12.149 116.214 C 11.627 116.736,11.200 117.638,11.200 118.218 C 11.200 118.797,10.835 119.571,10.388 119.936 C 9.940 120.302,9.464 121.318,9.327 122.200 C 9.190 123.080,8.655 124.309,8.139 124.931 C 7.541 125.650,7.200 126.579,7.200 127.485 C 7.200 128.489,6.906 129.181,6.200 129.835 C 5.477 130.505,5.200 131.176,5.200 132.255 C 5.200 133.205,4.905 134.063,4.388 134.612 C 3.878 135.156,3.487 136.277,3.335 137.638 C 3.202 138.827,2.818 140.116,2.483 140.502 C 1.727 141.371,1.167 144.769,1.633 145.653 C 2.657 147.593,4.913 146.208,4.534 143.872 C 4.403 143.064,4.494 142.389,4.756 142.227 C 5.064 142.037,5.200 142.748,5.200 144.549 C 5.200 146.936,5.128 147.155,4.300 147.272 C 3.447 147.393,3.394 147.601,3.286 151.274 C 3.178 154.928,3.121 155.155,2.286 155.274 C 1.442 155.394,1.395 155.606,1.286 159.700 C 1.195 163.160,1.058 164.000,0.586 164.000 C 0.076 164.000,0.000 168.636,0.000 200.000 C 0.000 231.733,0.071 236.000,0.600 236.000 C 1.095 236.000,1.200 236.731,1.200 240.176 C 1.200 242.574,1.373 244.460,1.607 244.604 C 2.201 244.971,1.677 245.600,0.776 245.600 C 0.073 245.600,0.000 245.899,0.000 248.800 C 0.000 253.327,1.595 253.344,2.171 248.823 C 2.609 245.380,2.983 245.517,3.200 249.200 C 3.385 252.351,3.466 252.609,4.300 252.728 C 5.128 252.845,5.200 253.064,5.200 255.451 C 5.200 257.252,5.064 257.963,4.756 257.773 C 4.494 257.611,4.403 256.936,4.534 256.128 C 4.913 253.792,2.657 252.407,1.633 254.347 C 1.167 255.231,1.727 258.629,2.483 259.498 C 2.818 259.884,3.202 261.173,3.335 262.362 C 3.478 263.640,3.887 264.867,4.336 265.362 C 4.753 265.823,5.203 266.920,5.335 267.800 C 5.469 268.691,5.935 269.694,6.388 270.064 C 6.959 270.531,7.200 271.205,7.200 272.333 C 7.200 273.430,7.498 274.297,8.139 275.069 C 8.655 275.691,9.190 276.920,9.327 277.800 C 9.464 278.682,9.940 279.698,10.388 280.064 C 10.835 280.429,11.200 281.203,11.200 281.782 C 11.200 282.373,11.639 283.276,12.200 283.836 C 12.750 284.386,13.200 285.084,13.200 285.387 C 13.200 285.691,13.650 286.473,14.200 287.127 C 14.750 287.781,15.200 288.666,15.200 289.093 C 15.200 290.841,20.581 296.800,22.159 296.800 C 23.065 296.800,23.167 296.974,23.278 298.700 C 23.381 300.307,23.536 300.619,24.279 300.725 C 25.021 300.831,25.177 301.144,25.279 302.725 C 25.382 304.321,25.534 304.619,26.300 304.728 C 27.648 304.919,27.435 306.000,26.049 306.000 C 24.525 306.000,23.750 306.895,24.637 307.630 C 24.992 307.926,25.441 308.583,25.634 309.091 C 25.828 309.599,26.439 310.187,26.993 310.397 C 27.750 310.685,28.000 311.069,28.000 311.941 C 28.000 312.580,28.252 313.311,28.561 313.567 C 28.869 313.823,29.231 314.470,29.365 315.005 C 29.500 315.539,29.967 316.168,30.405 316.403 C 30.842 316.637,31.200 317.093,31.200 317.418 C 31.200 317.742,32.189 319.130,33.399 320.503 C 34.608 321.877,36.003 323.510,36.499 324.134 C 38.245 326.331,42.834 330.800,43.344 330.800 C 43.950 330.800,45.372 332.293,45.729 333.303 C 45.866 333.690,46.433 334.214,46.989 334.468 C 47.671 334.779,48.000 335.248,48.000 335.911 C 48.000 336.525,48.602 337.496,49.600 338.494 C 50.480 339.374,51.200 340.337,51.200 340.633 C 51.200 340.930,52.505 342.442,54.100 343.993 C 55.695 345.544,58.287 348.070,59.860 349.606 C 63.006 352.680,63.275 352.800,64.168 351.524 C 64.506 351.042,64.831 350.727,64.891 350.824 C 64.951 350.921,65.198 351.360,65.441 351.800 C 65.752 352.364,66.380 352.637,67.573 352.725 L 69.264 352.849 68.216 353.821 C 67.195 354.767,67.299 356.400,68.380 356.400 C 68.574 356.400,69.333 357.042,70.066 357.827 C 74.045 362.082,79.562 366.800,80.560 366.800 C 80.808 366.800,81.188 367.204,81.405 367.698 C 81.622 368.191,82.158 368.663,82.596 368.745 C 83.033 368.828,83.629 369.234,83.918 369.648 C 84.208 370.062,84.636 370.400,84.870 370.400 C 85.103 370.400,85.909 370.940,86.661 371.600 C 87.413 372.260,88.308 372.800,88.650 372.800 C 88.992 372.800,89.588 373.190,89.974 373.667 C 90.423 374.222,90.917 374.441,91.347 374.276 C 92.470 373.845,92.622 372.747,91.667 371.974 C 90.507 371.034,90.573 370.800,92.000 370.800 C 93.013 370.800,93.200 370.956,93.200 371.800 C 93.200 372.600,93.400 372.800,94.200 372.800 C 95.326 372.800,95.530 373.628,94.595 374.404 C 94.129 374.791,94.096 375.034,94.452 375.463 C 94.846 375.937,95.015 375.929,95.589 375.410 C 96.690 374.413,99.117 374.604,99.272 375.700 C 99.381 376.468,99.679 376.618,101.300 376.722 C 103.015 376.832,103.200 376.939,103.200 377.822 C 103.200 378.733,103.342 378.800,105.258 378.800 L 107.317 378.800 106.242 379.796 C 104.991 380.955,105.319 382.214,106.982 382.631 C 107.510 382.764,108.252 383.216,108.633 383.636 C 109.013 384.056,109.649 384.400,110.046 384.400 C 110.443 384.400,111.197 384.863,111.723 385.430 C 112.333 386.089,113.268 386.539,114.316 386.679 C 115.312 386.813,116.304 387.272,116.847 387.850 C 117.338 388.372,118.084 388.800,118.506 388.800 C 118.927 388.800,119.571 389.165,119.936 389.612 C 120.302 390.060,121.318 390.536,122.200 390.673 C 123.080 390.810,124.309 391.345,124.931 391.861 C 125.703 392.502,126.570 392.800,127.667 392.800 C 128.795 392.800,129.469 393.041,129.936 393.612 C 130.301 394.059,131.320 394.539,132.200 394.678 C 133.080 394.818,134.250 395.244,134.800 395.625 C 135.350 396.007,136.670 396.426,137.733 396.556 C 138.796 396.687,140.125 397.155,140.687 397.597 C 142.782 399.245,147.303 398.305,146.128 396.466 C 145.806 395.963,145.104 395.801,143.251 395.804 C 141.545 395.807,140.800 395.655,140.800 395.304 C 140.800 394.185,139.288 393.236,137.872 393.466 C 137.064 393.597,136.389 393.506,136.227 393.244 C 136.037 392.936,136.756 392.800,138.576 392.800 C 141.108 392.800,141.200 392.835,141.200 393.800 C 141.200 394.777,141.269 394.800,144.172 394.800 C 146.950 394.800,147.153 394.859,147.272 395.700 C 147.393 396.553,147.601 396.606,151.274 396.714 C 154.928 396.822,155.155 396.879,155.274 397.714 C 155.395 398.566,155.586 398.604,160.300 398.712 C 164.292 398.804,165.200 398.933,165.200 399.412 C 165.200 399.925,169.657 400.000,200.000 400.000 C 230.343 400.000,234.800 399.925,234.800 399.412 C 234.800 398.933,235.708 398.804,239.700 398.712 C 244.414 398.604,244.605 398.566,244.726 397.714 C 244.845 396.879,245.072 396.822,248.726 396.714 C 252.358 396.607,252.608 396.546,252.724 395.730 C 252.894 394.532,259.203 394.104,259.201 395.290 C 259.200 395.987,258.828 395.995,255.706 395.368 C 253.727 394.970,252.637 397.791,254.494 398.504 C 255.366 398.839,258.756 398.163,259.498 397.507 C 259.884 397.165,261.142 396.760,262.292 396.607 C 263.443 396.453,264.793 396.011,265.292 395.625 C 265.792 395.238,266.920 394.810,267.800 394.673 C 268.682 394.536,269.698 394.060,270.064 393.612 C 270.531 393.041,271.205 392.800,272.333 392.800 C 273.462 392.800,274.291 392.503,275.127 391.800 C 275.781 391.250,276.681 390.800,277.127 390.800 C 277.573 390.800,278.473 390.350,279.127 389.800 C 279.844 389.196,280.815 388.800,281.576 388.800 C 282.369 388.800,283.188 388.448,283.786 387.851 C 284.308 387.328,285.384 386.780,286.177 386.631 C 286.969 386.482,287.837 386.009,288.105 385.580 C 288.373 385.151,288.903 384.800,289.282 384.800 C 289.662 384.800,290.563 384.290,291.286 383.667 C 292.009 383.045,292.919 382.419,293.309 382.277 C 294.344 381.899,294.592 380.876,293.849 380.054 C 292.873 378.976,293.034 378.800,294.992 378.800 C 296.560 378.800,296.816 378.677,297.030 377.821 C 297.235 377.008,297.557 376.822,298.938 376.721 C 300.312 376.621,300.622 376.444,300.728 375.700 C 300.883 374.605,303.562 374.390,304.404 375.405 C 304.791 375.871,305.034 375.904,305.463 375.548 C 305.937 375.154,305.929 374.985,305.410 374.411 C 304.514 373.421,304.665 372.800,305.800 372.800 C 306.600 372.800,306.800 372.600,306.800 371.800 C 306.800 370.956,306.987 370.800,308.000 370.800 C 309.318 370.800,309.603 371.568,308.595 372.404 C 308.129 372.791,308.096 373.034,308.452 373.463 C 308.838 373.928,309.021 373.932,309.557 373.487 C 309.911 373.194,310.690 372.746,311.289 372.491 C 311.896 372.233,312.487 371.592,312.625 371.045 C 312.839 370.189,313.041 370.089,314.182 370.275 C 315.193 370.439,315.621 370.305,316.051 369.691 C 316.358 369.254,316.965 368.827,317.401 368.743 C 317.837 368.659,318.430 368.097,318.719 367.495 C 319.007 366.893,319.520 366.400,319.859 366.400 C 320.936 366.400,325.740 362.312,329.934 357.827 C 330.667 357.042,331.442 356.400,331.654 356.400 C 331.867 356.400,332.287 355.811,332.587 355.092 C 332.888 354.372,333.509 353.445,333.967 353.030 C 334.425 352.615,334.800 351.944,334.800 351.538 C 334.800 350.642,335.712 350.572,336.411 351.413 C 336.864 351.959,337.016 351.936,337.786 351.213 C 338.262 350.766,338.798 350.400,338.977 350.400 C 339.292 350.400,340.925 348.890,344.913 344.910 C 348.095 341.735,348.400 341.388,348.400 340.952 C 348.400 340.721,349.210 339.710,350.200 338.706 C 351.343 337.547,352.000 336.524,352.000 335.904 C 352.000 335.249,352.332 334.777,353.011 334.468 C 353.567 334.214,354.134 333.690,354.270 333.303 C 354.593 332.386,356.433 330.400,356.961 330.400 C 357.187 330.400,357.738 330.049,358.186 329.619 C 362.277 325.693,366.800 320.383,366.800 319.505 C 366.800 319.294,367.700 318.239,368.800 317.162 C 369.900 316.085,370.800 315.006,370.800 314.765 C 370.800 314.524,371.160 313.869,371.600 313.309 C 372.040 312.750,372.400 311.977,372.400 311.592 C 372.400 311.207,372.850 310.597,373.400 310.237 C 373.950 309.876,374.400 309.344,374.400 309.053 C 374.400 308.762,374.759 308.199,375.199 307.801 C 376.215 306.881,375.605 306.000,373.951 306.000 C 372.573 306.000,372.422 305.156,373.700 304.595 C 374.392 304.291,374.628 303.812,374.722 302.525 C 374.822 301.151,375.001 300.827,375.722 300.725 C 376.464 300.619,376.619 300.306,376.722 298.700 C 376.832 296.985,376.939 296.800,377.822 296.800 C 378.729 296.800,378.800 296.655,378.800 294.800 C 378.800 293.700,378.980 292.800,379.200 292.800 C 379.420 292.800,379.600 293.140,379.600 293.556 C 379.600 293.971,379.930 294.719,380.334 295.218 L 381.068 296.124 381.734 295.173 C 382.100 294.650,382.400 293.923,382.400 293.557 C 382.400 293.191,382.850 292.597,383.400 292.237 C 384.138 291.753,384.400 291.230,384.400 290.237 C 384.400 289.251,384.662 288.721,385.381 288.249 C 385.985 287.854,386.466 287.053,386.632 286.171 C 386.780 285.381,387.328 284.308,387.851 283.786 C 388.373 283.264,388.800 282.362,388.800 281.782 C 388.800 281.203,389.165 280.429,389.612 280.064 C 390.060 279.698,390.536 278.682,390.673 277.800 C 390.810 276.920,391.345 275.691,391.861 275.069 C 392.459 274.350,392.800 273.421,392.800 272.515 C 392.800 271.511,393.094 270.819,393.800 270.165 C 394.523 269.495,394.800 268.824,394.800 267.745 C 394.800 266.795,395.095 265.937,395.612 265.388 C 396.122 264.844,396.513 263.723,396.665 262.362 C 396.798 261.173,397.182 259.884,397.517 259.498 C 398.273 258.629,398.833 255.231,398.367 254.347 C 397.343 252.407,395.087 253.792,395.466 256.128 C 395.597 256.936,395.506 257.611,395.244 257.773 C 394.936 257.963,394.800 257.252,394.800 255.451 C 394.800 253.064,394.872 252.845,395.700 252.728 C 396.553 252.607,396.606 252.399,396.714 248.726 C 396.822 245.072,396.879 244.845,397.714 244.726 C 398.558 244.606,398.605 244.394,398.714 240.300 C 398.805 236.840,398.942 236.000,399.414 236.000 C 399.924 236.000,400.000 231.364,400.000 200.000 C 400.000 168.267,399.929 164.000,399.400 164.000 C 398.905 164.000,398.800 163.269,398.800 159.824 C 398.800 157.426,398.627 155.540,398.393 155.396 C 397.799 155.029,398.323 154.400,399.224 154.400 C 399.927 154.400,400.000 154.101,400.000 151.200 C 400.000 146.673,398.405 146.656,397.829 151.177 C 397.391 154.620,397.017 154.483,396.800 150.800 C 396.615 147.649,396.534 147.391,395.700 147.272 C 394.872 147.155,394.800 146.936,394.800 144.549 C 394.800 142.748,394.936 142.037,395.244 142.227 C 395.506 142.389,395.597 143.064,395.466 143.872 C 395.076 146.271,397.674 147.668,398.504 145.506 C 398.835 144.642,398.166 141.249,397.517 140.502 C 397.182 140.116,396.798 138.827,396.665 137.638 C 396.522 136.360,396.113 135.133,395.664 134.638 C 395.247 134.177,394.797 133.080,394.665 132.200 C 394.531 131.309,394.065 130.306,393.612 129.936 C 393.041 129.469,392.800 128.795,392.800 127.667 C 392.800 126.570,392.502 125.703,391.861 124.931 C 391.345 124.309,390.810 123.080,390.673 122.200 C 390.536 121.318,390.060 120.302,389.612 119.936 C 389.165 119.571,388.800 118.797,388.800 118.218 C 388.800 117.627,388.361 116.724,387.800 116.164 C 387.250 115.614,386.800 114.916,386.800 114.613 C 386.800 114.309,386.350 113.527,385.800 112.873 C 385.250 112.219,384.800 111.334,384.800 110.907 C 384.800 109.159,379.419 103.200,377.841 103.200 C 376.935 103.200,376.833 103.026,376.722 101.300 C 376.619 99.693,376.464 99.381,375.721 99.275 C 374.979 99.169,374.823 98.856,374.721 97.275 C 374.618 95.679,374.466 95.381,373.700 95.272 C 372.352 95.081,372.565 94.000,373.951 94.000 C 375.475 94.000,376.250 93.105,375.363 92.370 C 375.008 92.074,374.559 91.417,374.366 90.909 C 374.172 90.401,373.561 89.813,373.007 89.603 C 372.250 89.315,372.000 88.931,372.000 88.059 C 372.000 87.420,371.748 86.689,371.439 86.433 C 371.131 86.177,370.769 85.530,370.635 84.995 C 370.500 84.461,370.033 83.832,369.595 83.597 C 369.158 83.363,368.800 82.907,368.800 82.582 C 368.800 82.258,367.811 80.870,366.601 79.497 C 365.392 78.123,363.997 76.490,363.501 75.866 C 361.755 73.669,357.166 69.200,356.656 69.200 C 356.050 69.200,354.628 67.707,354.271 66.697 C 354.134 66.310,353.567 65.786,353.011 65.532 C 352.329 65.221,352.000 64.752,352.000 64.089 C 352.000 63.475,351.398 62.504,350.400 61.506 C 349.520 60.626,348.800 59.663,348.800 59.367 C 348.800 59.070,347.495 57.558,345.900 56.007 C 344.305 54.456,341.713 51.930,340.140 50.394 C 336.994 47.320,336.725 47.200,335.832 48.476 C 335.494 48.958,335.169 49.273,335.109 49.176 C 335.049 49.079,334.802 48.640,334.559 48.200 C 334.248 47.636,333.620 47.363,332.427 47.275 L 330.736 47.151 331.784 46.179 C 332.805 45.233,332.701 43.600,331.620 43.600 C 331.426 43.600,330.667 42.958,329.934 42.173 C 325.955 37.918,320.438 33.200,319.440 33.200 C 319.192 33.200,318.812 32.796,318.595 32.302 C 318.378 31.809,317.842 31.337,317.404 31.255 C 316.967 31.172,316.371 30.766,316.082 30.352 C 315.792 29.938,315.364 29.600,315.130 29.600 C 314.897 29.600,314.091 29.060,313.339 28.400 C 312.587 27.740,311.692 27.200,311.350 27.200 C 311.008 27.200,310.412 26.810,310.026 26.333 C 309.577 25.778,309.083 25.559,308.653 25.724 C 307.530 26.155,307.378 27.253,308.333 28.026 C 309.493 28.966,309.427 29.200,308.000 29.200 C 306.987 29.200,306.800 29.044,306.800 28.200 C 306.800 27.400,306.600 27.200,305.800 27.200 C 304.674 27.200,304.470 26.372,305.405 25.596 C 305.871 25.209,305.904 24.966,305.548 24.537 C 305.154 24.063,304.985 24.071,304.411 24.590 C 303.310 25.587,300.883 25.396,300.728 24.300 C 300.622 23.552,300.313 23.379,298.902 23.277 C 297.484 23.174,297.163 22.993,296.959 22.177 C 296.745 21.327,296.486 21.200,294.957 21.200 C 292.960 21.200,292.890 21.110,294.009 19.991 C 294.994 19.006,294.517 17.745,293.018 17.369 C 292.490 17.236,291.748 16.784,291.367 16.364 C 290.987 15.944,290.351 15.600,289.954 15.600 C 289.557 15.600,288.803 15.137,288.277 14.570 C 287.667 13.911,286.732 13.461,285.684 13.321 C 284.688 13.187,283.696 12.728,283.153 12.150 C 282.662 11.628,281.916 11.200,281.494 11.200 C 281.073 11.200,280.429 10.835,280.064 10.388 C 279.698 9.940,278.682 9.464,277.800 9.327 C 276.920 9.190,275.691 8.655,275.069 8.139 C 274.297 7.498,273.430 7.200,272.333 7.200 C 271.205 7.200,270.531 6.959,270.064 6.388 C 269.699 5.941,268.680 5.461,267.800 5.322 C 266.920 5.182,265.750 4.756,265.200 4.375 C 264.650 3.993,263.330 3.574,262.267 3.444 C 261.204 3.313,259.875 2.845,259.313 2.403 C 257.218 0.755,252.697 1.695,253.872 3.534 C 254.194 4.037,254.896 4.199,256.749 4.196 C 258.455 4.193,259.200 4.345,259.200 4.696 C 259.200 5.815,260.712 6.764,262.128 6.534 C 262.936 6.403,263.611 6.494,263.773 6.756 C 263.962 7.063,263.300 7.200,261.631 7.200 C 259.388 7.200,259.197 7.129,258.964 6.200 C 258.725 5.247,258.575 5.200,255.784 5.200 C 253.052 5.200,252.847 5.140,252.728 4.300 C 252.607 3.447,252.399 3.394,248.726 3.286 C 245.072 3.178,244.845 3.121,244.726 2.286 C 244.605 1.434,244.414 1.396,239.700 1.288 C 235.708 1.196,234.800 1.067,234.800 0.588 C 234.800 0.075,230.343 0.000,200.000 0.000 C 169.657 0.000,165.200 0.075,165.200 0.588 M245.600 0.751 C 245.600 2.051,246.545 2.460,248.863 2.165 C 253.349 1.595,253.302 0.000,248.800 0.000 C 245.936 0.000,245.600 0.079,245.600 0.751 M139.567 7.053 C 139.658 7.134,138.883 7.200,137.843 7.200 C 136.647 7.200,136.046 7.049,136.208 6.788 C 136.432 6.424,139.092 6.634,139.567 7.053 M135.200 8.600 C 135.200 9.061,134.689 9.200,133.000 9.200 C 131.790 9.200,130.800 9.031,130.800 8.825 C 130.800 8.619,131.410 8.549,132.155 8.670 C 132.900 8.791,133.845 8.695,134.255 8.457 C 135.216 7.899,135.200 7.897,135.200 8.600 M269.200 8.900 C 269.200 9.065,268.300 9.200,267.200 9.200 C 266.100 9.200,265.200 9.065,265.200 8.900 C 265.200 8.735,266.100 8.600,267.200 8.600 C 268.300 8.600,269.200 8.735,269.200 8.900 M128.500 11.082 C 128.005 11.178,127.195 11.178,126.700 11.082 C 126.205 10.987,126.610 10.909,127.600 10.909 C 128.590 10.909,128.995 10.987,128.500 11.082 M279.200 12.800 C 279.200 13.024,278.273 13.173,277.100 13.140 L 275.000 13.080 276.800 12.800 C 277.790 12.646,278.735 12.493,278.900 12.460 C 279.065 12.427,279.200 12.580,279.200 12.800 M283.200 14.600 C 283.200 14.989,282.814 15.198,282.100 15.194 L 281.000 15.188 282.000 14.633 C 282.550 14.328,283.045 14.061,283.100 14.039 C 283.155 14.018,283.200 14.270,283.200 14.600 M119.200 15.045 C 119.200 15.130,118.660 15.200,118.000 15.200 C 117.340 15.200,116.800 15.051,116.800 14.869 C 116.800 14.687,117.340 14.618,118.000 14.715 C 118.660 14.812,119.200 14.960,119.200 15.045 M115.167 17.056 C 115.258 17.135,114.763 17.200,114.067 17.200 C 113.370 17.200,112.800 17.017,112.800 16.792 C 112.800 16.434,114.689 16.644,115.167 17.056 M287.200 16.800 C 287.200 17.020,286.705 17.187,286.100 17.172 C 285.125 17.147,285.091 17.105,285.800 16.800 C 286.893 16.331,287.200 16.331,287.200 16.800 M110.013 19.128 C 108.611 19.268,108.185 19.072,108.562 18.462 C 108.716 18.212,109.254 18.238,110.053 18.535 L 111.303 19.000 110.013 19.128 M291.200 18.600 C 291.200 18.973,290.822 19.200,290.200 19.200 C 288.955 19.200,288.881 18.517,290.100 18.282 C 290.595 18.187,291.045 18.084,291.100 18.054 C 291.155 18.025,291.200 18.270,291.200 18.600 M87.200 32.600 C 87.200 33.000,86.800 33.200,86.000 33.200 C 85.340 33.200,84.800 33.033,84.800 32.828 C 84.800 32.508,85.185 32.366,86.900 32.054 C 87.065 32.025,87.200 32.270,87.200 32.600 M314.633 32.400 C 314.945 32.400,315.200 32.580,315.200 32.800 C 315.200 33.020,314.660 33.200,314.000 33.200 C 313.164 33.200,312.800 33.005,312.800 32.557 C 312.800 32.135,313.018 31.998,313.433 32.157 C 313.781 32.291,314.321 32.400,314.633 32.400 M289.944 96.249 C 290.629 96.386,291.641 96.917,292.194 97.430 L 293.200 98.362 293.200 120.001 C 293.200 142.840,293.152 143.472,291.382 144.152 C 291.026 144.288,275.899 144.400,257.767 144.400 L 224.800 144.400 224.800 157.749 L 224.800 171.098 226.300 171.324 C 227.125 171.449,230.140 171.561,233.000 171.574 C 239.606 171.603,243.509 171.958,244.880 172.653 C 245.558 172.996,247.346 173.204,249.680 173.211 C 254.966 173.226,260.703 173.845,261.726 174.511 C 262.300 174.884,264.278 175.155,267.495 175.302 C 271.201 175.470,272.805 175.718,274.095 176.322 C 275.212 176.844,276.981 177.185,279.225 177.311 C 281.360 177.430,283.157 177.764,283.995 178.197 C 284.734 178.580,286.541 179.043,288.010 179.228 C 289.480 179.412,291.473 179.852,292.441 180.205 C 293.408 180.557,295.305 181.092,296.656 181.393 C 298.006 181.694,299.932 182.313,300.934 182.770 C 301.936 183.226,302.991 183.602,303.278 183.604 C 303.565 183.606,304.700 184.050,305.800 184.591 C 306.900 185.132,307.990 185.581,308.222 185.587 C 308.455 185.594,309.255 186.050,310.000 186.600 C 310.745 187.150,311.667 187.600,312.047 187.600 C 312.427 187.600,313.273 188.050,313.927 188.600 C 314.581 189.150,315.227 189.600,315.363 189.600 C 317.767 189.600,321.886 197.152,321.159 200.230 C 321.007 200.873,320.769 201.901,320.631 202.513 C 320.492 203.126,320.023 203.931,319.589 204.302 C 319.155 204.674,318.800 205.203,318.800 205.479 C 318.800 205.754,318.282 206.247,317.648 206.575 C 317.015 206.902,316.391 207.447,316.261 207.785 C 316.131 208.123,315.763 208.400,315.443 208.400 C 315.123 208.400,314.353 208.825,313.731 209.345 C 313.109 209.865,312.150 210.430,311.600 210.600 C 311.050 210.771,310.177 211.241,309.659 211.645 C 309.142 212.048,308.062 212.497,307.259 212.640 C 306.457 212.784,305.530 213.132,305.200 213.413 C 304.870 213.695,303.790 214.135,302.800 214.391 C 301.810 214.648,300.280 215.197,299.400 215.611 C 298.520 216.026,296.990 216.492,296.000 216.646 C 295.010 216.799,293.840 217.151,293.400 217.427 C 292.960 217.704,291.070 218.200,289.200 218.529 C 287.330 218.859,284.720 219.435,283.400 219.810 C 282.080 220.184,279.650 220.639,278.000 220.820 C 276.350 221.001,273.662 221.520,272.027 221.974 C 269.977 222.544,267.866 222.800,265.227 222.800 C 262.248 222.800,260.913 222.992,259.200 223.666 C 257.325 224.404,255.848 224.571,249.200 224.797 C 243.918 224.976,240.680 225.270,239.170 225.708 C 237.865 226.085,234.423 226.471,230.870 226.636 L 224.800 226.919 224.800 273.613 L 224.800 320.308 223.814 320.954 C 222.935 321.530,220.356 321.599,200.114 321.594 C 177.625 321.588,176.025 321.507,174.100 320.273 C 173.705 320.020,173.600 310.200,173.600 273.376 L 173.600 226.800 170.900 226.797 C 166.373 226.791,159.080 226.014,158.211 225.444 C 157.619 225.056,155.164 224.857,149.388 224.731 C 142.170 224.572,141.229 224.471,139.792 223.699 C 138.477 222.992,137.331 222.814,133.200 222.673 C 129.436 222.544,127.616 222.292,125.837 221.651 C 124.538 221.183,122.546 220.800,121.410 220.800 C 120.275 220.800,118.008 220.426,116.373 219.969 C 114.738 219.511,112.381 218.976,111.136 218.779 C 109.891 218.582,108.091 218.136,107.136 217.788 C 106.181 217.439,104.250 216.898,102.844 216.586 C 101.438 216.274,99.901 215.765,99.428 215.455 C 98.955 215.145,97.529 214.676,96.258 214.412 C 94.988 214.148,93.856 213.691,93.743 213.396 C 93.630 213.101,92.837 212.741,91.980 212.597 C 91.124 212.452,89.985 211.989,89.449 211.567 C 88.913 211.145,88.179 210.800,87.819 210.800 C 87.458 210.800,86.758 210.395,86.263 209.900 C 85.767 209.405,84.921 208.791,84.381 208.535 C 82.915 207.839,79.200 204.422,79.200 203.769 C 79.200 203.456,78.865 202.865,78.455 202.455 C 76.972 200.972,77.090 195.924,78.621 195.337 C 78.939 195.214,79.200 194.797,79.200 194.408 C 79.200 193.635,83.729 189.200,84.518 189.200 C 84.787 189.200,85.218 188.863,85.476 188.450 C 85.733 188.038,86.437 187.577,87.040 187.426 C 87.643 187.274,88.565 186.814,89.087 186.403 C 89.610 185.992,90.614 185.533,91.319 185.383 C 92.023 185.233,92.870 184.888,93.200 184.616 C 93.530 184.344,94.700 183.883,95.800 183.591 C 96.900 183.299,98.160 182.848,98.600 182.589 C 99.040 182.330,100.480 181.892,101.800 181.616 C 103.120 181.339,105.100 180.771,106.200 180.352 C 107.300 179.933,109.370 179.434,110.800 179.242 C 112.230 179.050,114.431 178.512,115.690 178.046 C 117.188 177.493,118.919 177.200,120.696 177.200 C 122.697 177.200,123.827 176.977,124.990 176.354 C 126.270 175.668,127.518 175.468,131.584 175.294 C 134.842 175.155,136.897 174.887,137.447 174.529 C 138.586 173.787,143.958 173.207,149.714 173.203 C 153.514 173.201,154.634 173.065,155.489 172.505 C 156.363 171.932,157.930 171.762,164.375 171.540 C 168.679 171.392,172.517 171.254,172.905 171.235 C 173.567 171.202,173.604 170.367,173.505 157.900 L 173.400 144.600 140.713 144.498 L 108.026 144.395 107.013 142.905 L 106.000 141.414 106.000 120.326 C 106.000 97.989,106.009 97.877,107.930 96.685 C 109.023 96.007,286.607 95.581,289.944 96.249 M389.082 128.500 C 388.987 128.995,388.909 128.590,388.909 127.600 C 388.909 126.610,388.987 126.205,389.082 126.700 C 389.178 127.195,389.178 128.005,389.082 128.500 M11.076 128.700 C 10.975 129.085,10.893 128.770,10.893 128.000 C 10.893 127.230,10.975 126.915,11.076 127.300 C 11.176 127.685,11.176 128.315,11.076 128.700 M9.076 132.700 C 8.975 133.085,8.893 132.770,8.893 132.000 C 8.893 131.230,8.975 130.915,9.076 131.300 C 9.176 131.685,9.176 132.315,9.076 132.700 M391.351 131.900 C 390.975 133.470,390.800 133.523,390.800 132.067 C 390.800 131.370,390.983 130.800,391.208 130.800 C 391.450 130.800,391.508 131.247,391.351 131.900 M7.082 138.900 C 6.987 139.395,6.909 138.990,6.909 138.000 C 6.909 137.010,6.987 136.605,7.082 137.100 C 7.178 137.595,7.178 138.405,7.082 138.900 M393.083 138.495 C 392.987 138.993,392.905 138.680,392.901 137.800 C 392.896 136.920,392.975 136.513,393.075 136.895 C 393.175 137.278,393.179 137.998,393.083 138.495 M0.000 151.200 C 0.000 154.064,0.079 154.400,0.751 154.400 C 2.051 154.400,2.460 153.455,2.165 151.137 C 1.595 146.651,0.000 146.698,0.000 151.200 M166.600 177.663 C 164.412 178.253,161.745 178.474,154.400 178.674 C 147.046 178.874,144.910 179.051,144.589 179.487 C 144.132 180.107,138.540 180.771,133.631 180.789 C 131.441 180.797,130.471 180.974,129.931 181.463 C 129.428 181.918,127.852 182.262,124.899 182.563 C 122.251 182.832,120.216 183.251,119.600 183.654 C 119.017 184.036,117.267 184.422,115.403 184.580 C 113.465 184.744,111.946 185.087,111.545 185.450 C 111.181 185.779,109.659 186.222,108.163 186.434 C 106.666 186.646,105.162 187.067,104.821 187.370 C 104.479 187.673,103.390 188.153,102.400 188.436 C 101.410 188.720,100.171 189.277,99.646 189.676 C 99.121 190.074,98.392 190.400,98.025 190.400 C 97.436 190.400,94.521 192.279,93.383 193.392 C 91.086 195.639,92.836 201.600,95.793 201.600 C 96.141 201.600,96.528 201.868,96.654 202.196 C 96.779 202.523,97.629 202.990,98.541 203.233 C 99.454 203.476,100.502 203.944,100.871 204.273 C 101.240 204.602,102.185 205.035,102.971 205.236 C 103.757 205.436,104.985 205.776,105.700 205.991 C 113.605 208.371,120.268 209.952,122.520 209.984 C 123.136 209.993,124.161 210.270,124.799 210.599 C 125.450 210.936,128.199 211.399,131.079 211.657 C 133.895 211.909,136.682 212.357,137.270 212.652 C 137.939 212.988,141.206 213.351,145.992 213.620 C 150.782 213.890,154.270 214.277,155.321 214.656 C 159.630 216.210,240.648 216.410,242.518 214.872 C 243.196 214.313,245.604 214.034,253.265 213.623 C 256.931 213.426,260.326 213.054,260.810 212.795 C 261.293 212.536,264.152 212.078,267.162 211.776 C 270.172 211.475,273.296 210.952,274.104 210.614 C 274.913 210.276,276.255 209.994,277.087 209.986 C 279.824 209.961,294.285 206.097,297.200 204.612 C 297.750 204.332,298.920 203.873,299.800 203.591 C 300.680 203.309,301.957 202.656,302.638 202.139 C 303.319 201.623,304.014 201.200,304.184 201.200 C 306.269 201.200,308.128 195.572,306.400 194.493 C 305.960 194.218,305.600 193.725,305.600 193.397 C 305.600 193.068,305.412 192.800,305.182 192.800 C 304.952 192.800,304.353 192.389,303.850 191.887 C 303.348 191.384,302.167 190.719,301.226 190.409 C 300.285 190.098,299.425 189.609,299.315 189.322 C 299.205 189.035,298.819 188.799,298.457 188.798 C 297.300 188.794,294.845 187.988,294.284 187.427 C 293.986 187.129,292.519 186.694,291.024 186.461 C 289.528 186.229,288.012 185.783,287.653 185.472 C 287.294 185.160,285.397 184.705,283.439 184.459 C 281.475 184.213,279.589 183.752,279.235 183.431 C 278.813 183.050,277.171 182.752,274.464 182.566 C 271.710 182.376,269.853 182.035,268.884 181.541 C 267.956 181.068,266.558 180.796,265.015 180.789 C 260.678 180.770,255.180 180.079,254.188 179.429 C 253.435 178.936,252.065 178.800,247.836 178.800 C 241.108 178.800,232.825 178.129,230.227 177.374 C 229.142 177.058,227.477 176.800,226.527 176.800 L 224.800 176.800 224.800 193.151 C 224.800 207.176,224.715 209.573,224.202 209.999 C 222.559 211.362,175.744 210.944,174.354 209.554 C 173.641 208.841,173.600 207.940,173.600 192.800 L 173.600 176.800 171.500 176.854 C 170.345 176.884,168.140 177.248,166.600 177.663 M398.030 246.163 C 397.502 246.800,397.844 250.668,398.502 251.500 C 399.552 252.827,400.000 252.020,400.000 248.800 C 400.000 245.467,399.341 244.585,398.030 246.163 M393.082 262.900 C 392.987 263.395,392.909 262.990,392.909 262.000 C 392.909 261.010,392.987 260.605,393.082 261.100 C 393.178 261.595,393.178 262.405,393.082 262.900 M7.083 262.895 C 6.987 263.393,6.905 263.080,6.901 262.200 C 6.896 261.320,6.975 260.913,7.075 261.295 C 7.175 261.678,7.179 262.398,7.083 262.895 M9.030 269.103 C 8.596 269.538,8.471 268.999,8.729 267.800 L 8.987 266.600 9.124 267.737 C 9.199 268.362,9.157 268.977,9.030 269.103 M391.076 268.700 C 390.975 269.085,390.893 268.770,390.893 268.000 C 390.893 267.230,390.975 266.915,391.076 267.300 C 391.176 267.685,391.176 268.315,391.076 268.700 M11.082 273.300 C 10.987 273.795,10.909 273.390,10.909 272.400 C 10.909 271.410,10.987 271.005,11.082 271.500 C 11.178 271.995,11.178 272.805,11.082 273.300 M389.076 272.700 C 388.975 273.085,388.893 272.770,388.893 272.000 C 388.893 271.230,388.975 270.915,389.076 271.300 C 389.176 271.685,389.176 272.315,389.076 272.700 M87.200 367.443 C 87.200 367.865,86.982 368.002,86.567 367.843 C 86.219 367.709,85.679 367.600,85.367 367.600 C 85.055 367.600,84.800 367.420,84.800 367.200 C 84.800 366.980,85.340 366.800,86.000 366.800 C 86.836 366.800,87.200 366.995,87.200 367.443 M315.200 367.200 C 315.200 367.420,314.945 367.600,314.633 367.600 C 314.321 367.600,313.781 367.709,313.433 367.843 C 313.018 368.002,312.800 367.865,312.800 367.443 C 312.800 366.995,313.164 366.800,314.000 366.800 C 314.660 366.800,315.200 366.980,315.200 367.200 M111.030 381.152 C 110.641 381.781,108.800 381.940,108.800 381.345 C 108.800 381.004,109.258 380.800,110.024 380.800 C 110.697 380.800,111.149 380.959,111.030 381.152 M291.600 381.176 C 291.600 381.862,291.003 381.937,289.995 381.379 L 289.000 380.828 290.300 380.814 C 291.015 380.806,291.600 380.969,291.600 381.176 M115.167 382.944 C 114.689 383.356,112.800 383.566,112.800 383.208 C 112.800 382.983,113.370 382.800,114.067 382.800 C 114.763 382.800,115.258 382.865,115.167 382.944 M287.200 383.200 C 287.200 383.669,286.893 383.669,285.800 383.200 C 285.091 382.895,285.125 382.853,286.100 382.828 C 286.705 382.813,287.200 382.980,287.200 383.200 M118.600 385.089 C 118.160 385.198,117.575 385.469,117.300 385.692 C 116.939 385.985,116.800 385.918,116.800 385.449 C 116.800 384.974,117.148 384.812,118.100 384.846 C 118.953 384.877,119.125 384.960,118.600 385.089 M283.200 385.131 C 283.200 385.313,282.660 385.382,282.000 385.285 C 281.340 385.188,280.800 385.040,280.800 384.955 C 280.800 384.870,281.340 384.800,282.000 384.800 C 282.660 384.800,283.200 384.949,283.200 385.131 M125.000 386.998 C 123.968 387.348,120.800 387.463,120.800 387.151 C 120.800 386.958,121.835 386.814,123.100 386.832 C 124.365 386.849,125.220 386.924,125.000 386.998 M128.700 389.076 C 128.315 389.176,127.685 389.176,127.300 389.076 C 126.915 388.975,127.230 388.893,128.000 388.893 C 128.770 388.893,129.085 388.975,128.700 389.076 M273.505 389.075 C 273.122 389.175,272.402 389.179,271.905 389.083 C 271.407 388.987,271.720 388.905,272.600 388.901 C 273.480 388.896,273.887 388.975,273.505 389.075 M135.200 391.414 C 135.200 391.917,135.046 391.946,134.345 391.571 C 133.875 391.319,132.885 391.211,132.145 391.331 C 131.405 391.451,130.800 391.381,130.800 391.175 C 130.800 390.969,131.790 390.800,133.000 390.800 C 134.711 390.800,135.200 390.936,135.200 391.414 M269.200 391.100 C 269.200 391.265,268.300 391.400,267.200 391.400 C 266.100 391.400,265.200 391.265,265.200 391.100 C 265.200 390.935,266.100 390.800,267.200 390.800 C 268.300 390.800,269.200 390.935,269.200 391.100 M263.751 393.209 C 263.484 393.476,262.799 393.490,261.771 393.249 L 260.200 392.880 262.180 392.840 C 263.528 392.813,264.030 392.930,263.751 393.209 M150.402 397.897 C 146.558 398.360,147.180 400.000,151.200 400.000 C 154.519 400.000,155.293 399.453,153.920 398.080 C 153.441 397.601,153.033 397.579,150.402 397.897 M246.097 398.063 C 244.706 399.454,245.469 400.000,248.800 400.000 C 252.022 400.000,252.822 399.555,251.500 398.498 C 250.652 397.821,246.661 397.499,246.097 398.063 " stroke="none" fill="#24a37b" fill-rule="evenodd"></path><path id="path2" d="M107.762 98.100 C 107.001 98.999,107.001 98.999,107.831 98.300 C 109.124 97.212,289.841 97.212,291.159 98.300 C 292.000 98.995,292.007 99.156,292.109 120.000 L 292.211 141.000 292.205 119.612 L 292.200 98.224 291.200 97.718 C 290.403 97.314,271.790 97.211,199.362 97.206 L 108.524 97.200 107.762 98.100 M106.834 140.126 C 106.792 141.027,107.523 142.440,108.365 143.087 C 108.852 143.461,116.487 143.578,141.051 143.587 C 168.823 143.598,173.168 143.679,173.592 144.191 C 174.394 145.157,174.401 170.825,173.600 171.522 C 173.097 171.960,173.145 171.974,173.900 171.608 L 174.800 171.172 174.800 158.040 C 174.800 145.360,174.771 144.872,173.971 143.854 L 173.142 142.800 140.820 142.800 C 105.580 142.800,107.937 142.960,107.207 140.526 C 107.001 139.840,106.855 139.684,106.834 140.126 M291.681 142.018 C 291.203 142.784,290.503 142.800,257.997 142.800 C 235.645 142.800,224.800 142.934,224.800 143.209 C 224.800 143.485,235.508 143.583,257.789 143.509 L 290.778 143.400 291.667 142.511 C 292.156 142.022,292.469 141.535,292.363 141.429 C 292.257 141.323,291.950 141.588,291.681 142.018 M224.576 158.000 C 224.576 164.270,224.632 166.835,224.699 163.700 C 224.767 160.565,224.767 155.435,224.699 152.300 C 224.632 149.165,224.576 151.730,224.576 158.000 M160.400 172.631 L 157.000 173.155 160.600 172.915 C 162.580 172.783,165.730 172.552,167.600 172.401 L 171.000 172.127 167.400 172.117 C 165.420 172.112,162.270 172.344,160.400 172.631 M231.600 172.420 C 234.350 172.584,237.770 172.915,239.200 173.156 C 240.630 173.397,242.610 173.570,243.600 173.540 C 245.210 173.492,245.126 173.453,242.800 173.168 C 241.370 172.993,238.940 172.665,237.400 172.438 C 235.860 172.212,232.800 172.048,230.600 172.075 L 226.600 172.123 231.600 172.420 M147.900 173.893 C 148.835 173.977,150.365 173.977,151.300 173.893 C 152.235 173.809,151.470 173.740,149.600 173.740 C 147.730 173.740,146.965 173.809,147.900 173.893 M247.900 173.893 C 248.835 173.977,250.365 173.977,251.300 173.893 C 252.235 173.809,251.470 173.740,249.600 173.740 C 247.730 173.740,246.965 173.809,247.900 173.893 M140.600 174.609 C 139.500 174.915,138.150 175.187,137.600 175.214 C 137.050 175.241,136.840 175.359,137.133 175.476 C 137.425 175.593,139.135 175.399,140.933 175.044 C 142.730 174.690,144.650 174.335,145.200 174.255 C 145.750 174.175,145.390 174.097,144.400 174.081 C 143.410 174.066,141.700 174.304,140.600 174.609 M255.800 174.607 C 259.332 175.275,260.262 175.268,258.200 174.589 C 257.320 174.299,255.790 174.065,254.800 174.069 C 253.157 174.076,253.244 174.123,255.800 174.607 M260.500 175.476 C 260.885 175.576,261.515 175.576,261.900 175.476 C 262.285 175.375,261.970 175.293,261.200 175.293 C 260.430 175.293,260.115 175.375,260.500 175.476 M128.800 176.202 C 127.590 176.497,125.970 176.927,125.200 177.158 C 123.251 177.743,125.442 177.462,128.000 176.799 C 128.990 176.542,130.970 176.191,132.400 176.019 C 134.911 175.716,134.932 175.704,133.000 175.686 C 131.900 175.676,130.010 175.908,128.800 176.202 M264.300 175.889 C 265.015 175.978,266.185 175.978,266.900 175.889 C 267.615 175.801,267.030 175.728,265.600 175.728 C 264.170 175.728,263.585 175.801,264.300 175.889 M271.000 176.827 C 274.650 177.811,275.769 177.766,272.400 176.771 C 270.970 176.349,269.440 176.019,269.000 176.038 C 268.560 176.057,269.460 176.412,271.000 176.827 M166.700 176.689 C 167.415 176.778,168.585 176.778,169.300 176.689 C 170.015 176.601,169.430 176.528,168.000 176.528 C 166.570 176.528,165.985 176.601,166.700 176.689 M229.107 176.690 C 229.826 176.779,230.906 176.777,231.507 176.686 C 232.108 176.595,231.520 176.522,230.200 176.524 C 228.880 176.526,228.388 176.601,229.107 176.690 M160.400 177.056 C 160.070 177.147,158.360 177.387,156.600 177.590 L 153.400 177.960 157.544 177.775 C 159.824 177.673,161.984 177.418,162.344 177.207 C 163.041 176.800,161.715 176.698,160.400 177.056 M174.304 178.200 C 174.142 179.080,174.007 185.920,174.006 193.400 C 174.002 210.915,173.673 210.218,181.800 209.904 L 185.400 209.765 181.154 209.682 C 177.547 209.612,176.750 209.476,175.859 208.775 L 174.809 207.949 174.705 192.275 C 174.647 183.654,174.467 177.320,174.304 178.200 M238.200 177.377 C 239.300 177.677,241.280 177.914,242.600 177.903 L 245.000 177.882 242.800 177.607 C 241.590 177.455,239.610 177.218,238.400 177.081 L 236.200 176.830 238.200 177.377 M120.305 177.883 C 120.802 177.979,121.522 177.975,121.905 177.875 C 122.287 177.775,121.880 177.696,121.000 177.701 C 120.120 177.705,119.807 177.787,120.305 177.883 M277.600 177.831 C 279.020 178.099,281.763 178.744,282.648 179.018 C 283.062 179.146,282.923 178.973,282.340 178.634 C 281.757 178.294,280.227 177.932,278.940 177.830 C 277.653 177.727,277.050 177.728,277.600 177.831 M117.097 178.433 C 116.711 178.658,115.631 178.993,114.697 179.177 C 113.337 179.446,113.238 179.515,114.200 179.525 C 114.860 179.532,116.300 179.206,117.400 178.800 C 118.500 178.394,119.040 178.054,118.600 178.043 C 118.160 178.033,117.484 178.208,117.097 178.433 M148.691 178.289 C 149.401 178.377,150.661 178.379,151.491 178.292 C 152.321 178.205,151.740 178.133,150.200 178.131 C 148.660 178.129,147.981 178.200,148.691 178.289 M246.700 178.293 C 247.635 178.377,249.165 178.377,250.100 178.293 C 251.035 178.209,250.270 178.140,248.400 178.140 C 246.530 178.140,245.765 178.209,246.700 178.293 M144.100 178.676 C 144.485 178.776,145.115 178.776,145.500 178.676 C 145.885 178.575,145.570 178.493,144.800 178.493 C 144.030 178.493,143.715 178.575,144.100 178.676 M253.505 178.683 C 254.002 178.779,254.722 178.775,255.105 178.675 C 255.487 178.575,255.080 178.496,254.200 178.501 C 253.320 178.505,253.007 178.587,253.505 178.683 M140.341 178.993 C 140.235 179.099,139.170 179.348,137.974 179.546 C 135.994 179.874,135.943 179.907,137.400 179.915 C 139.490 179.926,143.611 178.919,141.767 178.848 C 141.088 178.821,140.447 178.887,140.341 178.993 M224.581 193.000 C 224.580 200.920,224.634 204.217,224.699 200.326 C 224.765 196.435,224.765 189.955,224.700 185.926 C 224.634 181.897,224.581 185.080,224.581 193.000 M257.670 179.180 C 258.038 179.414,259.478 179.687,260.870 179.786 C 262.867 179.929,263.063 179.899,261.800 179.645 C 257.764 178.834,256.988 178.747,257.670 179.180 M108.815 180.414 C 107.614 180.846,106.264 181.221,105.815 181.246 C 105.132 181.285,105.114 181.323,105.706 181.477 C 106.095 181.578,107.535 181.299,108.906 180.856 C 110.278 180.413,111.760 179.970,112.200 179.872 C 112.838 179.729,112.798 179.686,112.000 179.661 C 111.450 179.643,110.017 179.982,108.815 180.414 M288.000 180.154 C 291.037 181.115,291.926 181.266,290.402 180.563 C 289.634 180.208,288.374 179.843,287.602 179.751 C 286.333 179.601,286.370 179.639,288.000 180.154 M132.500 180.287 C 133.105 180.378,134.095 180.378,134.700 180.287 C 135.305 180.195,134.810 180.120,133.600 180.120 C 132.390 180.120,131.895 180.195,132.500 180.287 M264.705 180.283 C 265.202 180.379,265.922 180.375,266.305 180.275 C 266.687 180.175,266.280 180.096,265.400 180.101 C 264.520 180.105,264.207 180.187,264.705 180.283 M125.200 181.420 C 123.662 181.860,123.575 181.936,124.600 181.937 C 125.260 181.938,126.430 181.697,127.200 181.400 C 128.982 180.714,127.619 180.727,125.200 181.420 M271.600 181.364 C 272.370 181.681,273.630 181.932,274.400 181.924 L 275.800 181.908 274.400 181.599 C 273.630 181.429,272.370 181.177,271.600 181.040 L 270.200 180.790 271.600 181.364 M293.400 181.640 C 294.280 181.838,295.776 182.289,296.724 182.642 C 297.673 182.996,298.545 183.188,298.663 183.070 C 298.953 182.780,293.735 181.190,292.658 181.240 C 292.186 181.262,292.520 181.442,293.400 181.640 M101.400 182.394 C 100.300 182.802,97.389 183.868,94.931 184.763 C 85.099 188.343,78.000 194.311,78.000 198.996 C 78.000 200.764,81.018 205.563,82.762 206.568 C 83.113 206.771,82.709 206.231,81.865 205.368 C 76.019 199.395,78.519 193.195,89.000 187.675 C 91.437 186.392,92.757 185.879,100.600 183.168 C 103.020 182.331,104.640 181.648,104.200 181.649 C 103.760 181.651,102.500 181.986,101.400 182.394 M115.400 183.445 L 113.800 184.007 115.562 183.789 C 117.479 183.552,119.282 182.799,117.800 182.854 C 117.360 182.870,116.280 183.136,115.400 183.445 M281.400 183.103 C 281.796 183.511,285.596 184.441,286.520 184.356 C 286.784 184.331,286.100 184.074,285.000 183.783 C 283.900 183.492,282.550 183.128,282.000 182.973 C 281.318 182.781,281.127 182.822,281.400 183.103 M299.600 183.472 C 299.930 183.587,301.342 184.125,302.739 184.668 C 304.135 185.212,305.348 185.585,305.435 185.498 C 305.681 185.252,300.471 183.196,299.692 183.232 C 299.145 183.257,299.126 183.307,299.600 183.472 M111.400 184.400 C 110.381 184.838,111.432 184.838,112.800 184.400 C 113.604 184.143,113.643 184.077,113.000 184.068 C 112.560 184.062,111.840 184.211,111.400 184.400 M106.600 185.780 C 105.060 186.297,103.937 186.738,104.105 186.760 C 104.542 186.817,110.073 185.261,110.324 185.010 C 110.762 184.571,109.299 184.874,106.600 185.780 M290.244 185.411 C 290.928 185.711,292.008 186.064,292.644 186.195 C 293.280 186.325,292.900 186.065,291.800 185.616 C 289.594 184.717,288.260 184.540,290.244 185.411 M309.934 187.724 C 312.414 188.969,315.056 190.678,316.534 191.994 C 319.147 194.319,318.903 193.699,316.200 191.146 C 314.786 189.811,307.049 185.561,306.145 185.624 C 305.955 185.637,307.660 186.582,309.934 187.724 M296.000 187.368 C 298.373 188.378,300.322 189.024,300.000 188.695 C 299.704 188.393,294.597 186.397,294.169 186.416 C 293.966 186.425,294.790 186.854,296.000 187.368 M101.000 187.826 C 99.900 188.356,99.227 188.792,99.504 188.795 C 100.055 188.800,103.600 187.209,103.600 186.956 C 103.600 186.662,102.999 186.864,101.000 187.826 M96.260 190.033 C 93.601 191.702,90.789 194.666,90.846 195.737 C 90.886 196.468,90.922 196.487,91.083 195.862 C 91.501 194.239,94.295 191.502,96.900 190.163 C 98.669 189.254,99.217 188.789,98.500 188.808 C 98.335 188.812,97.327 189.363,96.260 190.033 M301.800 189.778 C 307.906 193.414,309.381 196.927,306.259 200.400 L 305.000 201.800 306.464 200.457 C 309.910 197.294,308.303 193.158,302.277 189.679 C 301.440 189.196,300.630 188.806,300.477 188.812 C 300.325 188.819,300.920 189.254,301.800 189.778 M319.604 195.700 C 321.330 198.531,320.507 201.675,317.022 205.563 C 316.016 206.686,315.968 206.814,316.753 206.288 C 318.700 204.985,320.800 201.272,320.800 199.133 C 320.800 197.053,319.918 194.400,319.226 194.400 C 318.998 194.400,319.168 194.985,319.604 195.700 M90.832 197.830 C 90.815 198.287,91.290 199.097,91.888 199.630 C 92.528 200.201,92.734 200.288,92.388 199.842 C 92.065 199.425,91.590 198.615,91.332 198.042 C 90.919 197.121,90.861 197.097,90.832 197.830 M94.690 202.200 C 95.833 202.970,96.908 203.600,97.079 203.600 C 97.250 203.600,96.454 202.970,95.310 202.200 C 94.167 201.430,93.092 200.800,92.921 200.800 C 92.750 200.800,93.546 201.430,94.690 202.200 M303.552 202.352 C 301.923 203.633,296.345 206.005,292.200 207.178 C 291.397 207.406,291.261 207.532,291.790 207.559 C 293.415 207.643,301.990 204.091,303.864 202.558 C 305.215 201.453,304.932 201.266,303.552 202.352 M99.000 204.518 C 100.755 205.513,105.279 207.255,105.510 207.023 C 105.590 206.943,104.608 206.497,103.328 206.030 C 102.047 205.564,100.345 204.826,99.546 204.391 C 97.523 203.291,97.037 203.404,99.000 204.518 M83.600 207.209 C 83.600 207.413,84.135 207.856,84.789 208.194 C 85.443 208.532,86.638 209.257,87.445 209.805 C 88.252 210.352,89.202 210.789,89.556 210.775 C 89.983 210.758,89.897 210.627,89.300 210.388 C 88.805 210.189,87.320 209.308,86.000 208.432 C 84.680 207.555,83.600 207.004,83.600 207.209 M313.292 208.332 C 312.133 209.094,311.256 209.790,311.344 209.878 C 311.467 210.000,314.476 208.184,315.567 207.330 C 316.589 206.530,314.905 207.272,313.292 208.332 M109.955 208.423 C 115.206 210.288,138.599 214.440,143.200 214.324 C 143.970 214.304,142.800 214.064,140.600 213.789 C 129.321 212.380,113.467 209.422,110.451 208.163 C 109.709 207.853,108.809 207.613,108.451 207.629 C 108.093 207.645,108.770 208.003,109.955 208.423 M223.795 208.500 C 223.436 209.317,223.049 209.421,219.600 209.623 L 215.800 209.847 219.471 209.923 C 223.251 210.002,224.400 209.594,224.400 208.171 C 224.400 207.376,224.253 207.456,223.795 208.500 M289.141 208.009 C 287.680 208.862,278.067 210.774,262.400 213.328 C 261.447 213.483,261.452 213.494,262.521 213.546 C 264.034 213.619,278.781 211.075,284.000 209.840 C 288.035 208.885,291.651 207.635,290.400 207.628 C 290.070 207.626,289.503 207.798,289.141 208.009 M193.326 210.300 C 197.466 210.365,204.126 210.365,208.126 210.299 C 212.127 210.234,208.740 210.181,200.600 210.181 C 192.460 210.181,189.187 210.234,193.326 210.300 M90.635 211.195 C 91.124 211.684,99.351 214.808,100.074 214.779 C 100.363 214.768,98.897 214.132,96.816 213.367 C 94.735 212.601,92.503 211.711,91.855 211.388 C 90.483 210.703,90.080 210.640,90.635 211.195 M307.000 211.622 C 305.241 212.454,305.557 212.652,307.540 211.961 C 308.437 211.648,309.562 210.553,308.700 210.832 C 308.645 210.850,307.880 211.205,307.000 211.622 M301.000 213.822 C 299.680 214.334,298.793 214.763,299.029 214.776 C 299.661 214.811,303.338 213.550,303.780 213.147 C 304.357 212.620,303.677 212.785,301.000 213.822 M250.600 214.624 C 248.400 214.917,245.790 215.190,244.800 215.232 C 243.626 215.282,243.348 215.375,244.000 215.498 C 244.800 215.649,254.632 214.772,258.200 214.230 C 260.863 213.826,253.880 214.188,250.600 214.624 M148.800 215.018 C 154.134 215.690,155.999 215.667,151.800 214.982 C 150.040 214.695,147.700 214.467,146.600 214.475 C 145.240 214.485,145.945 214.659,148.800 215.018 M100.800 214.937 C 100.800 215.238,105.887 216.809,106.742 216.772 C 107.104 216.756,106.230 216.388,104.800 215.954 C 103.370 215.520,101.885 215.062,101.500 214.936 C 101.115 214.810,100.800 214.810,100.800 214.937 M295.600 215.600 C 294.610 216.015,293.350 216.386,292.800 216.424 C 292.093 216.473,292.007 216.547,292.506 216.677 C 293.168 216.849,298.400 215.332,298.400 214.967 C 298.400 214.628,297.353 214.865,295.600 215.600 M156.291 215.889 C 157.001 215.977,158.261 215.979,159.091 215.892 C 159.921 215.805,159.340 215.733,157.800 215.731 C 156.260 215.729,155.581 215.800,156.291 215.889 M240.105 215.887 C 240.714 215.979,241.614 215.977,242.105 215.882 C 242.597 215.787,242.100 215.711,241.000 215.714 C 239.900 215.717,239.497 215.795,240.105 215.887 M166.400 216.429 C 189.263 217.652,203.281 217.854,217.400 217.165 C 236.527 216.232,238.269 216.123,235.000 216.070 C 233.240 216.041,226.760 216.279,220.600 216.598 C 206.422 217.333,196.077 217.333,179.200 216.600 C 171.830 216.280,164.630 216.040,163.200 216.068 C 161.770 216.096,163.210 216.258,166.400 216.429 M108.451 217.204 C 109.425 217.774,113.624 218.806,114.784 218.761 C 115.343 218.739,114.720 218.496,113.400 218.220 C 112.080 217.943,110.493 217.511,109.874 217.259 C 108.521 216.708,107.536 216.670,108.451 217.204 M287.800 217.636 C 286.700 218.037,286.160 218.359,286.600 218.351 C 287.040 218.344,288.300 218.006,289.400 217.600 C 290.500 217.194,291.040 216.872,290.600 216.884 C 290.160 216.897,288.900 217.235,287.800 217.636 M283.700 218.676 C 284.085 218.776,284.715 218.776,285.100 218.676 C 285.485 218.575,285.170 218.493,284.400 218.493 C 283.630 218.493,283.315 218.575,283.700 218.676 M117.801 219.359 C 118.461 219.668,119.901 220.027,121.001 220.157 L 123.000 220.392 120.800 219.776 C 117.346 218.808,116.319 218.665,117.801 219.359 M280.301 219.033 C 280.172 219.161,279.197 219.520,278.134 219.831 L 276.200 220.396 277.924 220.189 C 279.997 219.941,282.679 218.884,281.367 218.833 C 280.908 218.815,280.429 218.905,280.301 219.033 M123.900 220.682 C 124.395 220.778,125.205 220.778,125.700 220.682 C 126.195 220.587,125.790 220.509,124.800 220.509 C 123.810 220.509,123.405 220.587,123.900 220.682 M273.305 220.687 C 273.914 220.779,274.814 220.777,275.305 220.682 C 275.797 220.587,275.300 220.511,274.200 220.514 C 273.100 220.517,272.697 220.595,273.305 220.687 M127.712 221.045 C 128.059 221.392,132.802 222.376,134.000 222.350 C 134.550 222.337,133.560 221.989,131.800 221.576 C 128.432 220.786,127.306 220.639,127.712 221.045 M269.244 221.233 C 268.717 221.444,267.097 221.785,265.644 221.991 L 263.000 222.365 265.832 222.211 C 267.389 222.127,269.279 221.790,270.032 221.462 C 271.518 220.814,270.807 220.608,269.244 221.233 M137.305 222.687 C 137.914 222.779,138.814 222.777,139.305 222.682 C 139.797 222.587,139.300 222.511,138.200 222.514 C 137.100 222.517,136.697 222.595,137.305 222.687 M259.300 222.687 C 259.905 222.778,260.895 222.778,261.500 222.687 C 262.105 222.595,261.610 222.520,260.400 222.520 C 259.190 222.520,258.695 222.595,259.300 222.687 M141.293 223.026 C 141.774 223.508,147.936 224.370,150.600 224.329 L 153.400 224.286 149.799 223.989 C 147.819 223.826,145.479 223.493,144.599 223.248 C 142.908 222.779,140.912 222.645,141.293 223.026 M254.404 223.248 C 253.857 223.466,251.787 223.790,249.804 223.968 C 246.938 224.224,246.650 224.300,248.400 224.337 C 251.029 224.393,255.825 223.744,256.744 223.208 C 257.663 222.671,255.769 222.703,254.404 223.248 M156.500 224.687 C 157.105 224.778,158.095 224.778,158.700 224.687 C 159.305 224.595,158.810 224.520,157.600 224.520 C 156.390 224.520,155.895 224.595,156.500 224.687 M239.491 224.689 C 240.201 224.777,241.461 224.779,242.291 224.692 C 243.121 224.605,242.540 224.533,241.000 224.531 C 239.460 224.529,238.781 224.600,239.491 224.689 M164.800 225.384 C 166.230 225.696,168.660 225.967,170.200 225.988 C 171.750 226.009,173.268 226.243,173.600 226.513 C 174.127 226.941,174.200 232.604,174.200 273.086 C 174.200 316.790,174.237 319.208,174.914 319.886 C 175.581 320.553,177.199 320.607,199.462 320.709 C 223.450 320.819,224.423 320.770,224.388 319.451 C 224.381 319.203,224.192 319.315,223.968 319.700 C 223.458 320.576,177.716 320.800,175.819 319.936 L 174.800 319.472 174.800 273.182 L 174.800 226.892 173.900 226.307 C 173.405 225.985,171.560 225.603,169.800 225.459 C 168.040 225.314,165.610 225.111,164.400 225.007 L 162.200 224.818 164.800 225.384 M231.200 225.220 C 230.210 225.397,228.477 225.554,227.349 225.570 C 225.951 225.591,225.123 225.812,224.749 226.265 C 224.258 226.860,224.285 226.887,225.000 226.519 C 225.440 226.293,227.920 225.985,230.511 225.837 C 235.441 225.553,238.829 224.828,235.000 224.875 C 233.900 224.889,232.190 225.044,231.200 225.220 M224.593 273.200 C 224.593 297.730,224.641 307.765,224.700 295.500 C 224.759 283.235,224.759 263.165,224.700 250.900 C 224.641 238.635,224.593 248.670,224.593 273.200 " stroke="none" fill="#70c2a9" fill-rule="evenodd"></path><path id="path3" d="M107.930 96.685 C 106.009 97.877,106.000 97.989,106.000 120.326 L 106.000 141.414 107.013 142.905 L 108.026 144.395 140.713 144.498 L 173.400 144.600 173.505 157.900 C 173.604 170.367,173.567 171.202,172.905 171.235 C 172.517 171.254,168.679 171.392,164.375 171.540 C 157.930 171.762,156.363 171.932,155.489 172.505 C 154.634 173.065,153.514 173.201,149.714 173.203 C 143.958 173.207,138.586 173.787,137.447 174.529 C 136.897 174.887,134.842 175.155,131.584 175.294 C 127.518 175.468,126.270 175.668,124.990 176.354 C 123.827 176.977,122.697 177.200,120.696 177.200 C 118.919 177.200,117.188 177.493,115.690 178.046 C 114.431 178.512,112.230 179.050,110.800 179.242 C 109.370 179.434,107.300 179.933,106.200 180.352 C 105.100 180.771,103.120 181.339,101.800 181.616 C 100.480 181.892,99.040 182.330,98.600 182.589 C 98.160 182.848,96.900 183.299,95.800 183.591 C 94.700 183.883,93.530 184.344,93.200 184.616 C 92.870 184.888,92.023 185.233,91.319 185.383 C 90.614 185.533,89.610 185.992,89.087 186.403 C 88.565 186.814,87.643 187.274,87.040 187.426 C 86.437 187.577,85.733 188.038,85.476 188.450 C 85.218 188.863,84.787 189.200,84.518 189.200 C 83.729 189.200,79.200 193.635,79.200 194.408 C 79.200 194.797,78.939 195.214,78.621 195.337 C 77.090 195.924,76.972 200.972,78.455 202.455 C 78.865 202.865,79.200 203.456,79.200 203.769 C 79.200 204.422,82.915 207.839,84.381 208.535 C 84.921 208.791,85.767 209.405,86.263 209.900 C 86.758 210.395,87.458 210.800,87.819 210.800 C 88.179 210.800,88.913 211.145,89.449 211.567 C 89.985 211.989,91.124 212.452,91.980 212.597 C 92.837 212.741,93.630 213.101,93.743 213.396 C 93.856 213.691,94.988 214.148,96.258 214.412 C 97.529 214.676,98.955 215.145,99.428 215.455 C 99.901 215.765,101.438 216.274,102.844 216.586 C 104.250 216.898,106.181 217.439,107.136 217.788 C 108.091 218.136,109.891 218.582,111.136 218.779 C 112.381 218.976,114.738 219.511,116.373 219.969 C 118.008 220.426,120.258 220.783,121.373 220.762 L 123.400 220.725 120.732 220.194 C 119.264 219.901,117.734 219.493,117.332 219.286 C 116.929 219.079,115.488 218.800,114.128 218.664 C 112.769 218.529,110.699 218.054,109.528 217.609 C 108.358 217.164,107.067 216.800,106.661 216.800 C 105.618 216.800,94.451 213.037,91.870 211.816 C 90.689 211.257,89.554 210.800,89.348 210.800 C 89.142 210.800,87.989 210.181,86.787 209.425 C 74.771 201.869,75.444 194.915,88.932 187.259 C 92.732 185.102,104.285 181.321,111.800 179.775 C 113.340 179.458,115.470 178.917,116.532 178.572 C 117.595 178.226,119.964 177.789,121.795 177.600 C 123.627 177.411,125.978 176.968,127.018 176.614 C 128.059 176.261,131.001 175.810,133.555 175.612 C 136.110 175.413,139.280 174.971,140.600 174.629 C 141.920 174.286,145.970 173.831,149.600 173.617 C 153.230 173.404,158.090 172.958,160.400 172.627 C 162.710 172.296,166.447 172.020,168.705 172.013 C 174.751 171.994,174.211 173.392,174.137 157.952 C 174.090 148.281,173.944 144.615,173.588 144.185 C 173.169 143.680,168.694 143.600,141.026 143.600 C 106.122 143.600,107.258 143.671,107.183 141.484 C 106.822 130.949,107.339 98.509,107.878 97.914 C 108.719 96.984,289.368 96.791,291.200 97.718 L 292.200 98.224 292.303 120.047 C 292.407 141.815,292.405 141.872,291.562 142.635 C 290.746 143.373,289.571 143.404,257.758 143.509 C 236.633 143.579,224.800 143.758,224.800 144.009 C 224.800 144.441,290.263 144.581,291.382 144.152 C 293.152 143.472,293.200 142.840,293.200 120.001 L 293.200 98.362 292.194 97.430 C 291.641 96.917,290.629 96.386,289.944 96.249 C 286.607 95.581,109.023 96.007,107.930 96.685 M224.460 170.110 C 224.376 171.657,225.117 171.845,232.400 172.126 C 235.810 172.258,239.230 172.545,240.000 172.765 C 240.770 172.985,244.730 173.357,248.800 173.590 C 252.870 173.824,257.129 174.283,258.265 174.609 C 259.401 174.935,262.461 175.376,265.065 175.590 C 267.669 175.803,270.700 176.259,271.800 176.605 C 272.900 176.950,275.465 177.401,277.500 177.606 C 279.535 177.811,281.724 178.251,282.366 178.582 C 283.007 178.914,284.582 179.303,285.866 179.447 C 287.149 179.590,289.100 180.044,290.200 180.454 C 291.300 180.864,292.521 181.200,292.914 181.200 C 297.054 181.201,313.435 188.416,316.625 191.644 C 317.711 192.743,318.906 193.953,319.280 194.332 C 319.654 194.712,320.138 195.467,320.355 196.011 L 320.749 197.000 320.775 195.905 C 320.798 194.907,316.255 189.600,315.378 189.600 C 315.234 189.600,314.581 189.150,313.927 188.600 C 313.273 188.050,312.427 187.600,312.047 187.600 C 311.667 187.600,310.745 187.150,310.000 186.600 C 309.255 186.050,308.455 185.594,308.222 185.587 C 307.990 185.581,306.900 185.132,305.800 184.591 C 304.700 184.050,303.565 183.606,303.278 183.604 C 302.991 183.602,301.936 183.226,300.934 182.770 C 299.932 182.313,298.006 181.694,296.656 181.393 C 295.305 181.092,293.408 180.557,292.441 180.205 C 291.473 179.852,289.480 179.412,288.010 179.228 C 286.541 179.043,284.734 178.580,283.995 178.197 C 283.157 177.764,281.360 177.430,279.225 177.311 C 276.981 177.185,275.212 176.844,274.095 176.322 C 272.805 175.718,271.201 175.470,267.495 175.302 C 264.278 175.155,262.300 174.884,261.726 174.511 C 260.703 173.845,254.966 173.226,249.680 173.211 C 247.346 173.204,245.558 172.996,244.880 172.653 C 243.509 171.958,239.606 171.603,233.000 171.574 C 225.828 171.542,224.885 171.369,224.682 170.052 L 224.520 169.000 224.460 170.110 M171.105 176.683 C 171.602 176.779,172.322 176.775,172.705 176.675 C 173.087 176.575,172.680 176.496,171.800 176.501 C 170.920 176.505,170.607 176.587,171.105 176.683 M224.554 176.977 C 224.432 177.294,224.417 177.879,224.520 178.277 C 224.645 178.760,224.723 178.642,224.754 177.923 C 224.795 176.956,224.973 176.830,226.500 176.693 L 228.200 176.540 226.487 176.470 C 225.315 176.422,224.705 176.582,224.554 176.977 M162.315 177.223 C 161.939 177.443,158.069 177.865,153.715 178.161 L 145.800 178.700 151.200 178.741 C 157.937 178.791,165.236 178.221,167.600 177.459 L 169.400 176.879 166.200 176.852 C 164.440 176.837,162.692 177.004,162.315 177.223 M173.600 192.800 C 173.600 207.940,173.641 208.841,174.354 209.554 C 175.362 210.562,188.324 210.993,208.902 210.702 C 224.852 210.477,224.828 210.481,224.764 208.251 L 224.728 207.000 224.354 208.295 C 224.091 209.206,223.657 209.680,222.890 209.895 C 221.058 210.408,177.567 210.217,176.319 209.690 C 173.998 208.711,173.935 208.209,174.074 191.769 C 174.143 183.536,174.065 176.800,173.900 176.800 C 173.735 176.800,173.600 184.000,173.600 192.800 M230.400 177.400 C 232.889 178.153,241.396 178.812,247.722 178.741 L 253.000 178.683 247.000 178.344 C 243.700 178.158,239.763 177.735,238.251 177.403 C 236.739 177.071,233.949 176.813,232.051 176.828 L 228.600 176.856 230.400 177.400 M140.800 179.420 C 139.590 179.713,136.800 180.133,134.600 180.354 C 130.626 180.752,130.638 180.754,136.404 180.569 C 142.497 180.373,144.443 180.071,144.707 179.278 C 144.907 178.678,143.686 178.723,140.800 179.420 M253.793 179.189 C 254.249 179.927,257.015 180.369,262.400 180.564 L 267.800 180.761 263.205 180.201 C 260.678 179.894,258.194 179.452,257.686 179.221 C 256.514 178.687,253.468 178.662,253.793 179.189 M127.600 181.255 C 127.050 181.477,124.939 181.911,122.909 182.219 C 120.879 182.526,118.359 183.032,117.309 183.344 C 116.259 183.655,114.230 184.182,112.800 184.515 C 108.486 185.519,103.501 187.068,101.719 187.960 C 100.795 188.422,99.882 188.800,99.690 188.800 C 97.613 188.800,91.674 193.743,91.096 195.953 C 90.154 199.556,99.423 205.929,107.800 207.437 C 108.680 207.596,109.940 207.951,110.600 208.226 C 113.858 209.583,130.802 212.635,141.600 213.809 C 144.570 214.132,149.160 214.662,151.800 214.987 C 157.652 215.708,160.245 215.864,178.798 216.612 C 207.802 217.781,234.082 216.800,260.200 213.573 C 269.281 212.451,285.106 209.460,288.600 208.205 C 289.480 207.889,290.920 207.451,291.800 207.231 C 300.028 205.178,307.095 200.981,307.779 197.741 C 308.825 192.793,299.232 187.041,285.200 184.204 C 283.330 183.826,281.620 183.375,281.400 183.201 C 281.180 183.028,279.290 182.670,277.200 182.406 C 275.110 182.142,272.549 181.659,271.509 181.334 C 270.469 181.008,269.209 180.814,268.709 180.902 C 266.813 181.236,270.528 182.294,274.600 182.580 C 277.175 182.761,278.828 183.066,279.239 183.437 C 279.590 183.754,281.480 184.214,283.439 184.459 C 285.397 184.705,287.294 185.160,287.653 185.472 C 288.012 185.783,289.528 186.229,291.024 186.461 C 292.519 186.694,293.986 187.129,294.284 187.427 C 294.845 187.988,297.300 188.794,298.457 188.798 C 298.819 188.799,299.205 189.035,299.315 189.322 C 299.425 189.609,300.285 190.098,301.226 190.409 C 302.167 190.719,303.348 191.384,303.850 191.887 C 304.353 192.389,304.952 192.800,305.182 192.800 C 305.412 192.800,305.600 193.068,305.600 193.397 C 305.600 193.725,305.960 194.218,306.400 194.493 C 308.128 195.572,306.269 201.200,304.184 201.200 C 304.014 201.200,303.319 201.623,302.638 202.139 C 301.957 202.656,300.680 203.309,299.800 203.591 C 298.920 203.873,297.750 204.332,297.200 204.612 C 294.285 206.097,279.824 209.961,277.087 209.986 C 276.255 209.994,274.913 210.276,274.104 210.614 C 273.296 210.952,270.172 211.475,267.162 211.776 C 264.152 212.078,261.293 212.536,260.810 212.795 C 260.326 213.054,256.931 213.426,253.265 213.623 C 245.604 214.034,243.196 214.313,242.518 214.872 C 240.648 216.410,159.630 216.210,155.321 214.656 C 154.270 214.277,150.782 213.890,145.992 213.620 C 141.206 213.351,137.939 212.988,137.270 212.652 C 136.682 212.357,133.895 211.909,131.079 211.657 C 128.199 211.399,125.450 210.936,124.799 210.599 C 124.161 210.270,123.136 209.993,122.520 209.984 C 120.268 209.952,113.605 208.371,105.700 205.991 C 104.985 205.776,103.757 205.436,102.971 205.236 C 102.185 205.035,101.240 204.602,100.871 204.273 C 100.502 203.944,99.454 203.476,98.541 203.233 C 97.629 202.990,96.779 202.523,96.654 202.196 C 96.528 201.868,96.141 201.600,95.793 201.600 C 92.836 201.600,91.086 195.639,93.383 193.392 C 94.521 192.279,97.436 190.400,98.025 190.400 C 98.392 190.400,99.121 190.074,99.646 189.676 C 100.171 189.277,101.410 188.720,102.400 188.436 C 103.390 188.153,104.479 187.673,104.821 187.370 C 105.162 187.067,106.666 186.646,108.163 186.434 C 109.659 186.222,111.181 185.779,111.545 185.450 C 111.946 185.087,113.465 184.744,115.403 184.580 C 117.267 184.422,119.017 184.036,119.600 183.654 C 120.217 183.251,122.256 182.832,124.926 182.560 C 127.956 182.252,129.449 181.923,129.911 181.460 C 130.708 180.663,129.359 180.544,127.600 181.255 M320.800 199.000 C 320.800 200.063,320.908 200.825,321.040 200.693 C 321.172 200.561,321.280 199.799,321.280 199.000 C 321.280 198.201,321.172 197.439,321.040 197.307 C 320.908 197.175,320.800 197.937,320.800 199.000 M319.051 203.656 C 318.199 204.945,317.378 206.000,317.226 206.000 C 317.075 206.000,316.602 206.320,316.175 206.712 C 314.812 207.964,311.725 209.903,310.239 210.440 C 309.448 210.726,308.800 211.100,308.800 211.269 C 308.800 211.439,307.765 211.874,306.500 212.237 C 305.235 212.600,304.020 213.028,303.800 213.189 C 303.121 213.685,293.411 216.800,292.544 216.800 C 292.094 216.800,290.662 217.167,289.363 217.615 C 288.063 218.063,285.920 218.538,284.600 218.670 C 283.280 218.802,281.870 219.080,281.467 219.287 C 281.063 219.494,279.623 219.905,278.267 220.200 L 275.800 220.736 277.800 220.759 C 278.900 220.771,281.150 220.409,282.800 219.954 C 284.450 219.498,287.330 218.857,289.200 218.528 C 291.070 218.199,292.960 217.704,293.400 217.427 C 293.840 217.151,295.010 216.799,296.000 216.646 C 296.990 216.492,298.520 216.026,299.400 215.611 C 300.280 215.197,301.810 214.648,302.800 214.391 C 303.790 214.135,304.870 213.695,305.200 213.413 C 305.530 213.132,306.457 212.784,307.259 212.640 C 308.062 212.497,309.142 212.048,309.659 211.645 C 310.177 211.241,311.050 210.771,311.600 210.600 C 312.150 210.430,313.109 209.865,313.731 209.345 C 314.353 208.825,315.123 208.400,315.443 208.400 C 315.763 208.400,316.131 208.123,316.261 207.785 C 316.391 207.447,317.015 206.902,317.648 206.575 C 318.282 206.247,318.800 205.708,318.800 205.377 C 318.800 205.046,319.054 204.678,319.363 204.559 C 319.673 204.440,320.141 203.825,320.403 203.192 C 321.286 201.062,320.612 201.293,319.051 203.656 M126.000 221.647 C 127.589 222.251,129.367 222.520,132.400 222.617 C 136.138 222.737,136.314 222.714,134.000 222.410 C 132.570 222.222,130.590 221.851,129.600 221.587 C 128.610 221.323,126.900 221.040,125.800 220.959 L 123.800 220.811 126.000 221.647 M270.023 221.465 C 269.266 221.795,267.196 222.218,265.423 222.406 C 262.256 222.741,262.276 222.744,266.600 222.606 C 269.602 222.511,271.762 222.213,273.400 221.670 L 275.800 220.873 273.600 220.869 C 272.390 220.867,270.780 221.135,270.023 221.465 M138.800 222.990 C 138.800 224.035,141.791 224.536,148.600 224.631 C 155.723 224.731,155.745 224.729,150.600 224.421 C 147.740 224.250,144.260 223.815,142.868 223.455 C 140.351 222.804,138.800 222.627,138.800 222.990 M255.800 223.473 C 254.920 223.792,251.770 224.195,248.800 224.367 L 243.400 224.681 248.845 224.741 C 254.476 224.802,257.347 224.460,259.658 223.451 L 261.000 222.865 259.200 222.879 C 258.210 222.887,256.680 223.154,255.800 223.473 M157.888 225.248 C 158.583 225.943,161.284 226.325,167.700 226.634 L 173.600 226.919 173.600 273.436 C 173.600 310.212,173.705 320.020,174.100 320.273 C 176.025 321.507,177.625 321.588,200.114 321.594 C 225.683 321.601,224.861 321.692,224.736 318.854 C 224.673 317.420,224.670 317.417,224.513 318.670 C 224.234 320.896,225.088 320.827,199.462 320.709 C 177.199 320.607,175.581 320.553,174.914 319.886 C 174.237 319.208,174.200 316.790,174.200 273.086 C 174.200 232.604,174.127 226.941,173.600 226.513 C 173.270 226.245,171.830 226.020,170.400 226.013 C 168.970 226.006,166.389 225.730,164.665 225.400 C 160.843 224.669,157.227 224.587,157.888 225.248 M236.111 225.208 C 235.622 225.405,233.102 225.688,230.511 225.837 C 225.088 226.148,224.376 226.393,224.460 227.914 L 224.520 229.000 224.681 227.958 L 224.842 226.917 230.891 226.635 C 236.152 226.390,240.865 225.668,241.527 225.006 C 241.882 224.651,237.047 224.832,236.111 225.208 " stroke="none" fill="#51b493" fill-rule="evenodd"></path><path id="path4" d="M107.862 98.331 C 106.884 99.412,106.847 140.518,107.823 141.911 L 108.445 142.800 140.794 142.800 L 173.142 142.800 173.971 143.854 C 174.771 144.872,174.800 145.360,174.800 158.040 C 174.800 173.484,175.579 171.806,168.142 172.379 C 165.314 172.597,161.200 172.965,159.000 173.197 C 156.800 173.429,152.424 173.793,149.275 174.007 C 146.126 174.220,142.436 174.646,141.075 174.955 C 139.714 175.263,136.980 175.640,135.000 175.793 C 133.020 175.946,130.230 176.338,128.800 176.663 C 127.370 176.989,124.490 177.494,122.400 177.786 C 120.310 178.079,117.880 178.580,117.000 178.900 C 116.120 179.220,114.472 179.602,113.337 179.750 C 112.202 179.897,110.239 180.374,108.974 180.809 C 107.709 181.244,106.376 181.600,106.011 181.600 C 104.435 181.600,92.411 185.901,89.000 187.684 C 76.546 194.197,75.383 201.352,85.666 208.197 C 87.487 209.408,89.129 210.400,89.314 210.400 C 89.500 210.400,90.594 210.831,91.747 211.359 C 96.932 213.730,107.717 217.024,114.800 218.398 C 116.890 218.803,119.230 219.331,120.000 219.570 C 120.770 219.809,123.020 220.198,125.000 220.434 C 126.980 220.670,130.130 221.190,132.000 221.590 C 133.870 221.989,137.147 222.435,139.282 222.581 C 141.417 222.726,143.757 223.024,144.482 223.242 C 145.207 223.461,150.660 224.004,156.600 224.451 C 162.540 224.897,168.656 225.361,170.191 225.481 C 171.726 225.602,173.391 225.969,173.891 226.296 L 174.800 226.892 174.800 273.182 L 174.800 319.472 175.819 319.936 C 177.851 320.862,223.482 320.569,223.986 319.626 C 224.264 319.106,224.400 303.742,224.400 272.675 C 224.400 236.215,224.505 226.413,224.900 226.095 C 225.175 225.873,226.570 225.599,228.000 225.486 C 232.199 225.153,242.175 224.419,248.026 224.013 C 251.011 223.806,253.903 223.465,254.452 223.256 C 255.002 223.047,257.870 222.669,260.826 222.416 C 263.782 222.163,267.248 221.696,268.528 221.379 C 269.808 221.062,272.328 220.635,274.128 220.430 C 275.928 220.226,278.210 219.789,279.200 219.459 C 280.190 219.130,282.080 218.737,283.400 218.586 C 284.720 218.434,286.790 217.992,288.000 217.602 C 289.210 217.213,290.920 216.773,291.800 216.624 C 293.976 216.257,305.916 212.195,308.727 210.865 C 328.769 201.383,322.758 189.820,293.600 181.768 C 291.730 181.251,289.216 180.552,288.013 180.214 C 286.810 179.876,285.460 179.598,285.013 179.595 C 284.566 179.592,283.120 179.251,281.800 178.837 C 280.480 178.423,278.140 177.959,276.600 177.805 C 275.060 177.651,272.450 177.200,270.800 176.804 C 269.150 176.408,266.180 175.967,264.200 175.824 C 262.220 175.682,259.430 175.305,258.000 174.988 C 256.570 174.671,252.430 174.222,248.800 173.991 C 245.170 173.760,240.940 173.384,239.400 173.156 C 237.860 172.928,234.054 172.597,230.942 172.420 C 227.829 172.243,225.084 171.976,224.842 171.826 C 224.368 171.533,224.192 145.415,224.652 143.700 L 224.893 142.800 257.998 142.800 C 285.808 142.800,291.176 142.711,291.565 142.243 C 292.550 141.055,292.161 99.132,291.157 98.300 C 289.809 97.184,108.872 97.215,107.862 98.331 M289.950 98.650 L 291.200 98.900 291.200 120.060 L 291.200 141.220 290.174 141.610 C 289.538 141.852,276.928 142.000,257.023 142.000 C 227.639 142.000,224.851 142.056,224.349 142.661 C 223.696 143.447,223.331 170.991,223.960 171.963 C 224.469 172.749,233.780 173.863,244.278 174.394 C 249.675 174.666,253.237 175.024,254.081 175.376 C 254.811 175.681,258.176 176.134,261.560 176.384 C 265.121 176.647,268.162 177.070,268.778 177.389 C 269.364 177.692,271.814 178.124,274.222 178.349 C 276.630 178.575,279.140 179.026,279.800 179.352 C 280.460 179.678,282.510 180.150,284.355 180.399 C 286.200 180.649,288.096 181.106,288.568 181.416 C 289.041 181.726,290.648 182.152,292.141 182.363 C 293.633 182.574,295.102 182.953,295.405 183.204 C 295.707 183.455,297.039 183.913,298.365 184.223 C 299.690 184.532,301.453 185.148,302.281 185.592 C 303.110 186.037,304.023 186.400,304.311 186.400 C 304.844 186.400,309.714 188.512,310.800 189.214 C 311.130 189.427,311.816 189.781,312.326 190.001 C 315.517 191.376,319.600 196.424,319.600 198.994 C 319.600 201.621,316.385 205.640,312.600 207.743 C 311.940 208.110,311.130 208.583,310.800 208.795 C 308.495 210.274,297.956 214.048,292.200 215.455 C 290.880 215.778,288.630 216.387,287.200 216.809 C 285.770 217.230,283.194 217.760,281.475 217.987 C 279.756 218.214,278.005 218.583,277.583 218.809 C 277.162 219.034,274.754 219.475,272.232 219.788 C 269.710 220.101,266.941 220.547,266.077 220.779 C 265.213 221.012,261.828 221.469,258.553 221.796 C 255.279 222.123,251.880 222.573,251.000 222.796 C 250.120 223.020,245.710 223.388,241.200 223.615 C 228.468 224.254,225.237 224.591,224.468 225.360 C 223.854 225.975,223.784 229.793,223.600 272.714 L 223.400 319.400 199.800 319.400 L 176.200 319.400 176.000 272.961 C 175.834 234.506,175.706 226.410,175.253 225.864 C 174.225 224.625,173.275 224.508,156.800 223.581 C 152.730 223.353,148.770 222.988,148.000 222.771 C 147.230 222.554,143.770 222.120,140.310 221.808 C 136.851 221.495,133.644 221.038,133.184 220.791 C 132.723 220.545,130.604 220.175,128.473 219.969 C 126.343 219.764,123.070 219.235,121.200 218.793 C 119.330 218.352,116.540 217.734,115.000 217.420 C 110.884 216.582,105.742 215.335,105.318 215.073 C 105.114 214.947,103.699 214.491,102.174 214.059 C 86.022 209.487,78.415 203.612,80.142 197.044 C 80.655 195.090,82.623 192.400,83.538 192.400 C 83.767 192.400,84.191 192.085,84.481 191.700 C 85.338 190.559,91.186 187.512,94.990 186.223 C 96.085 185.852,97.177 185.385,97.417 185.185 C 97.658 184.986,98.832 184.620,100.027 184.372 C 101.222 184.123,102.623 183.652,103.141 183.324 C 103.658 182.996,105.268 182.560,106.718 182.355 C 108.168 182.149,109.905 181.706,110.577 181.370 C 111.250 181.033,113.106 180.592,114.701 180.389 C 116.297 180.186,118.097 179.764,118.701 179.452 C 119.306 179.140,121.870 178.671,124.400 178.409 C 126.930 178.148,129.489 177.695,130.087 177.404 C 130.685 177.112,132.755 176.761,134.687 176.622 C 139.571 176.273,144.876 175.568,145.646 175.166 C 146.001 174.981,150.231 174.636,155.046 174.398 C 159.861 174.161,164.970 173.784,166.400 173.561 C 167.830 173.338,170.206 173.051,171.681 172.925 C 176.247 172.534,176.000 173.372,176.000 158.244 C 176.000 145.092,175.816 143.196,174.472 142.532 C 174.102 142.349,159.130 142.110,141.200 142.000 L 108.600 141.800 108.496 120.600 C 108.439 108.940,108.478 99.175,108.583 98.900 C 108.787 98.368,287.308 98.122,289.950 98.650 M160.007 176.044 C 157.481 176.225,154.589 176.550,153.582 176.767 C 152.574 176.983,148.971 177.358,145.575 177.601 C 142.179 177.844,138.320 178.297,137.000 178.609 C 135.680 178.921,132.759 179.370,130.508 179.607 C 128.257 179.844,125.557 180.284,124.508 180.585 C 123.459 180.886,121.250 181.346,119.600 181.609 C 113.778 182.535,104.824 185.091,99.600 187.317 C 91.004 190.982,87.734 196.226,91.387 200.493 C 92.892 202.251,95.705 204.215,97.284 204.608 C 97.880 204.757,98.576 205.130,98.830 205.436 C 99.085 205.743,100.037 206.192,100.947 206.434 C 101.856 206.676,102.870 207.109,103.200 207.396 C 103.530 207.682,104.880 208.136,106.200 208.404 C 107.520 208.672,109.050 209.115,109.600 209.388 C 110.150 209.661,111.770 210.103,113.200 210.371 C 114.630 210.639,116.520 211.094,117.400 211.382 C 118.280 211.670,120.620 212.128,122.600 212.401 C 124.580 212.674,126.492 213.049,126.849 213.235 C 127.205 213.421,129.995 213.854,133.049 214.198 C 136.102 214.542,140.400 215.084,142.600 215.403 C 148.163 216.210,154.793 216.800,158.289 216.800 C 159.911 216.800,163.705 217.108,166.719 217.485 C 173.858 218.377,222.443 218.528,230.000 217.682 C 232.530 217.399,237.840 216.999,241.800 216.794 C 245.760 216.589,250.350 216.238,252.000 216.014 C 253.650 215.790,256.440 215.425,258.200 215.203 C 268.029 213.962,279.279 212.140,281.600 211.413 C 282.590 211.103,284.660 210.636,286.200 210.377 C 287.740 210.117,289.270 209.675,289.600 209.394 C 289.930 209.113,291.273 208.664,292.584 208.396 C 293.895 208.128,295.335 207.678,295.784 207.395 C 296.233 207.113,297.635 206.589,298.900 206.230 C 300.165 205.871,301.200 205.422,301.200 205.232 C 301.200 205.042,301.642 204.776,302.183 204.640 C 302.724 204.504,303.619 203.990,304.174 203.497 C 304.728 203.003,305.811 202.150,306.580 201.600 C 315.616 195.140,303.447 186.110,279.600 181.581 C 277.510 181.184,275.080 180.672,274.200 180.444 C 273.320 180.215,270.800 179.829,268.600 179.584 C 266.400 179.340,263.507 178.887,262.170 178.578 C 260.834 178.268,256.816 177.830,253.240 177.603 C 249.665 177.376,245.983 177.020,245.057 176.813 C 239.758 175.625,225.239 175.218,224.229 176.229 C 223.679 176.778,223.599 178.784,223.594 192.129 C 223.591 200.528,223.456 207.598,223.294 207.841 C 222.249 209.410,178.418 209.509,176.536 207.946 C 176.105 207.589,176.000 204.488,176.000 192.161 L 176.000 176.821 174.820 176.210 C 173.499 175.527,168.054 175.466,160.007 176.044 M174.295 176.727 C 174.672 176.966,174.816 180.759,174.895 192.578 L 175.000 208.114 176.129 208.957 C 177.762 210.176,222.274 210.297,223.486 209.086 C 224.140 208.432,224.217 207.046,224.400 192.486 L 224.600 176.600 227.000 176.485 C 233.135 176.192,266.007 179.587,272.800 181.215 C 273.790 181.452,276.400 181.979,278.600 182.385 C 306.577 187.557,316.108 196.831,301.000 204.182 C 290.130 209.471,266.636 214.043,240.400 215.976 C 214.427 217.890,168.662 217.681,153.411 215.580 C 151.865 215.367,147.360 214.840,143.400 214.410 C 105.372 210.278,84.386 201.473,92.549 193.074 C 96.702 188.800,107.331 184.698,120.200 182.403 C 121.740 182.128,123.990 181.671,125.200 181.387 C 126.410 181.102,128.840 180.675,130.600 180.437 C 132.360 180.199,135.060 179.827,136.600 179.609 C 141.128 178.970,148.987 178.096,155.000 177.564 C 158.080 177.292,161.770 176.947,163.200 176.797 C 166.973 176.403,173.718 176.360,174.295 176.727 " stroke="none" fill="#84ccb4" fill-rule="evenodd"></path></g></svg>