<?xml version="1.0" encoding="UTF-8" standalone="no"?>
<svg
   xmlns:dc="http://purl.org/dc/elements/1.1/"
   xmlns:cc="http://creativecommons.org/ns#"
   xmlns:rdf="http://www.w3.org/1999/02/22-rdf-syntax-ns#"
   xmlns:svg="http://www.w3.org/2000/svg"
   xmlns="http://www.w3.org/2000/svg"
   xmlns:sodipodi="http://sodipodi.sourceforge.net/DTD/sodipodi-0.dtd"
   xmlns:inkscape="http://www.inkscape.org/namespaces/inkscape"
   viewBox="0 0 265.39 279.15"
   version="1.1"
   id="svg27"
   sodipodi:docname="truffle-logo-dark.svg">
  <metadata
     id="metadata31">
    <rdf:RDF>
      <cc:Work
         rdf:about="">
        <dc:format>image/svg+xml</dc:format>
        <dc:type
           rdf:resource="http://purl.org/dc/dcmitype/StillImage" />
      </cc:Work>
    </rdf:RDF>
  </metadata>
  <sodipodi:namedview
     pagecolor="#ffffff"
     bordercolor="#666666"
     borderopacity="1"
     objecttolerance="10"
     gridtolerance="10"
     guidetolerance="10"
     inkscape:pageopacity="0"
     inkscape:pageshadow="2"
     inkscape:window-width="640"
     inkscape:window-height="480"
     id="namedview29" />
  <defs
     id="defs7">
    <style
       id="style2">.cls-1{fill:#fff;}.cls-2{fill:#5e464d;}.cls-3{mask:url(#mask);}.cls-4{fill:#3fe0c5;}</style>
    <mask
       id="mask"
       x="0"
       y="20.13"
       width="265.39"
       height="259.02"
       maskUnits="userSpaceOnUse">
      <g
         id="mask-4">
        <polygon
           id="path-3"
           class="cls-1"
           points="0 20.13 265.39 20.13 265.39 279.15 0 279.15 0 20.13" />
      </g>
    </mask>
  </defs>
  <title
     id="title9">truffle-logo-dark</title>
  <g
     id="Layer_2"
     data-name="Layer 2">
    <g
       id="Layer_8"
       data-name="Layer 8">
      <path
         id="Fill-12"
         style="fill:#5e464d"
         d="m 14.05,247.39 v 30.8 H 6.73 v -30.8 H 0 v -7.11 h 20.95 v 7.11 z"
         class="cls-2" />
      <path
         id="Fill-14"
         class="cls-2"
         d="m 46.31,255.1 h 4.29 q 3.45,0 4.74,-0.9 a 3.41,3.41 0 0 0 1.3,-3 3.71,3.71 0 0 0 -0.64,-2.2 3.55,3.55 0 0 0 -1.72,-1.33 13.33,13.33 0 0 0 -4,-0.4 h -4 z m -7.22,-14.82 h 9.68 q 6.28,0 8.95,1.12 a 9.18,9.18 0 0 1 4.28,3.73 11.29,11.29 0 0 1 1.63,6.15 10.43,10.43 0 0 1 -1.8,6.25 10.84,10.84 0 0 1 -5.39,3.81 l 9,16.85 H 57.53 L 49,262.14 h -2.69 v 16.05 h -7.22 z" />
      <g
         class="cls-3"
         mask="url(#mask)"
         id="g14">
        <path
           id="Fill-16"
           class="cls-2"
           d="M 83.77,240.28 H 91 v 24.52 a 12.68,12.68 0 0 0 0.56,4.48 4.31,4.31 0 0 0 1.83,2.09 5.69,5.69 0 0 0 3.08,0.79 6,6 0 0 0 3.28,-0.87 4.64,4.64 0 0 0 1.91,-2.23 16.6,16.6 0 0 0 0.53,-5.17 v -23.61 h 7.24 v 22.6 a 32.77,32.77 0 0 1 -0.64,7.94 11.23,11.23 0 0 1 -2.46,4.28 11.42,11.42 0 0 1 -4.19,3 14.05,14.05 0 0 1 -5.52,1 13.38,13.38 0 0 1 -7.18,-1.9 11.06,11.06 0 0 1 -4.37,-4.74 q -1.31,-2.85 -1.31,-9.63 z" />
      </g>
      <path
         id="Fill-19"
         style="fill:#5e464d"
         d="m 138.45,247.31 v 6.89 h 11.65 v 6.93 h -11.65 v 17.06 h -7.17 v -37.91 h 18.82 v 7.03 z"
         class="cls-2" />
      <path
         id="Fill-21"
         style="fill:#5e464d"
         d="m 177.24,247.31 v 6.89 h 11.65 v 6.93 h -11.65 v 17.06 h -7.17 v -37.91 h 18.82 v 7.03 z"
         class="cls-2" />
      <path
         id="Fill-23"
         style="fill:#5e464d"
         d="m 226.53,271.31 v 6.88 H 208.8 v -37.91 h 7.22 v 31.03 z"
         class="cls-2" />
      <path
         id="Fill-25"
         style="fill:#5e464d"
         d="m 251.86,247.34 v 6.86 h 13.53 v 6.93 h -13.53 v 9.98 h 13.53 v 7.08 H 244.7 v -37.91 h 20.69 v 7.06 z"
         class="cls-2" />
      <path
         id="ellipse20"
         style="fill:#5e464d"
         d="M 233.41,102.14 A 100.96,102.14 0 0 1 132.45,204.28 100.96,102.14 0 0 1 31.489998,102.14 100.96,102.14 0 0 1 132.45,0 100.96,102.14 0 0 1 233.41,102.14 Z"
         class="cls-2" />
      <path
         id="Fill-6"
         class="cls-1"
         d="m 100.7,192.71 c 4.13,1.41 18,5.92 18.59,1.51 0.32,-2.42 -7,-4.9 -16.91,-10.15 A 159,159 0 0 1 64.13,155.81 87.82,87.82 0 0 1 37.81,94.75 c -0.84,-30.9 11.24,-55.88 31.11,-72 a 101.88,101.88 0 0 0 -39.6,78.15 c -0.59,22.35 5.66,41.18 17.4,58.32 a 66.5,66.5 0 0 0 12.67,12.48 c 11.25,8.51 27.7,16.38 41.31,21" />
      <path
         id="Fill-8"
         class="cls-1"
         d="M 234.8,78.73 C 228.54,49.29 209.08,28.68 183.05,14.12 203,28.29 231,58.42 214.45,85 c -14,21.29 -48,17.12 -66.65,7 C 125.68,80 98,53 125.3,26.61 c 17.7,-17.08 74,2.07 64.09,27.6 -5.78,14.85 -28.28,11.55 -38.4,4.29 -7.46,-5.36 -13.74,-14.57 -10.41,-24.08 1.06,-3.05 0.91,-7.78 -3.4,-4.3 -3.18,2.6 -4.83,6.88 -5.39,10.88 -4.71,33.29 54.6,59.1 72.2,26.89 9.13,-16.72 -5.67,-41 -24.3,-50.94 -14,-7.5 -28.57,-12.77 -46.43,-11.49 -28.56,2 -52.52,19.9 -55.53,49.08 -3,29 16.39,55.1 39.22,70.71 24,16.4 56.26,27.21 85.78,17.43 26.46,-8.77 37.39,-39.14 32.07,-63.93" />
      <path
         id="Fill-10"
         class="cls-4"
         d="M 197.56,56.18 C 200.4,37.1 183.15,24 167.22,18.05 c -18.78,-7 -43.59,-3.94 -57.27,11.61 -10,11.42 -9.35,28 -4.19,41.42 7.8,20.27 25.41,34.92 45.91,41.25 14.57,4.5 32.18,6.46 46.94,1.71 21.53,-6.93 28.54,-29.38 24.09,-49.95 a 59.08,59.08 0 0 0 -4.36,-12.88 c -2.72,-5.71 -11.05,-17.27 0.43,-3.19 a 49.7,49.7 0 0 1 3.32,4.91 55.2,55.2 0 0 1 5.59,12.41 c 6.26,19.2 1.35,41.6 -16,53.19 -13.31,8.87 -30.23,9.93 -45.67,7.71 -20.7,-3 -40.21,-13 -53.77,-29.09 -12.38,-14.67 -20.83,-35.74 -15.74,-55 3.73,-14.09 15.17,-24.61 28.87,-29 17.33,-5.61 36.41,-3 52,6.11 7.82,4.55 15,10.85 19,19.11 a 28.35,28.35 0 0 1 2.85,11.93 24.73,24.73 0 0 1 -0.39,5 c -0.11,0.6 -1.38,2.29 -1.2,0.9" />
    </g>
  </g>
</svg>
