<svg id="svg" version="1.1" xmlns="http://www.w3.org/2000/svg" xmlns:xlink="http://www.w3.org/1999/xlink" width="400" height="400" viewBox="0, 0, 400,400"><g id="svgg"><path id="path0" d="M155.337 58.603 C 155.028 58.696,154.667 58.861,154.536 58.970 C 154.405 59.079,152.768 59.681,150.899 60.308 C 107.216 74.958,72.272 110.029,57.520 154.027 C 31.787 230.772,71.262 313.966,146.900 342.400 C 158.048 346.590,159.384 346.545,161.614 341.894 L 162.418 340.218 162.359 332.659 L 162.300 325.100 161.607 323.800 C 161.173 322.986,160.314 321.902,159.307 320.900 L 157.700 319.299 153.500 317.647 C 141.661 312.990,129.880 305.975,119.916 297.650 C 117.788 295.873,111.568 290.145,110.915 289.361 C 110.704 289.108,109.725 288.045,108.739 287.000 C 86.305 263.210,73.731 228.779,75.578 196.200 C 78.374 146.881,108.905 104.072,153.900 86.378 C 162.171 83.126,162.454 82.594,162.359 70.475 C 162.301 63.002,162.294 62.886,161.827 61.855 C 160.689 59.336,157.769 57.873,155.337 58.603 M241.034 59.121 C 239.836 59.717,239.354 60.300,238.320 62.400 L 237.581 63.900 237.640 71.700 L 237.700 79.500 238.479 81.100 C 239.701 83.608,241.727 85.513,244.100 86.385 C 280.880 99.902,309.761 131.668,320.187 170.073 C 336.754 231.097,304.595 295.576,246.100 318.620 C 237.827 321.879,237.546 322.406,237.641 334.525 C 237.699 341.998,237.706 342.114,238.173 343.145 C 239.412 345.887,243.209 347.489,245.268 346.139 C 245.525 345.971,247.123 345.367,248.818 344.797 C 322.781 319.939,365.051 241.718,345.601 165.700 C 333.318 117.690,298.542 78.853,252.300 61.504 C 244.167 58.452,242.909 58.186,241.034 59.121 M190.635 102.414 C 189.217 103.122,188.442 103.971,187.541 105.800 L 186.900 107.100 186.800 117.299 L 186.700 127.498 185.900 127.645 C 181.802 128.398,179.360 128.940,177.407 129.531 C 154.546 136.450,142.755 154.742,146.602 177.322 C 149.929 196.847,164.704 206.790,196.053 210.599 C 197.018 210.716,199.178 211.085,200.853 211.420 C 221.752 215.587,228.209 220.644,228.278 232.900 C 228.374 249.958,211.086 259.490,188.800 254.669 C 178.397 252.418,172.271 246.412,169.495 235.742 C 167.842 229.389,167.341 229.153,155.663 229.240 L 147.500 229.300 146.500 229.831 C 143.042 231.669,142.649 234.780,144.890 242.565 C 150.019 260.373,163.738 271.550,185.185 275.391 C 186.442 275.616,187.499 275.800,187.535 275.800 C 187.571 275.800,187.600 280.554,187.600 286.364 C 187.600 299.471,187.636 299.610,191.555 301.547 L 193.079 302.300 200.790 302.300 C 209.422 302.300,209.184 302.336,210.779 300.768 C 213.166 298.420,213.200 298.214,213.200 286.083 L 213.200 275.828 214.350 275.607 C 242.869 270.121,258.687 248.878,254.193 222.098 C 250.860 202.241,236.735 192.776,204.200 188.599 C 180.261 185.525,172.509 180.214,172.530 166.900 C 172.549 154.175,181.301 147.491,197.900 147.524 C 212.410 147.553,220.625 152.595,224.676 163.955 C 225.612 166.580,226.491 167.671,228.400 168.577 L 229.500 169.100 237.400 169.100 C 246.316 169.100,246.474 169.077,248.116 167.564 C 250.539 165.330,250.427 161.642,247.725 154.732 C 242.226 140.668,229.708 130.760,214.795 128.667 L 212.413 128.332 212.356 117.416 C 212.293 105.172,212.376 105.856,210.768 104.221 C 208.535 101.951,207.809 101.800,199.101 101.800 L 191.864 101.800 190.635 102.414 " stroke="none" fill="#fbfbfb" fill-rule="evenodd"></path><path id="path1" d="M190.100 0.132 C 171.470 1.249,157.693 3.655,140.813 8.741 C 138.454 9.452,136.204 10.156,135.813 10.305 C 135.421 10.454,134.020 10.951,132.700 11.409 C 130.608 12.135,126.488 13.685,125.300 14.193 C 125.080 14.287,123.888 14.778,122.650 15.284 C 121.413 15.791,119.928 16.419,119.350 16.681 C 118.773 16.943,117.535 17.503,116.600 17.925 C 102.101 24.478,87.287 33.622,74.400 43.976 C 72.695 45.345,70.935 46.789,70.489 47.183 C 70.043 47.577,69.315 48.215,68.871 48.600 C 64.300 52.565,63.284 53.516,58.399 58.400 C 54.414 62.384,53.260 63.595,50.345 66.848 C 48.925 68.432,45.676 72.245,44.932 73.200 C 44.804 73.365,44.155 74.175,43.490 75.000 C 42.826 75.825,42.106 76.734,41.891 77.021 C 41.676 77.307,40.760 78.522,39.857 79.721 C 38.953 80.919,38.008 82.198,37.757 82.562 C 37.505 82.926,37.210 83.333,37.100 83.467 C 35.730 85.135,29.882 94.097,27.942 97.500 C 27.503 98.270,26.942 99.215,26.694 99.600 C 26.446 99.985,25.997 100.750,25.696 101.300 C 25.394 101.850,24.724 103.065,24.205 104.000 C 21.620 108.663,17.373 117.577,15.105 123.100 C 14.698 124.090,14.271 125.125,14.156 125.400 C 14.041 125.675,13.880 126.080,13.798 126.300 C 13.717 126.520,13.540 126.970,13.406 127.300 C 1.897 155.641,-2.574 192.006,1.418 224.800 C 2.083 230.261,2.715 234.149,3.923 240.200 C 7.990 260.572,15.719 281.239,25.930 299.042 C 26.354 299.780,27.046 300.995,27.469 301.742 C 29.555 305.424,35.714 314.767,38.434 318.376 C 39.460 319.738,40.432 321.043,40.594 321.276 C 41.207 322.160,45.534 327.579,47.079 329.400 C 48.773 331.396,48.834 331.465,51.822 334.790 C 55.237 338.591,62.535 345.802,66.700 349.491 C 67.030 349.783,67.570 350.273,67.900 350.579 C 68.405 351.048,70.618 352.938,72.102 354.167 C 73.919 355.673,78.675 359.406,80.300 360.602 C 81.400 361.412,82.840 362.473,83.500 362.961 C 87.596 365.990,97.355 372.120,103.200 375.337 C 107.236 377.559,118.222 383.000,118.672 383.000 C 118.726 383.000,119.475 383.326,120.335 383.724 C 158.792 401.508,211.985 404.974,255.000 392.499 C 256.375 392.100,257.950 391.649,258.500 391.497 C 259.050 391.346,260.850 390.775,262.500 390.229 C 265.272 389.311,266.527 388.868,271.819 386.939 C 281.567 383.386,295.176 376.656,305.200 370.434 C 312.456 365.929,325.181 356.868,326.600 355.195 C 326.655 355.130,326.895 354.944,327.133 354.782 C 327.371 354.619,328.091 354.029,328.733 353.470 C 329.375 352.911,330.620 351.839,331.500 351.087 C 334.444 348.572,337.260 345.932,341.407 341.800 C 345.394 337.828,346.777 336.375,349.300 333.507 C 349.960 332.756,350.591 332.043,350.702 331.921 C 351.777 330.745,354.842 327.100,356.101 325.500 C 356.967 324.400,358.142 322.915,358.712 322.200 C 359.282 321.485,360.433 319.955,361.270 318.800 C 362.107 317.645,362.883 316.592,362.994 316.460 C 363.872 315.420,370.355 305.501,371.609 303.280 C 371.802 302.939,372.361 301.994,372.851 301.180 C 375.833 296.232,380.129 287.822,383.007 281.300 C 383.104 281.080,383.502 280.196,383.892 279.335 C 384.281 278.475,384.600 277.732,384.600 277.684 C 384.600 277.636,384.947 276.765,385.371 275.748 C 393.282 256.774,398.334 234.475,399.700 212.500 C 400.391 201.376,399.757 181.250,398.500 174.400 C 398.449 174.125,398.355 173.450,398.290 172.900 C 397.849 169.159,396.329 160.534,395.363 156.300 C 392.863 145.335,390.357 137.141,386.095 126.000 C 384.089 120.755,378.648 109.122,375.840 104.075 C 375.297 103.099,374.604 101.850,374.300 101.300 C 371.970 97.076,365.551 86.997,362.965 83.500 C 362.477 82.840,361.453 81.446,360.689 80.403 C 359.255 78.443,353.704 71.454,353.301 71.100 C 353.176 70.990,352.675 70.405,352.189 69.800 C 351.703 69.195,351.251 68.655,351.185 68.600 C 351.119 68.545,350.504 67.846,349.820 67.046 C 347.273 64.072,339.617 56.238,336.181 53.091 C 330.473 47.862,324.748 43.108,319.700 39.406 C 318.600 38.599,317.377 37.690,316.983 37.386 C 309.985 31.997,292.102 21.611,283.687 18.050 C 283.131 17.814,281.976 17.298,281.123 16.904 C 267.877 10.786,247.747 4.816,232.600 2.514 C 231.555 2.355,229.800 2.089,228.700 1.923 C 224.142 1.235,217.578 0.596,211.000 0.200 C 208.080 0.025,192.729 -0.026,190.100 0.132 M158.900 58.769 C 162.239 60.351,162.596 61.523,162.594 70.900 C 162.592 82.016,161.946 83.425,155.775 85.772 C 87.787 111.625,56.341 190.725,87.981 256.300 C 101.552 284.427,125.383 306.590,153.945 317.646 L 157.700 319.100 159.415 320.804 C 160.671 322.051,161.313 322.880,161.815 323.899 L 162.500 325.292 162.500 332.996 C 162.500 340.522,162.490 340.714,162.076 341.300 C 161.843 341.630,161.583 342.125,161.499 342.400 C 160.143 346.811,156.842 346.606,143.700 341.296 C 78.052 314.771,39.935 246.720,51.617 176.900 C 60.707 122.573,98.814 77.879,151.281 60.012 C 152.921 59.454,154.368 58.909,154.497 58.802 C 155.345 58.099,157.452 58.083,158.900 58.769 M248.300 59.890 C 268.844 67.213,285.616 77.163,301.100 91.215 C 340.284 126.775,358.100 181.444,347.405 233.300 C 336.556 285.901,298.495 328.701,247.800 345.306 C 246.865 345.612,245.785 346.025,245.400 346.224 C 242.439 347.755,238.642 345.748,237.683 342.145 C 237.276 340.615,237.287 327.664,237.698 325.727 C 238.372 322.546,240.155 320.770,244.216 319.236 C 309.691 294.508,341.868 219.346,314.696 154.600 C 301.758 123.770,276.693 99.214,246.055 87.354 L 242.300 85.900 240.698 84.300 C 237.557 81.164,237.362 80.355,237.441 70.783 L 237.500 63.500 238.379 61.841 C 240.407 58.012,242.097 57.679,248.300 59.890 M208.400 102.419 C 210.105 103.237,211.363 104.392,212.037 105.761 L 212.500 106.700 212.557 117.448 L 212.613 128.196 213.057 128.282 C 213.300 128.330,214.310 128.478,215.300 128.612 C 231.486 130.797,245.251 143.292,249.439 159.600 C 250.687 164.458,249.666 167.598,246.449 168.802 C 245.022 169.336,230.270 169.419,228.803 168.901 C 226.749 168.176,225.588 166.828,224.496 163.900 C 220.202 152.385,212.418 147.701,197.600 147.715 C 181.327 147.731,172.594 154.425,172.601 166.876 C 172.609 180.019,180.237 185.267,203.900 188.407 C 238.599 193.012,252.158 202.763,254.726 224.959 C 257.678 250.484,241.657 270.660,214.400 275.745 L 213.500 275.912 213.400 286.406 L 213.300 296.900 212.581 298.400 C 210.740 302.240,210.072 302.485,201.234 302.560 C 192.432 302.634,191.308 302.388,189.021 299.885 C 187.378 298.087,187.400 298.271,187.400 286.327 L 187.400 275.900 184.791 275.435 C 161.921 271.362,147.839 258.618,143.677 238.227 C 142.726 233.567,143.654 230.972,146.790 229.521 C 148.219 228.860,164.197 228.867,165.630 229.530 C 167.760 230.515,168.648 231.901,169.663 235.828 C 173.006 248.754,181.264 254.665,197.324 255.627 C 217.053 256.810,230.180 245.738,228.005 229.750 C 226.568 219.183,216.882 213.564,195.000 210.604 C 163.303 206.316,149.287 196.493,146.297 176.471 C 142.909 153.783,155.321 135.459,178.382 129.103 C 180.304 128.574,185.907 127.400,186.513 127.400 C 186.561 127.400,186.600 123.032,186.600 117.694 C 186.600 106.810,186.605 106.765,188.123 104.479 C 189.947 101.731,190.479 101.599,199.500 101.655 L 206.900 101.700 208.400 102.419 " stroke="none" fill="#2474cc" fill-rule="evenodd"></path><path id="path2" d="M242.850 58.538 C 243.043 58.588,243.357 58.588,243.550 58.538 C 243.743 58.488,243.585 58.446,243.200 58.446 C 242.815 58.446,242.657 58.488,242.850 58.538 M110.692 115.250 L 109.700 116.300 110.750 115.308 C 111.726 114.385,111.892 114.200,111.742 114.200 C 111.711 114.200,111.238 114.672,110.692 115.250 M75.457 200.900 C 75.459 201.450,75.498 201.651,75.544 201.347 C 75.589 201.043,75.588 200.593,75.541 200.347 C 75.493 200.101,75.456 200.350,75.457 200.900 M324.476 202.400 C 324.476 203.665,324.508 204.183,324.548 203.550 C 324.587 202.918,324.587 201.883,324.548 201.250 C 324.508 200.618,324.476 201.135,324.476 202.400 M75.469 203.500 C 75.469 204.380,75.504 204.715,75.547 204.245 C 75.589 203.774,75.588 203.054,75.545 202.645 C 75.502 202.235,75.468 202.620,75.469 203.500 M228.254 233.200 C 228.254 233.695,228.293 233.898,228.341 233.650 C 228.389 233.403,228.389 232.998,228.341 232.750 C 228.293 232.503,228.254 232.705,228.254 233.200 M242.692 261.450 L 241.700 262.500 242.750 261.508 C 243.328 260.962,243.800 260.489,243.800 260.458 C 243.800 260.308,243.615 260.474,242.692 261.450 M289.189 289.750 L 288.500 290.500 289.250 289.811 C 289.663 289.432,290.000 289.094,290.000 289.061 C 290.000 288.908,289.831 289.052,289.189 289.750 M286.687 292.250 L 286.100 292.900 286.750 292.313 C 287.356 291.765,287.492 291.600,287.337 291.600 C 287.303 291.600,287.010 291.893,286.687 292.250 M93.500 308.200 C 94.485 309.190,95.337 310.000,95.392 310.000 C 95.447 310.000,94.685 309.190,93.700 308.200 C 92.715 307.210,91.863 306.400,91.808 306.400 C 91.753 306.400,92.515 307.210,93.500 308.200 " stroke="none" fill="#74a6dd" fill-rule="evenodd"></path><path id="path3" d="M162.489 70.900 C 162.489 74.200,162.516 75.578,162.550 73.962 C 162.583 72.347,162.583 69.647,162.550 67.962 C 162.516 66.278,162.489 67.600,162.489 70.900 M237.489 71.600 C 237.489 74.955,237.516 76.328,237.550 74.650 C 237.583 72.973,237.583 70.228,237.550 68.550 C 237.516 66.873,237.489 68.245,237.489 71.600 M93.294 96.050 L 92.100 97.300 93.350 96.106 C 94.511 94.997,94.692 94.800,94.544 94.800 C 94.513 94.800,93.950 95.363,93.294 96.050 M195.837 101.750 C 197.673 101.783,200.733 101.783,202.637 101.750 C 204.542 101.717,203.040 101.690,199.300 101.690 C 195.560 101.690,194.002 101.717,195.837 101.750 M186.693 117.800 C 186.693 123.135,186.718 125.317,186.750 122.650 C 186.781 119.983,186.781 115.618,186.750 112.950 C 186.718 110.283,186.693 112.465,186.693 117.800 M212.493 118.400 C 212.493 123.955,212.518 126.228,212.550 123.450 C 212.581 120.673,212.581 116.128,212.550 113.350 C 212.518 110.573,212.493 112.845,212.493 118.400 M288.000 114.700 C 288.709 115.415,289.333 116.000,289.388 116.000 C 289.443 116.000,288.909 115.415,288.200 114.700 C 287.491 113.985,286.867 113.400,286.812 113.400 C 286.757 113.400,287.291 113.985,288.000 114.700 M196.350 147.548 C 197.038 147.587,198.163 147.587,198.850 147.548 C 199.538 147.509,198.975 147.477,197.600 147.477 C 196.225 147.477,195.663 147.509,196.350 147.548 M172.471 166.900 C 172.470 167.890,172.504 168.320,172.546 167.856 C 172.588 167.392,172.589 166.582,172.547 166.056 C 172.506 165.530,172.472 165.910,172.471 166.900 M145.854 166.800 C 145.854 167.295,145.893 167.498,145.941 167.250 C 145.989 167.003,145.989 166.597,145.941 166.350 C 145.893 166.103,145.854 166.305,145.854 166.800 M145.860 170.200 C 145.860 170.805,145.897 171.053,145.943 170.750 C 145.989 170.447,145.989 169.953,145.943 169.650 C 145.897 169.347,145.860 169.595,145.860 170.200 M49.654 197.200 C 49.654 197.695,49.693 197.898,49.741 197.650 C 49.789 197.403,49.789 196.998,49.741 196.750 C 49.693 196.503,49.654 196.705,49.654 197.200 M350.257 198.500 C 350.259 199.050,350.298 199.251,350.344 198.947 C 350.389 198.643,350.388 198.193,350.341 197.947 C 350.293 197.701,350.256 197.950,350.257 198.500 M75.450 198.500 C 75.453 198.940,75.494 199.096,75.541 198.848 C 75.589 198.599,75.587 198.239,75.537 198.048 C 75.487 197.856,75.448 198.060,75.450 198.500 M324.454 199.000 C 324.454 199.495,324.493 199.697,324.541 199.450 C 324.589 199.203,324.589 198.798,324.541 198.550 C 324.493 198.303,324.454 198.505,324.454 199.000 M75.454 206.200 C 75.454 206.695,75.493 206.898,75.541 206.650 C 75.589 206.403,75.589 205.998,75.541 205.750 C 75.493 205.503,75.454 205.705,75.454 206.200 M324.457 206.300 C 324.459 206.850,324.498 207.051,324.544 206.747 C 324.589 206.443,324.588 205.993,324.541 205.747 C 324.493 205.501,324.456 205.750,324.457 206.300 M49.654 206.600 C 49.654 207.095,49.693 207.298,49.741 207.050 C 49.789 206.803,49.789 206.398,49.741 206.150 C 49.693 205.903,49.654 206.105,49.654 206.600 M350.257 207.700 C 350.259 208.250,350.298 208.451,350.344 208.147 C 350.389 207.843,350.388 207.393,350.341 207.147 C 350.293 206.901,350.256 207.150,350.257 207.700 M187.493 285.800 C 187.493 291.355,187.518 293.627,187.550 290.850 C 187.581 288.073,187.581 283.528,187.550 280.750 C 187.518 277.973,187.493 280.245,187.493 285.800 M213.293 285.900 C 213.293 291.510,213.318 293.834,213.350 291.064 C 213.381 288.294,213.381 283.704,213.350 280.864 C 213.319 278.024,213.293 280.290,213.293 285.900 M111.900 290.400 C 112.442 290.950,112.930 291.400,112.985 291.400 C 113.040 291.400,112.642 290.950,112.100 290.400 C 111.558 289.850,111.070 289.400,111.015 289.400 C 110.960 289.400,111.358 289.850,111.900 290.400 M197.250 302.550 C 198.983 302.583,201.817 302.583,203.550 302.550 C 205.282 302.516,203.865 302.489,200.400 302.489 C 196.935 302.489,195.518 302.516,197.250 302.550 M306.200 309.300 C 305.714 309.795,305.362 310.200,305.417 310.200 C 305.472 310.200,305.914 309.795,306.400 309.300 C 306.886 308.805,307.238 308.400,307.183 308.400 C 307.128 308.400,306.686 308.805,306.200 309.300 M162.489 332.500 C 162.489 335.800,162.516 337.178,162.550 335.562 C 162.583 333.947,162.583 331.247,162.550 329.562 C 162.516 327.878,162.489 329.200,162.489 332.500 M237.489 334.100 C 237.489 337.400,237.516 338.778,237.550 337.162 C 237.583 335.547,237.583 332.847,237.550 331.162 C 237.516 329.478,237.489 330.800,237.489 334.100 " stroke="none" fill="#97bce4" fill-rule="evenodd"></path><path id="path4" d="M155.300 195.600 C 155.730 196.040,156.126 196.400,156.181 196.400 C 156.236 196.400,155.930 196.040,155.500 195.600 C 155.070 195.160,154.674 194.800,154.619 194.800 C 154.564 194.800,154.870 195.160,155.300 195.600 M152.763 229.150 C 154.778 229.182,158.018 229.182,159.963 229.150 C 161.908 229.117,160.260 229.090,156.300 229.090 C 152.340 229.090,150.748 229.117,152.763 229.150 M222.189 247.950 L 221.500 248.700 222.250 248.011 C 222.948 247.369,223.092 247.200,222.939 247.200 C 222.906 247.200,222.568 247.538,222.189 247.950 M155.600 261.500 C 155.973 261.885,156.323 262.200,156.378 262.200 C 156.433 262.200,156.173 261.885,155.800 261.500 C 155.427 261.115,155.077 260.800,155.022 260.800 C 154.967 260.800,155.227 261.115,155.600 261.500 M287.887 291.050 L 287.300 291.700 287.950 291.113 C 288.556 290.565,288.692 290.400,288.537 290.400 C 288.503 290.400,288.210 290.693,287.887 291.050 " stroke="none" fill="#5494d4" fill-rule="evenodd"></path><path id="path5" d="" stroke="none" fill="#4888d4" fill-rule="evenodd"></path><path id="path6" d="M307.687 307.850 L 307.100 308.500 307.750 307.913 C 308.356 307.365,308.492 307.200,308.337 307.200 C 308.303 307.200,308.010 307.493,307.687 307.850 " stroke="none" fill="#8cbce4" fill-rule="evenodd"></path><path id="path7" d="M238.400 140.300 C 238.773 140.685,239.123 141.000,239.178 141.000 C 239.233 141.000,238.973 140.685,238.600 140.300 C 238.227 139.915,237.877 139.600,237.822 139.600 C 237.767 139.600,238.027 139.915,238.400 140.300 M245.100 203.400 C 245.530 203.840,245.926 204.200,245.981 204.200 C 246.036 204.200,245.730 203.840,245.300 203.400 C 244.870 202.960,244.474 202.600,244.419 202.600 C 244.364 202.600,244.670 202.960,245.100 203.400 M111.900 290.200 C 112.885 291.190,113.737 292.000,113.792 292.000 C 113.847 292.000,113.085 291.190,112.100 290.200 C 111.115 289.210,110.263 288.400,110.208 288.400 C 110.153 288.400,110.915 289.210,111.900 290.200 " stroke="none" fill="#377fcc" fill-rule="evenodd"></path><path id="path8" d="" stroke="none" fill="#3c84d4" fill-rule="evenodd"></path></g></svg>