<svg width="780.6" height="100" viewBox="0 0 780.6 100" xmlns="http://www.w3.org/2000/svg"><g id="svgGroup" stroke-linecap="round" fill-rule="evenodd" font-size="9pt" stroke="#000" stroke-width="0.25mm" fill="black" style="stroke:#000;stroke-width:0.25mm;fill:black"><path d="M 72.4 74 L 60.9 74 L 46.3 13.8 L 45.8 11.3 L 45.4 11.3 L 44.9 13.8 L 30.6 74 L 18.8 74 L 0 4 L 8.9 4 L 23.9 65.6 L 24.4 68.1 L 24.9 68.1 L 25.3 65.6 L 40.1 4 L 51.2 4 L 66.4 65.6 L 67 68.1 L 67.4 68.1 L 67.8 65.6 L 82.3 4 L 91.2 4 L 72.4 74 Z M 249.5 38.6 L 253.4 41.8 A 18.564 18.564 0 0 1 253.996 42.296 Q 254.833 43.025 255.088 43.475 A 1.156 1.156 0 0 1 255.15 43.6 Q 255.353 44.087 255.391 45.763 A 36.975 36.975 0 0 1 255.4 46.6 L 255.4 65 Q 255.4 67 255.05 67.8 A 3.821 3.821 0 0 1 254.786 68.29 Q 254.466 68.801 253.895 69.459 A 18.989 18.989 0 0 1 253.5 69.9 L 251.7 71.7 A 9.948 9.948 0 0 1 250.216 72.937 Q 248.631 74 247 74 L 218.6 74 A 6.306 6.306 0 0 1 215.919 73.376 Q 214.859 72.883 213.8 72 L 211.4 70 A 6.863 6.863 0 0 1 209.759 68.059 A 6.206 6.206 0 0 1 209 65 L 209 61 L 217.4 61 L 217.4 62.9 A 23.588 23.588 0 0 0 217.407 63.506 Q 217.428 64.331 217.513 64.713 A 1.378 1.378 0 0 0 217.55 64.85 Q 217.699 65.298 218.593 65.995 A 9.749 9.749 0 0 0 218.6 66 Q 219.292 66.539 219.748 66.752 A 1.872 1.872 0 0 0 220 66.85 Q 220.408 66.972 221.683 66.995 A 35.123 35.123 0 0 0 222.3 67 L 242.1 67 A 34.966 34.966 0 0 0 242.729 66.995 Q 243.994 66.972 244.4 66.85 A 1.991 1.991 0 0 0 244.703 66.727 Q 245.146 66.509 245.8 66 Q 246.692 65.306 246.847 64.858 A 0.722 0.722 0 0 0 246.85 64.85 A 1.725 1.725 0 0 0 246.908 64.603 Q 246.985 64.161 246.997 63.277 A 26.03 26.03 0 0 0 247 62.9 L 247 47.8 A 4.82 4.82 0 0 0 245.547 44.331 A 6.655 6.655 0 0 0 245.2 44 L 243.7 42.7 Q 242.2 41.4 241.6 41.2 Q 241 41 239.1 41 L 223.1 41 L 223.1 34.6 L 237.7 34.6 A 28.548 28.548 0 0 0 238.469 34.59 Q 239.563 34.561 240.061 34.44 A 1.757 1.757 0 0 0 240.2 34.4 A 1.878 1.878 0 0 0 240.506 34.26 Q 241.023 33.974 241.921 33.223 A 28.24 28.24 0 0 0 242.3 32.9 L 243.8 31.7 Q 245.3 30.5 245.55 29.95 Q 245.768 29.471 245.796 27.969 A 25.068 25.068 0 0 0 245.8 27.5 L 245.8 15.1 A 23.588 23.588 0 0 0 245.793 14.494 Q 245.772 13.669 245.687 13.287 A 1.378 1.378 0 0 0 245.65 13.15 Q 245.501 12.702 244.607 12.005 A 9.749 9.749 0 0 0 244.6 12 Q 243.908 11.461 243.452 11.248 A 1.872 1.872 0 0 0 243.2 11.15 Q 242.792 11.028 241.517 11.005 A 35.123 35.123 0 0 0 240.9 11 L 224.4 11 A 38.784 38.784 0 0 0 223.737 11.005 Q 222.406 11.028 222 11.15 A 1.991 1.991 0 0 0 221.697 11.273 Q 221.254 11.491 220.6 12 Q 219.708 12.694 219.553 13.142 A 0.722 0.722 0 0 0 219.55 13.15 A 1.725 1.725 0 0 0 219.492 13.397 Q 219.415 13.839 219.403 14.723 A 26.03 26.03 0 0 0 219.4 15.1 L 219.4 17 L 211 17 L 211 13 Q 211 10 213.4 8 L 215.8 6 A 10.298 10.298 0 0 1 217.487 4.841 Q 219.044 4 220.6 4 L 244.6 4 A 6.306 6.306 0 0 1 247.281 4.624 Q 248.341 5.117 249.4 6 L 251.8 8 A 6.863 6.863 0 0 1 253.441 9.941 A 6.206 6.206 0 0 1 254.2 13 L 254.2 29.4 A 18.146 18.146 0 0 1 254.188 30.086 Q 254.145 31.209 253.95 31.6 A 1.508 1.508 0 0 1 253.775 31.862 Q 253.395 32.334 252.4 33.1 L 249.5 35.5 A 8.895 8.895 0 0 1 248.643 36.121 Q 247.697 36.718 246.912 36.79 A 2.322 2.322 0 0 1 246.7 36.8 L 246.7 37.3 A 2.787 2.787 0 0 1 247.614 37.468 Q 248.389 37.737 249.297 38.439 A 10.655 10.655 0 0 1 249.5 38.6 Z M 532.2 45 L 549.7 45 A 6.306 6.306 0 0 1 552.381 45.624 Q 553.441 46.117 554.5 47 L 556.9 49 A 6.863 6.863 0 0 1 558.541 50.941 A 6.206 6.206 0 0 1 559.3 54 L 559.3 65 Q 559.3 68 556.9 70 L 554.5 72 A 10.298 10.298 0 0 1 552.813 73.159 Q 551.256 74 549.7 74 L 527.5 74 A 6.306 6.306 0 0 1 524.819 73.376 Q 523.759 72.883 522.7 72 L 520.3 70 A 6.863 6.863 0 0 1 518.659 68.059 A 6.206 6.206 0 0 1 517.9 65 L 517.9 61 L 526.3 61 L 526.3 62.9 A 23.588 23.588 0 0 0 526.307 63.506 Q 526.328 64.331 526.413 64.713 A 1.378 1.378 0 0 0 526.45 64.85 Q 526.599 65.298 527.493 65.995 A 9.749 9.749 0 0 0 527.5 66 Q 528.192 66.539 528.648 66.752 A 1.872 1.872 0 0 0 528.9 66.85 Q 529.308 66.972 530.583 66.995 A 35.123 35.123 0 0 0 531.2 67 L 546 67 A 34.966 34.966 0 0 0 546.629 66.995 Q 547.894 66.972 548.3 66.85 A 1.991 1.991 0 0 0 548.603 66.727 Q 549.046 66.509 549.7 66 Q 550.592 65.306 550.747 64.858 A 0.722 0.722 0 0 0 550.75 64.85 A 1.725 1.725 0 0 0 550.808 64.603 Q 550.885 64.161 550.897 63.277 A 26.03 26.03 0 0 0 550.9 62.9 L 550.9 54.8 A 1.74 1.74 0 0 0 550.714 54.228 Q 550.469 53.748 549.918 53.206 A 7.676 7.676 0 0 0 549.7 53 Q 549.008 52.461 548.552 52.248 A 1.872 1.872 0 0 0 548.3 52.15 Q 547.892 52.028 546.617 52.005 A 35.123 35.123 0 0 0 546 52 L 528.5 52 A 6.306 6.306 0 0 1 525.819 51.376 Q 524.759 50.883 523.7 50 L 521.3 48 A 6.863 6.863 0 0 1 519.659 46.059 A 6.206 6.206 0 0 1 518.9 43 L 518.9 33 Q 518.9 30 521.3 28 L 523.7 26 A 10.298 10.298 0 0 1 525.387 24.841 Q 526.944 24 528.5 24 L 549.7 24 A 6.306 6.306 0 0 1 552.381 24.624 Q 553.441 25.117 554.5 26 L 556.9 28 A 6.863 6.863 0 0 1 558.541 29.941 A 6.206 6.206 0 0 1 559.3 33 L 559.3 37 L 550.9 37 L 550.9 35.1 A 23.588 23.588 0 0 0 550.893 34.494 Q 550.872 33.669 550.787 33.287 A 1.378 1.378 0 0 0 550.75 33.15 Q 550.601 32.702 549.707 32.005 A 9.749 9.749 0 0 0 549.7 32 Q 549.008 31.461 548.552 31.248 A 1.872 1.872 0 0 0 548.3 31.15 Q 547.892 31.028 546.617 31.005 A 35.123 35.123 0 0 0 546 31 L 532.2 31 A 34.966 34.966 0 0 0 531.571 31.005 Q 530.306 31.028 529.9 31.15 A 1.991 1.991 0 0 0 529.597 31.273 Q 529.154 31.491 528.5 32 Q 527.608 32.694 527.453 33.142 A 0.722 0.722 0 0 0 527.45 33.15 A 1.725 1.725 0 0 0 527.392 33.397 Q 527.315 33.839 527.303 34.723 A 26.03 26.03 0 0 0 527.3 35.1 L 527.3 40.9 A 23.588 23.588 0 0 0 527.307 41.506 Q 527.328 42.331 527.413 42.713 A 1.378 1.378 0 0 0 527.45 42.85 Q 527.599 43.298 528.493 43.995 A 9.749 9.749 0 0 0 528.5 44 Q 529.192 44.539 529.648 44.752 A 1.872 1.872 0 0 0 529.9 44.85 Q 530.308 44.972 531.583 44.995 A 35.123 35.123 0 0 0 532.2 45 Z M 404.1 28.9 L 404.1 24 L 407.6 24 A 20.501 20.501 0 0 1 408.381 24.014 Q 409.467 24.055 409.974 24.223 A 1.686 1.686 0 0 1 410.05 24.25 Q 410.7 24.5 411.9 25.5 A 7.163 7.163 0 0 1 412.6 26.144 Q 413.348 26.938 413.474 27.694 A 1.851 1.851 0 0 1 413.5 28 L 413.9 28 A 1.601 1.601 0 0 1 414.166 27.154 Q 414.665 26.348 416.1 25.5 A 41.766 41.766 0 0 1 416.832 25.062 Q 418.042 24.356 418.55 24.2 A 2.944 2.944 0 0 1 418.94 24.114 Q 419.575 24.011 420.744 24.001 A 30.189 30.189 0 0 1 421 24 L 438.7 24 A 6.306 6.306 0 0 1 441.381 24.624 Q 442.441 25.117 443.5 26 L 445.9 28 A 6.863 6.863 0 0 1 447.541 29.941 A 6.206 6.206 0 0 1 448.3 33 L 448.3 74 L 439.9 74 L 439.9 35.1 A 23.588 23.588 0 0 0 439.893 34.494 Q 439.872 33.669 439.787 33.287 A 1.378 1.378 0 0 0 439.75 33.15 Q 439.601 32.702 438.707 32.005 A 9.749 9.749 0 0 0 438.7 32 Q 438.008 31.461 437.552 31.248 A 1.872 1.872 0 0 0 437.3 31.15 Q 436.892 31.028 435.617 31.005 A 35.123 35.123 0 0 0 435 31 L 422.2 31 Q 420.4 31 419.75 31.2 A 3.211 3.211 0 0 0 419.411 31.331 Q 418.864 31.571 417.896 32.142 A 43.837 43.837 0 0 0 417.3 32.5 Q 415.837 33.394 415.365 33.891 A 1.247 1.247 0 0 0 415.2 34.1 Q 414.9 34.6 414.9 36.1 L 414.9 74 L 406.5 74 L 406.5 35.1 A 23.588 23.588 0 0 0 406.493 34.494 Q 406.472 33.669 406.387 33.287 A 1.378 1.378 0 0 0 406.35 33.15 Q 406.201 32.702 405.307 32.005 A 9.749 9.749 0 0 0 405.3 32 Q 404.408 31.306 404.253 30.858 A 0.722 0.722 0 0 1 404.25 30.85 A 1.725 1.725 0 0 1 404.192 30.603 Q 404.115 30.161 404.103 29.277 A 26.03 26.03 0 0 1 404.1 28.9 Z M 611.3 33 L 611.3 37 L 602.9 37 L 602.9 35.1 A 23.588 23.588 0 0 0 602.893 34.494 Q 602.872 33.669 602.787 33.287 A 1.378 1.378 0 0 0 602.75 33.15 Q 602.601 32.702 601.707 32.005 A 9.749 9.749 0 0 0 601.7 32 Q 601.008 31.461 600.552 31.248 A 1.872 1.872 0 0 0 600.3 31.15 Q 599.892 31.028 598.617 31.005 A 35.123 35.123 0 0 0 598 31 L 584.6 31 A 34.966 34.966 0 0 0 583.971 31.005 Q 582.706 31.028 582.3 31.15 A 1.991 1.991 0 0 0 581.997 31.273 Q 581.554 31.491 580.9 32 Q 580.008 32.694 579.853 33.142 A 0.722 0.722 0 0 0 579.85 33.15 A 1.725 1.725 0 0 0 579.792 33.397 Q 579.715 33.839 579.703 34.723 A 26.03 26.03 0 0 0 579.7 35.1 L 579.7 62.9 A 23.588 23.588 0 0 0 579.707 63.506 Q 579.728 64.331 579.813 64.713 A 1.378 1.378 0 0 0 579.85 64.85 Q 579.999 65.298 580.893 65.995 A 9.749 9.749 0 0 0 580.9 66 Q 581.592 66.539 582.048 66.752 A 1.872 1.872 0 0 0 582.3 66.85 Q 582.708 66.972 583.983 66.995 A 35.123 35.123 0 0 0 584.6 67 L 598 67 A 34.966 34.966 0 0 0 598.629 66.995 Q 599.894 66.972 600.3 66.85 A 1.991 1.991 0 0 0 600.603 66.727 Q 601.046 66.509 601.7 66 Q 602.592 65.306 602.747 64.858 A 0.722 0.722 0 0 0 602.75 64.85 A 1.725 1.725 0 0 0 602.808 64.603 Q 602.885 64.161 602.897 63.277 A 26.03 26.03 0 0 0 602.9 62.9 L 602.9 61 L 611.3 61 L 611.3 65 Q 611.3 68 608.9 70 L 606.5 72 A 10.298 10.298 0 0 1 604.813 73.159 Q 603.256 74 601.7 74 L 580.9 74 A 6.306 6.306 0 0 1 578.219 73.376 Q 577.159 72.883 576.1 72 L 573.7 70 A 6.863 6.863 0 0 1 572.059 68.059 A 6.206 6.206 0 0 1 571.3 65 L 571.3 33 Q 571.3 30 573.7 28 L 576.1 26 A 10.298 10.298 0 0 1 577.787 24.841 Q 579.344 24 580.9 24 L 601.7 24 A 6.306 6.306 0 0 1 604.381 24.624 Q 605.441 25.117 606.5 26 L 608.9 28 A 6.863 6.863 0 0 1 610.541 29.941 A 6.206 6.206 0 0 1 611.3 33 Z M 679.4 28.9 L 679.4 24 L 682.9 24 A 20.501 20.501 0 0 1 683.681 24.014 Q 684.767 24.055 685.274 24.223 A 1.686 1.686 0 0 1 685.35 24.25 Q 686 24.5 687.2 25.5 A 7.163 7.163 0 0 1 687.9 26.144 Q 688.648 26.938 688.774 27.694 A 1.851 1.851 0 0 1 688.8 28 L 689.2 28 A 1.601 1.601 0 0 1 689.466 27.154 Q 689.965 26.348 691.4 25.5 A 41.766 41.766 0 0 1 692.132 25.062 Q 693.342 24.356 693.85 24.2 A 2.944 2.944 0 0 1 694.24 24.114 Q 694.875 24.011 696.044 24.001 A 30.189 30.189 0 0 1 696.3 24 L 715.4 24 A 6.306 6.306 0 0 1 718.081 24.624 Q 719.141 25.117 720.2 26 L 722.6 28 A 6.863 6.863 0 0 1 724.241 29.941 A 6.206 6.206 0 0 1 725 33 L 725 65 Q 725 68 722.6 70 L 720.2 72 A 10.298 10.298 0 0 1 718.513 73.159 Q 716.956 74 715.4 74 L 697.8 74 A 6.648 6.648 0 0 1 693.982 72.779 A 9.051 9.051 0 0 1 693 72 A 41.996 41.996 0 0 1 692.188 71.167 Q 690.743 69.639 690.613 69.097 A 0.421 0.421 0 0 1 690.6 69 L 690.2 69 L 690.2 100 L 681.8 100 L 681.8 35.1 A 23.588 23.588 0 0 0 681.793 34.494 Q 681.772 33.669 681.687 33.287 A 1.378 1.378 0 0 0 681.65 33.15 Q 681.501 32.702 680.607 32.005 A 9.749 9.749 0 0 0 680.6 32 Q 679.708 31.306 679.553 30.858 A 0.722 0.722 0 0 1 679.55 30.85 A 1.725 1.725 0 0 1 679.492 30.603 Q 679.415 30.161 679.403 29.277 A 26.03 26.03 0 0 1 679.4 28.9 Z M 382.7 70 L 382.3 70 A 1.601 1.601 0 0 1 382.034 70.846 Q 381.535 71.652 380.1 72.5 A 41.766 41.766 0 0 1 379.368 72.938 Q 378.158 73.644 377.65 73.8 A 2.944 2.944 0 0 1 377.26 73.886 Q 376.625 73.989 375.456 73.999 A 30.189 30.189 0 0 1 375.2 74 L 358.1 74 A 6.306 6.306 0 0 1 355.419 73.376 Q 354.359 72.883 353.3 72 L 350.9 70 A 6.863 6.863 0 0 1 349.259 68.059 A 6.206 6.206 0 0 1 348.5 65 L 348.5 53 Q 348.5 50 350.9 48 L 353.3 46 A 10.298 10.298 0 0 1 354.987 44.841 Q 356.544 44 358.1 44 L 376 44 A 38.784 38.784 0 0 1 376.663 44.005 Q 377.994 44.028 378.4 44.15 Q 378.9 44.3 379.7 45 Q 380.384 45.57 380.678 46.139 A 1.861 1.861 0 0 1 380.9 47 L 381.3 47 L 381.3 35.1 A 23.588 23.588 0 0 0 381.293 34.494 Q 381.272 33.669 381.187 33.287 A 1.378 1.378 0 0 0 381.15 33.15 Q 381.001 32.702 380.107 32.005 A 9.749 9.749 0 0 0 380.1 32 Q 379.408 31.461 378.952 31.248 A 1.872 1.872 0 0 0 378.7 31.15 Q 378.292 31.028 377.017 31.005 A 35.123 35.123 0 0 0 376.4 31 L 360.2 31 A 20.501 20.501 0 0 0 359.419 31.014 Q 358.333 31.055 357.826 31.223 A 1.686 1.686 0 0 0 357.75 31.25 A 2.46 2.46 0 0 0 357.411 31.419 Q 356.706 31.828 355.3 33 L 349.3 28 L 351.7 26 A 38.273 38.273 0 0 1 352.432 25.404 Q 353.642 24.445 354.15 24.25 Q 354.778 24.009 356.478 24 A 25.07 25.07 0 0 1 356.6 24 L 380.1 24 A 6.306 6.306 0 0 1 382.781 24.624 Q 383.841 25.117 384.9 26 L 387.3 28 A 6.863 6.863 0 0 1 388.941 29.941 A 6.206 6.206 0 0 1 389.7 33 L 389.7 62.9 A 23.588 23.588 0 0 0 389.707 63.506 Q 389.728 64.331 389.813 64.713 A 1.378 1.378 0 0 0 389.85 64.85 Q 389.999 65.298 390.893 65.995 A 9.749 9.749 0 0 0 390.9 66 Q 391.792 66.694 391.947 67.142 A 0.722 0.722 0 0 1 391.95 67.15 A 1.725 1.725 0 0 1 392.008 67.397 Q 392.085 67.839 392.097 68.723 A 26.03 26.03 0 0 1 392.1 69.1 L 392.1 74 L 388.6 74 A 20.501 20.501 0 0 1 387.819 73.986 Q 386.733 73.945 386.226 73.777 A 1.686 1.686 0 0 1 386.15 73.75 Q 385.5 73.5 384.3 72.5 A 7.163 7.163 0 0 1 383.6 71.856 Q 382.852 71.062 382.726 70.306 A 1.851 1.851 0 0 1 382.7 70 Z M 658 70 L 657.6 70 A 1.601 1.601 0 0 1 657.334 70.846 Q 656.835 71.652 655.4 72.5 A 41.766 41.766 0 0 1 654.668 72.938 Q 653.458 73.644 652.95 73.8 A 2.944 2.944 0 0 1 652.56 73.886 Q 651.925 73.989 650.756 73.999 A 30.189 30.189 0 0 1 650.5 74 L 633.4 74 A 6.306 6.306 0 0 1 630.719 73.376 Q 629.659 72.883 628.6 72 L 626.2 70 A 6.863 6.863 0 0 1 624.559 68.059 A 6.206 6.206 0 0 1 623.8 65 L 623.8 53 Q 623.8 50 626.2 48 L 628.6 46 A 10.298 10.298 0 0 1 630.287 44.841 Q 631.844 44 633.4 44 L 651.3 44 A 38.784 38.784 0 0 1 651.963 44.005 Q 653.294 44.028 653.7 44.15 Q 654.2 44.3 655 45 Q 655.684 45.57 655.978 46.139 A 1.861 1.861 0 0 1 656.2 47 L 656.6 47 L 656.6 35.1 A 23.588 23.588 0 0 0 656.593 34.494 Q 656.572 33.669 656.487 33.287 A 1.378 1.378 0 0 0 656.45 33.15 Q 656.301 32.702 655.407 32.005 A 9.749 9.749 0 0 0 655.4 32 Q 654.708 31.461 654.252 31.248 A 1.872 1.872 0 0 0 654 31.15 Q 653.592 31.028 652.317 31.005 A 35.123 35.123 0 0 0 651.7 31 L 635.5 31 A 20.501 20.501 0 0 0 634.719 31.014 Q 633.633 31.055 633.126 31.223 A 1.686 1.686 0 0 0 633.05 31.25 A 2.46 2.46 0 0 0 632.711 31.419 Q 632.006 31.828 630.6 33 L 624.6 28 L 627 26 A 38.273 38.273 0 0 1 627.732 25.404 Q 628.942 24.445 629.45 24.25 Q 630.078 24.009 631.778 24 A 25.07 25.07 0 0 1 631.9 24 L 655.4 24 A 6.306 6.306 0 0 1 658.081 24.624 Q 659.141 25.117 660.2 26 L 662.6 28 A 6.863 6.863 0 0 1 664.241 29.941 A 6.206 6.206 0 0 1 665 33 L 665 62.9 A 23.588 23.588 0 0 0 665.007 63.506 Q 665.028 64.331 665.113 64.713 A 1.378 1.378 0 0 0 665.15 64.85 Q 665.299 65.298 666.193 65.995 A 9.749 9.749 0 0 0 666.2 66 Q 667.092 66.694 667.247 67.142 A 0.722 0.722 0 0 1 667.25 67.15 A 1.725 1.725 0 0 1 667.308 67.397 Q 667.385 67.839 667.397 68.723 A 26.03 26.03 0 0 1 667.4 69.1 L 667.4 74 L 663.9 74 A 20.501 20.501 0 0 1 663.119 73.986 Q 662.033 73.945 661.526 73.777 A 1.686 1.686 0 0 1 661.45 73.75 Q 660.8 73.5 659.6 72.5 A 7.163 7.163 0 0 1 658.9 71.856 Q 658.152 71.062 658.026 70.306 A 1.851 1.851 0 0 1 658 70 Z M 489 74 L 469.9 74 A 6.306 6.306 0 0 1 467.219 73.376 Q 466.159 72.883 465.1 72 L 462.7 70 A 6.863 6.863 0 0 1 461.059 68.059 A 6.206 6.206 0 0 1 460.3 65 L 460.3 33 Q 460.3 30 462.7 28 L 465.1 26 A 10.298 10.298 0 0 1 466.787 24.841 Q 468.344 24 469.9 24 L 487.5 24 A 6.306 6.306 0 0 1 490.181 24.624 Q 491.241 25.117 492.3 26 A 41.996 41.996 0 0 1 493.112 26.833 Q 494.557 28.361 494.687 28.903 A 0.421 0.421 0 0 1 494.7 29 L 495.1 29 L 495.1 0 L 503.5 0 L 503.5 62.9 A 23.588 23.588 0 0 0 503.507 63.506 Q 503.528 64.331 503.613 64.713 A 1.378 1.378 0 0 0 503.65 64.85 Q 503.799 65.298 504.693 65.995 A 9.749 9.749 0 0 0 504.7 66 Q 505.592 66.694 505.747 67.142 A 0.722 0.722 0 0 1 505.75 67.15 A 1.725 1.725 0 0 1 505.808 67.397 Q 505.885 67.839 505.897 68.723 A 26.03 26.03 0 0 1 505.9 69.1 L 505.9 74 L 502.4 74 A 20.501 20.501 0 0 1 501.619 73.986 Q 500.533 73.945 500.026 73.777 A 1.686 1.686 0 0 1 499.95 73.75 Q 499.3 73.5 498.1 72.5 A 7.163 7.163 0 0 1 497.4 71.856 Q 496.652 71.062 496.526 70.306 A 1.851 1.851 0 0 1 496.5 70 L 496.1 70 A 1.601 1.601 0 0 1 495.834 70.846 Q 495.335 71.652 493.9 72.5 A 41.766 41.766 0 0 1 493.168 72.938 Q 491.958 73.644 491.45 73.8 A 2.944 2.944 0 0 1 491.06 73.886 Q 490.425 73.989 489.256 73.999 A 30.189 30.189 0 0 1 489 74 Z M 135.3 65 L 141.3 70 L 138.9 72 A 38.273 38.273 0 0 1 138.168 72.596 Q 136.958 73.555 136.45 73.75 Q 135.822 73.991 134.122 74 A 25.07 25.07 0 0 1 134 74 L 107.3 74 A 6.306 6.306 0 0 1 104.619 73.376 Q 103.559 72.883 102.5 72 L 100.1 70 A 6.863 6.863 0 0 1 98.459 68.059 A 6.206 6.206 0 0 1 97.7 65 L 97.7 33 Q 97.7 30 100.1 28 L 102.5 26 A 10.298 10.298 0 0 1 104.187 24.841 Q 105.744 24 107.3 24 L 130.6 24 A 5.122 5.122 0 0 1 132.105 24.247 Q 133.437 24.658 135.042 25.75 A 19.349 19.349 0 0 1 135.4 26 L 137.9 28 Q 140.3 29.8 140.3 33 L 140.3 53.5 L 106.1 53.5 L 106.1 62.9 A 23.588 23.588 0 0 0 106.107 63.506 Q 106.128 64.331 106.213 64.713 A 1.378 1.378 0 0 0 106.25 64.85 Q 106.399 65.298 107.293 65.995 A 9.749 9.749 0 0 0 107.3 66 Q 107.992 66.539 108.448 66.752 A 1.872 1.872 0 0 0 108.7 66.85 Q 109.108 66.972 110.383 66.995 A 35.123 35.123 0 0 0 111 67 L 130.4 67 A 20.501 20.501 0 0 0 131.181 66.986 Q 132.267 66.945 132.774 66.777 A 1.686 1.686 0 0 0 132.85 66.75 A 2.46 2.46 0 0 0 133.189 66.581 Q 133.894 66.172 135.3 65 Z M 774.6 65 L 780.6 70 L 778.2 72 A 38.273 38.273 0 0 1 777.468 72.596 Q 776.258 73.555 775.75 73.75 Q 775.122 73.991 773.422 74 A 25.07 25.07 0 0 1 773.3 74 L 746.6 74 A 6.306 6.306 0 0 1 743.919 73.376 Q 742.859 72.883 741.8 72 L 739.4 70 A 6.863 6.863 0 0 1 737.759 68.059 A 6.206 6.206 0 0 1 737 65 L 737 33 Q 737 30 739.4 28 L 741.8 26 A 10.298 10.298 0 0 1 743.487 24.841 Q 745.044 24 746.6 24 L 769.9 24 A 5.122 5.122 0 0 1 771.405 24.247 Q 772.737 24.658 774.342 25.75 A 19.349 19.349 0 0 1 774.7 26 L 777.2 28 Q 779.6 29.8 779.6 33 L 779.6 53.5 L 745.4 53.5 L 745.4 62.9 A 23.588 23.588 0 0 0 745.407 63.506 Q 745.428 64.331 745.513 64.713 A 1.378 1.378 0 0 0 745.55 64.85 Q 745.699 65.298 746.593 65.995 A 9.749 9.749 0 0 0 746.6 66 Q 747.292 66.539 747.748 66.752 A 1.872 1.872 0 0 0 748 66.85 Q 748.408 66.972 749.683 66.995 A 35.123 35.123 0 0 0 750.3 67 L 769.7 67 A 20.501 20.501 0 0 0 770.481 66.986 Q 771.567 66.945 772.074 66.777 A 1.686 1.686 0 0 0 772.15 66.75 A 2.46 2.46 0 0 0 772.489 66.581 Q 773.194 66.172 774.6 65 Z M 152.3 0 L 160.7 0 L 160.7 28.7 L 161.1 28.7 Q 161.1 27.918 162.759 26.383 A 21.1 21.1 0 0 1 163.3 25.9 Q 165.143 24.308 166.565 24.05 A 2.992 2.992 0 0 1 167.1 24 L 185.9 24 A 6.306 6.306 0 0 1 188.581 24.624 Q 189.641 25.117 190.7 26 L 193.1 28 A 6.863 6.863 0 0 1 194.741 29.941 A 6.206 6.206 0 0 1 195.5 33 L 195.5 65 Q 195.5 68 193.1 70 L 190.7 72 A 10.298 10.298 0 0 1 189.013 73.159 Q 187.456 74 185.9 74 L 167.2 74 Q 165.4 74 164.75 73.8 A 3.211 3.211 0 0 1 164.411 73.669 Q 163.864 73.429 162.896 72.858 A 43.837 43.837 0 0 1 162.3 72.5 A 10.554 10.554 0 0 1 161.413 72.027 Q 159.979 71.164 159.9 70.3 L 159.5 70.3 L 159.5 74 L 152.3 74 L 152.3 0 Z M 307.3 67 L 342.1 67 L 342.1 74 L 298.9 74 L 298.9 4 L 307.3 4 L 307.3 67 Z M 187.1 62.9 L 187.1 35.1 A 23.588 23.588 0 0 0 187.093 34.494 Q 187.072 33.669 186.987 33.287 A 1.378 1.378 0 0 0 186.95 33.15 Q 186.801 32.702 185.907 32.005 A 9.749 9.749 0 0 0 185.9 32 Q 185.208 31.461 184.752 31.248 A 1.872 1.872 0 0 0 184.5 31.15 Q 184.092 31.028 182.817 31.005 A 35.123 35.123 0 0 0 182.2 31 L 168.1 31 A 28.819 28.819 0 0 0 167.329 31.01 Q 166.058 31.044 165.55 31.2 A 3.211 3.211 0 0 0 165.211 31.331 Q 164.664 31.571 163.696 32.142 A 43.837 43.837 0 0 0 163.1 32.5 Q 161.637 33.394 161.165 33.891 A 1.247 1.247 0 0 0 161 34.1 Q 160.7 34.6 160.7 36.1 L 160.7 61.9 Q 160.7 63.4 161 63.9 Q 161.3 64.4 163.1 65.5 A 41.766 41.766 0 0 0 163.832 65.938 Q 165.042 66.644 165.55 66.8 A 2.944 2.944 0 0 0 165.94 66.886 Q 166.575 66.989 167.744 66.999 A 30.189 30.189 0 0 0 168 67 L 182.2 67 A 34.966 34.966 0 0 0 182.829 66.995 Q 184.094 66.972 184.5 66.85 A 1.991 1.991 0 0 0 184.803 66.727 Q 185.246 66.509 185.9 66 Q 186.792 65.306 186.947 64.858 A 0.722 0.722 0 0 0 186.95 64.85 A 1.725 1.725 0 0 0 187.008 64.603 Q 187.085 64.161 187.097 63.277 A 26.03 26.03 0 0 0 187.1 62.9 Z M 697.4 67 L 711.7 67 A 34.966 34.966 0 0 0 712.329 66.995 Q 713.594 66.972 714 66.85 A 1.991 1.991 0 0 0 714.303 66.727 Q 714.746 66.509 715.4 66 Q 716.292 65.306 716.447 64.858 A 0.722 0.722 0 0 0 716.45 64.85 A 1.725 1.725 0 0 0 716.508 64.603 Q 716.585 64.161 716.597 63.277 A 26.03 26.03 0 0 0 716.6 62.9 L 716.6 35.1 A 23.588 23.588 0 0 0 716.593 34.494 Q 716.572 33.669 716.487 33.287 A 1.378 1.378 0 0 0 716.45 33.15 Q 716.301 32.702 715.407 32.005 A 9.749 9.749 0 0 0 715.4 32 Q 714.708 31.461 714.252 31.248 A 1.872 1.872 0 0 0 714 31.15 Q 713.592 31.028 712.317 31.005 A 35.123 35.123 0 0 0 711.7 31 L 697.5 31 Q 695.7 31 695.05 31.2 A 3.211 3.211 0 0 0 694.711 31.331 Q 694.164 31.571 693.196 32.142 A 43.837 43.837 0 0 0 692.6 32.5 Q 691.137 33.394 690.665 33.891 A 1.247 1.247 0 0 0 690.5 34.1 Q 690.2 34.6 690.2 36.1 L 690.2 61 A 3.761 3.761 0 0 0 690.689 62.805 Q 691.014 63.405 691.555 64.005 A 10.173 10.173 0 0 0 692.6 65 A 10.298 10.298 0 0 0 694.287 66.159 Q 695.844 67 697.4 67 Z M 487.9 31 L 473.6 31 A 34.966 34.966 0 0 0 472.971 31.005 Q 471.706 31.028 471.3 31.15 A 1.991 1.991 0 0 0 470.997 31.273 Q 470.554 31.491 469.9 32 Q 469.008 32.694 468.853 33.142 A 0.722 0.722 0 0 0 468.85 33.15 A 1.725 1.725 0 0 0 468.792 33.397 Q 468.715 33.839 468.703 34.723 A 26.03 26.03 0 0 0 468.7 35.1 L 468.7 62.9 A 23.588 23.588 0 0 0 468.707 63.506 Q 468.728 64.331 468.813 64.713 A 1.378 1.378 0 0 0 468.85 64.85 Q 468.999 65.298 469.893 65.995 A 9.749 9.749 0 0 0 469.9 66 Q 470.592 66.539 471.048 66.752 A 1.872 1.872 0 0 0 471.3 66.85 Q 471.708 66.972 472.983 66.995 A 35.123 35.123 0 0 0 473.6 67 L 487.8 67 Q 489.6 67 490.25 66.8 A 3.211 3.211 0 0 0 490.589 66.669 Q 491.136 66.429 492.104 65.858 A 43.837 43.837 0 0 0 492.7 65.5 Q 494.163 64.606 494.635 64.109 A 1.247 1.247 0 0 0 494.8 63.9 Q 495.1 63.4 495.1 61.9 L 495.1 37 A 3.761 3.761 0 0 0 494.611 35.195 Q 494.286 34.595 493.745 33.995 A 10.173 10.173 0 0 0 492.7 33 A 10.298 10.298 0 0 0 491.013 31.841 Q 489.456 31 487.9 31 Z M 106.1 47 L 131.9 47 L 131.9 35.1 A 23.588 23.588 0 0 0 131.893 34.494 Q 131.872 33.669 131.787 33.287 A 1.378 1.378 0 0 0 131.75 33.15 Q 131.601 32.702 130.707 32.005 A 9.749 9.749 0 0 0 130.7 32 Q 130.008 31.461 129.552 31.248 A 1.872 1.872 0 0 0 129.3 31.15 Q 128.892 31.028 127.617 31.005 A 35.123 35.123 0 0 0 127 31 L 111 31 A 34.966 34.966 0 0 0 110.371 31.005 Q 109.106 31.028 108.7 31.15 A 1.991 1.991 0 0 0 108.397 31.273 Q 107.954 31.491 107.3 32 Q 106.408 32.694 106.253 33.142 A 0.722 0.722 0 0 0 106.25 33.15 A 1.725 1.725 0 0 0 106.192 33.397 Q 106.115 33.839 106.103 34.723 A 26.03 26.03 0 0 0 106.1 35.1 L 106.1 47 Z M 745.4 47 L 771.2 47 L 771.2 35.1 A 23.588 23.588 0 0 0 771.193 34.494 Q 771.172 33.669 771.087 33.287 A 1.378 1.378 0 0 0 771.05 33.15 Q 770.901 32.702 770.007 32.005 A 9.749 9.749 0 0 0 770 32 Q 769.308 31.461 768.852 31.248 A 1.872 1.872 0 0 0 768.6 31.15 Q 768.192 31.028 766.917 31.005 A 35.123 35.123 0 0 0 766.3 31 L 750.3 31 A 34.966 34.966 0 0 0 749.671 31.005 Q 748.406 31.028 748 31.15 A 1.991 1.991 0 0 0 747.697 31.273 Q 747.254 31.491 746.6 32 Q 745.708 32.694 745.553 33.142 A 0.722 0.722 0 0 0 745.55 33.15 A 1.725 1.725 0 0 0 745.492 33.397 Q 745.415 33.839 745.403 34.723 A 26.03 26.03 0 0 0 745.4 35.1 L 745.4 47 Z M 356.9 55.1 L 356.9 62.9 A 23.588 23.588 0 0 0 356.907 63.506 Q 356.928 64.331 357.013 64.713 A 1.378 1.378 0 0 0 357.05 64.85 Q 357.199 65.298 358.093 65.995 A 9.749 9.749 0 0 0 358.1 66 Q 358.792 66.539 359.248 66.752 A 1.872 1.872 0 0 0 359.5 66.85 Q 359.908 66.972 361.183 66.995 A 35.123 35.123 0 0 0 361.8 67 L 374 67 Q 375.8 67 376.45 66.8 A 3.211 3.211 0 0 0 376.789 66.669 Q 377.336 66.429 378.304 65.858 A 43.837 43.837 0 0 0 378.9 65.5 Q 380.363 64.606 380.835 64.109 A 1.247 1.247 0 0 0 381 63.9 Q 381.3 63.4 381.3 61.9 L 381.3 55.1 A 23.588 23.588 0 0 0 381.293 54.494 Q 381.272 53.669 381.187 53.287 A 1.378 1.378 0 0 0 381.15 53.15 Q 381.001 52.702 380.107 52.005 A 9.749 9.749 0 0 0 380.1 52 Q 379.408 51.461 378.952 51.248 A 1.872 1.872 0 0 0 378.7 51.15 Q 378.292 51.028 377.017 51.005 A 35.123 35.123 0 0 0 376.4 51 L 361.8 51 A 34.966 34.966 0 0 0 361.171 51.005 Q 359.906 51.028 359.5 51.15 A 1.991 1.991 0 0 0 359.197 51.273 Q 358.754 51.491 358.1 52 Q 357.208 52.694 357.053 53.142 A 0.722 0.722 0 0 0 357.05 53.15 A 1.725 1.725 0 0 0 356.992 53.397 Q 356.915 53.839 356.903 54.723 A 26.03 26.03 0 0 0 356.9 55.1 Z M 632.2 55.1 L 632.2 62.9 A 23.588 23.588 0 0 0 632.207 63.506 Q 632.228 64.331 632.313 64.713 A 1.378 1.378 0 0 0 632.35 64.85 Q 632.499 65.298 633.393 65.995 A 9.749 9.749 0 0 0 633.4 66 Q 634.092 66.539 634.548 66.752 A 1.872 1.872 0 0 0 634.8 66.85 Q 635.208 66.972 636.483 66.995 A 35.123 35.123 0 0 0 637.1 67 L 649.3 67 Q 651.1 67 651.75 66.8 A 3.211 3.211 0 0 0 652.089 66.669 Q 652.636 66.429 653.604 65.858 A 43.837 43.837 0 0 0 654.2 65.5 Q 655.663 64.606 656.135 64.109 A 1.247 1.247 0 0 0 656.3 63.9 Q 656.6 63.4 656.6 61.9 L 656.6 55.1 A 23.588 23.588 0 0 0 656.593 54.494 Q 656.572 53.669 656.487 53.287 A 1.378 1.378 0 0 0 656.45 53.15 Q 656.301 52.702 655.407 52.005 A 9.749 9.749 0 0 0 655.4 52 Q 654.708 51.461 654.252 51.248 A 1.872 1.872 0 0 0 654 51.15 Q 653.592 51.028 652.317 51.005 A 35.123 35.123 0 0 0 651.7 51 L 637.1 51 A 34.966 34.966 0 0 0 636.471 51.005 Q 635.206 51.028 634.8 51.15 A 1.991 1.991 0 0 0 634.497 51.273 Q 634.054 51.491 633.4 52 Q 632.508 52.694 632.353 53.142 A 0.722 0.722 0 0 0 632.35 53.15 A 1.725 1.725 0 0 0 632.292 53.397 Q 632.215 53.839 632.203 54.723 A 26.03 26.03 0 0 0 632.2 55.1 Z" vector-effect="non-scaling-stroke"/></g></svg>