<svg width="255.4" height="74" viewBox="0 0 255.4 74" xmlns="http://www.w3.org/2000/svg"><g id="svgGroup" stroke-linecap="round" fill-rule="evenodd" font-size="9pt" stroke="#000" stroke-width="0.25mm" fill="black" style="stroke:#000;stroke-width:0.25mm;fill:black"><path d="M 72.4 74 L 60.9 74 L 46.3 13.8 L 45.8 11.3 L 45.4 11.3 L 44.9 13.8 L 30.6 74 L 18.8 74 L 0 4 L 8.9 4 L 23.9 65.6 L 24.4 68.1 L 24.9 68.1 L 25.3 65.6 L 40.1 4 L 51.2 4 L 66.4 65.6 L 67 68.1 L 67.4 68.1 L 67.8 65.6 L 82.3 4 L 91.2 4 L 72.4 74 Z M 249.5 38.6 L 253.4 41.8 A 18.564 18.564 0 0 1 253.996 42.296 Q 254.833 43.025 255.088 43.475 A 1.156 1.156 0 0 1 255.15 43.6 Q 255.353 44.087 255.391 45.763 A 36.975 36.975 0 0 1 255.4 46.6 L 255.4 65 Q 255.4 67 255.05 67.8 A 3.821 3.821 0 0 1 254.786 68.29 Q 254.466 68.801 253.895 69.459 A 18.989 18.989 0 0 1 253.5 69.9 L 251.7 71.7 A 9.948 9.948 0 0 1 250.216 72.937 Q 248.631 74 247 74 L 218.6 74 A 6.306 6.306 0 0 1 215.919 73.376 Q 214.859 72.883 213.8 72 L 211.4 70 A 6.863 6.863 0 0 1 209.759 68.059 A 6.206 6.206 0 0 1 209 65 L 209 61 L 217.4 61 L 217.4 62.9 A 23.588 23.588 0 0 0 217.407 63.506 Q 217.428 64.331 217.513 64.713 A 1.378 1.378 0 0 0 217.55 64.85 Q 217.699 65.298 218.593 65.995 A 9.749 9.749 0 0 0 218.6 66 Q 219.292 66.539 219.748 66.752 A 1.872 1.872 0 0 0 220 66.85 Q 220.408 66.972 221.683 66.995 A 35.123 35.123 0 0 0 222.3 67 L 242.1 67 A 34.966 34.966 0 0 0 242.729 66.995 Q 243.994 66.972 244.4 66.85 A 1.991 1.991 0 0 0 244.703 66.727 Q 245.146 66.509 245.8 66 Q 246.692 65.306 246.847 64.858 A 0.722 0.722 0 0 0 246.85 64.85 A 1.725 1.725 0 0 0 246.908 64.603 Q 246.985 64.161 246.997 63.277 A 26.03 26.03 0 0 0 247 62.9 L 247 47.8 A 4.82 4.82 0 0 0 245.547 44.331 A 6.655 6.655 0 0 0 245.2 44 L 243.7 42.7 Q 242.2 41.4 241.6 41.2 Q 241 41 239.1 41 L 223.1 41 L 223.1 34.6 L 237.7 34.6 A 28.548 28.548 0 0 0 238.469 34.59 Q 239.563 34.561 240.061 34.44 A 1.757 1.757 0 0 0 240.2 34.4 A 1.878 1.878 0 0 0 240.506 34.26 Q 241.023 33.974 241.921 33.223 A 28.24 28.24 0 0 0 242.3 32.9 L 243.8 31.7 Q 245.3 30.5 245.55 29.95 Q 245.768 29.471 245.796 27.969 A 25.068 25.068 0 0 0 245.8 27.5 L 245.8 15.1 A 23.588 23.588 0 0 0 245.793 14.494 Q 245.772 13.669 245.687 13.287 A 1.378 1.378 0 0 0 245.65 13.15 Q 245.501 12.702 244.607 12.005 A 9.749 9.749 0 0 0 244.6 12 Q 243.908 11.461 243.452 11.248 A 1.872 1.872 0 0 0 243.2 11.15 Q 242.792 11.028 241.517 11.005 A 35.123 35.123 0 0 0 240.9 11 L 224.4 11 A 38.784 38.784 0 0 0 223.737 11.005 Q 222.406 11.028 222 11.15 A 1.991 1.991 0 0 0 221.697 11.273 Q 221.254 11.491 220.6 12 Q 219.708 12.694 219.553 13.142 A 0.722 0.722 0 0 0 219.55 13.15 A 1.725 1.725 0 0 0 219.492 13.397 Q 219.415 13.839 219.403 14.723 A 26.03 26.03 0 0 0 219.4 15.1 L 219.4 17 L 211 17 L 211 13 Q 211 10 213.4 8 L 215.8 6 A 10.298 10.298 0 0 1 217.487 4.841 Q 219.044 4 220.6 4 L 244.6 4 A 6.306 6.306 0 0 1 247.281 4.624 Q 248.341 5.117 249.4 6 L 251.8 8 A 6.863 6.863 0 0 1 253.441 9.941 A 6.206 6.206 0 0 1 254.2 13 L 254.2 29.4 A 18.146 18.146 0 0 1 254.188 30.086 Q 254.145 31.209 253.95 31.6 A 1.508 1.508 0 0 1 253.775 31.862 Q 253.395 32.334 252.4 33.1 L 249.5 35.5 A 8.895 8.895 0 0 1 248.643 36.121 Q 247.697 36.718 246.912 36.79 A 2.322 2.322 0 0 1 246.7 36.8 L 246.7 37.3 A 2.787 2.787 0 0 1 247.614 37.468 Q 248.389 37.737 249.297 38.439 A 10.655 10.655 0 0 1 249.5 38.6 Z M 135.3 65 L 141.3 70 L 138.9 72 A 38.273 38.273 0 0 1 138.168 72.596 Q 136.958 73.555 136.45 73.75 Q 135.822 73.991 134.122 74 A 25.07 25.07 0 0 1 134 74 L 107.3 74 A 6.306 6.306 0 0 1 104.619 73.376 Q 103.559 72.883 102.5 72 L 100.1 70 A 6.863 6.863 0 0 1 98.459 68.059 A 6.206 6.206 0 0 1 97.7 65 L 97.7 33 Q 97.7 30 100.1 28 L 102.5 26 A 10.298 10.298 0 0 1 104.187 24.841 Q 105.744 24 107.3 24 L 130.6 24 A 5.122 5.122 0 0 1 132.105 24.247 Q 133.437 24.658 135.042 25.75 A 19.349 19.349 0 0 1 135.4 26 L 137.9 28 Q 140.3 29.8 140.3 33 L 140.3 53.5 L 106.1 53.5 L 106.1 62.9 A 23.588 23.588 0 0 0 106.107 63.506 Q 106.128 64.331 106.213 64.713 A 1.378 1.378 0 0 0 106.25 64.85 Q 106.399 65.298 107.293 65.995 A 9.749 9.749 0 0 0 107.3 66 Q 107.992 66.539 108.448 66.752 A 1.872 1.872 0 0 0 108.7 66.85 Q 109.108 66.972 110.383 66.995 A 35.123 35.123 0 0 0 111 67 L 130.4 67 A 20.501 20.501 0 0 0 131.181 66.986 Q 132.267 66.945 132.774 66.777 A 1.686 1.686 0 0 0 132.85 66.75 A 2.46 2.46 0 0 0 133.189 66.581 Q 133.894 66.172 135.3 65 Z M 152.3 0 L 160.7 0 L 160.7 28.7 L 161.1 28.7 Q 161.1 27.918 162.759 26.383 A 21.1 21.1 0 0 1 163.3 25.9 Q 165.143 24.308 166.565 24.05 A 2.992 2.992 0 0 1 167.1 24 L 185.9 24 A 6.306 6.306 0 0 1 188.581 24.624 Q 189.641 25.117 190.7 26 L 193.1 28 A 6.863 6.863 0 0 1 194.741 29.941 A 6.206 6.206 0 0 1 195.5 33 L 195.5 65 Q 195.5 68 193.1 70 L 190.7 72 A 10.298 10.298 0 0 1 189.013 73.159 Q 187.456 74 185.9 74 L 167.2 74 Q 165.4 74 164.75 73.8 A 3.211 3.211 0 0 1 164.411 73.669 Q 163.864 73.429 162.896 72.858 A 43.837 43.837 0 0 1 162.3 72.5 A 10.554 10.554 0 0 1 161.413 72.027 Q 159.979 71.164 159.9 70.3 L 159.5 70.3 L 159.5 74 L 152.3 74 L 152.3 0 Z M 187.1 62.9 L 187.1 35.1 A 23.588 23.588 0 0 0 187.093 34.494 Q 187.072 33.669 186.987 33.287 A 1.378 1.378 0 0 0 186.95 33.15 Q 186.801 32.702 185.907 32.005 A 9.749 9.749 0 0 0 185.9 32 Q 185.208 31.461 184.752 31.248 A 1.872 1.872 0 0 0 184.5 31.15 Q 184.092 31.028 182.817 31.005 A 35.123 35.123 0 0 0 182.2 31 L 168.1 31 A 28.819 28.819 0 0 0 167.329 31.01 Q 166.058 31.044 165.55 31.2 A 3.211 3.211 0 0 0 165.211 31.331 Q 164.664 31.571 163.696 32.142 A 43.837 43.837 0 0 0 163.1 32.5 Q 161.637 33.394 161.165 33.891 A 1.247 1.247 0 0 0 161 34.1 Q 160.7 34.6 160.7 36.1 L 160.7 61.9 Q 160.7 63.4 161 63.9 Q 161.3 64.4 163.1 65.5 A 41.766 41.766 0 0 0 163.832 65.938 Q 165.042 66.644 165.55 66.8 A 2.944 2.944 0 0 0 165.94 66.886 Q 166.575 66.989 167.744 66.999 A 30.189 30.189 0 0 0 168 67 L 182.2 67 A 34.966 34.966 0 0 0 182.829 66.995 Q 184.094 66.972 184.5 66.85 A 1.991 1.991 0 0 0 184.803 66.727 Q 185.246 66.509 185.9 66 Q 186.792 65.306 186.947 64.858 A 0.722 0.722 0 0 0 186.95 64.85 A 1.725 1.725 0 0 0 187.008 64.603 Q 187.085 64.161 187.097 63.277 A 26.03 26.03 0 0 0 187.1 62.9 Z M 106.1 47 L 131.9 47 L 131.9 35.1 A 23.588 23.588 0 0 0 131.893 34.494 Q 131.872 33.669 131.787 33.287 A 1.378 1.378 0 0 0 131.75 33.15 Q 131.601 32.702 130.707 32.005 A 9.749 9.749 0 0 0 130.7 32 Q 130.008 31.461 129.552 31.248 A 1.872 1.872 0 0 0 129.3 31.15 Q 128.892 31.028 127.617 31.005 A 35.123 35.123 0 0 0 127 31 L 111 31 A 34.966 34.966 0 0 0 110.371 31.005 Q 109.106 31.028 108.7 31.15 A 1.991 1.991 0 0 0 108.397 31.273 Q 107.954 31.491 107.3 32 Q 106.408 32.694 106.253 33.142 A 0.722 0.722 0 0 0 106.25 33.15 A 1.725 1.725 0 0 0 106.192 33.397 Q 106.115 33.839 106.103 34.723 A 26.03 26.03 0 0 0 106.1 35.1 L 106.1 47 Z" vector-effect="non-scaling-stroke"/></g></svg>